solid OpenSCAD_Model
  facet normal 1 0 0
    outer loop
      vertex 35 5 -16.5
      vertex 35 17.5 0
      vertex 35 5 -7.5
    endloop
  endfacet
  facet normal 1 0 0
    outer loop
      vertex 35 17.5 0
      vertex 35 -5 -7.5
      vertex 35 5 -7.5
    endloop
  endfacet
  facet normal 1 0 0
    outer loop
      vertex 35 -5 -7.5
      vertex 35 -17 -1
      vertex 35 -5 -16.5
    endloop
  endfacet
  facet normal 1 -0 0
    outer loop
      vertex 35 -17.5 0
      vertex 35 -5 -7.5
      vertex 35 17.5 0
    endloop
  endfacet
  facet normal 1 0 0
    outer loop
      vertex 35 -5 -7.5
      vertex 35 -17.5 0
      vertex 35 -17 -1
    endloop
  endfacet
  facet normal 1 0 0
    outer loop
      vertex 35 -17 -1
      vertex 35 -17.5 0
      vertex 35 -17.5 -1
    endloop
  endfacet
  facet normal 1 0 0
    outer loop
      vertex 35 17.5 0
      vertex 35 5 -16.5
      vertex 35 17.5 -25
    endloop
  endfacet
  facet normal 1 0 0
    outer loop
      vertex 35 -17 -25
      vertex 35 5 -16.5
      vertex 35 -5 -16.5
    endloop
  endfacet
  facet normal 1 0 0
    outer loop
      vertex 35 5 -16.5
      vertex 35 -17 -25
      vertex 35 17.5 -25
    endloop
  endfacet
  facet normal 1 0 0
    outer loop
      vertex 35 -17 -25
      vertex 35 -5 -16.5
      vertex 35 -17 -1
    endloop
  endfacet
  facet normal 0 0 -1
    outer loop
      vertex -35 -17 -25
      vertex 35 17.5 -25
      vertex 35 -17 -25
    endloop
  endfacet
  facet normal -0 0 -1
    outer loop
      vertex 35 17.5 -25
      vertex -35 -17 -25
      vertex -35 17.5 -25
    endloop
  endfacet
  facet normal -1 0 0
    outer loop
      vertex -35 -17 -25
      vertex -35 17.5 -20
      vertex -35 17.5 -25
    endloop
  endfacet
  facet normal -1 -0 0
    outer loop
      vertex -35 17.5 -20
      vertex -35 -17 -25
      vertex -35 17.5 -10
    endloop
  endfacet
  facet normal -1 -0 0
    outer loop
      vertex -35 17.5 -10
      vertex -35 -17 -25
      vertex -35 -17 -1
    endloop
  endfacet
  facet normal -1 0 0
    outer loop
      vertex -35 17.5 -10
      vertex -35 -17 -1
      vertex -35 17.5 0
    endloop
  endfacet
  facet normal -1 0 0
    outer loop
      vertex -35 -17.5 0
      vertex -35 -17 -1
      vertex -35 -17.5 -1
    endloop
  endfacet
  facet normal -1 0 0
    outer loop
      vertex -35 -17 -1
      vertex -35 -17.5 0
      vertex -35 17.5 0
    endloop
  endfacet
  facet normal -1 0 0
    outer loop
      vertex -35 17.5 -20
      vertex -35 20 -10
      vertex -35 20 -20
    endloop
  endfacet
  facet normal -1 -0 0
    outer loop
      vertex -35 20 -10
      vertex -35 17.5 -20
      vertex -35 17.5 -10
    endloop
  endfacet
  facet normal 0 1 0
    outer loop
      vertex 35 17.5 0
      vertex -32 17.5 -10
      vertex -35 17.5 0
    endloop
  endfacet
  facet normal 0 1 -0
    outer loop
      vertex 35 17.5 -25
      vertex -32 17.5 -10
      vertex 35 17.5 0
    endloop
  endfacet
  facet normal 0 1 0
    outer loop
      vertex -32 17.5 -10
      vertex 35 17.5 -25
      vertex -32 17.5 -20
    endloop
  endfacet
  facet normal 0 1 0
    outer loop
      vertex -35 17.5 -25
      vertex -32 17.5 -20
      vertex 35 17.5 -25
    endloop
  endfacet
  facet normal 0 1 0
    outer loop
      vertex -32 17.5 -20
      vertex -35 17.5 -25
      vertex -35 17.5 -20
    endloop
  endfacet
  facet normal 0 1 0
    outer loop
      vertex -35 17.5 0
      vertex -32 17.5 -10
      vertex -35 17.5 -10
    endloop
  endfacet
  facet normal 0 -1 0
    outer loop
      vertex -35 -17.5 -1
      vertex 35 -17.5 0
      vertex -35 -17.5 0
    endloop
  endfacet
  facet normal 0 -1 -0
    outer loop
      vertex 35 -17.5 0
      vertex -35 -17.5 -1
      vertex 35 -17.5 -1
    endloop
  endfacet
  facet normal -0 0 1
    outer loop
      vertex -35 17.5 0
      vertex 35 -17.5 0
      vertex 35 17.5 0
    endloop
  endfacet
  facet normal 0 0 1
    outer loop
      vertex 35 -17.5 0
      vertex -35 17.5 0
      vertex -35 -17.5 0
    endloop
  endfacet
  facet normal 1 -0 0
    outer loop
      vertex -32 17.5 -10
      vertex -32 20 -20
      vertex -32 20 -10
    endloop
  endfacet
  facet normal 1 0 0
    outer loop
      vertex -32 20 -20
      vertex -32 17.5 -10
      vertex -32 17.5 -20
    endloop
  endfacet
  facet normal -0 0 1
    outer loop
      vertex -35 20 -10
      vertex -32 17.5 -10
      vertex -32 20 -10
    endloop
  endfacet
  facet normal 0 0 1
    outer loop
      vertex -32 17.5 -10
      vertex -35 20 -10
      vertex -35 17.5 -10
    endloop
  endfacet
  facet normal 0 0 -1
    outer loop
      vertex -35 17.5 -20
      vertex -32 20 -20
      vertex -32 17.5 -20
    endloop
  endfacet
  facet normal -0 0 -1
    outer loop
      vertex -32 20 -20
      vertex -35 17.5 -20
      vertex -35 20 -20
    endloop
  endfacet
  facet normal 0 1 -0
    outer loop
      vertex -32 20 -20
      vertex -35 20 -10
      vertex -32 20 -10
    endloop
  endfacet
  facet normal 0 1 0
    outer loop
      vertex -35 20 -10
      vertex -32 20 -20
      vertex -35 20 -20
    endloop
  endfacet
  facet normal 1 -0 0
    outer loop
      vertex 45 -5 -7.5
      vertex 45 5 -16.5
      vertex 45 5 -7.5
    endloop
  endfacet
  facet normal 1 0 0
    outer loop
      vertex 45 5 -16.5
      vertex 45 -5 -7.5
      vertex 45 -5 -16.5
    endloop
  endfacet
  facet normal -0 0 1
    outer loop
      vertex 35 5 -7.5
      vertex 45 -5 -7.5
      vertex 45 5 -7.5
    endloop
  endfacet
  facet normal 0 0 1
    outer loop
      vertex 45 -5 -7.5
      vertex 35 5 -7.5
      vertex 35 -5 -7.5
    endloop
  endfacet
  facet normal 0 0 -1
    outer loop
      vertex 35 -5 -16.5
      vertex 45 5 -16.5
      vertex 45 -5 -16.5
    endloop
  endfacet
  facet normal -0 0 -1
    outer loop
      vertex 45 5 -16.5
      vertex 35 -5 -16.5
      vertex 35 5 -16.5
    endloop
  endfacet
  facet normal 0 1 -0
    outer loop
      vertex 45 5 -16.5
      vertex 35 5 -7.5
      vertex 45 5 -7.5
    endloop
  endfacet
  facet normal 0 1 0
    outer loop
      vertex 35 5 -7.5
      vertex 45 5 -16.5
      vertex 35 5 -16.5
    endloop
  endfacet
  facet normal 0 -1 0
    outer loop
      vertex 35 -5 -16.5
      vertex 45 -5 -7.5
      vertex 35 -5 -7.5
    endloop
  endfacet
  facet normal 0 -1 -0
    outer loop
      vertex 45 -5 -7.5
      vertex 35 -5 -16.5
      vertex 45 -5 -16.5
    endloop
  endfacet
  facet normal 1 -0 0
    outer loop
      vertex 36 -20 -1
      vertex 36 -17 -27
      vertex 36 -17 -1
    endloop
  endfacet
  facet normal 1 0 0
    outer loop
      vertex 36 -17 -27
      vertex 36 -20 -1
      vertex 36 -20 -27
    endloop
  endfacet
  facet normal 0 0 1
    outer loop
      vertex -35 -17 -1
      vertex -36 -17 -1
      vertex -35 -17.5 -1
    endloop
  endfacet
  facet normal 0 0 1
    outer loop
      vertex 35 -17.5 -1
      vertex 36 -17 -1
      vertex 35 -17 -1
    endloop
  endfacet
  facet normal 0 0 1
    outer loop
      vertex 36 -17 -1
      vertex 35 -17.5 -1
      vertex 36 -20 -1
    endloop
  endfacet
  facet normal -0 0 1
    outer loop
      vertex -35 -17.5 -1
      vertex 36 -20 -1
      vertex 35 -17.5 -1
    endloop
  endfacet
  facet normal 0 0 1
    outer loop
      vertex -35 -17.5 -1
      vertex -36 -20 -1
      vertex 36 -20 -1
    endloop
  endfacet
  facet normal 0 0 1
    outer loop
      vertex -36 -20 -1
      vertex -35 -17.5 -1
      vertex -36 -17 -1
    endloop
  endfacet
  facet normal 0 0 -1
    outer loop
      vertex -36 -20 -27
      vertex 36 -17 -27
      vertex 36 -20 -27
    endloop
  endfacet
  facet normal -0 0 -1
    outer loop
      vertex 36 -17 -27
      vertex -36 -20 -27
      vertex -36 -17 -27
    endloop
  endfacet
  facet normal -1 0 0
    outer loop
      vertex -36 -20 -27
      vertex -36 -17 -1
      vertex -36 -17 -27
    endloop
  endfacet
  facet normal -1 -0 0
    outer loop
      vertex -36 -17 -1
      vertex -36 -20 -27
      vertex -36 -20 -1
    endloop
  endfacet
  facet normal 0 1 0
    outer loop
      vertex 36 -17 -1
      vertex 35 -17 -25
      vertex 35 -17 -1
    endloop
  endfacet
  facet normal 0 1 0
    outer loop
      vertex 35 -17 -25
      vertex 36 -17 -27
      vertex -35 -17 -25
    endloop
  endfacet
  facet normal 0 1 -0
    outer loop
      vertex 36 -17 -27
      vertex 35 -17 -25
      vertex 36 -17 -1
    endloop
  endfacet
  facet normal 0 1 -0
    outer loop
      vertex -35 -17 -25
      vertex -36 -17 -1
      vertex -35 -17 -1
    endloop
  endfacet
  facet normal 0 1 0
    outer loop
      vertex -35 -17 -25
      vertex -36 -17 -27
      vertex -36 -17 -1
    endloop
  endfacet
  facet normal 0 1 0
    outer loop
      vertex -36 -17 -27
      vertex -35 -17 -25
      vertex 36 -17 -27
    endloop
  endfacet
  facet normal 0 -1 0
    outer loop
      vertex -36 -20 -27
      vertex 36 -20 -1
      vertex -36 -20 -1
    endloop
  endfacet
  facet normal 0 -1 -0
    outer loop
      vertex 36 -20 -1
      vertex -36 -20 -27
      vertex 36 -20 -27
    endloop
  endfacet
endsolid OpenSCAD_Model
