solid OpenSCAD_Model
  facet normal 1 0 0
    outer loop
      vertex 35 5 8.5
      vertex 35 17.5 25
      vertex 35 5 17.5
    endloop
  endfacet
  facet normal 1 0 0
    outer loop
      vertex 35 17.5 25
      vertex 35 -5 17.5
      vertex 35 5 17.5
    endloop
  endfacet
  facet normal 1 0 0
    outer loop
      vertex 35 -5 17.5
      vertex 35 -17 24
      vertex 35 -5 8.5
    endloop
  endfacet
  facet normal 1 -0 0
    outer loop
      vertex 35 -17.5 25
      vertex 35 -5 17.5
      vertex 35 17.5 25
    endloop
  endfacet
  facet normal 1 0 0
    outer loop
      vertex 35 -5 17.5
      vertex 35 -17.5 25
      vertex 35 -17 24
    endloop
  endfacet
  facet normal 1 0 0
    outer loop
      vertex 35 -17 24
      vertex 35 -17.5 25
      vertex 35 -17.5 24
    endloop
  endfacet
  facet normal 1 0 0
    outer loop
      vertex 35 17.5 25
      vertex 35 5 8.5
      vertex 35 17.5 0
    endloop
  endfacet
  facet normal 1 0 0
    outer loop
      vertex 35 -17 0
      vertex 35 5 8.5
      vertex 35 -5 8.5
    endloop
  endfacet
  facet normal 1 0 0
    outer loop
      vertex 35 5 8.5
      vertex 35 -17 0
      vertex 35 17.5 0
    endloop
  endfacet
  facet normal 1 0 0
    outer loop
      vertex 35 -17 0
      vertex 35 -5 8.5
      vertex 35 -17 24
    endloop
  endfacet
  facet normal 0 0 -1
    outer loop
      vertex -35 -17 0
      vertex 35 17.5 0
      vertex 35 -17 0
    endloop
  endfacet
  facet normal -0 0 -1
    outer loop
      vertex 35 17.5 0
      vertex -35 -17 0
      vertex -35 17.5 0
    endloop
  endfacet
  facet normal -1 0 0
    outer loop
      vertex -35 -17 0
      vertex -35 17.5 5
      vertex -35 17.5 0
    endloop
  endfacet
  facet normal -1 -0 0
    outer loop
      vertex -35 17.5 5
      vertex -35 -17 0
      vertex -35 17.5 15
    endloop
  endfacet
  facet normal -1 -0 0
    outer loop
      vertex -35 17.5 15
      vertex -35 -17 0
      vertex -35 -17 24
    endloop
  endfacet
  facet normal -1 0 0
    outer loop
      vertex -35 17.5 15
      vertex -35 -17 24
      vertex -35 17.5 25
    endloop
  endfacet
  facet normal -1 0 0
    outer loop
      vertex -35 -17.5 25
      vertex -35 -17 24
      vertex -35 -17.5 24
    endloop
  endfacet
  facet normal -1 0 0
    outer loop
      vertex -35 -17 24
      vertex -35 -17.5 25
      vertex -35 17.5 25
    endloop
  endfacet
  facet normal -1 0 0
    outer loop
      vertex -35 17.5 5
      vertex -35 20 15
      vertex -35 20 5
    endloop
  endfacet
  facet normal -1 -0 0
    outer loop
      vertex -35 20 15
      vertex -35 17.5 5
      vertex -35 17.5 15
    endloop
  endfacet
  facet normal 0 1 0
    outer loop
      vertex 35 17.5 25
      vertex -32 17.5 15
      vertex -35 17.5 25
    endloop
  endfacet
  facet normal 0 1 -0
    outer loop
      vertex 35 17.5 0
      vertex -32 17.5 15
      vertex 35 17.5 25
    endloop
  endfacet
  facet normal 0 1 0
    outer loop
      vertex -32 17.5 15
      vertex 35 17.5 0
      vertex -32 17.5 5
    endloop
  endfacet
  facet normal 0 1 0
    outer loop
      vertex -35 17.5 0
      vertex -32 17.5 5
      vertex 35 17.5 0
    endloop
  endfacet
  facet normal 0 1 0
    outer loop
      vertex -32 17.5 5
      vertex -35 17.5 0
      vertex -35 17.5 5
    endloop
  endfacet
  facet normal 0 1 0
    outer loop
      vertex -35 17.5 25
      vertex -32 17.5 15
      vertex -35 17.5 15
    endloop
  endfacet
  facet normal 0 -1 0
    outer loop
      vertex -35 -17.5 24
      vertex 35 -17.5 25
      vertex -35 -17.5 25
    endloop
  endfacet
  facet normal 0 -1 -0
    outer loop
      vertex 35 -17.5 25
      vertex -35 -17.5 24
      vertex 35 -17.5 24
    endloop
  endfacet
  facet normal -0 0 1
    outer loop
      vertex -35 17.5 25
      vertex 35 -17.5 25
      vertex 35 17.5 25
    endloop
  endfacet
  facet normal 0 0 1
    outer loop
      vertex 35 -17.5 25
      vertex -35 17.5 25
      vertex -35 -17.5 25
    endloop
  endfacet
  facet normal 1 -0 0
    outer loop
      vertex -32 17.5 15
      vertex -32 20 5
      vertex -32 20 15
    endloop
  endfacet
  facet normal 1 0 0
    outer loop
      vertex -32 20 5
      vertex -32 17.5 15
      vertex -32 17.5 5
    endloop
  endfacet
  facet normal -0 0 1
    outer loop
      vertex -35 20 15
      vertex -32 17.5 15
      vertex -32 20 15
    endloop
  endfacet
  facet normal 0 0 1
    outer loop
      vertex -32 17.5 15
      vertex -35 20 15
      vertex -35 17.5 15
    endloop
  endfacet
  facet normal 0 0 -1
    outer loop
      vertex -35 17.5 5
      vertex -32 20 5
      vertex -32 17.5 5
    endloop
  endfacet
  facet normal -0 0 -1
    outer loop
      vertex -32 20 5
      vertex -35 17.5 5
      vertex -35 20 5
    endloop
  endfacet
  facet normal 0 1 -0
    outer loop
      vertex -32 20 5
      vertex -35 20 15
      vertex -32 20 15
    endloop
  endfacet
  facet normal 0 1 0
    outer loop
      vertex -35 20 15
      vertex -32 20 5
      vertex -35 20 5
    endloop
  endfacet
  facet normal 1 -0 0
    outer loop
      vertex 45 -5 17.5
      vertex 45 5 8.5
      vertex 45 5 17.5
    endloop
  endfacet
  facet normal 1 0 0
    outer loop
      vertex 45 5 8.5
      vertex 45 -5 17.5
      vertex 45 -5 8.5
    endloop
  endfacet
  facet normal -0 0 1
    outer loop
      vertex 35 5 17.5
      vertex 45 -5 17.5
      vertex 45 5 17.5
    endloop
  endfacet
  facet normal 0 0 1
    outer loop
      vertex 45 -5 17.5
      vertex 35 5 17.5
      vertex 35 -5 17.5
    endloop
  endfacet
  facet normal 0 0 -1
    outer loop
      vertex 35 -5 8.5
      vertex 45 5 8.5
      vertex 45 -5 8.5
    endloop
  endfacet
  facet normal -0 0 -1
    outer loop
      vertex 45 5 8.5
      vertex 35 -5 8.5
      vertex 35 5 8.5
    endloop
  endfacet
  facet normal 0 1 -0
    outer loop
      vertex 45 5 8.5
      vertex 35 5 17.5
      vertex 45 5 17.5
    endloop
  endfacet
  facet normal 0 1 0
    outer loop
      vertex 35 5 17.5
      vertex 45 5 8.5
      vertex 35 5 8.5
    endloop
  endfacet
  facet normal 0 -1 0
    outer loop
      vertex 35 -5 8.5
      vertex 45 -5 17.5
      vertex 35 -5 17.5
    endloop
  endfacet
  facet normal 0 -1 -0
    outer loop
      vertex 45 -5 17.5
      vertex 35 -5 8.5
      vertex 45 -5 8.5
    endloop
  endfacet
  facet normal 1 -0 0
    outer loop
      vertex 36 -20 24
      vertex 36 -17 -2
      vertex 36 -17 24
    endloop
  endfacet
  facet normal 1 0 0
    outer loop
      vertex 36 -17 -2
      vertex 36 -20 24
      vertex 36 -20 -2
    endloop
  endfacet
  facet normal 0 0 1
    outer loop
      vertex -35 -17 24
      vertex -36 -17 24
      vertex -35 -17.5 24
    endloop
  endfacet
  facet normal 0 0 1
    outer loop
      vertex 35 -17.5 24
      vertex 36 -17 24
      vertex 35 -17 24
    endloop
  endfacet
  facet normal 0 0 1
    outer loop
      vertex 36 -17 24
      vertex 35 -17.5 24
      vertex 36 -20 24
    endloop
  endfacet
  facet normal -0 0 1
    outer loop
      vertex -35 -17.5 24
      vertex 36 -20 24
      vertex 35 -17.5 24
    endloop
  endfacet
  facet normal 0 0 1
    outer loop
      vertex -35 -17.5 24
      vertex -36 -20 24
      vertex 36 -20 24
    endloop
  endfacet
  facet normal 0 0 1
    outer loop
      vertex -36 -20 24
      vertex -35 -17.5 24
      vertex -36 -17 24
    endloop
  endfacet
  facet normal 0 0 -1
    outer loop
      vertex -36 -20 -2
      vertex 36 -17 -2
      vertex 36 -20 -2
    endloop
  endfacet
  facet normal -0 0 -1
    outer loop
      vertex 36 -17 -2
      vertex -36 -20 -2
      vertex -36 -17 -2
    endloop
  endfacet
  facet normal -1 0 0
    outer loop
      vertex -36 -20 -2
      vertex -36 -17 24
      vertex -36 -17 -2
    endloop
  endfacet
  facet normal -1 -0 0
    outer loop
      vertex -36 -17 24
      vertex -36 -20 -2
      vertex -36 -20 24
    endloop
  endfacet
  facet normal 0 1 0
    outer loop
      vertex 36 -17 24
      vertex 35 -17 0
      vertex 35 -17 24
    endloop
  endfacet
  facet normal 0 1 0
    outer loop
      vertex 35 -17 0
      vertex 36 -17 -2
      vertex -35 -17 0
    endloop
  endfacet
  facet normal 0 1 -0
    outer loop
      vertex 36 -17 -2
      vertex 35 -17 0
      vertex 36 -17 24
    endloop
  endfacet
  facet normal 0 1 -0
    outer loop
      vertex -35 -17 0
      vertex -36 -17 24
      vertex -35 -17 24
    endloop
  endfacet
  facet normal 0 1 0
    outer loop
      vertex -35 -17 0
      vertex -36 -17 -2
      vertex -36 -17 24
    endloop
  endfacet
  facet normal 0 1 0
    outer loop
      vertex -36 -17 -2
      vertex -35 -17 0
      vertex 36 -17 -2
    endloop
  endfacet
  facet normal 0 -1 0
    outer loop
      vertex -36 -20 -2
      vertex 36 -20 24
      vertex -36 -20 24
    endloop
  endfacet
  facet normal 0 -1 -0
    outer loop
      vertex 36 -20 24
      vertex -36 -20 -2
      vertex 36 -20 -2
    endloop
  endfacet
endsolid OpenSCAD_Model
