solid OpenSCAD_Model
  facet normal 1 -0 0
    outer loop
      vertex 5 -12 0
      vertex 5 12 -5
      vertex 5 12 0
    endloop
  endfacet
  facet normal 1 0 0
    outer loop
      vertex 5 12 -5
      vertex 5 -12 0
      vertex 5 -12 -5
    endloop
  endfacet
  facet normal 0 0 -1
    outer loop
      vertex 16.5 -15 0
      vertex 5 -12 0
      vertex 16.5 15 0
    endloop
  endfacet
  facet normal 0 0 -1
    outer loop
      vertex 16.5 -15 0
      vertex -5 -12 0
      vertex 5 -12 0
    endloop
  endfacet
  facet normal -0 0 -1
    outer loop
      vertex -5 -12 0
      vertex -16.5 -15 0
      vertex -5 12 0
    endloop
  endfacet
  facet normal 0 0 -1
    outer loop
      vertex -16.5 -15 0
      vertex -5 -12 0
      vertex 16.5 -15 0
    endloop
  endfacet
  facet normal 0 0 -1
    outer loop
      vertex 5 12 0
      vertex 16.5 15 0
      vertex 5 -12 0
    endloop
  endfacet
  facet normal 0 0 -1
    outer loop
      vertex -5 12 0
      vertex 16.5 15 0
      vertex 5 12 0
    endloop
  endfacet
  facet normal 0 0 -1
    outer loop
      vertex -5 12 0
      vertex -16.5 15 0
      vertex 16.5 15 0
    endloop
  endfacet
  facet normal 0 0 -1
    outer loop
      vertex -16.5 15 0
      vertex -5 12 0
      vertex -16.5 -15 0
    endloop
  endfacet
  facet normal 0 0 -1
    outer loop
      vertex -5 -12 -5
      vertex 5 12 -5
      vertex 5 -12 -5
    endloop
  endfacet
  facet normal -0 0 -1
    outer loop
      vertex 5 12 -5
      vertex -5 -12 -5
      vertex -5 12 -5
    endloop
  endfacet
  facet normal -1 0 0
    outer loop
      vertex -5 -12 -5
      vertex -5 12 0
      vertex -5 12 -5
    endloop
  endfacet
  facet normal -1 -0 0
    outer loop
      vertex -5 12 0
      vertex -5 -12 -5
      vertex -5 -12 0
    endloop
  endfacet
  facet normal 0 1 -0
    outer loop
      vertex 5 12 -5
      vertex -5 12 0
      vertex 5 12 0
    endloop
  endfacet
  facet normal 0 1 0
    outer loop
      vertex -5 12 0
      vertex 5 12 -5
      vertex -5 12 -5
    endloop
  endfacet
  facet normal 0 -1 0
    outer loop
      vertex -5 -12 -5
      vertex 5 -12 0
      vertex -5 -12 0
    endloop
  endfacet
  facet normal 0 -1 -0
    outer loop
      vertex 5 -12 0
      vertex -5 -12 -5
      vertex 5 -12 -5
    endloop
  endfacet
  facet normal -1 0 0
    outer loop
      vertex 16.5 0 1.6
      vertex 16.5 3 2.8
      vertex 16.5 3 1.6
    endloop
  endfacet
  facet normal -1 -0 0
    outer loop
      vertex 16.5 3 2.8
      vertex 16.5 0 1.6
      vertex 16.5 0 2.8
    endloop
  endfacet
  facet normal 1 0 0
    outer loop
      vertex 16.5 0 1.6
      vertex 16.5 -15 1.6
      vertex 16.5 0 0.799999
    endloop
  endfacet
  facet normal 1 0 0
    outer loop
      vertex 16.5 3 0.799999
      vertex 16.5 15 1.6
      vertex 16.5 3 1.6
    endloop
  endfacet
  facet normal 1 0 0
    outer loop
      vertex 16.5 15 1.6
      vertex 16.5 3 0.799999
      vertex 16.5 15 0
    endloop
  endfacet
  facet normal 1 -0 0
    outer loop
      vertex 16.5 0 0.799999
      vertex 16.5 15 0
      vertex 16.5 3 0.799999
    endloop
  endfacet
  facet normal 1 0 0
    outer loop
      vertex 16.5 0 0.799999
      vertex 16.5 -15 0
      vertex 16.5 15 0
    endloop
  endfacet
  facet normal 1 0 0
    outer loop
      vertex 16.5 -15 0
      vertex 16.5 0 0.799999
      vertex 16.5 -15 1.6
    endloop
  endfacet
  facet normal -0 0 1
    outer loop
      vertex 5.88877 3.78448 1.6
      vertex 16.5 3 1.6
      vertex 16.5 15 1.6
    endloop
  endfacet
  facet normal 0 -0 1
    outer loop
      vertex 6.71645 1.97213 1.6
      vertex 16.5 3 1.6
      vertex 5.88877 3.78448 1.6
    endloop
  endfacet
  facet normal 0 0 1
    outer loop
      vertex 6.71645 -1.97213 1.6
      vertex 16.5 0 1.6
      vertex 7 0 1.6
    endloop
  endfacet
  facet normal 0 0 1
    outer loop
      vertex 16.5 3 1.6
      vertex 7 0 1.6
      vertex 16.5 0 1.6
    endloop
  endfacet
  facet normal 0 -0 1
    outer loop
      vertex 7 0 1.6
      vertex 16.5 3 1.6
      vertex 6.71645 1.97213 1.6
    endloop
  endfacet
  facet normal 0 0 1
    outer loop
      vertex 16.5 15 1.6
      vertex 4.58402 5.29025 1.6
      vertex 5.88877 3.78448 1.6
    endloop
  endfacet
  facet normal 0 0 1
    outer loop
      vertex 16.5 15 1.6
      vertex 2.9079 6.36742 1.6
      vertex 4.58402 5.29025 1.6
    endloop
  endfacet
  facet normal 0 0 1
    outer loop
      vertex 16.5 15 1.6
      vertex 0.996203 6.92875 1.6
      vertex 2.9079 6.36742 1.6
    endloop
  endfacet
  facet normal 0 0 1
    outer loop
      vertex 16.5 15 1.6
      vertex -0.996203 6.92875 1.6
      vertex 0.996203 6.92875 1.6
    endloop
  endfacet
  facet normal -0 0 1
    outer loop
      vertex -16.5 15 1.6
      vertex -0.996203 6.92875 1.6
      vertex 16.5 15 1.6
    endloop
  endfacet
  facet normal 0 0 1
    outer loop
      vertex -6.71645 1.97213 1.6
      vertex -16.5 15 1.6
      vertex -7 0 1.6
    endloop
  endfacet
  facet normal 0 0 1
    outer loop
      vertex -5.88877 3.78448 1.6
      vertex -16.5 15 1.6
      vertex -6.71645 1.97213 1.6
    endloop
  endfacet
  facet normal 0 0 1
    outer loop
      vertex -4.58402 5.29025 1.6
      vertex -16.5 15 1.6
      vertex -5.88877 3.78448 1.6
    endloop
  endfacet
  facet normal 0 0 1
    outer loop
      vertex -2.9079 6.36742 1.6
      vertex -16.5 15 1.6
      vertex -4.58402 5.29025 1.6
    endloop
  endfacet
  facet normal 0 0 1
    outer loop
      vertex -0.996203 6.92875 1.6
      vertex -16.5 15 1.6
      vertex -2.9079 6.36742 1.6
    endloop
  endfacet
  facet normal 0 0 1
    outer loop
      vertex 5.88877 -3.78448 1.6
      vertex 16.5 0 1.6
      vertex 6.71645 -1.97213 1.6
    endloop
  endfacet
  facet normal 0 0 1
    outer loop
      vertex 16.5 0 1.6
      vertex 5.88877 -3.78448 1.6
      vertex 16.5 -15 1.6
    endloop
  endfacet
  facet normal -0 0 1
    outer loop
      vertex 4.58402 -5.29025 1.6
      vertex 16.5 -15 1.6
      vertex 5.88877 -3.78448 1.6
    endloop
  endfacet
  facet normal -0 0 1
    outer loop
      vertex 2.9079 -6.36742 1.6
      vertex 16.5 -15 1.6
      vertex 4.58402 -5.29025 1.6
    endloop
  endfacet
  facet normal -0 0 1
    outer loop
      vertex 0.996203 -6.92875 1.6
      vertex 16.5 -15 1.6
      vertex 2.9079 -6.36742 1.6
    endloop
  endfacet
  facet normal -0 0 1
    outer loop
      vertex -0.996203 -6.92875 1.6
      vertex 16.5 -15 1.6
      vertex 0.996203 -6.92875 1.6
    endloop
  endfacet
  facet normal 0 0 1
    outer loop
      vertex -16.5 -15 1.6
      vertex -0.996203 -6.92875 1.6
      vertex -2.9079 -6.36742 1.6
    endloop
  endfacet
  facet normal 0 0 1
    outer loop
      vertex -16.5 -15 1.6
      vertex -7 0 1.6
      vertex -16.5 15 1.6
    endloop
  endfacet
  facet normal 0 0 1
    outer loop
      vertex -7 0 1.6
      vertex -16.5 -15 1.6
      vertex -6.71645 -1.97213 1.6
    endloop
  endfacet
  facet normal 0 0 1
    outer loop
      vertex -0.996203 -6.92875 1.6
      vertex -16.5 -15 1.6
      vertex 16.5 -15 1.6
    endloop
  endfacet
  facet normal 0 0 1
    outer loop
      vertex -4.58402 -5.29025 1.6
      vertex -16.5 -15 1.6
      vertex -2.9079 -6.36742 1.6
    endloop
  endfacet
  facet normal 0 0 1
    outer loop
      vertex -5.88877 -3.78448 1.6
      vertex -16.5 -15 1.6
      vertex -4.58402 -5.29025 1.6
    endloop
  endfacet
  facet normal 0 0 1
    outer loop
      vertex -6.71645 -1.97213 1.6
      vertex -16.5 -15 1.6
      vertex -5.88877 -3.78448 1.6
    endloop
  endfacet
  facet normal -1 0 0
    outer loop
      vertex -16.5 -15 0
      vertex -16.5 15 1.6
      vertex -16.5 15 0
    endloop
  endfacet
  facet normal -1 -0 0
    outer loop
      vertex -16.5 15 1.6
      vertex -16.5 -15 0
      vertex -16.5 -15 1.6
    endloop
  endfacet
  facet normal 0 1 -0
    outer loop
      vertex 16.5 15 0
      vertex -16.5 15 1.6
      vertex 16.5 15 1.6
    endloop
  endfacet
  facet normal 0 1 0
    outer loop
      vertex -16.5 15 1.6
      vertex 16.5 15 0
      vertex -16.5 15 0
    endloop
  endfacet
  facet normal 0 -1 0
    outer loop
      vertex -16.5 -15 0
      vertex 16.5 -15 1.6
      vertex -16.5 -15 1.6
    endloop
  endfacet
  facet normal 0 -1 -0
    outer loop
      vertex 16.5 -15 1.6
      vertex -16.5 -15 0
      vertex 16.5 -15 0
    endloop
  endfacet
  facet normal 0.909631 0.415418 0
    outer loop
      vertex 6.71645 1.97213 6.6
      vertex 5.88877 3.78448 1.6
      vertex 5.88877 3.78448 6.6
    endloop
  endfacet
  facet normal 0.909631 0.415418 0
    outer loop
      vertex 5.88877 3.78448 1.6
      vertex 6.71645 1.97213 6.6
      vertex 6.71645 1.97213 1.6
    endloop
  endfacet
  facet normal 0.989821 0.142315 0
    outer loop
      vertex 7 0 6.6
      vertex 6.71645 1.97213 1.6
      vertex 6.71645 1.97213 6.6
    endloop
  endfacet
  facet normal 0.989821 0.142315 0
    outer loop
      vertex 6.71645 1.97213 1.6
      vertex 7 0 6.6
      vertex 7 0 1.6
    endloop
  endfacet
  facet normal 0.755751 0.654859 0
    outer loop
      vertex 5.88877 3.78448 6.6
      vertex 4.58402 5.29025 1.6
      vertex 4.58402 5.29025 6.6
    endloop
  endfacet
  facet normal 0.755751 0.654859 0
    outer loop
      vertex 4.58402 5.29025 1.6
      vertex 5.88877 3.78448 6.6
      vertex 5.88877 3.78448 1.6
    endloop
  endfacet
  facet normal 0.755751 -0.654859 0
    outer loop
      vertex 4.58402 -5.29025 6.6
      vertex 5.88877 -3.78448 1.6
      vertex 5.88877 -3.78448 6.6
    endloop
  endfacet
  facet normal 0.755751 -0.654859 0
    outer loop
      vertex 5.88877 -3.78448 1.6
      vertex 4.58402 -5.29025 6.6
      vertex 4.58402 -5.29025 1.6
    endloop
  endfacet
  facet normal -0.540638 0.841255 0
    outer loop
      vertex -2.9079 6.36742 1.6
      vertex -4.58402 5.29025 6.6
      vertex -2.9079 6.36742 6.6
    endloop
  endfacet
  facet normal -0.540638 0.841255 0
    outer loop
      vertex -4.58402 5.29025 6.6
      vertex -2.9079 6.36742 1.6
      vertex -4.58402 5.29025 1.6
    endloop
  endfacet
  facet normal 0.540638 -0.841255 0
    outer loop
      vertex 2.9079 -6.36742 1.6
      vertex 4.58402 -5.29025 6.6
      vertex 2.9079 -6.36742 6.6
    endloop
  endfacet
  facet normal 0.540638 -0.841255 0
    outer loop
      vertex 4.58402 -5.29025 6.6
      vertex 2.9079 -6.36742 1.6
      vertex 4.58402 -5.29025 1.6
    endloop
  endfacet
  facet normal 0.909631 -0.415418 0
    outer loop
      vertex 5.88877 -3.78448 6.6
      vertex 6.71645 -1.97213 1.6
      vertex 6.71645 -1.97213 6.6
    endloop
  endfacet
  facet normal 0.909631 -0.415418 0
    outer loop
      vertex 6.71645 -1.97213 1.6
      vertex 5.88877 -3.78448 6.6
      vertex 5.88877 -3.78448 1.6
    endloop
  endfacet
  facet normal 0.540638 0.841255 -0
    outer loop
      vertex 4.58402 5.29025 1.6
      vertex 2.9079 6.36742 6.6
      vertex 4.58402 5.29025 6.6
    endloop
  endfacet
  facet normal 0.540638 0.841255 0
    outer loop
      vertex 2.9079 6.36742 6.6
      vertex 4.58402 5.29025 1.6
      vertex 2.9079 6.36742 1.6
    endloop
  endfacet
  facet normal -0.281735 -0.959492 0
    outer loop
      vertex -2.9079 -6.36742 1.6
      vertex -0.996203 -6.92875 6.6
      vertex -2.9079 -6.36742 6.6
    endloop
  endfacet
  facet normal -0.281735 -0.959492 -0
    outer loop
      vertex -0.996203 -6.92875 6.6
      vertex -2.9079 -6.36742 1.6
      vertex -0.996203 -6.92875 1.6
    endloop
  endfacet
  facet normal 0 0 1
    outer loop
      vertex 4 0 6.6
      vertex 7 0 6.6
      vertex 6.71645 1.97213 6.6
    endloop
  endfacet
  facet normal 0 0 1
    outer loop
      vertex 3.54182 1.85889 6.6
      vertex 6.71645 1.97213 6.6
      vertex 5.88877 3.78448 6.6
    endloop
  endfacet
  facet normal 0 0 1
    outer loop
      vertex 7 0 6.6
      vertex 4 0 6.6
      vertex 6.71645 -1.97213 6.6
    endloop
  endfacet
  facet normal 0 0 1
    outer loop
      vertex 3.54182 1.85889 6.6
      vertex 5.88877 3.78448 6.6
      vertex 4.58402 5.29025 6.6
    endloop
  endfacet
  facet normal -0 0 1
    outer loop
      vertex 3.54182 -1.85889 6.6
      vertex 6.71645 -1.97213 6.6
      vertex 4 0 6.6
    endloop
  endfacet
  facet normal 0 0 1
    outer loop
      vertex 6.71645 -1.97213 6.6
      vertex 3.54182 -1.85889 6.6
      vertex 5.88877 -3.78448 6.6
    endloop
  endfacet
  facet normal 0 0 1
    outer loop
      vertex 6.71645 1.97213 6.6
      vertex 3.54182 1.85889 6.6
      vertex 4 0 6.6
    endloop
  endfacet
  facet normal 0 0 1
    outer loop
      vertex 2.27226 3.29193 6.6
      vertex 4.58402 5.29025 6.6
      vertex 2.9079 6.36742 6.6
    endloop
  endfacet
  facet normal 0 0 1
    outer loop
      vertex 4.58402 5.29025 6.6
      vertex 2.27226 3.29193 6.6
      vertex 3.54182 1.85889 6.6
    endloop
  endfacet
  facet normal 0 0 1
    outer loop
      vertex 0.482146 3.97083 6.6
      vertex 2.9079 6.36742 6.6
      vertex 0.996203 6.92875 6.6
    endloop
  endfacet
  facet normal 0 0 1
    outer loop
      vertex 2.9079 6.36742 6.6
      vertex 0.482146 3.97083 6.6
      vertex 2.27226 3.29193 6.6
    endloop
  endfacet
  facet normal -0 0 1
    outer loop
      vertex -0.996203 6.92875 6.6
      vertex 0.482146 3.97083 6.6
      vertex 0.996203 6.92875 6.6
    endloop
  endfacet
  facet normal 0 0 1
    outer loop
      vertex -0.996203 6.92875 6.6
      vertex -1.41842 3.74006 6.6
      vertex 0.482146 3.97083 6.6
    endloop
  endfacet
  facet normal -0 0 1
    outer loop
      vertex -2.9079 6.36742 6.6
      vertex -1.41842 3.74006 6.6
      vertex -0.996203 6.92875 6.6
    endloop
  endfacet
  facet normal -0 0 1
    outer loop
      vertex -4.58402 5.29025 6.6
      vertex -1.41842 3.74006 6.6
      vertex -2.9079 6.36742 6.6
    endloop
  endfacet
  facet normal 0 0 1
    outer loop
      vertex -1.41842 3.74006 6.6
      vertex -4.58402 5.29025 6.6
      vertex -2.99404 2.65249 6.6
    endloop
  endfacet
  facet normal 0 0 1
    outer loop
      vertex -2.99404 2.65249 6.6
      vertex -5.88877 3.78448 6.6
      vertex -3.88377 0.957262 6.6
    endloop
  endfacet
  facet normal -0 0 1
    outer loop
      vertex -5.88877 3.78448 6.6
      vertex -2.99404 2.65249 6.6
      vertex -4.58402 5.29025 6.6
    endloop
  endfacet
  facet normal 0 0 1
    outer loop
      vertex 5.88877 -3.78448 6.6
      vertex 3.54182 -1.85889 6.6
      vertex 4.58402 -5.29025 6.6
    endloop
  endfacet
  facet normal -0 0 1
    outer loop
      vertex 2.27226 -3.29193 6.6
      vertex 4.58402 -5.29025 6.6
      vertex 3.54182 -1.85889 6.6
    endloop
  endfacet
  facet normal 0 0 1
    outer loop
      vertex 4.58402 -5.29025 6.6
      vertex 2.27226 -3.29193 6.6
      vertex 2.9079 -6.36742 6.6
    endloop
  endfacet
  facet normal -0 0 1
    outer loop
      vertex 0.482146 -3.97083 6.6
      vertex 2.9079 -6.36742 6.6
      vertex 2.27226 -3.29193 6.6
    endloop
  endfacet
  facet normal 0 0 1
    outer loop
      vertex 2.9079 -6.36742 6.6
      vertex 0.482146 -3.97083 6.6
      vertex 0.996203 -6.92875 6.6
    endloop
  endfacet
  facet normal 0 0 1
    outer loop
      vertex 0.482146 -3.97083 6.6
      vertex -0.996203 -6.92875 6.6
      vertex 0.996203 -6.92875 6.6
    endloop
  endfacet
  facet normal 0 0 1
    outer loop
      vertex -1.41842 -3.74006 6.6
      vertex -0.996203 -6.92875 6.6
      vertex 0.482146 -3.97083 6.6
    endloop
  endfacet
  facet normal 0 0 1
    outer loop
      vertex -1.41842 -3.74006 6.6
      vertex -2.9079 -6.36742 6.6
      vertex -0.996203 -6.92875 6.6
    endloop
  endfacet
  facet normal 0 0 1
    outer loop
      vertex -4.58402 -5.29025 6.6
      vertex -1.41842 -3.74006 6.6
      vertex -2.99404 -2.65249 6.6
    endloop
  endfacet
  facet normal 0 0 1
    outer loop
      vertex -5.88877 -3.78448 6.6
      vertex -2.99404 -2.65249 6.6
      vertex -3.88377 -0.957262 6.6
    endloop
  endfacet
  facet normal 0 0 1
    outer loop
      vertex -1.41842 -3.74006 6.6
      vertex -4.58402 -5.29025 6.6
      vertex -2.9079 -6.36742 6.6
    endloop
  endfacet
  facet normal -0 0 1
    outer loop
      vertex -6.71645 1.97213 6.6
      vertex -3.88377 0.957262 6.6
      vertex -5.88877 3.78448 6.6
    endloop
  endfacet
  facet normal 0 0 1
    outer loop
      vertex -7 0 6.6
      vertex -3.88377 0.957262 6.6
      vertex -6.71645 1.97213 6.6
    endloop
  endfacet
  facet normal 0 0 1
    outer loop
      vertex -2.99404 -2.65249 6.6
      vertex -5.88877 -3.78448 6.6
      vertex -4.58402 -5.29025 6.6
    endloop
  endfacet
  facet normal 0 0 1
    outer loop
      vertex -3.88377 0.957262 6.6
      vertex -7 0 6.6
      vertex -3.88377 -0.957262 6.6
    endloop
  endfacet
  facet normal 0 0 1
    outer loop
      vertex -3.88377 -0.957262 6.6
      vertex -6.71645 -1.97213 6.6
      vertex -5.88877 -3.78448 6.6
    endloop
  endfacet
  facet normal 0 0 1
    outer loop
      vertex -3.88377 -0.957262 6.6
      vertex -7 0 6.6
      vertex -6.71645 -1.97213 6.6
    endloop
  endfacet
  facet normal 0.281735 -0.959492 0
    outer loop
      vertex 0.996203 -6.92875 1.6
      vertex 2.9079 -6.36742 6.6
      vertex 0.996203 -6.92875 6.6
    endloop
  endfacet
  facet normal 0.281735 -0.959492 0
    outer loop
      vertex 2.9079 -6.36742 6.6
      vertex 0.996203 -6.92875 1.6
      vertex 2.9079 -6.36742 1.6
    endloop
  endfacet
  facet normal 0.989821 -0.142315 0
    outer loop
      vertex 6.71645 -1.97213 6.6
      vertex 7 0 1.6
      vertex 7 0 6.6
    endloop
  endfacet
  facet normal 0.989821 -0.142315 0
    outer loop
      vertex 7 0 1.6
      vertex 6.71645 -1.97213 6.6
      vertex 6.71645 -1.97213 1.6
    endloop
  endfacet
  facet normal 0 1 -0
    outer loop
      vertex 0.996203 6.92875 1.6
      vertex -0.996203 6.92875 6.6
      vertex 0.996203 6.92875 6.6
    endloop
  endfacet
  facet normal 0 1 0
    outer loop
      vertex -0.996203 6.92875 6.6
      vertex 0.996203 6.92875 1.6
      vertex -0.996203 6.92875 1.6
    endloop
  endfacet
  facet normal -0.281735 0.959492 0
    outer loop
      vertex -0.996203 6.92875 1.6
      vertex -2.9079 6.36742 6.6
      vertex -0.996203 6.92875 6.6
    endloop
  endfacet
  facet normal -0.281735 0.959492 0
    outer loop
      vertex -2.9079 6.36742 6.6
      vertex -0.996203 6.92875 1.6
      vertex -2.9079 6.36742 1.6
    endloop
  endfacet
  facet normal -0.755751 0.654859 0
    outer loop
      vertex -5.88877 3.78448 1.6
      vertex -4.58402 5.29025 6.6
      vertex -4.58402 5.29025 1.6
    endloop
  endfacet
  facet normal -0.755751 0.654859 0
    outer loop
      vertex -4.58402 5.29025 6.6
      vertex -5.88877 3.78448 1.6
      vertex -5.88877 3.78448 6.6
    endloop
  endfacet
  facet normal 0 -1 0
    outer loop
      vertex -0.996203 -6.92875 1.6
      vertex 0.996203 -6.92875 6.6
      vertex -0.996203 -6.92875 6.6
    endloop
  endfacet
  facet normal 0 -1 -0
    outer loop
      vertex 0.996203 -6.92875 6.6
      vertex -0.996203 -6.92875 1.6
      vertex 0.996203 -6.92875 1.6
    endloop
  endfacet
  facet normal -0.909631 0.415418 0
    outer loop
      vertex -6.71645 1.97213 1.6
      vertex -5.88877 3.78448 6.6
      vertex -5.88877 3.78448 1.6
    endloop
  endfacet
  facet normal -0.909631 0.415418 0
    outer loop
      vertex -5.88877 3.78448 6.6
      vertex -6.71645 1.97213 1.6
      vertex -6.71645 1.97213 6.6
    endloop
  endfacet
  facet normal -0.989821 -0.142315 0
    outer loop
      vertex -6.71645 -1.97213 1.6
      vertex -7 0 6.6
      vertex -7 0 1.6
    endloop
  endfacet
  facet normal -0.989821 -0.142315 0
    outer loop
      vertex -7 0 6.6
      vertex -6.71645 -1.97213 1.6
      vertex -6.71645 -1.97213 6.6
    endloop
  endfacet
  facet normal -0.989821 0.142315 0
    outer loop
      vertex -7 0 1.6
      vertex -6.71645 1.97213 6.6
      vertex -6.71645 1.97213 1.6
    endloop
  endfacet
  facet normal -0.989821 0.142315 0
    outer loop
      vertex -6.71645 1.97213 6.6
      vertex -7 0 1.6
      vertex -7 0 6.6
    endloop
  endfacet
  facet normal 0.281735 0.959492 -0
    outer loop
      vertex 2.9079 6.36742 1.6
      vertex 0.996203 6.92875 6.6
      vertex 2.9079 6.36742 6.6
    endloop
  endfacet
  facet normal 0.281735 0.959492 0
    outer loop
      vertex 0.996203 6.92875 6.6
      vertex 2.9079 6.36742 1.6
      vertex 0.996203 6.92875 1.6
    endloop
  endfacet
  facet normal -0.755751 -0.654859 0
    outer loop
      vertex -4.58402 -5.29025 1.6
      vertex -5.88877 -3.78448 6.6
      vertex -5.88877 -3.78448 1.6
    endloop
  endfacet
  facet normal -0.755751 -0.654859 0
    outer loop
      vertex -5.88877 -3.78448 6.6
      vertex -4.58402 -5.29025 1.6
      vertex -4.58402 -5.29025 6.6
    endloop
  endfacet
  facet normal -0.909631 -0.415418 0
    outer loop
      vertex -5.88877 -3.78448 1.6
      vertex -6.71645 -1.97213 6.6
      vertex -6.71645 -1.97213 1.6
    endloop
  endfacet
  facet normal -0.909631 -0.415418 0
    outer loop
      vertex -6.71645 -1.97213 6.6
      vertex -5.88877 -3.78448 1.6
      vertex -5.88877 -3.78448 6.6
    endloop
  endfacet
  facet normal -0.540638 -0.841255 0
    outer loop
      vertex -4.58402 -5.29025 1.6
      vertex -2.9079 -6.36742 6.6
      vertex -4.58402 -5.29025 6.6
    endloop
  endfacet
  facet normal -0.540638 -0.841255 -0
    outer loop
      vertex -2.9079 -6.36742 6.6
      vertex -4.58402 -5.29025 1.6
      vertex -2.9079 -6.36742 1.6
    endloop
  endfacet
  facet normal -0.568064 0.822984 0
    outer loop
      vertex -1.41842 3.74006 6.6
      vertex -2.99404 2.65249 9.6
      vertex -1.41842 3.74006 9.6
    endloop
  endfacet
  facet normal -0.568064 0.822984 0
    outer loop
      vertex -2.99404 2.65249 9.6
      vertex -1.41842 3.74006 6.6
      vertex -2.99404 2.65249 6.6
    endloop
  endfacet
  facet normal 0.748511 0.663122 0
    outer loop
      vertex 3.54182 1.85889 9.6
      vertex 2.27226 3.29193 6.6
      vertex 2.27226 3.29193 9.6
    endloop
  endfacet
  facet normal 0.748511 0.663122 0
    outer loop
      vertex 2.27226 3.29193 6.6
      vertex 3.54182 1.85889 9.6
      vertex 3.54182 1.85889 6.6
    endloop
  endfacet
  facet normal 0.970941 0.239318 0
    outer loop
      vertex 4 0 9.6
      vertex 3.54182 1.85889 6.6
      vertex 3.54182 1.85889 9.6
    endloop
  endfacet
  facet normal 0.970941 0.239318 0
    outer loop
      vertex 3.54182 1.85889 6.6
      vertex 4 0 9.6
      vertex 4 0 6.6
    endloop
  endfacet
  facet normal -1 0 0
    outer loop
      vertex -3.88377 -0.957262 6.6
      vertex -3.88377 0.957262 9.6
      vertex -3.88377 0.957262 6.6
    endloop
  endfacet
  facet normal -1 -0 0
    outer loop
      vertex -3.88377 0.957262 9.6
      vertex -3.88377 -0.957262 6.6
      vertex -3.88377 -0.957262 9.6
    endloop
  endfacet
  facet normal -0.885455 0.464726 0
    outer loop
      vertex -3.88377 0.957262 6.6
      vertex -2.99404 2.65249 9.6
      vertex -2.99404 2.65249 6.6
    endloop
  endfacet
  facet normal -0.885455 0.464726 0
    outer loop
      vertex -2.99404 2.65249 9.6
      vertex -3.88377 0.957262 6.6
      vertex -3.88377 0.957262 9.6
    endloop
  endfacet
  facet normal 0.970941 -0.239318 0
    outer loop
      vertex 3.54182 -1.85889 9.6
      vertex 4 0 6.6
      vertex 4 0 9.6
    endloop
  endfacet
  facet normal 0.970941 -0.239318 0
    outer loop
      vertex 4 0 6.6
      vertex 3.54182 -1.85889 9.6
      vertex 3.54182 -1.85889 6.6
    endloop
  endfacet
  facet normal 0 0 1
    outer loop
      vertex 3 0 9.6
      vertex 4 0 9.6
      vertex 3.54182 1.85889 9.6
    endloop
  endfacet
  facet normal 0 0 1
    outer loop
      vertex 4 0 9.6
      vertex 3 0 9.6
      vertex 3.54182 -1.85889 9.6
    endloop
  endfacet
  facet normal 0 0 1
    outer loop
      vertex 3.54182 1.85889 9.6
      vertex 2.42705 1.76336 9.6
      vertex 3 0 9.6
    endloop
  endfacet
  facet normal 0 0 1
    outer loop
      vertex 2.27226 3.29193 9.6
      vertex 2.42705 1.76336 9.6
      vertex 3.54182 1.85889 9.6
    endloop
  endfacet
  facet normal 0 0 1
    outer loop
      vertex 2.27226 3.29193 9.6
      vertex 0.927051 2.85317 9.6
      vertex 2.42705 1.76336 9.6
    endloop
  endfacet
  facet normal 0 0 1
    outer loop
      vertex 0.482146 3.97083 9.6
      vertex 0.927051 2.85317 9.6
      vertex 2.27226 3.29193 9.6
    endloop
  endfacet
  facet normal 0 0 1
    outer loop
      vertex 0.482146 3.97083 9.6
      vertex -0.927051 2.85317 9.6
      vertex 0.927051 2.85317 9.6
    endloop
  endfacet
  facet normal -0 0 1
    outer loop
      vertex -1.41842 3.74006 9.6
      vertex -0.927051 2.85317 9.6
      vertex 0.482146 3.97083 9.6
    endloop
  endfacet
  facet normal 0 0 1
    outer loop
      vertex -2.99404 2.65249 9.6
      vertex -0.927051 2.85317 9.6
      vertex -1.41842 3.74006 9.6
    endloop
  endfacet
  facet normal 0 0 1
    outer loop
      vertex -0.927051 2.85317 9.6
      vertex -2.99404 2.65249 9.6
      vertex -2.42705 1.76336 9.6
    endloop
  endfacet
  facet normal 0 0 1
    outer loop
      vertex -3.88377 0.957262 9.6
      vertex -2.42705 1.76336 9.6
      vertex -2.99404 2.65249 9.6
    endloop
  endfacet
  facet normal 0 0 1
    outer loop
      vertex -2.42705 1.76336 9.6
      vertex -3.88377 0.957262 9.6
      vertex -3 0 9.6
    endloop
  endfacet
  facet normal -0 0 1
    outer loop
      vertex 2.42705 -1.76336 9.6
      vertex 3.54182 -1.85889 9.6
      vertex 3 0 9.6
    endloop
  endfacet
  facet normal 0 0 1
    outer loop
      vertex 2.42705 -1.76336 9.6
      vertex 2.27226 -3.29193 9.6
      vertex 3.54182 -1.85889 9.6
    endloop
  endfacet
  facet normal -0 0 1
    outer loop
      vertex 0.927051 -2.85317 9.6
      vertex 2.27226 -3.29193 9.6
      vertex 2.42705 -1.76336 9.6
    endloop
  endfacet
  facet normal 0 0 1
    outer loop
      vertex 0.927051 -2.85317 9.6
      vertex 0.482146 -3.97083 9.6
      vertex 2.27226 -3.29193 9.6
    endloop
  endfacet
  facet normal -0 0 1
    outer loop
      vertex -0.927051 -2.85317 9.6
      vertex 0.482146 -3.97083 9.6
      vertex 0.927051 -2.85317 9.6
    endloop
  endfacet
  facet normal 0 0 1
    outer loop
      vertex -0.927051 -2.85317 9.6
      vertex -1.41842 -3.74006 9.6
      vertex 0.482146 -3.97083 9.6
    endloop
  endfacet
  facet normal -0 0 1
    outer loop
      vertex -2.99404 -2.65249 9.6
      vertex -0.927051 -2.85317 9.6
      vertex -2.42705 -1.76336 9.6
    endloop
  endfacet
  facet normal 0 0 1
    outer loop
      vertex -0.927051 -2.85317 9.6
      vertex -2.99404 -2.65249 9.6
      vertex -1.41842 -3.74006 9.6
    endloop
  endfacet
  facet normal -0 0 1
    outer loop
      vertex -3.88377 -0.957262 9.6
      vertex -2.42705 -1.76336 9.6
      vertex -3 0 9.6
    endloop
  endfacet
  facet normal 0 0 1
    outer loop
      vertex -3.88377 -0.957262 9.6
      vertex -3 0 9.6
      vertex -3.88377 0.957262 9.6
    endloop
  endfacet
  facet normal 0 0 1
    outer loop
      vertex -2.42705 -1.76336 9.6
      vertex -3.88377 -0.957262 9.6
      vertex -2.99404 -2.65249 9.6
    endloop
  endfacet
  facet normal -0.120536 -0.992709 0
    outer loop
      vertex -1.41842 -3.74006 6.6
      vertex 0.482146 -3.97083 9.6
      vertex -1.41842 -3.74006 9.6
    endloop
  endfacet
  facet normal -0.120536 -0.992709 -0
    outer loop
      vertex 0.482146 -3.97083 9.6
      vertex -1.41842 -3.74006 6.6
      vertex 0.482146 -3.97083 6.6
    endloop
  endfacet
  facet normal 0.748511 -0.663122 0
    outer loop
      vertex 2.27226 -3.29193 9.6
      vertex 3.54182 -1.85889 6.6
      vertex 3.54182 -1.85889 9.6
    endloop
  endfacet
  facet normal 0.748511 -0.663122 0
    outer loop
      vertex 3.54182 -1.85889 6.6
      vertex 2.27226 -3.29193 9.6
      vertex 2.27226 -3.29193 6.6
    endloop
  endfacet
  facet normal 0.354605 -0.935016 0
    outer loop
      vertex 0.482146 -3.97083 6.6
      vertex 2.27226 -3.29193 9.6
      vertex 0.482146 -3.97083 9.6
    endloop
  endfacet
  facet normal 0.354605 -0.935016 0
    outer loop
      vertex 2.27226 -3.29193 9.6
      vertex 0.482146 -3.97083 6.6
      vertex 2.27226 -3.29193 6.6
    endloop
  endfacet
  facet normal -0.120536 0.992709 0
    outer loop
      vertex 0.482146 3.97083 6.6
      vertex -1.41842 3.74006 9.6
      vertex 0.482146 3.97083 9.6
    endloop
  endfacet
  facet normal -0.120536 0.992709 0
    outer loop
      vertex -1.41842 3.74006 9.6
      vertex 0.482146 3.97083 6.6
      vertex -1.41842 3.74006 6.6
    endloop
  endfacet
  facet normal 0.354605 0.935016 -0
    outer loop
      vertex 2.27226 3.29193 6.6
      vertex 0.482146 3.97083 9.6
      vertex 2.27226 3.29193 9.6
    endloop
  endfacet
  facet normal 0.354605 0.935016 0
    outer loop
      vertex 0.482146 3.97083 9.6
      vertex 2.27226 3.29193 6.6
      vertex 0.482146 3.97083 6.6
    endloop
  endfacet
  facet normal -0.568064 -0.822984 0
    outer loop
      vertex -2.99404 -2.65249 6.6
      vertex -1.41842 -3.74006 9.6
      vertex -2.99404 -2.65249 9.6
    endloop
  endfacet
  facet normal -0.568064 -0.822984 -0
    outer loop
      vertex -1.41842 -3.74006 9.6
      vertex -2.99404 -2.65249 6.6
      vertex -1.41842 -3.74006 6.6
    endloop
  endfacet
  facet normal -0.885455 -0.464726 0
    outer loop
      vertex -2.99404 -2.65249 6.6
      vertex -3.88377 -0.957262 9.6
      vertex -3.88377 -0.957262 6.6
    endloop
  endfacet
  facet normal -0.885455 -0.464726 0
    outer loop
      vertex -3.88377 -0.957262 9.6
      vertex -2.99404 -2.65249 6.6
      vertex -2.99404 -2.65249 9.6
    endloop
  endfacet
  facet normal -0.951057 -0.309017 0
    outer loop
      vertex -2.42705 -1.76336 9.6
      vertex -3 0 9.9
      vertex -3 0 9.6
    endloop
  endfacet
  facet normal -0.951057 -0.309017 0
    outer loop
      vertex -3 0 9.9
      vertex -2.42705 -1.76336 9.6
      vertex -2.42705 -1.76336 9.9
    endloop
  endfacet
  facet normal 0.587784 0.809018 -0
    outer loop
      vertex 2.42705 1.76336 9.6
      vertex 0.927051 2.85317 9.9
      vertex 2.42705 1.76336 9.9
    endloop
  endfacet
  facet normal 0.587784 0.809018 0
    outer loop
      vertex 0.927051 2.85317 9.9
      vertex 2.42705 1.76336 9.6
      vertex 0.927051 2.85317 9.6
    endloop
  endfacet
  facet normal 0.951057 0.309017 0
    outer loop
      vertex 3 0 9.9
      vertex 2.42705 1.76336 9.6
      vertex 2.42705 1.76336 9.9
    endloop
  endfacet
  facet normal 0.951057 0.309017 0
    outer loop
      vertex 2.42705 1.76336 9.6
      vertex 3 0 9.9
      vertex 3 0 9.6
    endloop
  endfacet
  facet normal 0 1 -0
    outer loop
      vertex 0.927051 2.85317 9.6
      vertex -0.927051 2.85317 9.9
      vertex 0.927051 2.85317 9.9
    endloop
  endfacet
  facet normal 0 1 0
    outer loop
      vertex -0.927051 2.85317 9.9
      vertex 0.927051 2.85317 9.6
      vertex -0.927051 2.85317 9.6
    endloop
  endfacet
  facet normal 0 0 1
    outer loop
      vertex 2.42705 1.76336 9.9
      vertex 2.42705 -1.76336 9.9
      vertex 3 0 9.9
    endloop
  endfacet
  facet normal 0 0 1
    outer loop
      vertex 0.927051 2.85317 9.9
      vertex 2.42705 -1.76336 9.9
      vertex 2.42705 1.76336 9.9
    endloop
  endfacet
  facet normal 0 0 1
    outer loop
      vertex 0.927051 2.85317 9.9
      vertex 0.927051 -2.85317 9.9
      vertex 2.42705 -1.76336 9.9
    endloop
  endfacet
  facet normal -0 0 1
    outer loop
      vertex -0.927051 2.85317 9.9
      vertex 0.927051 -2.85317 9.9
      vertex 0.927051 2.85317 9.9
    endloop
  endfacet
  facet normal 0 0 1
    outer loop
      vertex -0.927051 2.85317 9.9
      vertex -0.927051 -2.85317 9.9
      vertex 0.927051 -2.85317 9.9
    endloop
  endfacet
  facet normal -0 0 1
    outer loop
      vertex -2.42705 1.76336 9.9
      vertex -0.927051 -2.85317 9.9
      vertex -0.927051 2.85317 9.9
    endloop
  endfacet
  facet normal 0 0 1
    outer loop
      vertex -2.42705 1.76336 9.9
      vertex -2.42705 -1.76336 9.9
      vertex -0.927051 -2.85317 9.9
    endloop
  endfacet
  facet normal 0 -0 1
    outer loop
      vertex -2.42705 -1.76336 9.9
      vertex -2.42705 1.76336 9.9
      vertex -3 0 9.9
    endloop
  endfacet
  facet normal -0.587784 -0.809018 0
    outer loop
      vertex -2.42705 -1.76336 9.6
      vertex -0.927051 -2.85317 9.9
      vertex -2.42705 -1.76336 9.9
    endloop
  endfacet
  facet normal -0.587784 -0.809018 -0
    outer loop
      vertex -0.927051 -2.85317 9.9
      vertex -2.42705 -1.76336 9.6
      vertex -0.927051 -2.85317 9.6
    endloop
  endfacet
  facet normal 0.951057 -0.309017 0
    outer loop
      vertex 2.42705 -1.76336 9.9
      vertex 3 0 9.6
      vertex 3 0 9.9
    endloop
  endfacet
  facet normal 0.951057 -0.309017 0
    outer loop
      vertex 3 0 9.6
      vertex 2.42705 -1.76336 9.9
      vertex 2.42705 -1.76336 9.6
    endloop
  endfacet
  facet normal -0.587784 0.809018 0
    outer loop
      vertex -0.927051 2.85317 9.6
      vertex -2.42705 1.76336 9.9
      vertex -0.927051 2.85317 9.9
    endloop
  endfacet
  facet normal -0.587784 0.809018 0
    outer loop
      vertex -2.42705 1.76336 9.9
      vertex -0.927051 2.85317 9.6
      vertex -2.42705 1.76336 9.6
    endloop
  endfacet
  facet normal 0 -1 0
    outer loop
      vertex -0.927051 -2.85317 9.6
      vertex 0.927051 -2.85317 9.9
      vertex -0.927051 -2.85317 9.9
    endloop
  endfacet
  facet normal 0 -1 -0
    outer loop
      vertex 0.927051 -2.85317 9.9
      vertex -0.927051 -2.85317 9.6
      vertex 0.927051 -2.85317 9.6
    endloop
  endfacet
  facet normal 0.587784 -0.809018 0
    outer loop
      vertex 0.927051 -2.85317 9.6
      vertex 2.42705 -1.76336 9.9
      vertex 0.927051 -2.85317 9.9
    endloop
  endfacet
  facet normal 0.587784 -0.809018 0
    outer loop
      vertex 2.42705 -1.76336 9.9
      vertex 0.927051 -2.85317 9.6
      vertex 2.42705 -1.76336 9.6
    endloop
  endfacet
  facet normal -0.951057 0.309017 0
    outer loop
      vertex -3 0 9.6
      vertex -2.42705 1.76336 9.9
      vertex -2.42705 1.76336 9.6
    endloop
  endfacet
  facet normal -0.951057 0.309017 0
    outer loop
      vertex -2.42705 1.76336 9.9
      vertex -3 0 9.6
      vertex -3 0 9.9
    endloop
  endfacet
  facet normal 1 -0 0
    outer loop
      vertex 28.5 0 2.8
      vertex 28.5 3 0.799999
      vertex 28.5 3 2.8
    endloop
  endfacet
  facet normal 1 0 0
    outer loop
      vertex 28.5 3 0.799999
      vertex 28.5 0 2.8
      vertex 28.5 0 0.799999
    endloop
  endfacet
  facet normal -0 0 1
    outer loop
      vertex 16.5 3 2.8
      vertex 28.5 0 2.8
      vertex 28.5 3 2.8
    endloop
  endfacet
  facet normal 0 0 1
    outer loop
      vertex 28.5 0 2.8
      vertex 16.5 3 2.8
      vertex 16.5 0 2.8
    endloop
  endfacet
  facet normal 0 0 -1
    outer loop
      vertex 16.5 0 0.799999
      vertex 28.5 3 0.799999
      vertex 28.5 0 0.799999
    endloop
  endfacet
  facet normal -0 0 -1
    outer loop
      vertex 28.5 3 0.799999
      vertex 16.5 0 0.799999
      vertex 16.5 3 0.799999
    endloop
  endfacet
  facet normal 0 1 0
    outer loop
      vertex 28.5 3 2.8
      vertex 16.5 3 1.6
      vertex 16.5 3 2.8
    endloop
  endfacet
  facet normal 0 1 -0
    outer loop
      vertex 28.5 3 0.799999
      vertex 16.5 3 1.6
      vertex 28.5 3 2.8
    endloop
  endfacet
  facet normal 0 1 0
    outer loop
      vertex 16.5 3 1.6
      vertex 28.5 3 0.799999
      vertex 16.5 3 0.799999
    endloop
  endfacet
  facet normal 0 -1 0
    outer loop
      vertex 16.5 0 1.6
      vertex 28.5 0 2.8
      vertex 16.5 0 2.8
    endloop
  endfacet
  facet normal 0 -1 0
    outer loop
      vertex 28.5 0 0.799999
      vertex 16.5 0 1.6
      vertex 16.5 0 0.799999
    endloop
  endfacet
  facet normal 0 -1 0
    outer loop
      vertex 16.5 0 1.6
      vertex 28.5 0 0.799999
      vertex 28.5 0 2.8
    endloop
  endfacet
endsolid OpenSCAD_Model
