solid OpenSCAD_Model
  facet normal 1 0 0
    outer loop
      vertex 19.5 22.5 51.6
      vertex 19.5 32.5 57
      vertex 19.5 22.5 57
    endloop
  endfacet
  facet normal 1 0 0
    outer loop
      vertex 19.5 32.5 57
      vertex 19.5 22.5 51.6
      vertex 19.5 32.5 50
    endloop
  endfacet
  facet normal 1 0 0
    outer loop
      vertex 19.5 20.5 50
      vertex 19.5 22.5 51.6
      vertex 19.5 20.5 51.6
    endloop
  endfacet
  facet normal 1 0 0
    outer loop
      vertex 19.5 22.5 51.6
      vertex 19.5 20.5 50
      vertex 19.5 32.5 50
    endloop
  endfacet
  facet normal 0 0 1
    outer loop
      vertex 6 32.5 57
      vertex 5 22.5 57
      vertex 6 22.5 57
    endloop
  endfacet
  facet normal -0 0 1
    outer loop
      vertex 4.5 32.5 57
      vertex 5 22.5 57
      vertex 6 32.5 57
    endloop
  endfacet
  facet normal 0 0 1
    outer loop
      vertex 4.5 20.5 57
      vertex 5 22.5 57
      vertex 4.5 32.5 57
    endloop
  endfacet
  facet normal 0 0 1
    outer loop
      vertex 5 22.5 57
      vertex 4.5 20.5 57
      vertex 5 20.5 57
    endloop
  endfacet
  facet normal -0 0 1
    outer loop
      vertex 19 32.5 57
      vertex 19.5 22.5 57
      vertex 19.5 32.5 57
    endloop
  endfacet
  facet normal 0 0 1
    outer loop
      vertex 19.5 22.5 57
      vertex 19 32.5 57
      vertex 19 22.5 57
    endloop
  endfacet
  facet normal 0 0 -1
    outer loop
      vertex 4.5 -20.5 50
      vertex 60 -10 50
      vertex 60 -20.5 50
    endloop
  endfacet
  facet normal 0 0 -1
    outer loop
      vertex 59.5 -5 50
      vertex 19.5 20.5 50
      vertex 59.5 20.5 50
    endloop
  endfacet
  facet normal -0 0 -1
    outer loop
      vertex 60 -10 50
      vertex 4.5 -20.5 50
      vertex 59.5 -5 50
    endloop
  endfacet
  facet normal -0 0 -1
    outer loop
      vertex 59.5 -5 50
      vertex 4.5 -20.5 50
      vertex 19.5 20.5 50
    endloop
  endfacet
  facet normal 0 0 -1
    outer loop
      vertex 4.5 32.5 50
      vertex 19.5 20.5 50
      vertex 4.5 -20.5 50
    endloop
  endfacet
  facet normal 0 0 -1
    outer loop
      vertex 19.5 20.5 50
      vertex 4.5 32.5 50
      vertex 19.5 32.5 50
    endloop
  endfacet
  facet normal 0 0 -1
    outer loop
      vertex 60 -10 50
      vertex 62 -5 50
      vertex 62 -10 50
    endloop
  endfacet
  facet normal -0 0 -1
    outer loop
      vertex 62 -5 50
      vertex 60 -10 50
      vertex 59.5 -5 50
    endloop
  endfacet
  facet normal -1 0 0
    outer loop
      vertex 4.5 32.5 50
      vertex 4.5 20.5 51.6
      vertex 4.5 32.5 57
    endloop
  endfacet
  facet normal -1 0 0
    outer loop
      vertex 4.5 32.5 50
      vertex 4.5 20 51.6
      vertex 4.5 20.5 51.6
    endloop
  endfacet
  facet normal -1 0 0
    outer loop
      vertex 4.5 20 51.6
      vertex 4.5 -20 51.6
      vertex 4.5 20 56.3
    endloop
  endfacet
  facet normal -1 0 0
    outer loop
      vertex 4.5 -20.5 50
      vertex 4.5 20 51.6
      vertex 4.5 32.5 50
    endloop
  endfacet
  facet normal -1 -0 0
    outer loop
      vertex 4.5 20 51.6
      vertex 4.5 -20.5 50
      vertex 4.5 -20 51.6
    endloop
  endfacet
  facet normal -1 -0 0
    outer loop
      vertex 4.5 -20 51.6
      vertex 4.5 -20.5 50
      vertex 4.5 -20.5 51.6
    endloop
  endfacet
  facet normal -1 -0 0
    outer loop
      vertex 4.5 32.5 57
      vertex 4.5 20.5 51.6
      vertex 4.5 20.5 57
    endloop
  endfacet
  facet normal -1 -0 0
    outer loop
      vertex 4.5 20 56.3
      vertex 4.5 -20 51.6
      vertex 4.5 -20 56.3
    endloop
  endfacet
  facet normal 0 1 -0
    outer loop
      vertex 19.5 32.5 50
      vertex 19 32.5 57
      vertex 19.5 32.5 57
    endloop
  endfacet
  facet normal 0 1 0
    outer loop
      vertex 19 32.5 57
      vertex 19.5 32.5 50
      vertex 6 32.5 57
    endloop
  endfacet
  facet normal 0 1 0
    outer loop
      vertex 4.5 32.5 50
      vertex 6 32.5 57
      vertex 19.5 32.5 50
    endloop
  endfacet
  facet normal 0 1 0
    outer loop
      vertex 6 32.5 57
      vertex 4.5 32.5 50
      vertex 4.5 32.5 57
    endloop
  endfacet
  facet normal 0 1 -0
    outer loop
      vertex 19 32.5 57
      vertex 6 32.5 58.5
      vertex 19 32.5 58.5
    endloop
  endfacet
  facet normal 0 1 0
    outer loop
      vertex 6 32.5 58.5
      vertex 19 32.5 57
      vertex 6 32.5 57
    endloop
  endfacet
  facet normal 0 -1 0
    outer loop
      vertex 4.5 20.5 51.6
      vertex 5 20.5 57
      vertex 4.5 20.5 57
    endloop
  endfacet
  facet normal 0 -1 -0
    outer loop
      vertex 5 20.5 57
      vertex 4.5 20.5 51.6
      vertex 5 20.5 51.6
    endloop
  endfacet
  facet normal 0 1 -0
    outer loop
      vertex 59.5 20.5 50
      vertex 55 20.5 51.6
      vertex 59.5 20.5 51.6
    endloop
  endfacet
  facet normal 0 1 0
    outer loop
      vertex 19.5 20.5 50
      vertex 55 20.5 51.6
      vertex 59.5 20.5 50
    endloop
  endfacet
  facet normal 0 1 0
    outer loop
      vertex 55 20.5 51.6
      vertex 19.5 20.5 50
      vertex 19.5 20.5 51.6
    endloop
  endfacet
  facet normal 1 -0 0
    outer loop
      vertex 19 22.5 58.5
      vertex 19 32.5 57
      vertex 19 32.5 58.5
    endloop
  endfacet
  facet normal 1 0 0
    outer loop
      vertex 19 32.5 57
      vertex 19 22.5 58.5
      vertex 19 22.5 57
    endloop
  endfacet
  facet normal -0 0 1
    outer loop
      vertex 6 32.5 58.5
      vertex 19 22.5 58.5
      vertex 19 32.5 58.5
    endloop
  endfacet
  facet normal 0 0 1
    outer loop
      vertex 19 22.5 58.5
      vertex 6 32.5 58.5
      vertex 6 22.5 58.5
    endloop
  endfacet
  facet normal -1 0 0
    outer loop
      vertex 6 22.5 57
      vertex 6 32.5 58.5
      vertex 6 32.5 57
    endloop
  endfacet
  facet normal -1 -0 0
    outer loop
      vertex 6 32.5 58.5
      vertex 6 22.5 57
      vertex 6 22.5 58.5
    endloop
  endfacet
  facet normal 1 0 0
    outer loop
      vertex 59.5 20 56.3
      vertex 59.5 -5 53
      vertex 59.5 20 51.6
    endloop
  endfacet
  facet normal 1 -0 0
    outer loop
      vertex 59.5 -6.5 56.3
      vertex 59.5 -5 53
      vertex 59.5 20 56.3
    endloop
  endfacet
  facet normal 1 0 0
    outer loop
      vertex 59.5 -5 53
      vertex 59.5 -6.5 56.3
      vertex 59.5 -6.5 53
    endloop
  endfacet
  facet normal 1 -0 0
    outer loop
      vertex 59.5 20 51.6
      vertex 59.5 20.5 50
      vertex 59.5 20.5 51.6
    endloop
  endfacet
  facet normal 1 0 0
    outer loop
      vertex 59.5 -5 50
      vertex 59.5 20 51.6
      vertex 59.5 -5 53
    endloop
  endfacet
  facet normal 1 0 0
    outer loop
      vertex 59.5 20 51.6
      vertex 59.5 -5 50
      vertex 59.5 20.5 50
    endloop
  endfacet
  facet normal -0 0 1
    outer loop
      vertex 4.5 20.5 51.6
      vertex 5 20 51.6
      vertex 5 20.5 51.6
    endloop
  endfacet
  facet normal 0 0 1
    outer loop
      vertex 5 20 51.6
      vertex 4.5 20.5 51.6
      vertex 4.5 20 51.6
    endloop
  endfacet
  facet normal -0 0 1
    outer loop
      vertex 55 20.5 51.6
      vertex 59.5 20 51.6
      vertex 59.5 20.5 51.6
    endloop
  endfacet
  facet normal 0 0 1
    outer loop
      vertex 59.5 20 51.6
      vertex 55 20.5 51.6
      vertex 55 20 51.6
    endloop
  endfacet
  facet normal -0 0 1
    outer loop
      vertex 4.5 -20 51.6
      vertex 48 -20.5 51.6
      vertex 48 -20 51.6
    endloop
  endfacet
  facet normal 0 0 1
    outer loop
      vertex 48 -20.5 51.6
      vertex 4.5 -20 51.6
      vertex 4.5 -20.5 51.6
    endloop
  endfacet
  facet normal 0 0 -1
    outer loop
      vertex 19.5 20.5 51.6
      vertex 55 22.5 51.6
      vertex 55 20.5 51.6
    endloop
  endfacet
  facet normal -0 0 -1
    outer loop
      vertex 55 22.5 51.6
      vertex 19.5 20.5 51.6
      vertex 19.5 22.5 51.6
    endloop
  endfacet
  facet normal 0 -1 0
    outer loop
      vertex 4.5 -20.5 51.6
      vertex 4.5 -20.5 50
      vertex 48 -20.5 51.6
    endloop
  endfacet
  facet normal 0 -1 0
    outer loop
      vertex 48 -20.5 51.6
      vertex 60 -20.5 58
      vertex 48 -20.5 58
    endloop
  endfacet
  facet normal 0 -1 0
    outer loop
      vertex 48 -20.5 51.6
      vertex 60 -20.5 50
      vertex 60 -20.5 58
    endloop
  endfacet
  facet normal 0 -1 0
    outer loop
      vertex 60 -20.5 50
      vertex 48 -20.5 51.6
      vertex 4.5 -20.5 50
    endloop
  endfacet
  facet normal 1 -0 0
    outer loop
      vertex 55 20 56.3
      vertex 55 22.5 51.6
      vertex 55 22.5 60.1
    endloop
  endfacet
  facet normal 1 0 0
    outer loop
      vertex 55 22.5 51.6
      vertex 55 20 56.3
      vertex 55 20.5 51.6
    endloop
  endfacet
  facet normal 1 -0 0
    outer loop
      vertex 55 18 60.1
      vertex 55 20 56.3
      vertex 55 22.5 60.1
    endloop
  endfacet
  facet normal 1 0 0
    outer loop
      vertex 55 20 56.3
      vertex 55 18 60.1
      vertex 55 18 56.3
    endloop
  endfacet
  facet normal 1 0 0
    outer loop
      vertex 55 20.5 51.6
      vertex 55 20 56.3
      vertex 55 20 51.6
    endloop
  endfacet
  facet normal -0 0 1
    outer loop
      vertex 5 22.5 60.1
      vertex 55 18 60.1
      vertex 55 22.5 60.1
    endloop
  endfacet
  facet normal 0 0 1
    outer loop
      vertex 55 18 60.1
      vertex 5 22.5 60.1
      vertex 5 18 60.1
    endloop
  endfacet
  facet normal -1 0 0
    outer loop
      vertex 5 20 56.3
      vertex 5 20.5 51.6
      vertex 5 20 51.6
    endloop
  endfacet
  facet normal -1 0 0
    outer loop
      vertex 5 20.5 57
      vertex 5 22.5 60.1
      vertex 5 22.5 57
    endloop
  endfacet
  facet normal -1 0 0
    outer loop
      vertex 5 20.5 51.6
      vertex 5 20 56.3
      vertex 5 20.5 57
    endloop
  endfacet
  facet normal -1 0 0
    outer loop
      vertex 5 18 56.3
      vertex 5 20.5 57
      vertex 5 20 56.3
    endloop
  endfacet
  facet normal -1 -0 0
    outer loop
      vertex 5 20.5 57
      vertex 5 18 56.3
      vertex 5 18 60.1
    endloop
  endfacet
  facet normal -1 0 0
    outer loop
      vertex 5 20.5 57
      vertex 5 18 60.1
      vertex 5 22.5 60.1
    endloop
  endfacet
  facet normal 0 1 0
    outer loop
      vertex 55 22.5 60.1
      vertex 19 22.5 58.5
      vertex 5 22.5 60.1
    endloop
  endfacet
  facet normal 0 1 0
    outer loop
      vertex 55 22.5 60.1
      vertex 19.5 22.5 57
      vertex 19 22.5 58.5
    endloop
  endfacet
  facet normal 0 1 -0
    outer loop
      vertex 55 22.5 51.6
      vertex 19.5 22.5 57
      vertex 55 22.5 60.1
    endloop
  endfacet
  facet normal 0 1 0
    outer loop
      vertex 19.5 22.5 57
      vertex 55 22.5 51.6
      vertex 19.5 22.5 51.6
    endloop
  endfacet
  facet normal 0 1 -0
    outer loop
      vertex 6 22.5 58.5
      vertex 5 22.5 60.1
      vertex 19 22.5 58.5
    endloop
  endfacet
  facet normal 0 1 0
    outer loop
      vertex 5 22.5 57
      vertex 6 22.5 58.5
      vertex 6 22.5 57
    endloop
  endfacet
  facet normal 0 1 0
    outer loop
      vertex 6 22.5 58.5
      vertex 5 22.5 57
      vertex 5 22.5 60.1
    endloop
  endfacet
  facet normal 0 1 0
    outer loop
      vertex 19 22.5 58.5
      vertex 19.5 22.5 57
      vertex 19 22.5 57
    endloop
  endfacet
  facet normal 0 -1 0
    outer loop
      vertex 5 18 56.3
      vertex 55 18 60.1
      vertex 5 18 60.1
    endloop
  endfacet
  facet normal 0 -1 -0
    outer loop
      vertex 55 18 60.1
      vertex 5 18 56.3
      vertex 55 18 56.3
    endloop
  endfacet
  facet normal 1 0 0
    outer loop
      vertex 60 -6.5 58
      vertex 60 -10 53
      vertex 60 -6.5 53
    endloop
  endfacet
  facet normal 1 -0 0
    outer loop
      vertex 60 -20.5 58
      vertex 60 -10 53
      vertex 60 -6.5 58
    endloop
  endfacet
  facet normal 1 0 0
    outer loop
      vertex 60 -20.5 50
      vertex 60 -10 53
      vertex 60 -20.5 58
    endloop
  endfacet
  facet normal 1 0 0
    outer loop
      vertex 60 -10 53
      vertex 60 -20.5 50
      vertex 60 -10 50
    endloop
  endfacet
  facet normal -0 0 1
    outer loop
      vertex 48 -6.5 58
      vertex 60 -20.5 58
      vertex 60 -6.5 58
    endloop
  endfacet
  facet normal 0 0 1
    outer loop
      vertex 60 -20.5 58
      vertex 48 -6.5 58
      vertex 48 -20.5 58
    endloop
  endfacet
  facet normal -1 0 0
    outer loop
      vertex 48 -20 51.6
      vertex 48 -20.5 51.6
      vertex 48 -20 56.3
    endloop
  endfacet
  facet normal -1 0 0
    outer loop
      vertex 48 -14 56.3
      vertex 48 -20 56.3
      vertex 48 -14 57.1
    endloop
  endfacet
  facet normal -1 0 0
    outer loop
      vertex 48 -14 57.1
      vertex 48 -6.5 58
      vertex 48 -6.5 57.1
    endloop
  endfacet
  facet normal -1 0 0
    outer loop
      vertex 48 -14 57.1
      vertex 48 -20.5 58
      vertex 48 -6.5 58
    endloop
  endfacet
  facet normal -1 0 0
    outer loop
      vertex 48 -20 56.3
      vertex 48 -20.5 58
      vertex 48 -14 57.1
    endloop
  endfacet
  facet normal -1 0 0
    outer loop
      vertex 48 -20.5 58
      vertex 48 -20 56.3
      vertex 48 -20.5 51.6
    endloop
  endfacet
  facet normal 0 1 0
    outer loop
      vertex 60 -6.5 58
      vertex 50 -6.5 57.1
      vertex 48 -6.5 58
    endloop
  endfacet
  facet normal 0 1 0
    outer loop
      vertex 60 -6.5 58
      vertex 59.5 -6.5 56.3
      vertex 50 -6.5 57.1
    endloop
  endfacet
  facet normal 0 1 -0
    outer loop
      vertex 60 -6.5 53
      vertex 59.5 -6.5 56.3
      vertex 60 -6.5 58
    endloop
  endfacet
  facet normal 0 1 0
    outer loop
      vertex 59.5 -6.5 56.3
      vertex 60 -6.5 53
      vertex 59.5 -6.5 53
    endloop
  endfacet
  facet normal 0 1 0
    outer loop
      vertex 48 -6.5 58
      vertex 50 -6.5 57.1
      vertex 48 -6.5 57.1
    endloop
  endfacet
  facet normal 0 1 0
    outer loop
      vertex 50 -6.5 57.1
      vertex 59.5 -6.5 56.3
      vertex 50 -6.5 56.3
    endloop
  endfacet
  facet normal 1 -0 0
    outer loop
      vertex 62 -10 53
      vertex 62 -5 50
      vertex 62 -5 53
    endloop
  endfacet
  facet normal 1 0 0
    outer loop
      vertex 62 -5 50
      vertex 62 -10 53
      vertex 62 -10 50
    endloop
  endfacet
  facet normal 0 0 1
    outer loop
      vertex 62 -5 53
      vertex 60 -6.5 53
      vertex 62 -10 53
    endloop
  endfacet
  facet normal -0 0 1
    outer loop
      vertex 59.5 -5 53
      vertex 60 -6.5 53
      vertex 62 -5 53
    endloop
  endfacet
  facet normal 0 0 1
    outer loop
      vertex 60 -6.5 53
      vertex 59.5 -5 53
      vertex 59.5 -6.5 53
    endloop
  endfacet
  facet normal 0 0 1
    outer loop
      vertex 62 -10 53
      vertex 60 -6.5 53
      vertex 60 -10 53
    endloop
  endfacet
  facet normal 0 1 -0
    outer loop
      vertex 62 -5 50
      vertex 59.5 -5 53
      vertex 62 -5 53
    endloop
  endfacet
  facet normal 0 1 0
    outer loop
      vertex 59.5 -5 53
      vertex 62 -5 50
      vertex 59.5 -5 50
    endloop
  endfacet
  facet normal 0 -1 0
    outer loop
      vertex 60 -10 50
      vertex 62 -10 53
      vertex 60 -10 53
    endloop
  endfacet
  facet normal 0 -1 -0
    outer loop
      vertex 62 -10 53
      vertex 60 -10 50
      vertex 62 -10 50
    endloop
  endfacet
  facet normal 0 0 1
    outer loop
      vertex 5 20 56.3
      vertex 4.5 20 56.3
      vertex 5 18 56.3
    endloop
  endfacet
  facet normal 0 0 1
    outer loop
      vertex 55 18 56.3
      vertex 14 14 56.3
      vertex 50 14 56.3
    endloop
  endfacet
  facet normal 0 0 1
    outer loop
      vertex 14 14 56.3
      vertex 5 18 56.3
      vertex 14 -14 56.3
    endloop
  endfacet
  facet normal -0 0 1
    outer loop
      vertex 5 18 56.3
      vertex 14 14 56.3
      vertex 55 18 56.3
    endloop
  endfacet
  facet normal 0 0 1
    outer loop
      vertex 55 18 56.3
      vertex 59.5 20 56.3
      vertex 55 20 56.3
    endloop
  endfacet
  facet normal 0 0 1
    outer loop
      vertex 59.5 20 56.3
      vertex 55 18 56.3
      vertex 59.5 -6.5 56.3
    endloop
  endfacet
  facet normal -0 0 1
    outer loop
      vertex 50 14 56.3
      vertex 59.5 -6.5 56.3
      vertex 55 18 56.3
    endloop
  endfacet
  facet normal 0 0 1
    outer loop
      vertex 59.5 -6.5 56.3
      vertex 50 14 56.3
      vertex 50 -6.5 56.3
    endloop
  endfacet
  facet normal -0 0 1
    outer loop
      vertex 14 -14 56.3
      vertex 48 -20 56.3
      vertex 48 -14 56.3
    endloop
  endfacet
  facet normal 0 0 1
    outer loop
      vertex 14 -14 56.3
      vertex 4.5 -20 56.3
      vertex 48 -20 56.3
    endloop
  endfacet
  facet normal 0 0 1
    outer loop
      vertex 5 18 56.3
      vertex 4.5 -20 56.3
      vertex 14 -14 56.3
    endloop
  endfacet
  facet normal 0 0 1
    outer loop
      vertex 4.5 -20 56.3
      vertex 5 18 56.3
      vertex 4.5 20 56.3
    endloop
  endfacet
  facet normal 0 1 -0
    outer loop
      vertex 5 20 51.6
      vertex 4.5 20 56.3
      vertex 5 20 56.3
    endloop
  endfacet
  facet normal 0 1 0
    outer loop
      vertex 4.5 20 56.3
      vertex 5 20 51.6
      vertex 4.5 20 51.6
    endloop
  endfacet
  facet normal 0 1 -0
    outer loop
      vertex 59.5 20 51.6
      vertex 55 20 56.3
      vertex 59.5 20 56.3
    endloop
  endfacet
  facet normal 0 1 0
    outer loop
      vertex 55 20 56.3
      vertex 59.5 20 51.6
      vertex 55 20 51.6
    endloop
  endfacet
  facet normal 0 -1 0
    outer loop
      vertex 4.5 -20 51.6
      vertex 48 -20 56.3
      vertex 4.5 -20 56.3
    endloop
  endfacet
  facet normal 0 -1 -0
    outer loop
      vertex 48 -20 56.3
      vertex 4.5 -20 51.6
      vertex 48 -20 51.6
    endloop
  endfacet
  facet normal 1 -0 0
    outer loop
      vertex 50 -6.5 57.1
      vertex 50 14 56.3
      vertex 50 14 57.1
    endloop
  endfacet
  facet normal 1 0 0
    outer loop
      vertex 50 14 56.3
      vertex 50 -6.5 57.1
      vertex 50 -6.5 56.3
    endloop
  endfacet
  facet normal 0 0 1
    outer loop
      vertex 50 14 57.1
      vertex 48 -6.5 57.1
      vertex 50 -6.5 57.1
    endloop
  endfacet
  facet normal -0 0 1
    outer loop
      vertex 14 14 57.1
      vertex 48 -6.5 57.1
      vertex 50 14 57.1
    endloop
  endfacet
  facet normal 0 0 1
    outer loop
      vertex 14 -14 57.1
      vertex 48 -6.5 57.1
      vertex 14 14 57.1
    endloop
  endfacet
  facet normal 0 0 1
    outer loop
      vertex 48 -6.5 57.1
      vertex 14 -14 57.1
      vertex 48 -14 57.1
    endloop
  endfacet
  facet normal -1 0 0
    outer loop
      vertex 14 -14 56.3
      vertex 14 14 57.1
      vertex 14 14 56.3
    endloop
  endfacet
  facet normal -1 -0 0
    outer loop
      vertex 14 14 57.1
      vertex 14 -14 56.3
      vertex 14 -14 57.1
    endloop
  endfacet
  facet normal 0 1 -0
    outer loop
      vertex 50 14 56.3
      vertex 14 14 57.1
      vertex 50 14 57.1
    endloop
  endfacet
  facet normal 0 1 0
    outer loop
      vertex 14 14 57.1
      vertex 50 14 56.3
      vertex 14 14 56.3
    endloop
  endfacet
  facet normal 0 -1 0
    outer loop
      vertex 14 -14 56.3
      vertex 48 -14 57.1
      vertex 14 -14 57.1
    endloop
  endfacet
  facet normal 0 -1 -0
    outer loop
      vertex 48 -14 57.1
      vertex 14 -14 56.3
      vertex 48 -14 56.3
    endloop
  endfacet
endsolid OpenSCAD_Model
