solid OpenSCAD_Model
  facet normal 1 0 0
    outer loop
      vertex -12.5 22.5 1.6
      vertex -12.5 32.5 7
      vertex -12.5 22.5 7
    endloop
  endfacet
  facet normal 1 0 0
    outer loop
      vertex -12.5 32.5 7
      vertex -12.5 22.5 1.6
      vertex -12.5 32.5 0
    endloop
  endfacet
  facet normal 1 0 0
    outer loop
      vertex -12.5 20.5 0
      vertex -12.5 22.5 1.6
      vertex -12.5 20.5 1.6
    endloop
  endfacet
  facet normal 1 0 0
    outer loop
      vertex -12.5 22.5 1.6
      vertex -12.5 20.5 0
      vertex -12.5 32.5 0
    endloop
  endfacet
  facet normal 0 0 1
    outer loop
      vertex -26 32.5 7
      vertex -27 22.5 7
      vertex -26 22.5 7
    endloop
  endfacet
  facet normal -0 0 1
    outer loop
      vertex -27.5 32.5 7
      vertex -27 22.5 7
      vertex -26 32.5 7
    endloop
  endfacet
  facet normal 0 0 1
    outer loop
      vertex -27.5 20.5 7
      vertex -27 22.5 7
      vertex -27.5 32.5 7
    endloop
  endfacet
  facet normal 0 0 1
    outer loop
      vertex -27 22.5 7
      vertex -27.5 20.5 7
      vertex -27 20.5 7
    endloop
  endfacet
  facet normal -0 0 1
    outer loop
      vertex -13 32.5 7
      vertex -12.5 22.5 7
      vertex -12.5 32.5 7
    endloop
  endfacet
  facet normal 0 0 1
    outer loop
      vertex -12.5 22.5 7
      vertex -13 32.5 7
      vertex -13 22.5 7
    endloop
  endfacet
  facet normal 0 0 -1
    outer loop
      vertex -27.5 -20.5 0
      vertex 28 -10 0
      vertex 28 -20.5 0
    endloop
  endfacet
  facet normal 0 0 -1
    outer loop
      vertex 27.5 -5 0
      vertex -12.5 20.5 0
      vertex 27.5 20.5 0
    endloop
  endfacet
  facet normal -0 0 -1
    outer loop
      vertex 28 -10 0
      vertex -27.5 -20.5 0
      vertex 27.5 -5 0
    endloop
  endfacet
  facet normal -0 0 -1
    outer loop
      vertex 27.5 -5 0
      vertex -27.5 -20.5 0
      vertex -12.5 20.5 0
    endloop
  endfacet
  facet normal 0 0 -1
    outer loop
      vertex -27.5 32.5 0
      vertex -12.5 20.5 0
      vertex -27.5 -20.5 0
    endloop
  endfacet
  facet normal 0 0 -1
    outer loop
      vertex -12.5 20.5 0
      vertex -27.5 32.5 0
      vertex -12.5 32.5 0
    endloop
  endfacet
  facet normal 0 0 -1
    outer loop
      vertex 28 -10 0
      vertex 30 -5 0
      vertex 30 -10 0
    endloop
  endfacet
  facet normal -0 0 -1
    outer loop
      vertex 30 -5 0
      vertex 28 -10 0
      vertex 27.5 -5 0
    endloop
  endfacet
  facet normal -1 0 0
    outer loop
      vertex -27.5 32.5 0
      vertex -27.5 20.5 1.6
      vertex -27.5 32.5 7
    endloop
  endfacet
  facet normal -1 0 0
    outer loop
      vertex -27.5 32.5 0
      vertex -27.5 20 1.6
      vertex -27.5 20.5 1.6
    endloop
  endfacet
  facet normal -1 0 0
    outer loop
      vertex -27.5 20 1.6
      vertex -27.5 -20 1.6
      vertex -27.5 20 6.3
    endloop
  endfacet
  facet normal -1 0 0
    outer loop
      vertex -27.5 -20.5 0
      vertex -27.5 20 1.6
      vertex -27.5 32.5 0
    endloop
  endfacet
  facet normal -1 -0 0
    outer loop
      vertex -27.5 20 1.6
      vertex -27.5 -20.5 0
      vertex -27.5 -20 1.6
    endloop
  endfacet
  facet normal -1 -0 0
    outer loop
      vertex -27.5 -20 1.6
      vertex -27.5 -20.5 0
      vertex -27.5 -20.5 1.6
    endloop
  endfacet
  facet normal -1 -0 0
    outer loop
      vertex -27.5 32.5 7
      vertex -27.5 20.5 1.6
      vertex -27.5 20.5 7
    endloop
  endfacet
  facet normal -1 -0 0
    outer loop
      vertex -27.5 20 6.3
      vertex -27.5 -20 1.6
      vertex -27.5 -20 6.3
    endloop
  endfacet
  facet normal 0 1 -0
    outer loop
      vertex -12.5 32.5 0
      vertex -13 32.5 7
      vertex -12.5 32.5 7
    endloop
  endfacet
  facet normal 0 1 0
    outer loop
      vertex -13 32.5 7
      vertex -12.5 32.5 0
      vertex -26 32.5 7
    endloop
  endfacet
  facet normal 0 1 0
    outer loop
      vertex -27.5 32.5 0
      vertex -26 32.5 7
      vertex -12.5 32.5 0
    endloop
  endfacet
  facet normal 0 1 0
    outer loop
      vertex -26 32.5 7
      vertex -27.5 32.5 0
      vertex -27.5 32.5 7
    endloop
  endfacet
  facet normal 0 1 -0
    outer loop
      vertex -13 32.5 7
      vertex -26 32.5 8.5
      vertex -13 32.5 8.5
    endloop
  endfacet
  facet normal 0 1 0
    outer loop
      vertex -26 32.5 8.5
      vertex -13 32.5 7
      vertex -26 32.5 7
    endloop
  endfacet
  facet normal 0 -1 0
    outer loop
      vertex -27.5 20.5 1.6
      vertex -27 20.5 7
      vertex -27.5 20.5 7
    endloop
  endfacet
  facet normal 0 -1 -0
    outer loop
      vertex -27 20.5 7
      vertex -27.5 20.5 1.6
      vertex -27 20.5 1.6
    endloop
  endfacet
  facet normal 0 1 -0
    outer loop
      vertex 27.5 20.5 0
      vertex 23 20.5 1.6
      vertex 27.5 20.5 1.6
    endloop
  endfacet
  facet normal 0 1 0
    outer loop
      vertex -12.5 20.5 0
      vertex 23 20.5 1.6
      vertex 27.5 20.5 0
    endloop
  endfacet
  facet normal 0 1 0
    outer loop
      vertex 23 20.5 1.6
      vertex -12.5 20.5 0
      vertex -12.5 20.5 1.6
    endloop
  endfacet
  facet normal 1 -0 0
    outer loop
      vertex -13 22.5 8.5
      vertex -13 32.5 7
      vertex -13 32.5 8.5
    endloop
  endfacet
  facet normal 1 0 0
    outer loop
      vertex -13 32.5 7
      vertex -13 22.5 8.5
      vertex -13 22.5 7
    endloop
  endfacet
  facet normal -0 0 1
    outer loop
      vertex -26 32.5 8.5
      vertex -13 22.5 8.5
      vertex -13 32.5 8.5
    endloop
  endfacet
  facet normal 0 0 1
    outer loop
      vertex -13 22.5 8.5
      vertex -26 32.5 8.5
      vertex -26 22.5 8.5
    endloop
  endfacet
  facet normal -1 0 0
    outer loop
      vertex -26 22.5 7
      vertex -26 32.5 8.5
      vertex -26 32.5 7
    endloop
  endfacet
  facet normal -1 -0 0
    outer loop
      vertex -26 32.5 8.5
      vertex -26 22.5 7
      vertex -26 22.5 8.5
    endloop
  endfacet
  facet normal 1 0 0
    outer loop
      vertex 27.5 20 6.3
      vertex 27.5 -5 3
      vertex 27.5 20 1.6
    endloop
  endfacet
  facet normal 1 -0 0
    outer loop
      vertex 27.5 -6.5 6.3
      vertex 27.5 -5 3
      vertex 27.5 20 6.3
    endloop
  endfacet
  facet normal 1 0 0
    outer loop
      vertex 27.5 -5 3
      vertex 27.5 -6.5 6.3
      vertex 27.5 -6.5 3
    endloop
  endfacet
  facet normal 1 -0 0
    outer loop
      vertex 27.5 20 1.6
      vertex 27.5 20.5 0
      vertex 27.5 20.5 1.6
    endloop
  endfacet
  facet normal 1 0 0
    outer loop
      vertex 27.5 -5 0
      vertex 27.5 20 1.6
      vertex 27.5 -5 3
    endloop
  endfacet
  facet normal 1 0 0
    outer loop
      vertex 27.5 20 1.6
      vertex 27.5 -5 0
      vertex 27.5 20.5 0
    endloop
  endfacet
  facet normal -0 0 1
    outer loop
      vertex -27.5 20.5 1.6
      vertex -27 20 1.6
      vertex -27 20.5 1.6
    endloop
  endfacet
  facet normal 0 0 1
    outer loop
      vertex -27 20 1.6
      vertex -27.5 20.5 1.6
      vertex -27.5 20 1.6
    endloop
  endfacet
  facet normal -0 0 1
    outer loop
      vertex 23 20.5 1.6
      vertex 27.5 20 1.6
      vertex 27.5 20.5 1.6
    endloop
  endfacet
  facet normal 0 0 1
    outer loop
      vertex 27.5 20 1.6
      vertex 23 20.5 1.6
      vertex 23 20 1.6
    endloop
  endfacet
  facet normal -0 0 1
    outer loop
      vertex -27.5 -20 1.6
      vertex 16 -20.5 1.6
      vertex 16 -20 1.6
    endloop
  endfacet
  facet normal 0 0 1
    outer loop
      vertex 16 -20.5 1.6
      vertex -27.5 -20 1.6
      vertex -27.5 -20.5 1.6
    endloop
  endfacet
  facet normal 0 0 -1
    outer loop
      vertex -12.5 20.5 1.6
      vertex 23 22.5 1.6
      vertex 23 20.5 1.6
    endloop
  endfacet
  facet normal -0 0 -1
    outer loop
      vertex 23 22.5 1.6
      vertex -12.5 20.5 1.6
      vertex -12.5 22.5 1.6
    endloop
  endfacet
  facet normal 0 -1 0
    outer loop
      vertex -27.5 -20.5 1.6
      vertex -27.5 -20.5 0
      vertex 16 -20.5 1.6
    endloop
  endfacet
  facet normal 0 -1 0
    outer loop
      vertex 16 -20.5 1.6
      vertex 28 -20.5 8
      vertex 16 -20.5 8
    endloop
  endfacet
  facet normal 0 -1 0
    outer loop
      vertex 16 -20.5 1.6
      vertex 28 -20.5 0
      vertex 28 -20.5 8
    endloop
  endfacet
  facet normal 0 -1 0
    outer loop
      vertex 28 -20.5 0
      vertex 16 -20.5 1.6
      vertex -27.5 -20.5 0
    endloop
  endfacet
  facet normal 1 -0 0
    outer loop
      vertex 23 20 6.3
      vertex 23 22.5 1.6
      vertex 23 22.5 10.1
    endloop
  endfacet
  facet normal 1 0 0
    outer loop
      vertex 23 22.5 1.6
      vertex 23 20 6.3
      vertex 23 20.5 1.6
    endloop
  endfacet
  facet normal 1 -0 0
    outer loop
      vertex 23 18 10.1
      vertex 23 20 6.3
      vertex 23 22.5 10.1
    endloop
  endfacet
  facet normal 1 0 0
    outer loop
      vertex 23 20 6.3
      vertex 23 18 10.1
      vertex 23 18 6.3
    endloop
  endfacet
  facet normal 1 0 0
    outer loop
      vertex 23 20.5 1.6
      vertex 23 20 6.3
      vertex 23 20 1.6
    endloop
  endfacet
  facet normal -0 0 1
    outer loop
      vertex -27 22.5 10.1
      vertex 23 18 10.1
      vertex 23 22.5 10.1
    endloop
  endfacet
  facet normal 0 0 1
    outer loop
      vertex 23 18 10.1
      vertex -27 22.5 10.1
      vertex -27 18 10.1
    endloop
  endfacet
  facet normal -1 0 0
    outer loop
      vertex -27 20 6.3
      vertex -27 20.5 1.6
      vertex -27 20 1.6
    endloop
  endfacet
  facet normal -1 0 0
    outer loop
      vertex -27 20.5 7
      vertex -27 22.5 10.1
      vertex -27 22.5 7
    endloop
  endfacet
  facet normal -1 0 0
    outer loop
      vertex -27 20.5 1.6
      vertex -27 20 6.3
      vertex -27 20.5 7
    endloop
  endfacet
  facet normal -1 0 0
    outer loop
      vertex -27 18 6.3
      vertex -27 20.5 7
      vertex -27 20 6.3
    endloop
  endfacet
  facet normal -1 -0 0
    outer loop
      vertex -27 20.5 7
      vertex -27 18 6.3
      vertex -27 18 10.1
    endloop
  endfacet
  facet normal -1 0 0
    outer loop
      vertex -27 20.5 7
      vertex -27 18 10.1
      vertex -27 22.5 10.1
    endloop
  endfacet
  facet normal 0 1 0
    outer loop
      vertex 23 22.5 10.1
      vertex -13 22.5 8.5
      vertex -27 22.5 10.1
    endloop
  endfacet
  facet normal 0 1 0
    outer loop
      vertex 23 22.5 10.1
      vertex -12.5 22.5 7
      vertex -13 22.5 8.5
    endloop
  endfacet
  facet normal 0 1 -0
    outer loop
      vertex 23 22.5 1.6
      vertex -12.5 22.5 7
      vertex 23 22.5 10.1
    endloop
  endfacet
  facet normal 0 1 0
    outer loop
      vertex -12.5 22.5 7
      vertex 23 22.5 1.6
      vertex -12.5 22.5 1.6
    endloop
  endfacet
  facet normal 0 1 -0
    outer loop
      vertex -26 22.5 8.5
      vertex -27 22.5 10.1
      vertex -13 22.5 8.5
    endloop
  endfacet
  facet normal 0 1 0
    outer loop
      vertex -27 22.5 7
      vertex -26 22.5 8.5
      vertex -26 22.5 7
    endloop
  endfacet
  facet normal 0 1 0
    outer loop
      vertex -26 22.5 8.5
      vertex -27 22.5 7
      vertex -27 22.5 10.1
    endloop
  endfacet
  facet normal 0 1 0
    outer loop
      vertex -13 22.5 8.5
      vertex -12.5 22.5 7
      vertex -13 22.5 7
    endloop
  endfacet
  facet normal 0 -1 0
    outer loop
      vertex -27 18 6.3
      vertex 23 18 10.1
      vertex -27 18 10.1
    endloop
  endfacet
  facet normal 0 -1 -0
    outer loop
      vertex 23 18 10.1
      vertex -27 18 6.3
      vertex 23 18 6.3
    endloop
  endfacet
  facet normal 1 0 0
    outer loop
      vertex 28 -6.5 8
      vertex 28 -10 3
      vertex 28 -6.5 3
    endloop
  endfacet
  facet normal 1 -0 0
    outer loop
      vertex 28 -20.5 8
      vertex 28 -10 3
      vertex 28 -6.5 8
    endloop
  endfacet
  facet normal 1 0 0
    outer loop
      vertex 28 -20.5 0
      vertex 28 -10 3
      vertex 28 -20.5 8
    endloop
  endfacet
  facet normal 1 0 0
    outer loop
      vertex 28 -10 3
      vertex 28 -20.5 0
      vertex 28 -10 0
    endloop
  endfacet
  facet normal -0 0 1
    outer loop
      vertex 16 -6.5 8
      vertex 28 -20.5 8
      vertex 28 -6.5 8
    endloop
  endfacet
  facet normal 0 0 1
    outer loop
      vertex 28 -20.5 8
      vertex 16 -6.5 8
      vertex 16 -20.5 8
    endloop
  endfacet
  facet normal -1 0 0
    outer loop
      vertex 16 -20 1.6
      vertex 16 -20.5 1.6
      vertex 16 -20 6.3
    endloop
  endfacet
  facet normal -1 0 0
    outer loop
      vertex 16 -14 6.3
      vertex 16 -20 6.3
      vertex 16 -14 7.1
    endloop
  endfacet
  facet normal -1 0 0
    outer loop
      vertex 16 -14 7.1
      vertex 16 -6.5 8
      vertex 16 -6.5 7.1
    endloop
  endfacet
  facet normal -1 0 0
    outer loop
      vertex 16 -14 7.1
      vertex 16 -20.5 8
      vertex 16 -6.5 8
    endloop
  endfacet
  facet normal -1 0 0
    outer loop
      vertex 16 -20 6.3
      vertex 16 -20.5 8
      vertex 16 -14 7.1
    endloop
  endfacet
  facet normal -1 0 0
    outer loop
      vertex 16 -20.5 8
      vertex 16 -20 6.3
      vertex 16 -20.5 1.6
    endloop
  endfacet
  facet normal 0 1 0
    outer loop
      vertex 28 -6.5 8
      vertex 18 -6.5 7.1
      vertex 16 -6.5 8
    endloop
  endfacet
  facet normal 0 1 0
    outer loop
      vertex 28 -6.5 8
      vertex 27.5 -6.5 6.3
      vertex 18 -6.5 7.1
    endloop
  endfacet
  facet normal 0 1 -0
    outer loop
      vertex 28 -6.5 3
      vertex 27.5 -6.5 6.3
      vertex 28 -6.5 8
    endloop
  endfacet
  facet normal 0 1 0
    outer loop
      vertex 27.5 -6.5 6.3
      vertex 28 -6.5 3
      vertex 27.5 -6.5 3
    endloop
  endfacet
  facet normal 0 1 0
    outer loop
      vertex 16 -6.5 8
      vertex 18 -6.5 7.1
      vertex 16 -6.5 7.1
    endloop
  endfacet
  facet normal 0 1 0
    outer loop
      vertex 18 -6.5 7.1
      vertex 27.5 -6.5 6.3
      vertex 18 -6.5 6.3
    endloop
  endfacet
  facet normal 1 -0 0
    outer loop
      vertex 30 -10 3
      vertex 30 -5 0
      vertex 30 -5 3
    endloop
  endfacet
  facet normal 1 0 0
    outer loop
      vertex 30 -5 0
      vertex 30 -10 3
      vertex 30 -10 0
    endloop
  endfacet
  facet normal 0 0 1
    outer loop
      vertex 30 -5 3
      vertex 28 -6.5 3
      vertex 30 -10 3
    endloop
  endfacet
  facet normal -0 0 1
    outer loop
      vertex 27.5 -5 3
      vertex 28 -6.5 3
      vertex 30 -5 3
    endloop
  endfacet
  facet normal 0 0 1
    outer loop
      vertex 28 -6.5 3
      vertex 27.5 -5 3
      vertex 27.5 -6.5 3
    endloop
  endfacet
  facet normal 0 0 1
    outer loop
      vertex 30 -10 3
      vertex 28 -6.5 3
      vertex 28 -10 3
    endloop
  endfacet
  facet normal 0 1 -0
    outer loop
      vertex 30 -5 0
      vertex 27.5 -5 3
      vertex 30 -5 3
    endloop
  endfacet
  facet normal 0 1 0
    outer loop
      vertex 27.5 -5 3
      vertex 30 -5 0
      vertex 27.5 -5 0
    endloop
  endfacet
  facet normal 0 -1 0
    outer loop
      vertex 28 -10 0
      vertex 30 -10 3
      vertex 28 -10 3
    endloop
  endfacet
  facet normal 0 -1 -0
    outer loop
      vertex 30 -10 3
      vertex 28 -10 0
      vertex 30 -10 0
    endloop
  endfacet
  facet normal 0 0 1
    outer loop
      vertex -27 20 6.3
      vertex -27.5 20 6.3
      vertex -27 18 6.3
    endloop
  endfacet
  facet normal 0 0 1
    outer loop
      vertex 23 18 6.3
      vertex -18 14 6.3
      vertex 18 14 6.3
    endloop
  endfacet
  facet normal 0 0 1
    outer loop
      vertex -18 14 6.3
      vertex -27 18 6.3
      vertex -18 -14 6.3
    endloop
  endfacet
  facet normal -0 0 1
    outer loop
      vertex -27 18 6.3
      vertex -18 14 6.3
      vertex 23 18 6.3
    endloop
  endfacet
  facet normal 0 0 1
    outer loop
      vertex 23 18 6.3
      vertex 27.5 20 6.3
      vertex 23 20 6.3
    endloop
  endfacet
  facet normal 0 0 1
    outer loop
      vertex 27.5 20 6.3
      vertex 23 18 6.3
      vertex 27.5 -6.5 6.3
    endloop
  endfacet
  facet normal -0 0 1
    outer loop
      vertex 18 14 6.3
      vertex 27.5 -6.5 6.3
      vertex 23 18 6.3
    endloop
  endfacet
  facet normal 0 0 1
    outer loop
      vertex 27.5 -6.5 6.3
      vertex 18 14 6.3
      vertex 18 -6.5 6.3
    endloop
  endfacet
  facet normal -0 0 1
    outer loop
      vertex -18 -14 6.3
      vertex 16 -20 6.3
      vertex 16 -14 6.3
    endloop
  endfacet
  facet normal 0 0 1
    outer loop
      vertex -18 -14 6.3
      vertex -27.5 -20 6.3
      vertex 16 -20 6.3
    endloop
  endfacet
  facet normal 0 0 1
    outer loop
      vertex -27 18 6.3
      vertex -27.5 -20 6.3
      vertex -18 -14 6.3
    endloop
  endfacet
  facet normal 0 0 1
    outer loop
      vertex -27.5 -20 6.3
      vertex -27 18 6.3
      vertex -27.5 20 6.3
    endloop
  endfacet
  facet normal 0 1 -0
    outer loop
      vertex -27 20 1.6
      vertex -27.5 20 6.3
      vertex -27 20 6.3
    endloop
  endfacet
  facet normal 0 1 0
    outer loop
      vertex -27.5 20 6.3
      vertex -27 20 1.6
      vertex -27.5 20 1.6
    endloop
  endfacet
  facet normal 0 1 -0
    outer loop
      vertex 27.5 20 1.6
      vertex 23 20 6.3
      vertex 27.5 20 6.3
    endloop
  endfacet
  facet normal 0 1 0
    outer loop
      vertex 23 20 6.3
      vertex 27.5 20 1.6
      vertex 23 20 1.6
    endloop
  endfacet
  facet normal 0 -1 0
    outer loop
      vertex -27.5 -20 1.6
      vertex 16 -20 6.3
      vertex -27.5 -20 6.3
    endloop
  endfacet
  facet normal 0 -1 -0
    outer loop
      vertex 16 -20 6.3
      vertex -27.5 -20 1.6
      vertex 16 -20 1.6
    endloop
  endfacet
  facet normal 1 -0 0
    outer loop
      vertex 18 -6.5 7.1
      vertex 18 14 6.3
      vertex 18 14 7.1
    endloop
  endfacet
  facet normal 1 0 0
    outer loop
      vertex 18 14 6.3
      vertex 18 -6.5 7.1
      vertex 18 -6.5 6.3
    endloop
  endfacet
  facet normal 0 0 1
    outer loop
      vertex 18 14 7.1
      vertex 16 -6.5 7.1
      vertex 18 -6.5 7.1
    endloop
  endfacet
  facet normal -0 0 1
    outer loop
      vertex -18 14 7.1
      vertex 16 -6.5 7.1
      vertex 18 14 7.1
    endloop
  endfacet
  facet normal 0 0 1
    outer loop
      vertex -18 -14 7.1
      vertex 16 -6.5 7.1
      vertex -18 14 7.1
    endloop
  endfacet
  facet normal 0 0 1
    outer loop
      vertex 16 -6.5 7.1
      vertex -18 -14 7.1
      vertex 16 -14 7.1
    endloop
  endfacet
  facet normal -1 0 0
    outer loop
      vertex -18 -14 6.3
      vertex -18 14 7.1
      vertex -18 14 6.3
    endloop
  endfacet
  facet normal -1 -0 0
    outer loop
      vertex -18 14 7.1
      vertex -18 -14 6.3
      vertex -18 -14 7.1
    endloop
  endfacet
  facet normal 0 1 -0
    outer loop
      vertex 18 14 6.3
      vertex -18 14 7.1
      vertex 18 14 7.1
    endloop
  endfacet
  facet normal 0 1 0
    outer loop
      vertex -18 14 7.1
      vertex 18 14 6.3
      vertex -18 14 6.3
    endloop
  endfacet
  facet normal 0 -1 0
    outer loop
      vertex -18 -14 6.3
      vertex 16 -14 7.1
      vertex -18 -14 7.1
    endloop
  endfacet
  facet normal 0 -1 -0
    outer loop
      vertex 16 -14 7.1
      vertex -18 -14 6.3
      vertex 16 -14 6.3
    endloop
  endfacet
endsolid OpenSCAD_Model
