solid OpenSCAD_Model
  facet normal -0 0 1
    outer loop
      vertex -15.5 0 7
      vertex 15.5 -30 7
      vertex 15.5 0 7
    endloop
  endfacet
  facet normal 0 0 1
    outer loop
      vertex 15.5 -30 7
      vertex -15.5 0 7
      vertex -15.5 -30 7
    endloop
  endfacet
  facet normal 0 0 -1
    outer loop
      vertex -15.5 -30 3
      vertex 15.5 0 3
      vertex 15.5 -30 3
    endloop
  endfacet
  facet normal -0 0 -1
    outer loop
      vertex 15.5 0 3
      vertex -15.5 -30 3
      vertex -15.5 0 3
    endloop
  endfacet
  facet normal 0 -1 0
    outer loop
      vertex -15.5 -30 3
      vertex 15.5 -30 7
      vertex -15.5 -30 7
    endloop
  endfacet
  facet normal 0 -1 -0
    outer loop
      vertex 15.5 -30 7
      vertex -15.5 -30 3
      vertex 15.5 -30 3
    endloop
  endfacet
  facet normal 1 -0 0
    outer loop
      vertex 15.5 -30 7
      vertex 15.5 0 3
      vertex 15.5 0 7
    endloop
  endfacet
  facet normal 1 0 0
    outer loop
      vertex 15.5 0 3
      vertex 15.5 -30 7
      vertex 15.5 -30 3
    endloop
  endfacet
  facet normal 0 1 -0
    outer loop
      vertex 15.5 0 3
      vertex -15.5 0 7
      vertex 15.5 0 7
    endloop
  endfacet
  facet normal 0 1 0
    outer loop
      vertex -15.5 0 7
      vertex 15.5 0 3
      vertex -15.5 0 3
    endloop
  endfacet
  facet normal -1 0 0
    outer loop
      vertex -15.5 -30 3
      vertex -15.5 0 7
      vertex -15.5 0 3
    endloop
  endfacet
  facet normal -1 -0 0
    outer loop
      vertex -15.5 0 7
      vertex -15.5 -30 3
      vertex -15.5 -30 7
    endloop
  endfacet
endsolid OpenSCAD_Model
