solid OpenSCAD_Model
  facet normal 1 -0 0
    outer loop
      vertex 15 -11 4.1
      vertex 15 11 1.6
      vertex 15 11 4.1
    endloop
  endfacet
  facet normal 1 0 0
    outer loop
      vertex 15 11 1.6
      vertex 15 -11 4.1
      vertex 15 -11 1.6
    endloop
  endfacet
  facet normal 0 0 1
    outer loop
      vertex 15 11 4.1
      vertex 6 6 4.1
      vertex 15 -11 4.1
    endloop
  endfacet
  facet normal 0 0 1
    outer loop
      vertex 15 11 4.1
      vertex -6 6 4.1
      vertex 6 6 4.1
    endloop
  endfacet
  facet normal 0 0 1
    outer loop
      vertex -6 6 4.1
      vertex -15 11 4.1
      vertex -6 -6 4.1
    endloop
  endfacet
  facet normal -0 0 1
    outer loop
      vertex -15 11 4.1
      vertex -6 6 4.1
      vertex 15 11 4.1
    endloop
  endfacet
  facet normal -0 0 1
    outer loop
      vertex 6 -6 4.1
      vertex 15 -11 4.1
      vertex 6 6 4.1
    endloop
  endfacet
  facet normal -0 0 1
    outer loop
      vertex -6 -6 4.1
      vertex 15 -11 4.1
      vertex 6 -6 4.1
    endloop
  endfacet
  facet normal 0 0 1
    outer loop
      vertex -6 -6 4.1
      vertex -15 -11 4.1
      vertex 15 -11 4.1
    endloop
  endfacet
  facet normal 0 0 1
    outer loop
      vertex -15 -11 4.1
      vertex -6 -6 4.1
      vertex -15 11 4.1
    endloop
  endfacet
  facet normal 0 0 -1
    outer loop
      vertex 15 -11 1.6
      vertex 12.5 -10 1.6
      vertex 15 11 1.6
    endloop
  endfacet
  facet normal 0 0 -1
    outer loop
      vertex 15 -11 1.6
      vertex -12.5 -10 1.6
      vertex 12.5 -10 1.6
    endloop
  endfacet
  facet normal -0 0 -1
    outer loop
      vertex -12.5 -10 1.6
      vertex -15 -11 1.6
      vertex -12.5 10 1.6
    endloop
  endfacet
  facet normal 0 0 -1
    outer loop
      vertex -15 -11 1.6
      vertex -12.5 -10 1.6
      vertex 15 -11 1.6
    endloop
  endfacet
  facet normal 0 0 -1
    outer loop
      vertex 12.5 10 1.6
      vertex 15 11 1.6
      vertex 12.5 -10 1.6
    endloop
  endfacet
  facet normal 0 0 -1
    outer loop
      vertex -12.5 10 1.6
      vertex 15 11 1.6
      vertex 12.5 10 1.6
    endloop
  endfacet
  facet normal 0 0 -1
    outer loop
      vertex -12.5 10 1.6
      vertex -15 11 1.6
      vertex 15 11 1.6
    endloop
  endfacet
  facet normal 0 0 -1
    outer loop
      vertex -15 11 1.6
      vertex -12.5 10 1.6
      vertex -15 -11 1.6
    endloop
  endfacet
  facet normal -1 0 0
    outer loop
      vertex -15 -11 1.6
      vertex -15 11 4.1
      vertex -15 11 1.6
    endloop
  endfacet
  facet normal -1 -0 0
    outer loop
      vertex -15 11 4.1
      vertex -15 -11 1.6
      vertex -15 -11 4.1
    endloop
  endfacet
  facet normal 0 1 -0
    outer loop
      vertex 15 11 1.6
      vertex -15 11 4.1
      vertex 15 11 4.1
    endloop
  endfacet
  facet normal 0 1 0
    outer loop
      vertex -15 11 4.1
      vertex 15 11 1.6
      vertex -15 11 1.6
    endloop
  endfacet
  facet normal 0 -1 0
    outer loop
      vertex -15 -11 1.6
      vertex 15 -11 4.1
      vertex -15 -11 4.1
    endloop
  endfacet
  facet normal 0 -1 -0
    outer loop
      vertex 15 -11 4.1
      vertex -15 -11 1.6
      vertex 15 -11 1.6
    endloop
  endfacet
  facet normal 1 -0 0
    outer loop
      vertex 6 -6 4.6
      vertex 6 6 4.1
      vertex 6 6 4.6
    endloop
  endfacet
  facet normal 1 0 0
    outer loop
      vertex 6 6 4.1
      vertex 6 -6 4.6
      vertex 6 -6 4.1
    endloop
  endfacet
  facet normal -0 0 1
    outer loop
      vertex -6 6 4.6
      vertex 6 -6 4.6
      vertex 6 6 4.6
    endloop
  endfacet
  facet normal 0 0 1
    outer loop
      vertex 6 -6 4.6
      vertex -6 6 4.6
      vertex -6 -6 4.6
    endloop
  endfacet
  facet normal -1 0 0
    outer loop
      vertex -6 -6 4.1
      vertex -6 6 4.6
      vertex -6 6 4.1
    endloop
  endfacet
  facet normal -1 -0 0
    outer loop
      vertex -6 6 4.6
      vertex -6 -6 4.1
      vertex -6 -6 4.6
    endloop
  endfacet
  facet normal 0 1 -0
    outer loop
      vertex 6 6 4.1
      vertex -6 6 4.6
      vertex 6 6 4.6
    endloop
  endfacet
  facet normal 0 1 0
    outer loop
      vertex -6 6 4.6
      vertex 6 6 4.1
      vertex -6 6 4.1
    endloop
  endfacet
  facet normal 0 -1 0
    outer loop
      vertex -6 -6 4.1
      vertex 6 -6 4.6
      vertex -6 -6 4.6
    endloop
  endfacet
  facet normal 0 -1 -0
    outer loop
      vertex 6 -6 4.6
      vertex -6 -6 4.1
      vertex 6 -6 4.1
    endloop
  endfacet
  facet normal 1 0 0
    outer loop
      vertex 12.5 10 1.6
      vertex 12.5 0 0.299999
      vertex 12.5 10 0
    endloop
  endfacet
  facet normal 1 -0 0
    outer loop
      vertex 12.5 -10 1.6
      vertex 12.5 0 0.299999
      vertex 12.5 10 1.6
    endloop
  endfacet
  facet normal 1 0 0
    outer loop
      vertex 12.5 0 0.299999
      vertex 12.5 -10 1.6
      vertex 12.5 -2 0.299999
    endloop
  endfacet
  facet normal 1 0 0
    outer loop
      vertex 12.5 -10 0
      vertex 12.5 -2 0.299999
      vertex 12.5 -10 1.6
    endloop
  endfacet
  facet normal 1 0 0
    outer loop
      vertex 12.5 -2 0.299999
      vertex 12.5 -10 0
      vertex 12.5 -2 0
    endloop
  endfacet
  facet normal 1 0 0
    outer loop
      vertex 12.5 10 0
      vertex 12.5 0 0.299999
      vertex 12.5 0 0
    endloop
  endfacet
  facet normal 0 0 -1
    outer loop
      vertex -12.5 -10 0
      vertex 12.5 -2 0
      vertex 12.5 -10 0
    endloop
  endfacet
  facet normal -0 0 -1
    outer loop
      vertex 12.5 -2 0
      vertex -12.5 -10 0
      vertex 12.5 0 0
    endloop
  endfacet
  facet normal 0 0 -1
    outer loop
      vertex -12.5 10 0
      vertex 12.5 0 0
      vertex -12.5 -10 0
    endloop
  endfacet
  facet normal 0 0 -1
    outer loop
      vertex 12.5 0 0
      vertex -12.5 10 0
      vertex 12.5 10 0
    endloop
  endfacet
  facet normal 0 0 -1
    outer loop
      vertex 12.5 -2 0
      vertex 37.5 0 0
      vertex 37.5 -2 0
    endloop
  endfacet
  facet normal -0 0 -1
    outer loop
      vertex 37.5 0 0
      vertex 12.5 -2 0
      vertex 12.5 0 0
    endloop
  endfacet
  facet normal -1 0 0
    outer loop
      vertex -12.5 -10 0
      vertex -12.5 10 1.6
      vertex -12.5 10 0
    endloop
  endfacet
  facet normal -1 -0 0
    outer loop
      vertex -12.5 10 1.6
      vertex -12.5 -10 0
      vertex -12.5 -10 1.6
    endloop
  endfacet
  facet normal 0 1 -0
    outer loop
      vertex 12.5 10 0
      vertex -12.5 10 1.6
      vertex 12.5 10 1.6
    endloop
  endfacet
  facet normal 0 1 0
    outer loop
      vertex -12.5 10 1.6
      vertex 12.5 10 0
      vertex -12.5 10 0
    endloop
  endfacet
  facet normal 0 -1 0
    outer loop
      vertex -12.5 -10 0
      vertex 12.5 -10 1.6
      vertex -12.5 -10 1.6
    endloop
  endfacet
  facet normal 0 -1 -0
    outer loop
      vertex 12.5 -10 1.6
      vertex -12.5 -10 0
      vertex 12.5 -10 0
    endloop
  endfacet
  facet normal 1 -0 0
    outer loop
      vertex 37.5 -2 0.299999
      vertex 37.5 0 0
      vertex 37.5 0 0.299999
    endloop
  endfacet
  facet normal 1 0 0
    outer loop
      vertex 37.5 0 0
      vertex 37.5 -2 0.299999
      vertex 37.5 -2 0
    endloop
  endfacet
  facet normal -0 0 1
    outer loop
      vertex 12.5 0 0.299999
      vertex 37.5 -2 0.299999
      vertex 37.5 0 0.299999
    endloop
  endfacet
  facet normal 0 0 1
    outer loop
      vertex 37.5 -2 0.299999
      vertex 12.5 0 0.299999
      vertex 12.5 -2 0.299999
    endloop
  endfacet
  facet normal 0 1 -0
    outer loop
      vertex 37.5 0 0
      vertex 12.5 0 0.299999
      vertex 37.5 0 0.299999
    endloop
  endfacet
  facet normal 0 1 0
    outer loop
      vertex 12.5 0 0.299999
      vertex 37.5 0 0
      vertex 12.5 0 0
    endloop
  endfacet
  facet normal 0 -1 0
    outer loop
      vertex 12.5 -2 0
      vertex 37.5 -2 0.299999
      vertex 12.5 -2 0.299999
    endloop
  endfacet
  facet normal 0 -1 -0
    outer loop
      vertex 37.5 -2 0.299999
      vertex 12.5 -2 0
      vertex 37.5 -2 0
    endloop
  endfacet
endsolid OpenSCAD_Model
