solid OpenSCAD_Model
  facet normal 1 -0 0
    outer loop
      vertex 47 -49 63.4
      vertex 47 -27 60.9
      vertex 47 -27 63.4
    endloop
  endfacet
  facet normal 1 0 0
    outer loop
      vertex 47 -27 60.9
      vertex 47 -49 63.4
      vertex 47 -49 60.9
    endloop
  endfacet
  facet normal 0 0 1
    outer loop
      vertex 47 -27 63.4
      vertex 38 -32 63.4
      vertex 47 -49 63.4
    endloop
  endfacet
  facet normal 0 0 1
    outer loop
      vertex 47 -27 63.4
      vertex 26 -32 63.4
      vertex 38 -32 63.4
    endloop
  endfacet
  facet normal 0 0 1
    outer loop
      vertex 26 -32 63.4
      vertex 17 -27 63.4
      vertex 26 -44 63.4
    endloop
  endfacet
  facet normal -0 0 1
    outer loop
      vertex 17 -27 63.4
      vertex 26 -32 63.4
      vertex 47 -27 63.4
    endloop
  endfacet
  facet normal -0 0 1
    outer loop
      vertex 38 -44 63.4
      vertex 47 -49 63.4
      vertex 38 -32 63.4
    endloop
  endfacet
  facet normal -0 0 1
    outer loop
      vertex 26 -44 63.4
      vertex 47 -49 63.4
      vertex 38 -44 63.4
    endloop
  endfacet
  facet normal 0 0 1
    outer loop
      vertex 26 -44 63.4
      vertex 17 -49 63.4
      vertex 47 -49 63.4
    endloop
  endfacet
  facet normal 0 0 1
    outer loop
      vertex 17 -49 63.4
      vertex 26 -44 63.4
      vertex 17 -27 63.4
    endloop
  endfacet
  facet normal 0 0 -1
    outer loop
      vertex 47 -49 60.9
      vertex 44.5 -48 60.9
      vertex 47 -27 60.9
    endloop
  endfacet
  facet normal 0 0 -1
    outer loop
      vertex 47 -49 60.9
      vertex 19.5 -48 60.9
      vertex 44.5 -48 60.9
    endloop
  endfacet
  facet normal -0 0 -1
    outer loop
      vertex 19.5 -48 60.9
      vertex 17 -49 60.9
      vertex 19.5 -28 60.9
    endloop
  endfacet
  facet normal 0 0 -1
    outer loop
      vertex 17 -49 60.9
      vertex 19.5 -48 60.9
      vertex 47 -49 60.9
    endloop
  endfacet
  facet normal 0 0 -1
    outer loop
      vertex 44.5 -28 60.9
      vertex 47 -27 60.9
      vertex 44.5 -48 60.9
    endloop
  endfacet
  facet normal 0 0 -1
    outer loop
      vertex 19.5 -28 60.9
      vertex 47 -27 60.9
      vertex 44.5 -28 60.9
    endloop
  endfacet
  facet normal 0 0 -1
    outer loop
      vertex 19.5 -28 60.9
      vertex 17 -27 60.9
      vertex 47 -27 60.9
    endloop
  endfacet
  facet normal 0 0 -1
    outer loop
      vertex 17 -27 60.9
      vertex 19.5 -28 60.9
      vertex 17 -49 60.9
    endloop
  endfacet
  facet normal -1 0 0
    outer loop
      vertex 17 -49 60.9
      vertex 17 -27 63.4
      vertex 17 -27 60.9
    endloop
  endfacet
  facet normal -1 -0 0
    outer loop
      vertex 17 -27 63.4
      vertex 17 -49 60.9
      vertex 17 -49 63.4
    endloop
  endfacet
  facet normal 0 1 -0
    outer loop
      vertex 47 -27 60.9
      vertex 17 -27 63.4
      vertex 47 -27 63.4
    endloop
  endfacet
  facet normal 0 1 0
    outer loop
      vertex 17 -27 63.4
      vertex 47 -27 60.9
      vertex 17 -27 60.9
    endloop
  endfacet
  facet normal 0 -1 0
    outer loop
      vertex 17 -49 60.9
      vertex 47 -49 63.4
      vertex 17 -49 63.4
    endloop
  endfacet
  facet normal 0 -1 -0
    outer loop
      vertex 47 -49 63.4
      vertex 17 -49 60.9
      vertex 47 -49 60.9
    endloop
  endfacet
  facet normal 1 -0 0
    outer loop
      vertex 38 -44 63.9
      vertex 38 -32 63.4
      vertex 38 -32 63.9
    endloop
  endfacet
  facet normal 1 0 0
    outer loop
      vertex 38 -32 63.4
      vertex 38 -44 63.9
      vertex 38 -44 63.4
    endloop
  endfacet
  facet normal -0 0 1
    outer loop
      vertex 26 -32 63.9
      vertex 38 -44 63.9
      vertex 38 -32 63.9
    endloop
  endfacet
  facet normal 0 0 1
    outer loop
      vertex 38 -44 63.9
      vertex 26 -32 63.9
      vertex 26 -44 63.9
    endloop
  endfacet
  facet normal -1 0 0
    outer loop
      vertex 26 -44 63.4
      vertex 26 -32 63.9
      vertex 26 -32 63.4
    endloop
  endfacet
  facet normal -1 -0 0
    outer loop
      vertex 26 -32 63.9
      vertex 26 -44 63.4
      vertex 26 -44 63.9
    endloop
  endfacet
  facet normal 0 1 -0
    outer loop
      vertex 38 -32 63.4
      vertex 26 -32 63.9
      vertex 38 -32 63.9
    endloop
  endfacet
  facet normal 0 1 0
    outer loop
      vertex 26 -32 63.9
      vertex 38 -32 63.4
      vertex 26 -32 63.4
    endloop
  endfacet
  facet normal 0 -1 0
    outer loop
      vertex 26 -44 63.4
      vertex 38 -44 63.9
      vertex 26 -44 63.9
    endloop
  endfacet
  facet normal 0 -1 -0
    outer loop
      vertex 38 -44 63.9
      vertex 26 -44 63.4
      vertex 38 -44 63.4
    endloop
  endfacet
  facet normal 1 0 0
    outer loop
      vertex 44.5 -28 60.9
      vertex 44.5 -38 59.6
      vertex 44.5 -28 59.3
    endloop
  endfacet
  facet normal 1 -0 0
    outer loop
      vertex 44.5 -48 60.9
      vertex 44.5 -38 59.6
      vertex 44.5 -28 60.9
    endloop
  endfacet
  facet normal 1 0 0
    outer loop
      vertex 44.5 -38 59.6
      vertex 44.5 -48 60.9
      vertex 44.5 -40 59.6
    endloop
  endfacet
  facet normal 1 0 0
    outer loop
      vertex 44.5 -48 59.3
      vertex 44.5 -40 59.6
      vertex 44.5 -48 60.9
    endloop
  endfacet
  facet normal 1 0 0
    outer loop
      vertex 44.5 -40 59.6
      vertex 44.5 -48 59.3
      vertex 44.5 -40 59.3
    endloop
  endfacet
  facet normal 1 0 0
    outer loop
      vertex 44.5 -28 59.3
      vertex 44.5 -38 59.6
      vertex 44.5 -38 59.3
    endloop
  endfacet
  facet normal 0 0 -1
    outer loop
      vertex 19.5 -48 59.3
      vertex 44.5 -40 59.3
      vertex 44.5 -48 59.3
    endloop
  endfacet
  facet normal -0 0 -1
    outer loop
      vertex 44.5 -40 59.3
      vertex 19.5 -48 59.3
      vertex 44.5 -38 59.3
    endloop
  endfacet
  facet normal 0 0 -1
    outer loop
      vertex 19.5 -28 59.3
      vertex 44.5 -38 59.3
      vertex 19.5 -48 59.3
    endloop
  endfacet
  facet normal 0 0 -1
    outer loop
      vertex 44.5 -38 59.3
      vertex 19.5 -28 59.3
      vertex 44.5 -28 59.3
    endloop
  endfacet
  facet normal 0 0 -1
    outer loop
      vertex 44.5 -40 59.3
      vertex 69.5 -38 59.3
      vertex 69.5 -40 59.3
    endloop
  endfacet
  facet normal -0 0 -1
    outer loop
      vertex 69.5 -38 59.3
      vertex 44.5 -40 59.3
      vertex 44.5 -38 59.3
    endloop
  endfacet
  facet normal -1 0 0
    outer loop
      vertex 19.5 -48 59.3
      vertex 19.5 -28 60.9
      vertex 19.5 -28 59.3
    endloop
  endfacet
  facet normal -1 -0 0
    outer loop
      vertex 19.5 -28 60.9
      vertex 19.5 -48 59.3
      vertex 19.5 -48 60.9
    endloop
  endfacet
  facet normal 0 1 -0
    outer loop
      vertex 44.5 -28 59.3
      vertex 19.5 -28 60.9
      vertex 44.5 -28 60.9
    endloop
  endfacet
  facet normal 0 1 0
    outer loop
      vertex 19.5 -28 60.9
      vertex 44.5 -28 59.3
      vertex 19.5 -28 59.3
    endloop
  endfacet
  facet normal 0 -1 0
    outer loop
      vertex 19.5 -48 59.3
      vertex 44.5 -48 60.9
      vertex 19.5 -48 60.9
    endloop
  endfacet
  facet normal 0 -1 -0
    outer loop
      vertex 44.5 -48 60.9
      vertex 19.5 -48 59.3
      vertex 44.5 -48 59.3
    endloop
  endfacet
  facet normal 1 -0 0
    outer loop
      vertex 69.5 -40 59.6
      vertex 69.5 -38 59.3
      vertex 69.5 -38 59.6
    endloop
  endfacet
  facet normal 1 0 0
    outer loop
      vertex 69.5 -38 59.3
      vertex 69.5 -40 59.6
      vertex 69.5 -40 59.3
    endloop
  endfacet
  facet normal -0 0 1
    outer loop
      vertex 44.5 -38 59.6
      vertex 69.5 -40 59.6
      vertex 69.5 -38 59.6
    endloop
  endfacet
  facet normal 0 0 1
    outer loop
      vertex 69.5 -40 59.6
      vertex 44.5 -38 59.6
      vertex 44.5 -40 59.6
    endloop
  endfacet
  facet normal 0 1 -0
    outer loop
      vertex 69.5 -38 59.3
      vertex 44.5 -38 59.6
      vertex 69.5 -38 59.6
    endloop
  endfacet
  facet normal 0 1 0
    outer loop
      vertex 44.5 -38 59.6
      vertex 69.5 -38 59.3
      vertex 44.5 -38 59.3
    endloop
  endfacet
  facet normal 0 -1 0
    outer loop
      vertex 44.5 -40 59.3
      vertex 69.5 -40 59.6
      vertex 44.5 -40 59.6
    endloop
  endfacet
  facet normal 0 -1 -0
    outer loop
      vertex 69.5 -40 59.6
      vertex 44.5 -40 59.3
      vertex 69.5 -40 59.3
    endloop
  endfacet
endsolid OpenSCAD_Model
