solid OpenSCAD_Model
  facet normal -0.56808 0.822974 0
    outer loop
      vertex -16.4184 -11.2599 -2
      vertex -17.994 -12.3475 0
      vertex -16.4184 -11.2599 0
    endloop
  endfacet
  facet normal -0.56808 0.822974 0
    outer loop
      vertex -17.994 -12.3475 0
      vertex -16.4184 -11.2599 -2
      vertex -17.994 -12.3475 -2
    endloop
  endfacet
  facet normal 0.748518 0.663115 0
    outer loop
      vertex -11.4582 -13.1411 0
      vertex -12.7277 -11.7081 -2
      vertex -12.7277 -11.7081 0
    endloop
  endfacet
  facet normal 0.748518 0.663115 0
    outer loop
      vertex -12.7277 -11.7081 -2
      vertex -11.4582 -13.1411 0
      vertex -11.4582 -13.1411 -2
    endloop
  endfacet
  facet normal 0.970939 0.239327 0
    outer loop
      vertex -11 -15 0
      vertex -11.4582 -13.1411 -2
      vertex -11.4582 -13.1411 0
    endloop
  endfacet
  facet normal 0.970939 0.239327 0
    outer loop
      vertex -11.4582 -13.1411 -2
      vertex -11 -15 0
      vertex -11 -15 -2
    endloop
  endfacet
  facet normal -1 0 0
    outer loop
      vertex -18.8838 -15.9573 -2
      vertex -18.8838 -14.0427 0
      vertex -18.8838 -14.0427 -2
    endloop
  endfacet
  facet normal -1 -0 0
    outer loop
      vertex -18.8838 -14.0427 0
      vertex -18.8838 -15.9573 -2
      vertex -18.8838 -15.9573 0
    endloop
  endfacet
  facet normal -0.885437 0.46476 0
    outer loop
      vertex -18.8838 -14.0427 -2
      vertex -17.994 -12.3475 0
      vertex -17.994 -12.3475 -2
    endloop
  endfacet
  facet normal -0.885437 0.46476 0
    outer loop
      vertex -17.994 -12.3475 0
      vertex -18.8838 -14.0427 -2
      vertex -18.8838 -14.0427 0
    endloop
  endfacet
  facet normal 0.970939 -0.239327 0
    outer loop
      vertex -11.4582 -16.8589 0
      vertex -11 -15 -2
      vertex -11 -15 0
    endloop
  endfacet
  facet normal 0.970939 -0.239327 0
    outer loop
      vertex -11 -15 -2
      vertex -11.4582 -16.8589 0
      vertex -11.4582 -16.8589 -2
    endloop
  endfacet
  facet normal 0 0 -1
    outer loop
      vertex 12.006 -12.3475 0
      vertex -12.7277 -11.7081 0
      vertex 12.006 12.3475 0
    endloop
  endfacet
  facet normal 0 0 -1
    outer loop
      vertex 12.006 12.3475 0
      vertex -11.4582 13.1411 0
      vertex -11 15 0
    endloop
  endfacet
  facet normal 0 0 -1
    outer loop
      vertex -12.7277 11.7081 0
      vertex 12.006 12.3475 0
      vertex -12.7277 -11.7081 0
    endloop
  endfacet
  facet normal -0 0 -1
    outer loop
      vertex 12.006 12.3475 0
      vertex -12.7277 11.7081 0
      vertex -11.4582 13.1411 0
    endloop
  endfacet
  facet normal 0 0 -1
    outer loop
      vertex -14.5179 -11.0292 0
      vertex -12.7277 11.7081 0
      vertex -12.7277 -11.7081 0
    endloop
  endfacet
  facet normal 0 0 -1
    outer loop
      vertex -14.5179 -11.0292 0
      vertex -14.5179 11.0292 0
      vertex -12.7277 11.7081 0
    endloop
  endfacet
  facet normal 0 0 -1
    outer loop
      vertex -16.4184 -11.2599 0
      vertex -14.5179 11.0292 0
      vertex -14.5179 -11.0292 0
    endloop
  endfacet
  facet normal 0 0 -1
    outer loop
      vertex -16.4184 -11.2599 0
      vertex -16.4184 11.2599 0
      vertex -14.5179 11.0292 0
    endloop
  endfacet
  facet normal 0 0 -1
    outer loop
      vertex -17.994 -12.3475 0
      vertex -16.4184 11.2599 0
      vertex -16.4184 -11.2599 0
    endloop
  endfacet
  facet normal 0 0 -1
    outer loop
      vertex -17.994 -12.3475 0
      vertex -17.994 12.3475 0
      vertex -16.4184 11.2599 0
    endloop
  endfacet
  facet normal 0 0 -1
    outer loop
      vertex -27 -19.5 0
      vertex -17.994 -12.3475 0
      vertex -18.8838 -14.0427 0
    endloop
  endfacet
  facet normal -0 0 -1
    outer loop
      vertex -17.994 -12.3475 0
      vertex -27 -19.5 0
      vertex -17.994 12.3475 0
    endloop
  endfacet
  facet normal 0 0 -1
    outer loop
      vertex 18.5418 13.1411 0
      vertex 27 19.5 0
      vertex 18.5418 -13.1411 0
    endloop
  endfacet
  facet normal 0 0 -1
    outer loop
      vertex 27 19.5 0
      vertex 18.5418 13.1411 0
      vertex 19 15 0
    endloop
  endfacet
  facet normal 0 0 -1
    outer loop
      vertex 17.2723 -11.7081 0
      vertex 18.5418 13.1411 0
      vertex 18.5418 -13.1411 0
    endloop
  endfacet
  facet normal 0 0 -1
    outer loop
      vertex 17.2723 -11.7081 0
      vertex 17.2723 11.7081 0
      vertex 18.5418 13.1411 0
    endloop
  endfacet
  facet normal 0 0 -1
    outer loop
      vertex 15.4821 -11.0292 0
      vertex 17.2723 11.7081 0
      vertex 17.2723 -11.7081 0
    endloop
  endfacet
  facet normal 0 0 -1
    outer loop
      vertex 15.4821 -11.0292 0
      vertex 15.4821 11.0292 0
      vertex 17.2723 11.7081 0
    endloop
  endfacet
  facet normal 0 0 -1
    outer loop
      vertex 13.5816 -11.2599 0
      vertex 15.4821 11.0292 0
      vertex 15.4821 -11.0292 0
    endloop
  endfacet
  facet normal 0 0 -1
    outer loop
      vertex 13.5816 -11.2599 0
      vertex 13.5816 11.2599 0
      vertex 15.4821 11.0292 0
    endloop
  endfacet
  facet normal 0 0 -1
    outer loop
      vertex 12.006 -12.3475 0
      vertex 13.5816 11.2599 0
      vertex 13.5816 -11.2599 0
    endloop
  endfacet
  facet normal 0 0 -1
    outer loop
      vertex 12.006 -12.3475 0
      vertex 12.006 12.3475 0
      vertex 13.5816 11.2599 0
    endloop
  endfacet
  facet normal 0 0 -1
    outer loop
      vertex -11.4582 -13.1411 0
      vertex 11.1162 -14.0427 0
      vertex -11 -15 0
    endloop
  endfacet
  facet normal 0 0 -1
    outer loop
      vertex 11.1162 -14.0427 0
      vertex -11.4582 -13.1411 0
      vertex 12.006 -12.3475 0
    endloop
  endfacet
  facet normal 0 0 -1
    outer loop
      vertex 18.5418 -13.1411 0
      vertex 27 -19.5 0
      vertex 19 -15 0
    endloop
  endfacet
  facet normal 0 0 -1
    outer loop
      vertex 27 -19.5 0
      vertex 18.5418 -16.8589 0
      vertex 19 -15 0
    endloop
  endfacet
  facet normal 0 0 -1
    outer loop
      vertex 27 -19.5 0
      vertex 17.2723 -18.2919 0
      vertex 18.5418 -16.8589 0
    endloop
  endfacet
  facet normal 0 0 -1
    outer loop
      vertex 27 -19.5 0
      vertex 15.4821 -18.9708 0
      vertex 17.2723 -18.2919 0
    endloop
  endfacet
  facet normal 0 0 -1
    outer loop
      vertex -11 -15 0
      vertex 11.1162 -14.0427 0
      vertex 11.1162 -15.9573 0
    endloop
  endfacet
  facet normal 0 0 -1
    outer loop
      vertex -12.7277 -11.7081 0
      vertex 12.006 -12.3475 0
      vertex -11.4582 -13.1411 0
    endloop
  endfacet
  facet normal 0 0 -1
    outer loop
      vertex 12.006 12.3475 0
      vertex -11 15 0
      vertex 11.1162 14.0427 0
    endloop
  endfacet
  facet normal 0 0 -1
    outer loop
      vertex -11.4582 -16.8589 0
      vertex 11.1162 -15.9573 0
      vertex 12.006 -17.6525 0
    endloop
  endfacet
  facet normal 0 0 -1
    outer loop
      vertex -12.7277 -18.2919 0
      vertex 12.006 -17.6525 0
      vertex 13.5816 -18.7401 0
    endloop
  endfacet
  facet normal -0 0 -1
    outer loop
      vertex 11.1162 -15.9573 0
      vertex -11.4582 -16.8589 0
      vertex -11 -15 0
    endloop
  endfacet
  facet normal 0 0 -1
    outer loop
      vertex -14.5179 -18.9708 0
      vertex 13.5816 -18.7401 0
      vertex 15.4821 -18.9708 0
    endloop
  endfacet
  facet normal -0 0 -1
    outer loop
      vertex 12.006 -17.6525 0
      vertex -12.7277 -18.2919 0
      vertex -11.4582 -16.8589 0
    endloop
  endfacet
  facet normal 0 0 -1
    outer loop
      vertex -14.5179 -18.9708 0
      vertex 15.4821 -18.9708 0
      vertex 27 -19.5 0
    endloop
  endfacet
  facet normal -0 0 -1
    outer loop
      vertex 13.5816 -18.7401 0
      vertex -14.5179 -18.9708 0
      vertex -12.7277 -18.2919 0
    endloop
  endfacet
  facet normal 0 0 -1
    outer loop
      vertex -27 -19.5 0
      vertex -18.8838 -14.0427 0
      vertex -18.8838 -15.9573 0
    endloop
  endfacet
  facet normal 0 0 -1
    outer loop
      vertex -27 19.5 0
      vertex -17.994 12.3475 0
      vertex -27 -19.5 0
    endloop
  endfacet
  facet normal 0 0 -1
    outer loop
      vertex -17.994 12.3475 0
      vertex -27 19.5 0
      vertex -18.8838 14.0427 0
    endloop
  endfacet
  facet normal -0 0 -1
    outer loop
      vertex -17.994 -17.6525 0
      vertex -27 -19.5 0
      vertex -18.8838 -15.9573 0
    endloop
  endfacet
  facet normal -0 0 -1
    outer loop
      vertex -16.4184 -18.7401 0
      vertex -27 -19.5 0
      vertex -17.994 -17.6525 0
    endloop
  endfacet
  facet normal -0 0 -1
    outer loop
      vertex -14.5179 -18.9708 0
      vertex -27 -19.5 0
      vertex -16.4184 -18.7401 0
    endloop
  endfacet
  facet normal 0 0 -1
    outer loop
      vertex -27 -19.5 0
      vertex -14.5179 -18.9708 0
      vertex 27 -19.5 0
    endloop
  endfacet
  facet normal 0 0 -1
    outer loop
      vertex 27 -19.5 0
      vertex 18.5418 -13.1411 0
      vertex 27 19.5 0
    endloop
  endfacet
  facet normal 0 0 -1
    outer loop
      vertex 18.5418 16.8589 0
      vertex 27 19.5 0
      vertex 19 15 0
    endloop
  endfacet
  facet normal 0 0 -1
    outer loop
      vertex 17.2723 18.2919 0
      vertex 27 19.5 0
      vertex 18.5418 16.8589 0
    endloop
  endfacet
  facet normal 0 0 -1
    outer loop
      vertex 15.4821 18.9708 0
      vertex 27 19.5 0
      vertex 17.2723 18.2919 0
    endloop
  endfacet
  facet normal 0 0 -1
    outer loop
      vertex 11.1162 14.0427 0
      vertex -11 15 0
      vertex 11.1162 15.9573 0
    endloop
  endfacet
  facet normal 0 0 -1
    outer loop
      vertex -11.4582 16.8589 0
      vertex 11.1162 15.9573 0
      vertex -11 15 0
    endloop
  endfacet
  facet normal 0 0 -1
    outer loop
      vertex 11.1162 15.9573 0
      vertex -11.4582 16.8589 0
      vertex 12.006 17.6525 0
    endloop
  endfacet
  facet normal 0 0 -1
    outer loop
      vertex -12.7277 18.2919 0
      vertex 12.006 17.6525 0
      vertex -11.4582 16.8589 0
    endloop
  endfacet
  facet normal 0 0 -1
    outer loop
      vertex 12.006 17.6525 0
      vertex -12.7277 18.2919 0
      vertex 13.5816 18.7401 0
    endloop
  endfacet
  facet normal 0 0 -1
    outer loop
      vertex -14.5179 18.9708 0
      vertex 13.5816 18.7401 0
      vertex -12.7277 18.2919 0
    endloop
  endfacet
  facet normal 0 0 -1
    outer loop
      vertex 13.5816 18.7401 0
      vertex -14.5179 18.9708 0
      vertex 15.4821 18.9708 0
    endloop
  endfacet
  facet normal 0 0 -1
    outer loop
      vertex 15.4821 18.9708 0
      vertex -14.5179 18.9708 0
      vertex 27 19.5 0
    endloop
  endfacet
  facet normal 0 0 -1
    outer loop
      vertex -14.5179 18.9708 0
      vertex -27 19.5 0
      vertex 27 19.5 0
    endloop
  endfacet
  facet normal 0 0 -1
    outer loop
      vertex -16.4184 18.7401 0
      vertex -27 19.5 0
      vertex -14.5179 18.9708 0
    endloop
  endfacet
  facet normal 0 0 -1
    outer loop
      vertex -17.994 17.6525 0
      vertex -27 19.5 0
      vertex -16.4184 18.7401 0
    endloop
  endfacet
  facet normal 0 0 -1
    outer loop
      vertex -18.8838 15.9573 0
      vertex -27 19.5 0
      vertex -17.994 17.6525 0
    endloop
  endfacet
  facet normal 0 0 -1
    outer loop
      vertex -18.8838 14.0427 0
      vertex -27 19.5 0
      vertex -18.8838 15.9573 0
    endloop
  endfacet
  facet normal -0.120505 -0.992713 0
    outer loop
      vertex -16.4184 -18.7401 -2
      vertex -14.5179 -18.9708 0
      vertex -16.4184 -18.7401 0
    endloop
  endfacet
  facet normal -0.120505 -0.992713 -0
    outer loop
      vertex -14.5179 -18.9708 0
      vertex -16.4184 -18.7401 -2
      vertex -14.5179 -18.9708 -2
    endloop
  endfacet
  facet normal 0.748518 -0.663115 0
    outer loop
      vertex -12.7277 -18.2919 0
      vertex -11.4582 -16.8589 -2
      vertex -11.4582 -16.8589 0
    endloop
  endfacet
  facet normal 0.748518 -0.663115 0
    outer loop
      vertex -11.4582 -16.8589 -2
      vertex -12.7277 -18.2919 0
      vertex -12.7277 -18.2919 -2
    endloop
  endfacet
  facet normal 0.35459 -0.935022 0
    outer loop
      vertex -14.5179 -18.9708 -2
      vertex -12.7277 -18.2919 0
      vertex -14.5179 -18.9708 0
    endloop
  endfacet
  facet normal 0.35459 -0.935022 0
    outer loop
      vertex -12.7277 -18.2919 0
      vertex -14.5179 -18.9708 -2
      vertex -12.7277 -18.2919 -2
    endloop
  endfacet
  facet normal -0.120505 0.992713 0
    outer loop
      vertex -14.5179 -11.0292 -2
      vertex -16.4184 -11.2599 0
      vertex -14.5179 -11.0292 0
    endloop
  endfacet
  facet normal -0.120505 0.992713 0
    outer loop
      vertex -16.4184 -11.2599 0
      vertex -14.5179 -11.0292 -2
      vertex -16.4184 -11.2599 -2
    endloop
  endfacet
  facet normal 0.35459 0.935022 -0
    outer loop
      vertex -12.7277 -11.7081 -2
      vertex -14.5179 -11.0292 0
      vertex -12.7277 -11.7081 0
    endloop
  endfacet
  facet normal 0.35459 0.935022 0
    outer loop
      vertex -14.5179 -11.0292 0
      vertex -12.7277 -11.7081 -2
      vertex -14.5179 -11.0292 -2
    endloop
  endfacet
  facet normal -0.56808 -0.822974 0
    outer loop
      vertex -17.994 -17.6525 -2
      vertex -16.4184 -18.7401 0
      vertex -17.994 -17.6525 0
    endloop
  endfacet
  facet normal -0.56808 -0.822974 -0
    outer loop
      vertex -16.4184 -18.7401 0
      vertex -17.994 -17.6525 -2
      vertex -16.4184 -18.7401 -2
    endloop
  endfacet
  facet normal -0.885437 -0.46476 0
    outer loop
      vertex -17.994 -17.6525 -2
      vertex -18.8838 -15.9573 0
      vertex -18.8838 -15.9573 -2
    endloop
  endfacet
  facet normal -0.885437 -0.46476 0
    outer loop
      vertex -18.8838 -15.9573 0
      vertex -17.994 -17.6525 -2
      vertex -17.994 -17.6525 0
    endloop
  endfacet
  facet normal 0 0 -1
    outer loop
      vertex -11.4582 -16.8589 -2
      vertex -11.4582 -13.1411 -2
      vertex -11 -15 -2
    endloop
  endfacet
  facet normal 0 0 -1
    outer loop
      vertex -12.7277 -18.2919 -2
      vertex -11.4582 -13.1411 -2
      vertex -11.4582 -16.8589 -2
    endloop
  endfacet
  facet normal 0 0 -1
    outer loop
      vertex -12.7277 -18.2919 -2
      vertex -12.7277 -11.7081 -2
      vertex -11.4582 -13.1411 -2
    endloop
  endfacet
  facet normal 0 0 -1
    outer loop
      vertex -14.5179 -18.9708 -2
      vertex -12.7277 -11.7081 -2
      vertex -12.7277 -18.2919 -2
    endloop
  endfacet
  facet normal 0 0 -1
    outer loop
      vertex -14.5179 -18.9708 -2
      vertex -14.5179 -11.0292 -2
      vertex -12.7277 -11.7081 -2
    endloop
  endfacet
  facet normal 0 0 -1
    outer loop
      vertex -16.4184 -18.7401 -2
      vertex -14.5179 -11.0292 -2
      vertex -14.5179 -18.9708 -2
    endloop
  endfacet
  facet normal 0 0 -1
    outer loop
      vertex -16.4184 -18.7401 -2
      vertex -16.4184 -11.2599 -2
      vertex -14.5179 -11.0292 -2
    endloop
  endfacet
  facet normal 0 0 -1
    outer loop
      vertex -17.994 -17.6525 -2
      vertex -16.4184 -11.2599 -2
      vertex -16.4184 -18.7401 -2
    endloop
  endfacet
  facet normal 0 0 -1
    outer loop
      vertex -17.994 -17.6525 -2
      vertex -17.994 -12.3475 -2
      vertex -16.4184 -11.2599 -2
    endloop
  endfacet
  facet normal 0 0 -1
    outer loop
      vertex -18.8838 -15.9573 -2
      vertex -17.994 -12.3475 -2
      vertex -17.994 -17.6525 -2
    endloop
  endfacet
  facet normal 0 0 -1
    outer loop
      vertex -17.994 -12.3475 -2
      vertex -18.8838 -15.9573 -2
      vertex -18.8838 -14.0427 -2
    endloop
  endfacet
  facet normal 0.748518 0.663115 0
    outer loop
      vertex -11.4582 16.8589 0
      vertex -12.7277 18.2919 -2
      vertex -12.7277 18.2919 0
    endloop
  endfacet
  facet normal 0.748518 0.663115 0
    outer loop
      vertex -12.7277 18.2919 -2
      vertex -11.4582 16.8589 0
      vertex -11.4582 16.8589 -2
    endloop
  endfacet
  facet normal 0.970939 0.239327 0
    outer loop
      vertex -11 15 0
      vertex -11.4582 16.8589 -2
      vertex -11.4582 16.8589 0
    endloop
  endfacet
  facet normal 0.970939 0.239327 0
    outer loop
      vertex -11.4582 16.8589 -2
      vertex -11 15 0
      vertex -11 15 -2
    endloop
  endfacet
  facet normal -0.120505 -0.992713 0
    outer loop
      vertex -16.4184 11.2599 -2
      vertex -14.5179 11.0292 0
      vertex -16.4184 11.2599 0
    endloop
  endfacet
  facet normal -0.120505 -0.992713 -0
    outer loop
      vertex -14.5179 11.0292 0
      vertex -16.4184 11.2599 -2
      vertex -14.5179 11.0292 -2
    endloop
  endfacet
  facet normal 0.35459 0.935022 -0
    outer loop
      vertex -12.7277 18.2919 -2
      vertex -14.5179 18.9708 0
      vertex -12.7277 18.2919 0
    endloop
  endfacet
  facet normal 0.35459 0.935022 0
    outer loop
      vertex -14.5179 18.9708 0
      vertex -12.7277 18.2919 -2
      vertex -14.5179 18.9708 -2
    endloop
  endfacet
  facet normal 0.970939 -0.239327 0
    outer loop
      vertex -11.4582 13.1411 0
      vertex -11 15 -2
      vertex -11 15 0
    endloop
  endfacet
  facet normal 0.970939 -0.239327 0
    outer loop
      vertex -11 15 -2
      vertex -11.4582 13.1411 0
      vertex -11.4582 13.1411 -2
    endloop
  endfacet
  facet normal -0.56808 0.822974 0
    outer loop
      vertex -16.4184 18.7401 -2
      vertex -17.994 17.6525 0
      vertex -16.4184 18.7401 0
    endloop
  endfacet
  facet normal -0.56808 0.822974 0
    outer loop
      vertex -17.994 17.6525 0
      vertex -16.4184 18.7401 -2
      vertex -17.994 17.6525 -2
    endloop
  endfacet
  facet normal 0.748518 -0.663115 0
    outer loop
      vertex -12.7277 11.7081 0
      vertex -11.4582 13.1411 -2
      vertex -11.4582 13.1411 0
    endloop
  endfacet
  facet normal 0.748518 -0.663115 0
    outer loop
      vertex -11.4582 13.1411 -2
      vertex -12.7277 11.7081 0
      vertex -12.7277 11.7081 -2
    endloop
  endfacet
  facet normal -1 0 0
    outer loop
      vertex -18.8838 14.0427 -2
      vertex -18.8838 15.9573 0
      vertex -18.8838 15.9573 -2
    endloop
  endfacet
  facet normal -1 -0 0
    outer loop
      vertex -18.8838 15.9573 0
      vertex -18.8838 14.0427 -2
      vertex -18.8838 14.0427 0
    endloop
  endfacet
  facet normal -0.885437 0.46476 0
    outer loop
      vertex -18.8838 15.9573 -2
      vertex -17.994 17.6525 0
      vertex -17.994 17.6525 -2
    endloop
  endfacet
  facet normal -0.885437 0.46476 0
    outer loop
      vertex -17.994 17.6525 0
      vertex -18.8838 15.9573 -2
      vertex -18.8838 15.9573 0
    endloop
  endfacet
  facet normal 0.35459 -0.935022 0
    outer loop
      vertex -14.5179 11.0292 -2
      vertex -12.7277 11.7081 0
      vertex -14.5179 11.0292 0
    endloop
  endfacet
  facet normal 0.35459 -0.935022 0
    outer loop
      vertex -12.7277 11.7081 0
      vertex -14.5179 11.0292 -2
      vertex -12.7277 11.7081 -2
    endloop
  endfacet
  facet normal -0.120505 0.992713 0
    outer loop
      vertex -14.5179 18.9708 -2
      vertex -16.4184 18.7401 0
      vertex -14.5179 18.9708 0
    endloop
  endfacet
  facet normal -0.120505 0.992713 0
    outer loop
      vertex -16.4184 18.7401 0
      vertex -14.5179 18.9708 -2
      vertex -16.4184 18.7401 -2
    endloop
  endfacet
  facet normal -0.56808 -0.822974 0
    outer loop
      vertex -17.994 12.3475 -2
      vertex -16.4184 11.2599 0
      vertex -17.994 12.3475 0
    endloop
  endfacet
  facet normal -0.56808 -0.822974 -0
    outer loop
      vertex -16.4184 11.2599 0
      vertex -17.994 12.3475 -2
      vertex -16.4184 11.2599 -2
    endloop
  endfacet
  facet normal -0.885437 -0.46476 0
    outer loop
      vertex -17.994 12.3475 -2
      vertex -18.8838 14.0427 0
      vertex -18.8838 14.0427 -2
    endloop
  endfacet
  facet normal -0.885437 -0.46476 0
    outer loop
      vertex -18.8838 14.0427 0
      vertex -17.994 12.3475 -2
      vertex -17.994 12.3475 0
    endloop
  endfacet
  facet normal 0 0 -1
    outer loop
      vertex -11.4582 13.1411 -2
      vertex -11.4582 16.8589 -2
      vertex -11 15 -2
    endloop
  endfacet
  facet normal 0 0 -1
    outer loop
      vertex -12.7277 11.7081 -2
      vertex -11.4582 16.8589 -2
      vertex -11.4582 13.1411 -2
    endloop
  endfacet
  facet normal 0 0 -1
    outer loop
      vertex -12.7277 11.7081 -2
      vertex -12.7277 18.2919 -2
      vertex -11.4582 16.8589 -2
    endloop
  endfacet
  facet normal 0 0 -1
    outer loop
      vertex -14.5179 11.0292 -2
      vertex -12.7277 18.2919 -2
      vertex -12.7277 11.7081 -2
    endloop
  endfacet
  facet normal 0 0 -1
    outer loop
      vertex -14.5179 11.0292 -2
      vertex -14.5179 18.9708 -2
      vertex -12.7277 18.2919 -2
    endloop
  endfacet
  facet normal 0 0 -1
    outer loop
      vertex -16.4184 11.2599 -2
      vertex -14.5179 18.9708 -2
      vertex -14.5179 11.0292 -2
    endloop
  endfacet
  facet normal 0 0 -1
    outer loop
      vertex -16.4184 11.2599 -2
      vertex -16.4184 18.7401 -2
      vertex -14.5179 18.9708 -2
    endloop
  endfacet
  facet normal 0 0 -1
    outer loop
      vertex -17.994 12.3475 -2
      vertex -16.4184 18.7401 -2
      vertex -16.4184 11.2599 -2
    endloop
  endfacet
  facet normal 0 0 -1
    outer loop
      vertex -17.994 12.3475 -2
      vertex -17.994 17.6525 -2
      vertex -16.4184 18.7401 -2
    endloop
  endfacet
  facet normal 0 0 -1
    outer loop
      vertex -18.8838 14.0427 -2
      vertex -17.994 17.6525 -2
      vertex -17.994 12.3475 -2
    endloop
  endfacet
  facet normal 0 0 -1
    outer loop
      vertex -17.994 17.6525 -2
      vertex -18.8838 14.0427 -2
      vertex -18.8838 15.9573 -2
    endloop
  endfacet
  facet normal -0.56808 0.822974 0
    outer loop
      vertex 13.5816 -11.2599 -2
      vertex 12.006 -12.3475 0
      vertex 13.5816 -11.2599 0
    endloop
  endfacet
  facet normal -0.56808 0.822974 0
    outer loop
      vertex 12.006 -12.3475 0
      vertex 13.5816 -11.2599 -2
      vertex 12.006 -12.3475 -2
    endloop
  endfacet
  facet normal 0.748518 0.663115 0
    outer loop
      vertex 18.5418 -13.1411 0
      vertex 17.2723 -11.7081 -2
      vertex 17.2723 -11.7081 0
    endloop
  endfacet
  facet normal 0.748518 0.663115 0
    outer loop
      vertex 17.2723 -11.7081 -2
      vertex 18.5418 -13.1411 0
      vertex 18.5418 -13.1411 -2
    endloop
  endfacet
  facet normal 0.970939 0.239327 0
    outer loop
      vertex 19 -15 0
      vertex 18.5418 -13.1411 -2
      vertex 18.5418 -13.1411 0
    endloop
  endfacet
  facet normal 0.970939 0.239327 0
    outer loop
      vertex 18.5418 -13.1411 -2
      vertex 19 -15 0
      vertex 19 -15 -2
    endloop
  endfacet
  facet normal -1 0 0
    outer loop
      vertex 11.1162 -15.9573 -2
      vertex 11.1162 -14.0427 0
      vertex 11.1162 -14.0427 -2
    endloop
  endfacet
  facet normal -1 -0 0
    outer loop
      vertex 11.1162 -14.0427 0
      vertex 11.1162 -15.9573 -2
      vertex 11.1162 -15.9573 0
    endloop
  endfacet
  facet normal -0.885437 0.46476 0
    outer loop
      vertex 11.1162 -14.0427 -2
      vertex 12.006 -12.3475 0
      vertex 12.006 -12.3475 -2
    endloop
  endfacet
  facet normal -0.885437 0.46476 0
    outer loop
      vertex 12.006 -12.3475 0
      vertex 11.1162 -14.0427 -2
      vertex 11.1162 -14.0427 0
    endloop
  endfacet
  facet normal 0.35459 0.935022 -0
    outer loop
      vertex 17.2723 -11.7081 -2
      vertex 15.4821 -11.0292 0
      vertex 17.2723 -11.7081 0
    endloop
  endfacet
  facet normal 0.35459 0.935022 0
    outer loop
      vertex 15.4821 -11.0292 0
      vertex 17.2723 -11.7081 -2
      vertex 15.4821 -11.0292 -2
    endloop
  endfacet
  facet normal 0.970939 -0.239327 0
    outer loop
      vertex 18.5418 -16.8589 0
      vertex 19 -15 -2
      vertex 19 -15 0
    endloop
  endfacet
  facet normal 0.970939 -0.239327 0
    outer loop
      vertex 19 -15 -2
      vertex 18.5418 -16.8589 0
      vertex 18.5418 -16.8589 -2
    endloop
  endfacet
  facet normal -0.120505 -0.992713 0
    outer loop
      vertex 13.5816 -18.7401 -2
      vertex 15.4821 -18.9708 0
      vertex 13.5816 -18.7401 0
    endloop
  endfacet
  facet normal -0.120505 -0.992713 -0
    outer loop
      vertex 15.4821 -18.9708 0
      vertex 13.5816 -18.7401 -2
      vertex 15.4821 -18.9708 -2
    endloop
  endfacet
  facet normal 0.748518 -0.663115 0
    outer loop
      vertex 17.2723 -18.2919 0
      vertex 18.5418 -16.8589 -2
      vertex 18.5418 -16.8589 0
    endloop
  endfacet
  facet normal 0.748518 -0.663115 0
    outer loop
      vertex 18.5418 -16.8589 -2
      vertex 17.2723 -18.2919 0
      vertex 17.2723 -18.2919 -2
    endloop
  endfacet
  facet normal 0.35459 -0.935022 0
    outer loop
      vertex 15.4821 -18.9708 -2
      vertex 17.2723 -18.2919 0
      vertex 15.4821 -18.9708 0
    endloop
  endfacet
  facet normal 0.35459 -0.935022 0
    outer loop
      vertex 17.2723 -18.2919 0
      vertex 15.4821 -18.9708 -2
      vertex 17.2723 -18.2919 -2
    endloop
  endfacet
  facet normal -0.120505 0.992713 0
    outer loop
      vertex 15.4821 -11.0292 -2
      vertex 13.5816 -11.2599 0
      vertex 15.4821 -11.0292 0
    endloop
  endfacet
  facet normal -0.120505 0.992713 0
    outer loop
      vertex 13.5816 -11.2599 0
      vertex 15.4821 -11.0292 -2
      vertex 13.5816 -11.2599 -2
    endloop
  endfacet
  facet normal -0.56808 -0.822974 0
    outer loop
      vertex 12.006 -17.6525 -2
      vertex 13.5816 -18.7401 0
      vertex 12.006 -17.6525 0
    endloop
  endfacet
  facet normal -0.56808 -0.822974 -0
    outer loop
      vertex 13.5816 -18.7401 0
      vertex 12.006 -17.6525 -2
      vertex 13.5816 -18.7401 -2
    endloop
  endfacet
  facet normal -0.885437 -0.46476 0
    outer loop
      vertex 12.006 -17.6525 -2
      vertex 11.1162 -15.9573 0
      vertex 11.1162 -15.9573 -2
    endloop
  endfacet
  facet normal -0.885437 -0.46476 0
    outer loop
      vertex 11.1162 -15.9573 0
      vertex 12.006 -17.6525 -2
      vertex 12.006 -17.6525 0
    endloop
  endfacet
  facet normal 0 0 -1
    outer loop
      vertex 18.5418 -16.8589 -2
      vertex 18.5418 -13.1411 -2
      vertex 19 -15 -2
    endloop
  endfacet
  facet normal 0 0 -1
    outer loop
      vertex 17.2723 -18.2919 -2
      vertex 18.5418 -13.1411 -2
      vertex 18.5418 -16.8589 -2
    endloop
  endfacet
  facet normal 0 0 -1
    outer loop
      vertex 17.2723 -18.2919 -2
      vertex 17.2723 -11.7081 -2
      vertex 18.5418 -13.1411 -2
    endloop
  endfacet
  facet normal 0 0 -1
    outer loop
      vertex 15.4821 -18.9708 -2
      vertex 17.2723 -11.7081 -2
      vertex 17.2723 -18.2919 -2
    endloop
  endfacet
  facet normal 0 0 -1
    outer loop
      vertex 15.4821 -18.9708 -2
      vertex 15.4821 -11.0292 -2
      vertex 17.2723 -11.7081 -2
    endloop
  endfacet
  facet normal 0 0 -1
    outer loop
      vertex 13.5816 -18.7401 -2
      vertex 15.4821 -11.0292 -2
      vertex 15.4821 -18.9708 -2
    endloop
  endfacet
  facet normal 0 0 -1
    outer loop
      vertex 13.5816 -18.7401 -2
      vertex 13.5816 -11.2599 -2
      vertex 15.4821 -11.0292 -2
    endloop
  endfacet
  facet normal 0 0 -1
    outer loop
      vertex 12.006 -17.6525 -2
      vertex 13.5816 -11.2599 -2
      vertex 13.5816 -18.7401 -2
    endloop
  endfacet
  facet normal 0 0 -1
    outer loop
      vertex 12.006 -17.6525 -2
      vertex 12.006 -12.3475 -2
      vertex 13.5816 -11.2599 -2
    endloop
  endfacet
  facet normal 0 0 -1
    outer loop
      vertex 11.1162 -15.9573 -2
      vertex 12.006 -12.3475 -2
      vertex 12.006 -17.6525 -2
    endloop
  endfacet
  facet normal 0 0 -1
    outer loop
      vertex 12.006 -12.3475 -2
      vertex 11.1162 -15.9573 -2
      vertex 11.1162 -14.0427 -2
    endloop
  endfacet
  facet normal -0.56808 0.822974 0
    outer loop
      vertex 13.5816 18.7401 -2
      vertex 12.006 17.6525 0
      vertex 13.5816 18.7401 0
    endloop
  endfacet
  facet normal -0.56808 0.822974 0
    outer loop
      vertex 12.006 17.6525 0
      vertex 13.5816 18.7401 -2
      vertex 12.006 17.6525 -2
    endloop
  endfacet
  facet normal 0.748518 0.663115 0
    outer loop
      vertex 18.5418 16.8589 0
      vertex 17.2723 18.2919 -2
      vertex 17.2723 18.2919 0
    endloop
  endfacet
  facet normal 0.748518 0.663115 0
    outer loop
      vertex 17.2723 18.2919 -2
      vertex 18.5418 16.8589 0
      vertex 18.5418 16.8589 -2
    endloop
  endfacet
  facet normal 0.970939 0.239327 0
    outer loop
      vertex 19 15 0
      vertex 18.5418 16.8589 -2
      vertex 18.5418 16.8589 0
    endloop
  endfacet
  facet normal 0.970939 0.239327 0
    outer loop
      vertex 18.5418 16.8589 -2
      vertex 19 15 0
      vertex 19 15 -2
    endloop
  endfacet
  facet normal -1 0 0
    outer loop
      vertex 11.1162 14.0427 -2
      vertex 11.1162 15.9573 0
      vertex 11.1162 15.9573 -2
    endloop
  endfacet
  facet normal -1 -0 0
    outer loop
      vertex 11.1162 15.9573 0
      vertex 11.1162 14.0427 -2
      vertex 11.1162 14.0427 0
    endloop
  endfacet
  facet normal -0.885437 0.46476 0
    outer loop
      vertex 11.1162 15.9573 -2
      vertex 12.006 17.6525 0
      vertex 12.006 17.6525 -2
    endloop
  endfacet
  facet normal -0.885437 0.46476 0
    outer loop
      vertex 12.006 17.6525 0
      vertex 11.1162 15.9573 -2
      vertex 11.1162 15.9573 0
    endloop
  endfacet
  facet normal 0.970939 -0.239327 0
    outer loop
      vertex 18.5418 13.1411 0
      vertex 19 15 -2
      vertex 19 15 0
    endloop
  endfacet
  facet normal 0.970939 -0.239327 0
    outer loop
      vertex 19 15 -2
      vertex 18.5418 13.1411 0
      vertex 18.5418 13.1411 -2
    endloop
  endfacet
  facet normal -0.120505 -0.992713 0
    outer loop
      vertex 13.5816 11.2599 -2
      vertex 15.4821 11.0292 0
      vertex 13.5816 11.2599 0
    endloop
  endfacet
  facet normal -0.120505 -0.992713 -0
    outer loop
      vertex 15.4821 11.0292 0
      vertex 13.5816 11.2599 -2
      vertex 15.4821 11.0292 -2
    endloop
  endfacet
  facet normal 0.748518 -0.663115 0
    outer loop
      vertex 17.2723 11.7081 0
      vertex 18.5418 13.1411 -2
      vertex 18.5418 13.1411 0
    endloop
  endfacet
  facet normal 0.748518 -0.663115 0
    outer loop
      vertex 18.5418 13.1411 -2
      vertex 17.2723 11.7081 0
      vertex 17.2723 11.7081 -2
    endloop
  endfacet
  facet normal 0.35459 -0.935022 0
    outer loop
      vertex 15.4821 11.0292 -2
      vertex 17.2723 11.7081 0
      vertex 15.4821 11.0292 0
    endloop
  endfacet
  facet normal 0.35459 -0.935022 0
    outer loop
      vertex 17.2723 11.7081 0
      vertex 15.4821 11.0292 -2
      vertex 17.2723 11.7081 -2
    endloop
  endfacet
  facet normal -0.120505 0.992713 0
    outer loop
      vertex 15.4821 18.9708 -2
      vertex 13.5816 18.7401 0
      vertex 15.4821 18.9708 0
    endloop
  endfacet
  facet normal -0.120505 0.992713 0
    outer loop
      vertex 13.5816 18.7401 0
      vertex 15.4821 18.9708 -2
      vertex 13.5816 18.7401 -2
    endloop
  endfacet
  facet normal 0.35459 0.935022 -0
    outer loop
      vertex 17.2723 18.2919 -2
      vertex 15.4821 18.9708 0
      vertex 17.2723 18.2919 0
    endloop
  endfacet
  facet normal 0.35459 0.935022 0
    outer loop
      vertex 15.4821 18.9708 0
      vertex 17.2723 18.2919 -2
      vertex 15.4821 18.9708 -2
    endloop
  endfacet
  facet normal -0.56808 -0.822974 0
    outer loop
      vertex 12.006 12.3475 -2
      vertex 13.5816 11.2599 0
      vertex 12.006 12.3475 0
    endloop
  endfacet
  facet normal -0.56808 -0.822974 -0
    outer loop
      vertex 13.5816 11.2599 0
      vertex 12.006 12.3475 -2
      vertex 13.5816 11.2599 -2
    endloop
  endfacet
  facet normal -0.885437 -0.46476 0
    outer loop
      vertex 12.006 12.3475 -2
      vertex 11.1162 14.0427 0
      vertex 11.1162 14.0427 -2
    endloop
  endfacet
  facet normal -0.885437 -0.46476 0
    outer loop
      vertex 11.1162 14.0427 0
      vertex 12.006 12.3475 -2
      vertex 12.006 12.3475 0
    endloop
  endfacet
  facet normal 0 0 -1
    outer loop
      vertex 18.5418 13.1411 -2
      vertex 18.5418 16.8589 -2
      vertex 19 15 -2
    endloop
  endfacet
  facet normal 0 0 -1
    outer loop
      vertex 17.2723 11.7081 -2
      vertex 18.5418 16.8589 -2
      vertex 18.5418 13.1411 -2
    endloop
  endfacet
  facet normal 0 0 -1
    outer loop
      vertex 17.2723 11.7081 -2
      vertex 17.2723 18.2919 -2
      vertex 18.5418 16.8589 -2
    endloop
  endfacet
  facet normal 0 0 -1
    outer loop
      vertex 15.4821 11.0292 -2
      vertex 17.2723 18.2919 -2
      vertex 17.2723 11.7081 -2
    endloop
  endfacet
  facet normal 0 0 -1
    outer loop
      vertex 15.4821 11.0292 -2
      vertex 15.4821 18.9708 -2
      vertex 17.2723 18.2919 -2
    endloop
  endfacet
  facet normal 0 0 -1
    outer loop
      vertex 13.5816 11.2599 -2
      vertex 15.4821 18.9708 -2
      vertex 15.4821 11.0292 -2
    endloop
  endfacet
  facet normal 0 0 -1
    outer loop
      vertex 13.5816 11.2599 -2
      vertex 13.5816 18.7401 -2
      vertex 15.4821 18.9708 -2
    endloop
  endfacet
  facet normal 0 0 -1
    outer loop
      vertex 12.006 12.3475 -2
      vertex 13.5816 18.7401 -2
      vertex 13.5816 11.2599 -2
    endloop
  endfacet
  facet normal 0 0 -1
    outer loop
      vertex 12.006 12.3475 -2
      vertex 12.006 17.6525 -2
      vertex 13.5816 18.7401 -2
    endloop
  endfacet
  facet normal 0 0 -1
    outer loop
      vertex 11.1162 14.0427 -2
      vertex 12.006 17.6525 -2
      vertex 12.006 12.3475 -2
    endloop
  endfacet
  facet normal 0 0 -1
    outer loop
      vertex 12.006 17.6525 -2
      vertex 11.1162 14.0427 -2
      vertex 11.1162 15.9573 -2
    endloop
  endfacet
  facet normal 1 0 0
    outer loop
      vertex -14 19.5 4.1
      vertex -14 23.5 6
      vertex -14 19.5 6
    endloop
  endfacet
  facet normal 1 0 0
    outer loop
      vertex -14 23.5 6
      vertex -14 19.5 4.1
      vertex -14 23.5 3
    endloop
  endfacet
  facet normal 1 0 0
    outer loop
      vertex -14 23.5 3
      vertex -14 19.5 4.1
      vertex -14 19.5 3
    endloop
  endfacet
  facet normal -0 0 1
    outer loop
      vertex -18 23.5 6
      vertex -14 19.5 6
      vertex -14 23.5 6
    endloop
  endfacet
  facet normal 0 0 1
    outer loop
      vertex -14 19.5 6
      vertex -18 23.5 6
      vertex -18 19.5 6
    endloop
  endfacet
  facet normal 0 0 -1
    outer loop
      vertex -18 19.5 3
      vertex -14 23.5 3
      vertex -14 19.5 3
    endloop
  endfacet
  facet normal -0 0 -1
    outer loop
      vertex -14 23.5 3
      vertex -18 19.5 3
      vertex -18 23.5 3
    endloop
  endfacet
  facet normal -1 0 0
    outer loop
      vertex -18 19.5 4.1
      vertex -18 23.5 3
      vertex -18 19.5 3
    endloop
  endfacet
  facet normal -1 0 0
    outer loop
      vertex -18 23.5 3
      vertex -18 19.5 4.1
      vertex -18 23.5 6
    endloop
  endfacet
  facet normal -1 -0 0
    outer loop
      vertex -18 23.5 6
      vertex -18 19.5 4.1
      vertex -18 19.5 6
    endloop
  endfacet
  facet normal 0 1 -0
    outer loop
      vertex -14 23.5 3
      vertex -18 23.5 6
      vertex -14 23.5 6
    endloop
  endfacet
  facet normal 0 1 0
    outer loop
      vertex -18 23.5 6
      vertex -14 23.5 3
      vertex -18 23.5 3
    endloop
  endfacet
  facet normal 0 -1 0
    outer loop
      vertex 12 19.5 4.1
      vertex 16 19.5 6
      vertex 12 19.5 6
    endloop
  endfacet
  facet normal 0 -1 -0
    outer loop
      vertex 16 19.5 6
      vertex 12 19.5 4.1
      vertex 16 19.5 4.1
    endloop
  endfacet
  facet normal 0 1 0
    outer loop
      vertex 27 19.5 4.1
      vertex 16 19.5 3
      vertex 16 19.5 4.1
    endloop
  endfacet
  facet normal 0 1 0
    outer loop
      vertex 27 19.5 0
      vertex 12 19.5 3
      vertex 16 19.5 3
    endloop
  endfacet
  facet normal 0 1 0
    outer loop
      vertex 12 19.5 3
      vertex 27 19.5 0
      vertex 10 19.5 3
    endloop
  endfacet
  facet normal 0 1 0
    outer loop
      vertex 10 19.5 3
      vertex 27 19.5 0
      vertex 6 19.5 3
    endloop
  endfacet
  facet normal 0 1 0
    outer loop
      vertex 6 19.5 3
      vertex 27 19.5 0
      vertex 4 19.5 3
    endloop
  endfacet
  facet normal 0 1 0
    outer loop
      vertex 4 19.5 3
      vertex 27 19.5 0
      vertex 0 19.5 3
    endloop
  endfacet
  facet normal 0 1 0
    outer loop
      vertex 0 19.5 3
      vertex 27 19.5 0
      vertex -2 19.5 3
    endloop
  endfacet
  facet normal 0 1 0
    outer loop
      vertex -27 19.5 0
      vertex -2 19.5 3
      vertex 27 19.5 0
    endloop
  endfacet
  facet normal 0 1 0
    outer loop
      vertex -2 19.5 3
      vertex -27 19.5 0
      vertex -6 19.5 3
    endloop
  endfacet
  facet normal 0 1 0
    outer loop
      vertex -6 19.5 3
      vertex -27 19.5 0
      vertex -8 19.5 3
    endloop
  endfacet
  facet normal 0 1 0
    outer loop
      vertex -8 19.5 3
      vertex -27 19.5 0
      vertex -12 19.5 3
    endloop
  endfacet
  facet normal 0 1 0
    outer loop
      vertex -12 19.5 3
      vertex -27 19.5 0
      vertex -14 19.5 3
    endloop
  endfacet
  facet normal 0 1 -0
    outer loop
      vertex 27 19.5 0
      vertex 16 19.5 3
      vertex 27 19.5 4.1
    endloop
  endfacet
  facet normal 0 1 -0
    outer loop
      vertex 12 19.5 3
      vertex 10 19.5 4.1
      vertex 12 19.5 4.1
    endloop
  endfacet
  facet normal 0 1 0
    outer loop
      vertex 10 19.5 4.1
      vertex 12 19.5 3
      vertex 10 19.5 3
    endloop
  endfacet
  facet normal 0 1 -0
    outer loop
      vertex 6 19.5 3
      vertex 4 19.5 4.1
      vertex 6 19.5 4.1
    endloop
  endfacet
  facet normal 0 1 0
    outer loop
      vertex 4 19.5 4.1
      vertex 6 19.5 3
      vertex 4 19.5 3
    endloop
  endfacet
  facet normal 0 1 -0
    outer loop
      vertex 0 19.5 3
      vertex -2 19.5 4.1
      vertex 0 19.5 4.1
    endloop
  endfacet
  facet normal 0 1 0
    outer loop
      vertex -2 19.5 4.1
      vertex 0 19.5 3
      vertex -2 19.5 3
    endloop
  endfacet
  facet normal 0 1 -0
    outer loop
      vertex -6 19.5 3
      vertex -8 19.5 4.1
      vertex -6 19.5 4.1
    endloop
  endfacet
  facet normal 0 1 0
    outer loop
      vertex -8 19.5 4.1
      vertex -6 19.5 3
      vertex -8 19.5 3
    endloop
  endfacet
  facet normal 0 1 -0
    outer loop
      vertex -12 19.5 3
      vertex -14 19.5 4.1
      vertex -12 19.5 4.1
    endloop
  endfacet
  facet normal 0 1 0
    outer loop
      vertex -14 19.5 4.1
      vertex -12 19.5 3
      vertex -14 19.5 3
    endloop
  endfacet
  facet normal 0 1 -0
    outer loop
      vertex -18 19.5 3
      vertex -27 19.5 4.1
      vertex -18 19.5 4.1
    endloop
  endfacet
  facet normal 0 1 0
    outer loop
      vertex -18 19.5 3
      vertex -27 19.5 0
      vertex -27 19.5 4.1
    endloop
  endfacet
  facet normal 0 1 0
    outer loop
      vertex -14 19.5 3
      vertex -27 19.5 0
      vertex -18 19.5 3
    endloop
  endfacet
  facet normal 0 -1 0
    outer loop
      vertex 6 19.5 4.1
      vertex 10 19.5 6
      vertex 6 19.5 6
    endloop
  endfacet
  facet normal 0 -1 -0
    outer loop
      vertex 10 19.5 6
      vertex 6 19.5 4.1
      vertex 10 19.5 4.1
    endloop
  endfacet
  facet normal 0 -1 0
    outer loop
      vertex -18 19.5 4.1
      vertex -14 19.5 6
      vertex -18 19.5 6
    endloop
  endfacet
  facet normal 0 -1 -0
    outer loop
      vertex -14 19.5 6
      vertex -18 19.5 4.1
      vertex -14 19.5 4.1
    endloop
  endfacet
  facet normal 0 -1 0
    outer loop
      vertex -6 19.5 4.1
      vertex -2 19.5 6
      vertex -6 19.5 6
    endloop
  endfacet
  facet normal 0 -1 -0
    outer loop
      vertex -2 19.5 6
      vertex -6 19.5 4.1
      vertex -2 19.5 4.1
    endloop
  endfacet
  facet normal 0 -1 0
    outer loop
      vertex -12 19.5 4.1
      vertex -8 19.5 6
      vertex -12 19.5 6
    endloop
  endfacet
  facet normal 0 -1 -0
    outer loop
      vertex -8 19.5 6
      vertex -12 19.5 4.1
      vertex -8 19.5 4.1
    endloop
  endfacet
  facet normal 0 -1 0
    outer loop
      vertex 0 19.5 4.1
      vertex 4 19.5 6
      vertex 0 19.5 6
    endloop
  endfacet
  facet normal 0 -1 -0
    outer loop
      vertex 4 19.5 6
      vertex 0 19.5 4.1
      vertex 4 19.5 4.1
    endloop
  endfacet
  facet normal 1 -0 0
    outer loop
      vertex -14 -23.5 6
      vertex -14 -19.5 4.1
      vertex -14 -19.5 6
    endloop
  endfacet
  facet normal 1 0 0
    outer loop
      vertex -14 -23.5 3
      vertex -14 -19.5 4.1
      vertex -14 -23.5 6
    endloop
  endfacet
  facet normal 1 0 0
    outer loop
      vertex -14 -19.5 4.1
      vertex -14 -23.5 3
      vertex -14 -19.5 3
    endloop
  endfacet
  facet normal -0 0 1
    outer loop
      vertex -18 -19.5 6
      vertex -14 -23.5 6
      vertex -14 -19.5 6
    endloop
  endfacet
  facet normal 0 0 1
    outer loop
      vertex -14 -23.5 6
      vertex -18 -19.5 6
      vertex -18 -23.5 6
    endloop
  endfacet
  facet normal 0 0 -1
    outer loop
      vertex -18 -23.5 3
      vertex -14 -19.5 3
      vertex -14 -23.5 3
    endloop
  endfacet
  facet normal -0 0 -1
    outer loop
      vertex -14 -19.5 3
      vertex -18 -23.5 3
      vertex -18 -19.5 3
    endloop
  endfacet
  facet normal -1 0 0
    outer loop
      vertex -18 -23.5 3
      vertex -18 -19.5 4.1
      vertex -18 -19.5 3
    endloop
  endfacet
  facet normal -1 0 0
    outer loop
      vertex -18 -23.5 6
      vertex -18 -19.5 4.1
      vertex -18 -23.5 3
    endloop
  endfacet
  facet normal -1 0 0
    outer loop
      vertex -18 -19.5 4.1
      vertex -18 -23.5 6
      vertex -18 -19.5 6
    endloop
  endfacet
  facet normal 0 1 -0
    outer loop
      vertex 16 -19.5 4.1
      vertex 12 -19.5 6
      vertex 16 -19.5 6
    endloop
  endfacet
  facet normal 0 1 0
    outer loop
      vertex 12 -19.5 6
      vertex 16 -19.5 4.1
      vertex 12 -19.5 4.1
    endloop
  endfacet
  facet normal 0 -1 0
    outer loop
      vertex -27 -19.5 4.1
      vertex -18 -19.5 3
      vertex -18 -19.5 4.1
    endloop
  endfacet
  facet normal 0 -1 0
    outer loop
      vertex -27 -19.5 0
      vertex -14 -19.5 3
      vertex -18 -19.5 3
    endloop
  endfacet
  facet normal 0 -1 -0
    outer loop
      vertex -14 -19.5 3
      vertex -27 -19.5 0
      vertex -12 -19.5 3
    endloop
  endfacet
  facet normal 0 -1 -0
    outer loop
      vertex -12 -19.5 3
      vertex -27 -19.5 0
      vertex -8 -19.5 3
    endloop
  endfacet
  facet normal 0 -1 -0
    outer loop
      vertex -8 -19.5 3
      vertex -27 -19.5 0
      vertex -6 -19.5 3
    endloop
  endfacet
  facet normal 0 -1 -0
    outer loop
      vertex -6 -19.5 3
      vertex -27 -19.5 0
      vertex -2 -19.5 3
    endloop
  endfacet
  facet normal 0 -1 -0
    outer loop
      vertex -2 -19.5 3
      vertex -27 -19.5 0
      vertex 0 -19.5 3
    endloop
  endfacet
  facet normal 0 -1 0
    outer loop
      vertex 27 -19.5 0
      vertex 0 -19.5 3
      vertex -27 -19.5 0
    endloop
  endfacet
  facet normal 0 -1 0
    outer loop
      vertex 0 -19.5 3
      vertex 27 -19.5 0
      vertex 4 -19.5 3
    endloop
  endfacet
  facet normal 0 -1 0
    outer loop
      vertex 4 -19.5 3
      vertex 27 -19.5 0
      vertex 6 -19.5 3
    endloop
  endfacet
  facet normal 0 -1 0
    outer loop
      vertex 6 -19.5 3
      vertex 27 -19.5 0
      vertex 10 -19.5 3
    endloop
  endfacet
  facet normal 0 -1 0
    outer loop
      vertex 10 -19.5 3
      vertex 27 -19.5 0
      vertex 12 -19.5 3
    endloop
  endfacet
  facet normal 0 -1 0
    outer loop
      vertex -27 -19.5 0
      vertex -18 -19.5 3
      vertex -27 -19.5 4.1
    endloop
  endfacet
  facet normal 0 -1 0
    outer loop
      vertex -14 -19.5 3
      vertex -12 -19.5 4.1
      vertex -14 -19.5 4.1
    endloop
  endfacet
  facet normal 0 -1 -0
    outer loop
      vertex -12 -19.5 4.1
      vertex -14 -19.5 3
      vertex -12 -19.5 3
    endloop
  endfacet
  facet normal 0 -1 0
    outer loop
      vertex -8 -19.5 3
      vertex -6 -19.5 4.1
      vertex -8 -19.5 4.1
    endloop
  endfacet
  facet normal 0 -1 -0
    outer loop
      vertex -6 -19.5 4.1
      vertex -8 -19.5 3
      vertex -6 -19.5 3
    endloop
  endfacet
  facet normal 0 -1 0
    outer loop
      vertex -2 -19.5 3
      vertex 0 -19.5 4.1
      vertex -2 -19.5 4.1
    endloop
  endfacet
  facet normal 0 -1 -0
    outer loop
      vertex 0 -19.5 4.1
      vertex -2 -19.5 3
      vertex 0 -19.5 3
    endloop
  endfacet
  facet normal 0 -1 0
    outer loop
      vertex 4 -19.5 3
      vertex 6 -19.5 4.1
      vertex 4 -19.5 4.1
    endloop
  endfacet
  facet normal 0 -1 -0
    outer loop
      vertex 6 -19.5 4.1
      vertex 4 -19.5 3
      vertex 6 -19.5 3
    endloop
  endfacet
  facet normal 0 -1 0
    outer loop
      vertex 10 -19.5 3
      vertex 12 -19.5 4.1
      vertex 10 -19.5 4.1
    endloop
  endfacet
  facet normal 0 -1 -0
    outer loop
      vertex 12 -19.5 4.1
      vertex 10 -19.5 3
      vertex 12 -19.5 3
    endloop
  endfacet
  facet normal 0 -1 0
    outer loop
      vertex 16 -19.5 3
      vertex 27 -19.5 4.1
      vertex 16 -19.5 4.1
    endloop
  endfacet
  facet normal 0 -1 0
    outer loop
      vertex 16 -19.5 3
      vertex 27 -19.5 0
      vertex 27 -19.5 4.1
    endloop
  endfacet
  facet normal 0 -1 0
    outer loop
      vertex 12 -19.5 3
      vertex 27 -19.5 0
      vertex 16 -19.5 3
    endloop
  endfacet
  facet normal 0 1 -0
    outer loop
      vertex 10 -19.5 4.1
      vertex 6 -19.5 6
      vertex 10 -19.5 6
    endloop
  endfacet
  facet normal 0 1 0
    outer loop
      vertex 6 -19.5 6
      vertex 10 -19.5 4.1
      vertex 6 -19.5 4.1
    endloop
  endfacet
  facet normal 0 1 -0
    outer loop
      vertex -14 -19.5 4.1
      vertex -18 -19.5 6
      vertex -14 -19.5 6
    endloop
  endfacet
  facet normal 0 1 0
    outer loop
      vertex -18 -19.5 6
      vertex -14 -19.5 4.1
      vertex -18 -19.5 4.1
    endloop
  endfacet
  facet normal 0 1 -0
    outer loop
      vertex -8 -19.5 4.1
      vertex -12 -19.5 6
      vertex -8 -19.5 6
    endloop
  endfacet
  facet normal 0 1 0
    outer loop
      vertex -12 -19.5 6
      vertex -8 -19.5 4.1
      vertex -12 -19.5 4.1
    endloop
  endfacet
  facet normal 0 1 -0
    outer loop
      vertex 4 -19.5 4.1
      vertex 0 -19.5 6
      vertex 4 -19.5 6
    endloop
  endfacet
  facet normal 0 1 0
    outer loop
      vertex 0 -19.5 6
      vertex 4 -19.5 4.1
      vertex 0 -19.5 4.1
    endloop
  endfacet
  facet normal 0 1 -0
    outer loop
      vertex -2 -19.5 4.1
      vertex -6 -19.5 6
      vertex -2 -19.5 6
    endloop
  endfacet
  facet normal 0 1 0
    outer loop
      vertex -6 -19.5 6
      vertex -2 -19.5 4.1
      vertex -6 -19.5 4.1
    endloop
  endfacet
  facet normal 0 -1 0
    outer loop
      vertex -18 -23.5 3
      vertex -14 -23.5 6
      vertex -18 -23.5 6
    endloop
  endfacet
  facet normal 0 -1 -0
    outer loop
      vertex -14 -23.5 6
      vertex -18 -23.5 3
      vertex -14 -23.5 3
    endloop
  endfacet
  facet normal 1 0 0
    outer loop
      vertex -8 19.5 4.1
      vertex -8 23.5 6
      vertex -8 19.5 6
    endloop
  endfacet
  facet normal 1 0 0
    outer loop
      vertex -8 23.5 6
      vertex -8 19.5 4.1
      vertex -8 23.5 3
    endloop
  endfacet
  facet normal 1 0 0
    outer loop
      vertex -8 23.5 3
      vertex -8 19.5 4.1
      vertex -8 19.5 3
    endloop
  endfacet
  facet normal -0 0 1
    outer loop
      vertex -12 23.5 6
      vertex -8 19.5 6
      vertex -8 23.5 6
    endloop
  endfacet
  facet normal 0 0 1
    outer loop
      vertex -8 19.5 6
      vertex -12 23.5 6
      vertex -12 19.5 6
    endloop
  endfacet
  facet normal 0 0 -1
    outer loop
      vertex -12 19.5 3
      vertex -8 23.5 3
      vertex -8 19.5 3
    endloop
  endfacet
  facet normal -0 0 -1
    outer loop
      vertex -8 23.5 3
      vertex -12 19.5 3
      vertex -12 23.5 3
    endloop
  endfacet
  facet normal -1 0 0
    outer loop
      vertex -12 19.5 4.1
      vertex -12 23.5 3
      vertex -12 19.5 3
    endloop
  endfacet
  facet normal -1 0 0
    outer loop
      vertex -12 23.5 3
      vertex -12 19.5 4.1
      vertex -12 23.5 6
    endloop
  endfacet
  facet normal -1 -0 0
    outer loop
      vertex -12 23.5 6
      vertex -12 19.5 4.1
      vertex -12 19.5 6
    endloop
  endfacet
  facet normal 0 1 -0
    outer loop
      vertex -8 23.5 3
      vertex -12 23.5 6
      vertex -8 23.5 6
    endloop
  endfacet
  facet normal 0 1 0
    outer loop
      vertex -12 23.5 6
      vertex -8 23.5 3
      vertex -12 23.5 3
    endloop
  endfacet
  facet normal 1 -0 0
    outer loop
      vertex -8 -23.5 6
      vertex -8 -19.5 4.1
      vertex -8 -19.5 6
    endloop
  endfacet
  facet normal 1 0 0
    outer loop
      vertex -8 -23.5 3
      vertex -8 -19.5 4.1
      vertex -8 -23.5 6
    endloop
  endfacet
  facet normal 1 0 0
    outer loop
      vertex -8 -19.5 4.1
      vertex -8 -23.5 3
      vertex -8 -19.5 3
    endloop
  endfacet
  facet normal -0 0 1
    outer loop
      vertex -12 -19.5 6
      vertex -8 -23.5 6
      vertex -8 -19.5 6
    endloop
  endfacet
  facet normal 0 0 1
    outer loop
      vertex -8 -23.5 6
      vertex -12 -19.5 6
      vertex -12 -23.5 6
    endloop
  endfacet
  facet normal 0 0 -1
    outer loop
      vertex -12 -23.5 3
      vertex -8 -19.5 3
      vertex -8 -23.5 3
    endloop
  endfacet
  facet normal -0 0 -1
    outer loop
      vertex -8 -19.5 3
      vertex -12 -23.5 3
      vertex -12 -19.5 3
    endloop
  endfacet
  facet normal -1 0 0
    outer loop
      vertex -12 -23.5 3
      vertex -12 -19.5 4.1
      vertex -12 -19.5 3
    endloop
  endfacet
  facet normal -1 0 0
    outer loop
      vertex -12 -23.5 6
      vertex -12 -19.5 4.1
      vertex -12 -23.5 3
    endloop
  endfacet
  facet normal -1 0 0
    outer loop
      vertex -12 -19.5 4.1
      vertex -12 -23.5 6
      vertex -12 -19.5 6
    endloop
  endfacet
  facet normal 0 -1 0
    outer loop
      vertex -12 -23.5 3
      vertex -8 -23.5 6
      vertex -12 -23.5 6
    endloop
  endfacet
  facet normal 0 -1 -0
    outer loop
      vertex -8 -23.5 6
      vertex -12 -23.5 3
      vertex -8 -23.5 3
    endloop
  endfacet
  facet normal 1 0 0
    outer loop
      vertex -2 19.5 4.1
      vertex -2 23.5 6
      vertex -2 19.5 6
    endloop
  endfacet
  facet normal 1 0 0
    outer loop
      vertex -2 23.5 6
      vertex -2 19.5 4.1
      vertex -2 23.5 3
    endloop
  endfacet
  facet normal 1 0 0
    outer loop
      vertex -2 23.5 3
      vertex -2 19.5 4.1
      vertex -2 19.5 3
    endloop
  endfacet
  facet normal -0 0 1
    outer loop
      vertex -6 23.5 6
      vertex -2 19.5 6
      vertex -2 23.5 6
    endloop
  endfacet
  facet normal 0 0 1
    outer loop
      vertex -2 19.5 6
      vertex -6 23.5 6
      vertex -6 19.5 6
    endloop
  endfacet
  facet normal 0 0 -1
    outer loop
      vertex -6 19.5 3
      vertex -2 23.5 3
      vertex -2 19.5 3
    endloop
  endfacet
  facet normal -0 0 -1
    outer loop
      vertex -2 23.5 3
      vertex -6 19.5 3
      vertex -6 23.5 3
    endloop
  endfacet
  facet normal -1 0 0
    outer loop
      vertex -6 19.5 4.1
      vertex -6 23.5 3
      vertex -6 19.5 3
    endloop
  endfacet
  facet normal -1 0 0
    outer loop
      vertex -6 23.5 3
      vertex -6 19.5 4.1
      vertex -6 23.5 6
    endloop
  endfacet
  facet normal -1 -0 0
    outer loop
      vertex -6 23.5 6
      vertex -6 19.5 4.1
      vertex -6 19.5 6
    endloop
  endfacet
  facet normal 0 1 -0
    outer loop
      vertex -2 23.5 3
      vertex -6 23.5 6
      vertex -2 23.5 6
    endloop
  endfacet
  facet normal 0 1 0
    outer loop
      vertex -6 23.5 6
      vertex -2 23.5 3
      vertex -6 23.5 3
    endloop
  endfacet
  facet normal 1 -0 0
    outer loop
      vertex -2 -23.5 6
      vertex -2 -19.5 4.1
      vertex -2 -19.5 6
    endloop
  endfacet
  facet normal 1 0 0
    outer loop
      vertex -2 -23.5 3
      vertex -2 -19.5 4.1
      vertex -2 -23.5 6
    endloop
  endfacet
  facet normal 1 0 0
    outer loop
      vertex -2 -19.5 4.1
      vertex -2 -23.5 3
      vertex -2 -19.5 3
    endloop
  endfacet
  facet normal -0 0 1
    outer loop
      vertex -6 -19.5 6
      vertex -2 -23.5 6
      vertex -2 -19.5 6
    endloop
  endfacet
  facet normal 0 0 1
    outer loop
      vertex -2 -23.5 6
      vertex -6 -19.5 6
      vertex -6 -23.5 6
    endloop
  endfacet
  facet normal 0 0 -1
    outer loop
      vertex -6 -23.5 3
      vertex -2 -19.5 3
      vertex -2 -23.5 3
    endloop
  endfacet
  facet normal -0 0 -1
    outer loop
      vertex -2 -19.5 3
      vertex -6 -23.5 3
      vertex -6 -19.5 3
    endloop
  endfacet
  facet normal -1 0 0
    outer loop
      vertex -6 -23.5 3
      vertex -6 -19.5 4.1
      vertex -6 -19.5 3
    endloop
  endfacet
  facet normal -1 0 0
    outer loop
      vertex -6 -23.5 6
      vertex -6 -19.5 4.1
      vertex -6 -23.5 3
    endloop
  endfacet
  facet normal -1 0 0
    outer loop
      vertex -6 -19.5 4.1
      vertex -6 -23.5 6
      vertex -6 -19.5 6
    endloop
  endfacet
  facet normal 0 -1 0
    outer loop
      vertex -6 -23.5 3
      vertex -2 -23.5 6
      vertex -6 -23.5 6
    endloop
  endfacet
  facet normal 0 -1 -0
    outer loop
      vertex -2 -23.5 6
      vertex -6 -23.5 3
      vertex -2 -23.5 3
    endloop
  endfacet
  facet normal 1 0 0
    outer loop
      vertex 4 19.5 4.1
      vertex 4 23.5 6
      vertex 4 19.5 6
    endloop
  endfacet
  facet normal 1 0 0
    outer loop
      vertex 4 23.5 6
      vertex 4 19.5 4.1
      vertex 4 23.5 3
    endloop
  endfacet
  facet normal 1 0 0
    outer loop
      vertex 4 23.5 3
      vertex 4 19.5 4.1
      vertex 4 19.5 3
    endloop
  endfacet
  facet normal -0 0 1
    outer loop
      vertex 0 23.5 6
      vertex 4 19.5 6
      vertex 4 23.5 6
    endloop
  endfacet
  facet normal 0 0 1
    outer loop
      vertex 4 19.5 6
      vertex 0 23.5 6
      vertex 0 19.5 6
    endloop
  endfacet
  facet normal 0 0 -1
    outer loop
      vertex 0 19.5 3
      vertex 4 23.5 3
      vertex 4 19.5 3
    endloop
  endfacet
  facet normal -0 0 -1
    outer loop
      vertex 4 23.5 3
      vertex 0 19.5 3
      vertex 0 23.5 3
    endloop
  endfacet
  facet normal -1 0 0
    outer loop
      vertex 0 19.5 4.1
      vertex 0 23.5 3
      vertex 0 19.5 3
    endloop
  endfacet
  facet normal -1 0 0
    outer loop
      vertex 0 23.5 3
      vertex 0 19.5 4.1
      vertex 0 23.5 6
    endloop
  endfacet
  facet normal -1 -0 0
    outer loop
      vertex 0 23.5 6
      vertex 0 19.5 4.1
      vertex 0 19.5 6
    endloop
  endfacet
  facet normal 0 1 -0
    outer loop
      vertex 4 23.5 3
      vertex 0 23.5 6
      vertex 4 23.5 6
    endloop
  endfacet
  facet normal 0 1 0
    outer loop
      vertex 0 23.5 6
      vertex 4 23.5 3
      vertex 0 23.5 3
    endloop
  endfacet
  facet normal 1 -0 0
    outer loop
      vertex 4 -23.5 6
      vertex 4 -19.5 4.1
      vertex 4 -19.5 6
    endloop
  endfacet
  facet normal 1 0 0
    outer loop
      vertex 4 -23.5 3
      vertex 4 -19.5 4.1
      vertex 4 -23.5 6
    endloop
  endfacet
  facet normal 1 0 0
    outer loop
      vertex 4 -19.5 4.1
      vertex 4 -23.5 3
      vertex 4 -19.5 3
    endloop
  endfacet
  facet normal -0 0 1
    outer loop
      vertex 0 -19.5 6
      vertex 4 -23.5 6
      vertex 4 -19.5 6
    endloop
  endfacet
  facet normal 0 0 1
    outer loop
      vertex 4 -23.5 6
      vertex 0 -19.5 6
      vertex 0 -23.5 6
    endloop
  endfacet
  facet normal 0 0 -1
    outer loop
      vertex 0 -23.5 3
      vertex 4 -19.5 3
      vertex 4 -23.5 3
    endloop
  endfacet
  facet normal -0 0 -1
    outer loop
      vertex 4 -19.5 3
      vertex 0 -23.5 3
      vertex 0 -19.5 3
    endloop
  endfacet
  facet normal -1 0 0
    outer loop
      vertex 0 -23.5 3
      vertex 0 -19.5 4.1
      vertex 0 -19.5 3
    endloop
  endfacet
  facet normal -1 0 0
    outer loop
      vertex 0 -23.5 6
      vertex 0 -19.5 4.1
      vertex 0 -23.5 3
    endloop
  endfacet
  facet normal -1 0 0
    outer loop
      vertex 0 -19.5 4.1
      vertex 0 -23.5 6
      vertex 0 -19.5 6
    endloop
  endfacet
  facet normal 0 -1 0
    outer loop
      vertex 0 -23.5 3
      vertex 4 -23.5 6
      vertex 0 -23.5 6
    endloop
  endfacet
  facet normal 0 -1 -0
    outer loop
      vertex 4 -23.5 6
      vertex 0 -23.5 3
      vertex 4 -23.5 3
    endloop
  endfacet
  facet normal 1 0 0
    outer loop
      vertex 10 19.5 4.1
      vertex 10 23.5 6
      vertex 10 19.5 6
    endloop
  endfacet
  facet normal 1 0 0
    outer loop
      vertex 10 23.5 6
      vertex 10 19.5 4.1
      vertex 10 23.5 3
    endloop
  endfacet
  facet normal 1 0 0
    outer loop
      vertex 10 23.5 3
      vertex 10 19.5 4.1
      vertex 10 19.5 3
    endloop
  endfacet
  facet normal -0 0 1
    outer loop
      vertex 6 23.5 6
      vertex 10 19.5 6
      vertex 10 23.5 6
    endloop
  endfacet
  facet normal 0 0 1
    outer loop
      vertex 10 19.5 6
      vertex 6 23.5 6
      vertex 6 19.5 6
    endloop
  endfacet
  facet normal 0 0 -1
    outer loop
      vertex 6 19.5 3
      vertex 10 23.5 3
      vertex 10 19.5 3
    endloop
  endfacet
  facet normal -0 0 -1
    outer loop
      vertex 10 23.5 3
      vertex 6 19.5 3
      vertex 6 23.5 3
    endloop
  endfacet
  facet normal -1 0 0
    outer loop
      vertex 6 19.5 4.1
      vertex 6 23.5 3
      vertex 6 19.5 3
    endloop
  endfacet
  facet normal -1 0 0
    outer loop
      vertex 6 23.5 3
      vertex 6 19.5 4.1
      vertex 6 23.5 6
    endloop
  endfacet
  facet normal -1 -0 0
    outer loop
      vertex 6 23.5 6
      vertex 6 19.5 4.1
      vertex 6 19.5 6
    endloop
  endfacet
  facet normal 0 1 -0
    outer loop
      vertex 10 23.5 3
      vertex 6 23.5 6
      vertex 10 23.5 6
    endloop
  endfacet
  facet normal 0 1 0
    outer loop
      vertex 6 23.5 6
      vertex 10 23.5 3
      vertex 6 23.5 3
    endloop
  endfacet
  facet normal 1 -0 0
    outer loop
      vertex 10 -23.5 6
      vertex 10 -19.5 4.1
      vertex 10 -19.5 6
    endloop
  endfacet
  facet normal 1 0 0
    outer loop
      vertex 10 -23.5 3
      vertex 10 -19.5 4.1
      vertex 10 -23.5 6
    endloop
  endfacet
  facet normal 1 0 0
    outer loop
      vertex 10 -19.5 4.1
      vertex 10 -23.5 3
      vertex 10 -19.5 3
    endloop
  endfacet
  facet normal -0 0 1
    outer loop
      vertex 6 -19.5 6
      vertex 10 -23.5 6
      vertex 10 -19.5 6
    endloop
  endfacet
  facet normal 0 0 1
    outer loop
      vertex 10 -23.5 6
      vertex 6 -19.5 6
      vertex 6 -23.5 6
    endloop
  endfacet
  facet normal 0 0 -1
    outer loop
      vertex 6 -23.5 3
      vertex 10 -19.5 3
      vertex 10 -23.5 3
    endloop
  endfacet
  facet normal -0 0 -1
    outer loop
      vertex 10 -19.5 3
      vertex 6 -23.5 3
      vertex 6 -19.5 3
    endloop
  endfacet
  facet normal -1 0 0
    outer loop
      vertex 6 -23.5 3
      vertex 6 -19.5 4.1
      vertex 6 -19.5 3
    endloop
  endfacet
  facet normal -1 0 0
    outer loop
      vertex 6 -23.5 6
      vertex 6 -19.5 4.1
      vertex 6 -23.5 3
    endloop
  endfacet
  facet normal -1 0 0
    outer loop
      vertex 6 -19.5 4.1
      vertex 6 -23.5 6
      vertex 6 -19.5 6
    endloop
  endfacet
  facet normal 0 -1 0
    outer loop
      vertex 6 -23.5 3
      vertex 10 -23.5 6
      vertex 6 -23.5 6
    endloop
  endfacet
  facet normal 0 -1 -0
    outer loop
      vertex 10 -23.5 6
      vertex 6 -23.5 3
      vertex 10 -23.5 3
    endloop
  endfacet
  facet normal 1 0 0
    outer loop
      vertex 16 19.5 4.1
      vertex 16 23.5 6
      vertex 16 19.5 6
    endloop
  endfacet
  facet normal 1 0 0
    outer loop
      vertex 16 23.5 6
      vertex 16 19.5 4.1
      vertex 16 23.5 3
    endloop
  endfacet
  facet normal 1 0 0
    outer loop
      vertex 16 23.5 3
      vertex 16 19.5 4.1
      vertex 16 19.5 3
    endloop
  endfacet
  facet normal -0 0 1
    outer loop
      vertex 12 23.5 6
      vertex 16 19.5 6
      vertex 16 23.5 6
    endloop
  endfacet
  facet normal 0 0 1
    outer loop
      vertex 16 19.5 6
      vertex 12 23.5 6
      vertex 12 19.5 6
    endloop
  endfacet
  facet normal 0 0 -1
    outer loop
      vertex 12 19.5 3
      vertex 16 23.5 3
      vertex 16 19.5 3
    endloop
  endfacet
  facet normal -0 0 -1
    outer loop
      vertex 16 23.5 3
      vertex 12 19.5 3
      vertex 12 23.5 3
    endloop
  endfacet
  facet normal -1 0 0
    outer loop
      vertex 12 19.5 4.1
      vertex 12 23.5 3
      vertex 12 19.5 3
    endloop
  endfacet
  facet normal -1 0 0
    outer loop
      vertex 12 23.5 3
      vertex 12 19.5 4.1
      vertex 12 23.5 6
    endloop
  endfacet
  facet normal -1 -0 0
    outer loop
      vertex 12 23.5 6
      vertex 12 19.5 4.1
      vertex 12 19.5 6
    endloop
  endfacet
  facet normal 0 1 -0
    outer loop
      vertex 16 23.5 3
      vertex 12 23.5 6
      vertex 16 23.5 6
    endloop
  endfacet
  facet normal 0 1 0
    outer loop
      vertex 12 23.5 6
      vertex 16 23.5 3
      vertex 12 23.5 3
    endloop
  endfacet
  facet normal 1 -0 0
    outer loop
      vertex 16 -23.5 6
      vertex 16 -19.5 4.1
      vertex 16 -19.5 6
    endloop
  endfacet
  facet normal 1 0 0
    outer loop
      vertex 16 -23.5 3
      vertex 16 -19.5 4.1
      vertex 16 -23.5 6
    endloop
  endfacet
  facet normal 1 0 0
    outer loop
      vertex 16 -19.5 4.1
      vertex 16 -23.5 3
      vertex 16 -19.5 3
    endloop
  endfacet
  facet normal -0 0 1
    outer loop
      vertex 12 -19.5 6
      vertex 16 -23.5 6
      vertex 16 -19.5 6
    endloop
  endfacet
  facet normal 0 0 1
    outer loop
      vertex 16 -23.5 6
      vertex 12 -19.5 6
      vertex 12 -23.5 6
    endloop
  endfacet
  facet normal 0 0 -1
    outer loop
      vertex 12 -23.5 3
      vertex 16 -19.5 3
      vertex 16 -23.5 3
    endloop
  endfacet
  facet normal -0 0 -1
    outer loop
      vertex 16 -19.5 3
      vertex 12 -23.5 3
      vertex 12 -19.5 3
    endloop
  endfacet
  facet normal -1 0 0
    outer loop
      vertex 12 -23.5 3
      vertex 12 -19.5 4.1
      vertex 12 -19.5 3
    endloop
  endfacet
  facet normal -1 0 0
    outer loop
      vertex 12 -23.5 6
      vertex 12 -19.5 4.1
      vertex 12 -23.5 3
    endloop
  endfacet
  facet normal -1 0 0
    outer loop
      vertex 12 -19.5 4.1
      vertex 12 -23.5 6
      vertex 12 -19.5 6
    endloop
  endfacet
  facet normal 0 -1 0
    outer loop
      vertex 12 -23.5 3
      vertex 16 -23.5 6
      vertex 12 -23.5 6
    endloop
  endfacet
  facet normal 0 -1 -0
    outer loop
      vertex 16 -23.5 6
      vertex 12 -23.5 3
      vertex 16 -23.5 3
    endloop
  endfacet
  facet normal 1 0 0
    outer loop
      vertex 27 3 2
      vertex 27 19.5 4.1
      vertex 27 3 4
    endloop
  endfacet
  facet normal 1 0 0
    outer loop
      vertex 27 19.5 4.1
      vertex 27 -3 4
      vertex 27 3 4
    endloop
  endfacet
  facet normal 1 0 0
    outer loop
      vertex 27 -3 4
      vertex 27 -19.5 4.1
      vertex 27 -3 2
    endloop
  endfacet
  facet normal 1 -0 0
    outer loop
      vertex 27 -19.5 4.1
      vertex 27 -3 4
      vertex 27 19.5 4.1
    endloop
  endfacet
  facet normal 1 0 0
    outer loop
      vertex 27 19.5 4.1
      vertex 27 3 2
      vertex 27 19.5 0
    endloop
  endfacet
  facet normal 1 -0 0
    outer loop
      vertex 27 -3 2
      vertex 27 19.5 0
      vertex 27 3 2
    endloop
  endfacet
  facet normal 1 0 0
    outer loop
      vertex 27 -3 2
      vertex 27 -19.5 0
      vertex 27 19.5 0
    endloop
  endfacet
  facet normal 1 0 0
    outer loop
      vertex 27 -19.5 0
      vertex 27 -3 2
      vertex 27 -19.5 4.1
    endloop
  endfacet
  facet normal -1 0 0
    outer loop
      vertex -27 19.5 0
      vertex -27 6 4.1
      vertex -27 19.5 4.1
    endloop
  endfacet
  facet normal -1 0 0
    outer loop
      vertex -27 6 4.1
      vertex -27 -6 4.1
      vertex -27 6 5
    endloop
  endfacet
  facet normal -1 0 0
    outer loop
      vertex -27 19.5 0
      vertex -27 -6 4.1
      vertex -27 6 4.1
    endloop
  endfacet
  facet normal -1 0 0
    outer loop
      vertex -27 -19.5 0
      vertex -27 -6 4.1
      vertex -27 19.5 0
    endloop
  endfacet
  facet normal -1 -0 0
    outer loop
      vertex -27 -6 4.1
      vertex -27 -19.5 0
      vertex -27 -19.5 4.1
    endloop
  endfacet
  facet normal -1 -0 0
    outer loop
      vertex -27 6 5
      vertex -27 -6 4.1
      vertex -27 -6 5
    endloop
  endfacet
  facet normal -0 0 1
    outer loop
      vertex -2 19.5 4.1
      vertex 0 5 4.1
      vertex 0 19.5 4.1
    endloop
  endfacet
  facet normal -0 0 1
    outer loop
      vertex -6 19.5 4.1
      vertex 0 5 4.1
      vertex -2 19.5 4.1
    endloop
  endfacet
  facet normal 0 0 1
    outer loop
      vertex -8 5 4.1
      vertex -6 19.5 4.1
      vertex -8 19.5 4.1
    endloop
  endfacet
  facet normal 0 0 1
    outer loop
      vertex -6 19.5 4.1
      vertex -8 5 4.1
      vertex 0 5 4.1
    endloop
  endfacet
  facet normal -0 0 1
    outer loop
      vertex -12 19.5 4.1
      vertex -8 5 4.1
      vertex -8 19.5 4.1
    endloop
  endfacet
  facet normal 0 0 1
    outer loop
      vertex -8 5 4.1
      vertex -21 6 4.1
      vertex -8 -3 4.1
    endloop
  endfacet
  facet normal -0 0 1
    outer loop
      vertex -14 19.5 4.1
      vertex -8 5 4.1
      vertex -12 19.5 4.1
    endloop
  endfacet
  facet normal 0 0 1
    outer loop
      vertex -21 -6 4.1
      vertex -8 -3 4.1
      vertex -21 6 4.1
    endloop
  endfacet
  facet normal 0 0 1
    outer loop
      vertex -8 5 4.1
      vertex -14 19.5 4.1
      vertex -21 6 4.1
    endloop
  endfacet
  facet normal 0 -0 1
    outer loop
      vertex -14 -19.5 4.1
      vertex -8 -3 4.1
      vertex -21 -6 4.1
    endloop
  endfacet
  facet normal 0 0 1
    outer loop
      vertex -21 6 4.1
      vertex -14 19.5 4.1
      vertex -18 19.5 4.1
    endloop
  endfacet
  facet normal 0 0 1
    outer loop
      vertex -8 -3 4.1
      vertex -12 -19.5 4.1
      vertex -8 -19.5 4.1
    endloop
  endfacet
  facet normal 0 0 1
    outer loop
      vertex -8 -3 4.1
      vertex -14 -19.5 4.1
      vertex -12 -19.5 4.1
    endloop
  endfacet
  facet normal -0 0 1
    outer loop
      vertex -27 19.5 4.1
      vertex -21 6 4.1
      vertex -18 19.5 4.1
    endloop
  endfacet
  facet normal 0 0 1
    outer loop
      vertex -21 6 4.1
      vertex -27 19.5 4.1
      vertex -27 6 4.1
    endloop
  endfacet
  facet normal -0 0 1
    outer loop
      vertex 16 19.5 4.1
      vertex 27 -19.5 4.1
      vertex 27 19.5 4.1
    endloop
  endfacet
  facet normal 0 0 1
    outer loop
      vertex 16 19.5 4.1
      vertex 16 -19.5 4.1
      vertex 27 -19.5 4.1
    endloop
  endfacet
  facet normal 0 0 1
    outer loop
      vertex 0 5 4.1
      vertex 16 19.5 4.1
      vertex 12 19.5 4.1
    endloop
  endfacet
  facet normal 0 0 1
    outer loop
      vertex 16 19.5 4.1
      vertex 0 -3 4.1
      vertex 16 -19.5 4.1
    endloop
  endfacet
  facet normal 0 0 1
    outer loop
      vertex 0 5 4.1
      vertex 12 19.5 4.1
      vertex 10 19.5 4.1
    endloop
  endfacet
  facet normal 0 0 1
    outer loop
      vertex 16 -19.5 4.1
      vertex 0 -3 4.1
      vertex 12 -19.5 4.1
    endloop
  endfacet
  facet normal 0 0 1
    outer loop
      vertex 0 5 4.1
      vertex 10 19.5 4.1
      vertex 6 19.5 4.1
    endloop
  endfacet
  facet normal 0 0 1
    outer loop
      vertex 16 19.5 4.1
      vertex 0 5 4.1
      vertex 0 -3 4.1
    endloop
  endfacet
  facet normal 0 0 1
    outer loop
      vertex 0 5 4.1
      vertex 6 19.5 4.1
      vertex 4 19.5 4.1
    endloop
  endfacet
  facet normal 0 0 1
    outer loop
      vertex 12 -19.5 4.1
      vertex 0 -3 4.1
      vertex 10 -19.5 4.1
    endloop
  endfacet
  facet normal 0 0 1
    outer loop
      vertex 0 5 4.1
      vertex 4 19.5 4.1
      vertex 0 19.5 4.1
    endloop
  endfacet
  facet normal 0 0 1
    outer loop
      vertex 10 -19.5 4.1
      vertex 0 -3 4.1
      vertex 6 -19.5 4.1
    endloop
  endfacet
  facet normal 0 0 1
    outer loop
      vertex 6 -19.5 4.1
      vertex 0 -3 4.1
      vertex 4 -19.5 4.1
    endloop
  endfacet
  facet normal 0 0 1
    outer loop
      vertex 0 -3 4.1
      vertex 0 -19.5 4.1
      vertex 4 -19.5 4.1
    endloop
  endfacet
  facet normal 0 0 1
    outer loop
      vertex 0 -3 4.1
      vertex -2 -19.5 4.1
      vertex 0 -19.5 4.1
    endloop
  endfacet
  facet normal 0 0 1
    outer loop
      vertex 0 -3 4.1
      vertex -6 -19.5 4.1
      vertex -2 -19.5 4.1
    endloop
  endfacet
  facet normal -0 0 1
    outer loop
      vertex -8 -3 4.1
      vertex -6 -19.5 4.1
      vertex 0 -3 4.1
    endloop
  endfacet
  facet normal 0 0 1
    outer loop
      vertex -6 -19.5 4.1
      vertex -8 -3 4.1
      vertex -8 -19.5 4.1
    endloop
  endfacet
  facet normal 0 0 1
    outer loop
      vertex -14 -19.5 4.1
      vertex -21 -6 4.1
      vertex -18 -19.5 4.1
    endloop
  endfacet
  facet normal 0 0 1
    outer loop
      vertex -27 -19.5 4.1
      vertex -21 -6 4.1
      vertex -27 -6 4.1
    endloop
  endfacet
  facet normal 0 0 1
    outer loop
      vertex -21 -6 4.1
      vertex -27 -19.5 4.1
      vertex -18 -19.5 4.1
    endloop
  endfacet
  facet normal 1 -0 0
    outer loop
      vertex 0 -3 5.3
      vertex 0 5 4.1
      vertex 0 5 5.3
    endloop
  endfacet
  facet normal 1 0 0
    outer loop
      vertex 0 5 4.1
      vertex 0 -3 5.3
      vertex 0 -3 4.1
    endloop
  endfacet
  facet normal -0 0 1
    outer loop
      vertex -8 5 5.3
      vertex 0 -3 5.3
      vertex 0 5 5.3
    endloop
  endfacet
  facet normal 0 0 1
    outer loop
      vertex 0 -3 5.3
      vertex -8 5 5.3
      vertex -8 -3 5.3
    endloop
  endfacet
  facet normal -1 0 0
    outer loop
      vertex -8 -3 4.1
      vertex -8 5 5.3
      vertex -8 5 4.1
    endloop
  endfacet
  facet normal -1 -0 0
    outer loop
      vertex -8 5 5.3
      vertex -8 -3 4.1
      vertex -8 -3 5.3
    endloop
  endfacet
  facet normal 0 1 -0
    outer loop
      vertex 0 5 4.1
      vertex -8 5 5.3
      vertex 0 5 5.3
    endloop
  endfacet
  facet normal 0 1 0
    outer loop
      vertex -8 5 5.3
      vertex 0 5 4.1
      vertex -8 5 4.1
    endloop
  endfacet
  facet normal 0 -1 0
    outer loop
      vertex -8 -3 4.1
      vertex 0 -3 5.3
      vertex -8 -3 5.3
    endloop
  endfacet
  facet normal 0 -1 -0
    outer loop
      vertex 0 -3 5.3
      vertex -8 -3 4.1
      vertex 0 -3 4.1
    endloop
  endfacet
  facet normal 1 -0 0
    outer loop
      vertex -21 -6 5
      vertex -21 6 4.1
      vertex -21 6 5
    endloop
  endfacet
  facet normal 1 0 0
    outer loop
      vertex -21 6 4.1
      vertex -21 -6 5
      vertex -21 -6 4.1
    endloop
  endfacet
  facet normal -0 0 1
    outer loop
      vertex -27 6 5
      vertex -21 -6 5
      vertex -21 6 5
    endloop
  endfacet
  facet normal 0 0 1
    outer loop
      vertex -21 -6 5
      vertex -27 6 5
      vertex -27 -6 5
    endloop
  endfacet
  facet normal 0 1 -0
    outer loop
      vertex -21 6 4.1
      vertex -27 6 5
      vertex -21 6 5
    endloop
  endfacet
  facet normal 0 1 0
    outer loop
      vertex -27 6 5
      vertex -21 6 4.1
      vertex -27 6 4.1
    endloop
  endfacet
  facet normal 0 -1 0
    outer loop
      vertex -27 -6 4.1
      vertex -21 -6 5
      vertex -27 -6 5
    endloop
  endfacet
  facet normal 0 -1 -0
    outer loop
      vertex -21 -6 5
      vertex -27 -6 4.1
      vertex -21 -6 4.1
    endloop
  endfacet
  facet normal 1 -0 0
    outer loop
      vertex 31 -3 4
      vertex 31 3 2
      vertex 31 3 4
    endloop
  endfacet
  facet normal 1 0 0
    outer loop
      vertex 31 3 2
      vertex 31 -3 4
      vertex 31 -3 2
    endloop
  endfacet
  facet normal -0 0 1
    outer loop
      vertex 27 3 4
      vertex 31 -3 4
      vertex 31 3 4
    endloop
  endfacet
  facet normal 0 0 1
    outer loop
      vertex 31 -3 4
      vertex 27 3 4
      vertex 27 -3 4
    endloop
  endfacet
  facet normal 0 0 -1
    outer loop
      vertex 27 -3 2
      vertex 31 3 2
      vertex 31 -3 2
    endloop
  endfacet
  facet normal -0 0 -1
    outer loop
      vertex 31 3 2
      vertex 27 -3 2
      vertex 27 3 2
    endloop
  endfacet
  facet normal 0 1 -0
    outer loop
      vertex 31 3 2
      vertex 27 3 4
      vertex 31 3 4
    endloop
  endfacet
  facet normal 0 1 0
    outer loop
      vertex 27 3 4
      vertex 31 3 2
      vertex 27 3 2
    endloop
  endfacet
  facet normal 0 -1 0
    outer loop
      vertex 27 -3 2
      vertex 31 -3 4
      vertex 27 -3 4
    endloop
  endfacet
  facet normal 0 -1 -0
    outer loop
      vertex 31 -3 4
      vertex 27 -3 2
      vertex 31 -3 2
    endloop
  endfacet
endsolid OpenSCAD_Model
