solid OpenSCAD_Model
  facet normal -1 0 0
    outer loop
      vertex 10 -2 4.5
      vertex 10 2 5
      vertex 10 2 4.5
    endloop
  endfacet
  facet normal -1 -0 0
    outer loop
      vertex 10 2 5
      vertex 10 -2 4.5
      vertex 10 -2 5
    endloop
  endfacet
  facet normal 0.0293991 0 -0.999568
    outer loop
      vertex 16 -2 4.5
      vertex 33 -3.375 5
      vertex 33 -5 5
    endloop
  endfacet
  facet normal 0.0293991 0 -0.999568
    outer loop
      vertex 33 -3.375 5
      vertex 16 -2 4.5
      vertex 16 -1.85714 4.5
    endloop
  endfacet
  facet normal 0.0293991 0 -0.999568
    outer loop
      vertex 16 2 4.5
      vertex 33 3.375 5
      vertex 16 1.85714 4.5
    endloop
  endfacet
  facet normal 0.0293991 0 -0.999568
    outer loop
      vertex 33 3.375 5
      vertex 16 2 4.5
      vertex 33 5 5
    endloop
  endfacet
  facet normal -0.196116 0.980581 0
    outer loop
      vertex 25 5 5
      vertex 10 2 5
      vertex 25 5 5.5
    endloop
  endfacet
  facet normal -0.196116 0.980581 0
    outer loop
      vertex 10 2 5
      vertex 25 5 5
      vertex 10 2 4.5
    endloop
  endfacet
  facet normal 0 0 -1
    outer loop
      vertex 16 -2 4.5
      vertex 12 -1.5 4.5
      vertex 16 -1.85714 4.5
    endloop
  endfacet
  facet normal -0 0 -1
    outer loop
      vertex 12 -1.5 4.5
      vertex 10 -2 4.5
      vertex 12 1.5 4.5
    endloop
  endfacet
  facet normal 0 0 -1
    outer loop
      vertex 10 -2 4.5
      vertex 12 -1.5 4.5
      vertex 16 -2 4.5
    endloop
  endfacet
  facet normal 0 0 -1
    outer loop
      vertex 12 1.5 4.5
      vertex 16 2 4.5
      vertex 16 1.85714 4.5
    endloop
  endfacet
  facet normal 0 0 -1
    outer loop
      vertex 12 1.5 4.5
      vertex 10 2 4.5
      vertex 16 2 4.5
    endloop
  endfacet
  facet normal 0 0 -1
    outer loop
      vertex 10 2 4.5
      vertex 12 1.5 4.5
      vertex 10 -2 4.5
    endloop
  endfacet
  facet normal 0 0.164399 -0.986394
    outer loop
      vertex 16 2 4.5
      vertex 25 5 5
      vertex 33 5 5
    endloop
  endfacet
  facet normal 0 0.164399 -0.986394
    outer loop
      vertex 25 5 5
      vertex 16 2 4.5
      vertex 10 2 4.5
    endloop
  endfacet
  facet normal 0 -0.164399 -0.986394
    outer loop
      vertex 25 -5 5
      vertex 16 -2 4.5
      vertex 33 -5 5
    endloop
  endfacet
  facet normal -0 -0.164399 -0.986394
    outer loop
      vertex 16 -2 4.5
      vertex 25 -5 5
      vertex 10 -2 4.5
    endloop
  endfacet
  facet normal -0.0333146 0 0.999445
    outer loop
      vertex 25 5 5.5
      vertex 12 1.5 5.06667
      vertex 25 2.66071 5.5
    endloop
  endfacet
  facet normal -0.0333165 0 0.999445
    outer loop
      vertex 12 1.5 5.06667
      vertex 10 2 5
      vertex 12 -1.5 5.06667
    endloop
  endfacet
  facet normal -0.0333156 3.70165e-06 0.999445
    outer loop
      vertex 10 2 5
      vertex 12 1.5 5.06667
      vertex 25 5 5.5
    endloop
  endfacet
  facet normal -0.0333146 0 0.999445
    outer loop
      vertex 12 -1.5 5.06667
      vertex 25 -5 5.5
      vertex 25 -2.66071 5.5
    endloop
  endfacet
  facet normal -0.0333156 -3.70165e-06 0.999445
    outer loop
      vertex 12 -1.5 5.06667
      vertex 10 -2 5
      vertex 25 -5 5.5
    endloop
  endfacet
  facet normal -0.0333165 0 0.999445
    outer loop
      vertex 10 -2 5
      vertex 12 -1.5 5.06667
      vertex 10 2 5
    endloop
  endfacet
  facet normal -0.196116 -0.980581 0
    outer loop
      vertex 10 -2 5
      vertex 25 -5 5
      vertex 25 -5 5.5
    endloop
  endfacet
  facet normal -0.196116 -0.980581 0
    outer loop
      vertex 25 -5 5
      vertex 10 -2 5
      vertex 10 -2 4.5
    endloop
  endfacet
  facet normal 0 -1 0
    outer loop
      vertex 42 -7 5.5
      vertex 48 -7 6
      vertex 42 -7 6
    endloop
  endfacet
  facet normal 0 -1 -0
    outer loop
      vertex 48 -7 6
      vertex 42 -7 5.5
      vertex 48 -7 5.5
    endloop
  endfacet
  facet normal 0 0.242536 -0.970143
    outer loop
      vertex 33 5 5
      vertex 42 7 5.5
      vertex 48 7 5.5
    endloop
  endfacet
  facet normal 0 0.242536 -0.970143
    outer loop
      vertex 42 7 5.5
      vertex 33 5 5
      vertex 25 5 5
    endloop
  endfacet
  facet normal 0.033314 0 -0.999445
    outer loop
      vertex 48 -7 5.5
      vertex 44 -4 5.36667
      vertex 48 7 5.5
    endloop
  endfacet
  facet normal 0.0333165 3.33148e-06 -0.999445
    outer loop
      vertex 48 -7 5.5
      vertex 40 -4 5.23333
      vertex 44 -4 5.36667
    endloop
  endfacet
  facet normal 0.0333146 -1.72318e-06 -0.999445
    outer loop
      vertex 33 -5 5
      vertex 40 -4 5.23333
      vertex 48 -7 5.5
    endloop
  endfacet
  facet normal 0.0333144 0 -0.999445
    outer loop
      vertex 40 -4 5.23333
      vertex 33 -5 5
      vertex 33 -3.375 5
    endloop
  endfacet
  facet normal 0.033314 0 -0.999445
    outer loop
      vertex 44 4 5.36667
      vertex 48 7 5.5
      vertex 44 -4 5.36667
    endloop
  endfacet
  facet normal 0.0333165 -3.33148e-06 -0.999445
    outer loop
      vertex 40 4 5.23333
      vertex 48 7 5.5
      vertex 44 4 5.36667
    endloop
  endfacet
  facet normal 0.0333144 0 -0.999445
    outer loop
      vertex 33 5 5
      vertex 40 4 5.23333
      vertex 33 3.375 5
    endloop
  endfacet
  facet normal 0.0333146 1.72318e-06 -0.999445
    outer loop
      vertex 40 4 5.23333
      vertex 33 5 5
      vertex 48 7 5.5
    endloop
  endfacet
  facet normal -0.116841 0.993151 0
    outer loop
      vertex 42 7 5.5
      vertex 25 5 5.5
      vertex 42 7 6
    endloop
  endfacet
  facet normal -0.116841 0.993151 0
    outer loop
      vertex 25 5 5.5
      vertex 42 7 5.5
      vertex 25 5 5
    endloop
  endfacet
  facet normal -0.0293973 0 0.999568
    outer loop
      vertex 42 7 6
      vertex 40 4 5.94118
      vertex 42 4 6
    endloop
  endfacet
  facet normal -0.0293992 1.27604e-06 0.999568
    outer loop
      vertex 25 5 5.5
      vertex 40 4 5.94118
      vertex 42 7 6
    endloop
  endfacet
  facet normal -0.0293993 0 0.999568
    outer loop
      vertex 40 4 5.94118
      vertex 25 5 5.5
      vertex 25 2.66071 5.5
    endloop
  endfacet
  facet normal -0.0293973 0 0.999568
    outer loop
      vertex 40 -4 5.94118
      vertex 42 -7 6
      vertex 42 -4 6
    endloop
  endfacet
  facet normal -0.0293993 0 0.999568
    outer loop
      vertex 25 -5 5.5
      vertex 40 -4 5.94118
      vertex 25 -2.66071 5.5
    endloop
  endfacet
  facet normal -0.0293992 -1.27604e-06 0.999568
    outer loop
      vertex 40 -4 5.94118
      vertex 25 -5 5.5
      vertex 42 -7 6
    endloop
  endfacet
  facet normal 0 -0.242536 -0.970143
    outer loop
      vertex 42 -7 5.5
      vertex 33 -5 5
      vertex 48 -7 5.5
    endloop
  endfacet
  facet normal -0 -0.242536 -0.970143
    outer loop
      vertex 33 -5 5
      vertex 42 -7 5.5
      vertex 25 -5 5
    endloop
  endfacet
  facet normal -0.116841 -0.993151 0
    outer loop
      vertex 25 -5 5.5
      vertex 42 -7 5.5
      vertex 42 -7 6
    endloop
  endfacet
  facet normal -0.116841 -0.993151 0
    outer loop
      vertex 42 -7 5.5
      vertex 25 -5 5.5
      vertex 25 -5 5
    endloop
  endfacet
  facet normal 0 1 -0
    outer loop
      vertex 48 7 5.5
      vertex 42 7 6
      vertex 48 7 6
    endloop
  endfacet
  facet normal 0 1 0
    outer loop
      vertex 42 7 6
      vertex 48 7 5.5
      vertex 42 7 5.5
    endloop
  endfacet
  facet normal 0.164399 0 -0.986394
    outer loop
      vertex 48 -7 5.5
      vertex 51 5 6
      vertex 51 -5 6
    endloop
  endfacet
  facet normal 0.164399 0 -0.986394
    outer loop
      vertex 51 5 6
      vertex 48 -7 5.5
      vertex 48 7 5.5
    endloop
  endfacet
  facet normal 0 -0.14834 0.988936
    outer loop
      vertex 49 -5 6.3
      vertex 48 -7 6
      vertex 51 -5 6.3
    endloop
  endfacet
  facet normal 0 -0.14834 0.988936
    outer loop
      vertex 48 -7 6
      vertex 49 -5 6.3
      vertex 42 -7 6
    endloop
  endfacet
  facet normal 1 -0 0
    outer loop
      vertex 51 -5 6.3
      vertex 51 5 6
      vertex 51 5 6.3
    endloop
  endfacet
  facet normal 1 0 0
    outer loop
      vertex 51 5 6
      vertex 51 -5 6.3
      vertex 51 -5 6
    endloop
  endfacet
  facet normal 0.5547 0.83205 -0
    outer loop
      vertex 51 5 6
      vertex 48 7 6
      vertex 51 5 6.3
    endloop
  endfacet
  facet normal 0.5547 0.83205 0
    outer loop
      vertex 48 7 6
      vertex 51 5 6
      vertex 48 7 5.5
    endloop
  endfacet
  facet normal -0.0428187 0 0.999083
    outer loop
      vertex 49 5 6.3
      vertex 44 4 6.08571
      vertex 49 -5 6.3
    endloop
  endfacet
  facet normal -0.0428183 -1.76309e-06 0.999083
    outer loop
      vertex 42 7 6
      vertex 44 4 6.08571
      vertex 49 5 6.3
    endloop
  endfacet
  facet normal -0.0428157 0 0.999083
    outer loop
      vertex 44 4 6.08571
      vertex 42 7 6
      vertex 42 4 6
    endloop
  endfacet
  facet normal -0.0428187 0 0.999083
    outer loop
      vertex 44 -4 6.08571
      vertex 49 -5 6.3
      vertex 44 4 6.08571
    endloop
  endfacet
  facet normal -0.0428157 0 0.999083
    outer loop
      vertex 42 -7 6
      vertex 44 -4 6.08571
      vertex 42 -4 6
    endloop
  endfacet
  facet normal -0.0428183 1.76309e-06 0.999083
    outer loop
      vertex 44 -4 6.08571
      vertex 42 -7 6
      vertex 49 -5 6.3
    endloop
  endfacet
  facet normal -0 0 1
    outer loop
      vertex 49 5 6.3
      vertex 51 -5 6.3
      vertex 51 5 6.3
    endloop
  endfacet
  facet normal 0 0 1
    outer loop
      vertex 51 -5 6.3
      vertex 49 5 6.3
      vertex 49 -5 6.3
    endloop
  endfacet
  facet normal 0.5547 -0.83205 0
    outer loop
      vertex 48 -7 6
      vertex 51 -5 6
      vertex 51 -5 6.3
    endloop
  endfacet
  facet normal 0.5547 -0.83205 0
    outer loop
      vertex 51 -5 6
      vertex 48 -7 6
      vertex 48 -7 5.5
    endloop
  endfacet
  facet normal 0 0.14834 0.988936
    outer loop
      vertex 48 7 6
      vertex 49 5 6.3
      vertex 51 5 6.3
    endloop
  endfacet
  facet normal 0 0.14834 0.988936
    outer loop
      vertex 49 5 6.3
      vertex 48 7 6
      vertex 42 7 6
    endloop
  endfacet
  facet normal 1 -0 0
    outer loop
      vertex 44 -4 5.36667
      vertex 44 4 5
      vertex 44 4 5.36667
    endloop
  endfacet
  facet normal 1 0 0
    outer loop
      vertex 44 4 5
      vertex 44 -4 5.36667
      vertex 44 -4 5
    endloop
  endfacet
  facet normal 1 -0 0
    outer loop
      vertex 44 -4 7
      vertex 44 4 6.08571
      vertex 44 4 7
    endloop
  endfacet
  facet normal 1 0 0
    outer loop
      vertex 44 4 6.08571
      vertex 44 -4 7
      vertex 44 -4 6.08571
    endloop
  endfacet
  facet normal -0.0889319 0.996038 0
    outer loop
      vertex 40 4 5
      vertex 33 3.375 5
      vertex 40 4 5.23333
    endloop
  endfacet
  facet normal -0.0889319 0.996038 0
    outer loop
      vertex 12 1.5 4
      vertex 33 3.375 5
      vertex 40 4 5
    endloop
  endfacet
  facet normal -0.0889312 0.996038 0
    outer loop
      vertex 16 1.85714 4.5
      vertex 12 1.5 4
      vertex 12 1.5 4.5
    endloop
  endfacet
  facet normal -0.0889324 0.996038 9.19419e-06
    outer loop
      vertex 33 3.375 5
      vertex 12 1.5 4
      vertex 16 1.85714 4.5
    endloop
  endfacet
  facet normal -0.0889322 0.996038 0
    outer loop
      vertex 25 2.66071 5.5
      vertex 40 4 7
      vertex 40 4 5.94118
    endloop
  endfacet
  facet normal -0.0889316 0.996038 -6.12946e-06
    outer loop
      vertex 25 2.66071 5.5
      vertex 12 1.5 5.5
      vertex 40 4 7
    endloop
  endfacet
  facet normal -0.0889316 0.996038 0
    outer loop
      vertex 12 1.5 5.5
      vertex 25 2.66071 5.5
      vertex 12 1.5 5.06667
    endloop
  endfacet
  facet normal -1 0 0
    outer loop
      vertex 12 -1.5 4
      vertex 12 1.5 4.5
      vertex 12 1.5 4
    endloop
  endfacet
  facet normal -1 -0 0
    outer loop
      vertex 12 1.5 4.5
      vertex 12 -1.5 4
      vertex 12 -1.5 4.5
    endloop
  endfacet
  facet normal -1 0 0
    outer loop
      vertex 12 -1.5 5.06667
      vertex 12 1.5 5.5
      vertex 12 1.5 5.06667
    endloop
  endfacet
  facet normal -1 -0 0
    outer loop
      vertex 12 1.5 5.5
      vertex 12 -1.5 5.06667
      vertex 12 -1.5 5.5
    endloop
  endfacet
  facet normal -0.0534947 0 0.998568
    outer loop
      vertex 12 1.5 5.5
      vertex 40 -4 7
      vertex 40 4 7
    endloop
  endfacet
  facet normal -0.0534947 0 0.998568
    outer loop
      vertex 40 -4 7
      vertex 12 1.5 5.5
      vertex 12 -1.5 5.5
    endloop
  endfacet
  facet normal 0 -1 0
    outer loop
      vertex 42 -4 6
      vertex 44 -4 7
      vertex 40 -4 7
    endloop
  endfacet
  facet normal 0 -1 -0
    outer loop
      vertex 44 -4 7
      vertex 42 -4 6
      vertex 44 -4 6.08571
    endloop
  endfacet
  facet normal -0 -1 0
    outer loop
      vertex 42 -4 6
      vertex 40 -4 7
      vertex 40 -4 5.94118
    endloop
  endfacet
  facet normal 0 -1 0
    outer loop
      vertex 44 -4 5
      vertex 40 -4 5.23333
      vertex 40 -4 5
    endloop
  endfacet
  facet normal 0 -1 0
    outer loop
      vertex 40 -4 5.23333
      vertex 44 -4 5
      vertex 44 -4 5.36667
    endloop
  endfacet
  facet normal 0 0.371391 -0.928477
    outer loop
      vertex 16 1.5 4
      vertex 40 4 5
      vertex 44 4 5
    endloop
  endfacet
  facet normal 0 0.371391 -0.928477
    outer loop
      vertex 40 4 5
      vertex 16 1.5 4
      vertex 12 1.5 4
    endloop
  endfacet
  facet normal -0.0889312 -0.996038 -0
    outer loop
      vertex 12 -1.5 4.5
      vertex 12 -1.5 4
      vertex 16 -1.85714 4.5
    endloop
  endfacet
  facet normal -0.0889319 -0.996038 0
    outer loop
      vertex 33 -3.375 5
      vertex 40 -4 5
      vertex 40 -4 5.23333
    endloop
  endfacet
  facet normal -0.0889324 -0.996038 9.19419e-06
    outer loop
      vertex 12 -1.5 4
      vertex 33 -3.375 5
      vertex 16 -1.85714 4.5
    endloop
  endfacet
  facet normal -0.0889319 -0.996038 0
    outer loop
      vertex 33 -3.375 5
      vertex 12 -1.5 4
      vertex 40 -4 5
    endloop
  endfacet
  facet normal -0.0889316 -0.996038 -6.12946e-06
    outer loop
      vertex 25 -2.66071 5.5
      vertex 40 -4 7
      vertex 12 -1.5 5.5
    endloop
  endfacet
  facet normal -0.0889322 -0.996038 -0
    outer loop
      vertex 40 -4 7
      vertex 25 -2.66071 5.5
      vertex 40 -4 5.94118
    endloop
  endfacet
  facet normal -0.0889316 -0.996038 0
    outer loop
      vertex 25 -2.66071 5.5
      vertex 12 -1.5 5.5
      vertex 12 -1.5 5.06667
    endloop
  endfacet
  facet normal -0 0 1
    outer loop
      vertex 40 4 7
      vertex 44 -4 7
      vertex 44 4 7
    endloop
  endfacet
  facet normal 0 0 1
    outer loop
      vertex 44 -4 7
      vertex 40 4 7
      vertex 40 -4 7
    endloop
  endfacet
  facet normal 0 1 -0
    outer loop
      vertex 44 4 5
      vertex 40 4 5.23333
      vertex 44 4 5.36667
    endloop
  endfacet
  facet normal 0 1 0
    outer loop
      vertex 40 4 5.23333
      vertex 44 4 5
      vertex 40 4 5
    endloop
  endfacet
  facet normal 0 1 0
    outer loop
      vertex 42 4 6
      vertex 44 4 7
      vertex 44 4 6.08571
    endloop
  endfacet
  facet normal 0 1 0
    outer loop
      vertex 44 4 7
      vertex 42 4 6
      vertex 40 4 7
    endloop
  endfacet
  facet normal 0 1 0
    outer loop
      vertex 40 4 7
      vertex 42 4 6
      vertex 40 4 5.94118
    endloop
  endfacet
  facet normal 0 0 -1
    outer loop
      vertex 12 -1.5 4
      vertex 16 1.5 4
      vertex 16 -1.5 4
    endloop
  endfacet
  facet normal -0 0 -1
    outer loop
      vertex 16 1.5 4
      vertex 12 -1.5 4
      vertex 12 1.5 4
    endloop
  endfacet
  facet normal 0 -0.371391 -0.928477
    outer loop
      vertex 40 -4 5
      vertex 16 -1.5 4
      vertex 44 -4 5
    endloop
  endfacet
  facet normal -0 -0.371391 -0.928477
    outer loop
      vertex 16 -1.5 4
      vertex 40 -4 5
      vertex 12 -1.5 4
    endloop
  endfacet
  facet normal 0.0356915 0 -0.999363
    outer loop
      vertex 16 -1.5 4
      vertex 44 4 5
      vertex 44 -4 5
    endloop
  endfacet
  facet normal 0.0356915 0 -0.999363
    outer loop
      vertex 44 4 5
      vertex 16 -1.5 4
      vertex 16 1.5 4
    endloop
  endfacet
  facet normal 1 -0 0
    outer loop
      vertex -10 -2 5
      vertex -10 2 4.5
      vertex -10 2 5
    endloop
  endfacet
  facet normal 1 0 0
    outer loop
      vertex -10 2 4.5
      vertex -10 -2 5
      vertex -10 -2 4.5
    endloop
  endfacet
  facet normal -0.0293991 0 -0.999568
    outer loop
      vertex -33 3.375 5
      vertex -16 2 4.5
      vertex -16 1.85714 4.5
    endloop
  endfacet
  facet normal -0.0293991 0 -0.999568
    outer loop
      vertex -16 2 4.5
      vertex -33 3.375 5
      vertex -33 5 5
    endloop
  endfacet
  facet normal -0.0293991 -0 -0.999568
    outer loop
      vertex -33 -3.375 5
      vertex -16 -2 4.5
      vertex -33 -5 5
    endloop
  endfacet
  facet normal -0.0293991 0 -0.999568
    outer loop
      vertex -16 -2 4.5
      vertex -33 -3.375 5
      vertex -16 -1.85714 4.5
    endloop
  endfacet
  facet normal 0.196116 -0.980581 0
    outer loop
      vertex -25 -5 5
      vertex -10 -2 5
      vertex -25 -5 5.5
    endloop
  endfacet
  facet normal 0.196116 -0.980581 0
    outer loop
      vertex -10 -2 5
      vertex -25 -5 5
      vertex -10 -2 4.5
    endloop
  endfacet
  facet normal 0 0 -1
    outer loop
      vertex -10 -2 4.5
      vertex -12 -1.5 4.5
      vertex -10 2 4.5
    endloop
  endfacet
  facet normal 0 0 -1
    outer loop
      vertex -16 -2 4.5
      vertex -12 -1.5 4.5
      vertex -10 -2 4.5
    endloop
  endfacet
  facet normal 0 0 -1
    outer loop
      vertex -12 -1.5 4.5
      vertex -16 -2 4.5
      vertex -16 -1.85714 4.5
    endloop
  endfacet
  facet normal 0 0 -1
    outer loop
      vertex -12 1.5 4.5
      vertex -10 2 4.5
      vertex -12 -1.5 4.5
    endloop
  endfacet
  facet normal 0 0 -1
    outer loop
      vertex -16 2 4.5
      vertex -12 1.5 4.5
      vertex -16 1.85714 4.5
    endloop
  endfacet
  facet normal 0 0 -1
    outer loop
      vertex -12 1.5 4.5
      vertex -16 2 4.5
      vertex -10 2 4.5
    endloop
  endfacet
  facet normal 0 -0.164399 -0.986394
    outer loop
      vertex -25 -5 5
      vertex -16 -2 4.5
      vertex -10 -2 4.5
    endloop
  endfacet
  facet normal 0 -0.164399 -0.986394
    outer loop
      vertex -16 -2 4.5
      vertex -25 -5 5
      vertex -33 -5 5
    endloop
  endfacet
  facet normal 0 0.164399 -0.986394
    outer loop
      vertex -16 2 4.5
      vertex -25 5 5
      vertex -10 2 4.5
    endloop
  endfacet
  facet normal 0 0.164399 -0.986394
    outer loop
      vertex -25 5 5
      vertex -16 2 4.5
      vertex -33 5 5
    endloop
  endfacet
  facet normal 0.0333165 0 0.999445
    outer loop
      vertex -10 2 5
      vertex -12 1.5 5.06667
      vertex -10 -2 5
    endloop
  endfacet
  facet normal 0.0333156 3.70165e-06 0.999445
    outer loop
      vertex -25 5 5.5
      vertex -12 1.5 5.06667
      vertex -10 2 5
    endloop
  endfacet
  facet normal 0.0333146 0 0.999445
    outer loop
      vertex -12 1.5 5.06667
      vertex -25 5 5.5
      vertex -25 2.66071 5.5
    endloop
  endfacet
  facet normal 0.0333165 -0 0.999445
    outer loop
      vertex -12 -1.5 5.06667
      vertex -10 -2 5
      vertex -12 1.5 5.06667
    endloop
  endfacet
  facet normal 0.0333146 -0 0.999445
    outer loop
      vertex -25 -5 5.5
      vertex -12 -1.5 5.06667
      vertex -25 -2.66071 5.5
    endloop
  endfacet
  facet normal 0.0333156 -3.70165e-06 0.999445
    outer loop
      vertex -12 -1.5 5.06667
      vertex -25 -5 5.5
      vertex -10 -2 5
    endloop
  endfacet
  facet normal 0.196116 0.980581 0
    outer loop
      vertex -10 2 5
      vertex -25 5 5
      vertex -25 5 5.5
    endloop
  endfacet
  facet normal 0.196116 0.980581 0
    outer loop
      vertex -25 5 5
      vertex -10 2 5
      vertex -10 2 4.5
    endloop
  endfacet
  facet normal 0 1 -0
    outer loop
      vertex -42 7 5.5
      vertex -48 7 6
      vertex -42 7 6
    endloop
  endfacet
  facet normal 0 1 0
    outer loop
      vertex -48 7 6
      vertex -42 7 5.5
      vertex -48 7 5.5
    endloop
  endfacet
  facet normal 0 -0.242536 -0.970143
    outer loop
      vertex -42 -7 5.5
      vertex -33 -5 5
      vertex -25 -5 5
    endloop
  endfacet
  facet normal 0 -0.242536 -0.970143
    outer loop
      vertex -33 -5 5
      vertex -42 -7 5.5
      vertex -48 -7 5.5
    endloop
  endfacet
  facet normal -0.0333144 0 -0.999445
    outer loop
      vertex -33 -5 5
      vertex -40 -4 5.23333
      vertex -33 -3.375 5
    endloop
  endfacet
  facet normal -0.0333146 -1.72318e-06 -0.999445
    outer loop
      vertex -48 -7 5.5
      vertex -40 -4 5.23333
      vertex -33 -5 5
    endloop
  endfacet
  facet normal -0.033314 0 -0.999445
    outer loop
      vertex -44 -4 5.36667
      vertex -48 -7 5.5
      vertex -44 4 5.36667
    endloop
  endfacet
  facet normal -0.0333165 3.33148e-06 -0.999445
    outer loop
      vertex -40 -4 5.23333
      vertex -48 -7 5.5
      vertex -44 -4 5.36667
    endloop
  endfacet
  facet normal -0.0333144 0 -0.999445
    outer loop
      vertex -40 4 5.23333
      vertex -33 5 5
      vertex -33 3.375 5
    endloop
  endfacet
  facet normal -0.0333165 -3.33148e-06 -0.999445
    outer loop
      vertex -48 7 5.5
      vertex -40 4 5.23333
      vertex -44 4 5.36667
    endloop
  endfacet
  facet normal -0.0333146 1.72318e-06 -0.999445
    outer loop
      vertex -40 4 5.23333
      vertex -48 7 5.5
      vertex -33 5 5
    endloop
  endfacet
  facet normal -0.033314 -0 -0.999445
    outer loop
      vertex -48 7 5.5
      vertex -44 4 5.36667
      vertex -48 -7 5.5
    endloop
  endfacet
  facet normal 0.116841 -0.993151 0
    outer loop
      vertex -42 -7 5.5
      vertex -25 -5 5.5
      vertex -42 -7 6
    endloop
  endfacet
  facet normal 0.116841 -0.993151 0
    outer loop
      vertex -25 -5 5.5
      vertex -42 -7 5.5
      vertex -25 -5 5
    endloop
  endfacet
  facet normal 0.0293993 0 0.999568
    outer loop
      vertex -40 -4 5.94118
      vertex -25 -5 5.5
      vertex -25 -2.66071 5.5
    endloop
  endfacet
  facet normal 0.0293973 -0 0.999568
    outer loop
      vertex -42 -7 6
      vertex -40 -4 5.94118
      vertex -42 -4 6
    endloop
  endfacet
  facet normal 0.0293992 -1.27604e-06 0.999568
    outer loop
      vertex -40 -4 5.94118
      vertex -42 -7 6
      vertex -25 -5 5.5
    endloop
  endfacet
  facet normal 0.0293993 0 0.999568
    outer loop
      vertex -25 5 5.5
      vertex -40 4 5.94118
      vertex -25 2.66071 5.5
    endloop
  endfacet
  facet normal 0.0293992 1.27604e-06 0.999568
    outer loop
      vertex -42 7 6
      vertex -40 4 5.94118
      vertex -25 5 5.5
    endloop
  endfacet
  facet normal 0.0293973 0 0.999568
    outer loop
      vertex -40 4 5.94118
      vertex -42 7 6
      vertex -42 4 6
    endloop
  endfacet
  facet normal 0 0.242536 -0.970143
    outer loop
      vertex -33 5 5
      vertex -42 7 5.5
      vertex -25 5 5
    endloop
  endfacet
  facet normal 0 0.242536 -0.970143
    outer loop
      vertex -42 7 5.5
      vertex -33 5 5
      vertex -48 7 5.5
    endloop
  endfacet
  facet normal 0 -1 0
    outer loop
      vertex -48 -7 5.5
      vertex -42 -7 6
      vertex -48 -7 6
    endloop
  endfacet
  facet normal 0 -1 -0
    outer loop
      vertex -42 -7 6
      vertex -48 -7 5.5
      vertex -42 -7 5.5
    endloop
  endfacet
  facet normal 0.116841 0.993151 0
    outer loop
      vertex -25 5 5.5
      vertex -42 7 5.5
      vertex -42 7 6
    endloop
  endfacet
  facet normal 0.116841 0.993151 0
    outer loop
      vertex -42 7 5.5
      vertex -25 5 5.5
      vertex -25 5 5
    endloop
  endfacet
  facet normal -0.164399 0 -0.986394
    outer loop
      vertex -51 -5 6
      vertex -48 7 5.5
      vertex -48 -7 5.5
    endloop
  endfacet
  facet normal -0.164399 0 -0.986394
    outer loop
      vertex -48 7 5.5
      vertex -51 -5 6
      vertex -51 5 6
    endloop
  endfacet
  facet normal -0 0.14834 0.988936
    outer loop
      vertex -48 7 6
      vertex -49 5 6.3
      vertex -42 7 6
    endloop
  endfacet
  facet normal 0 0.14834 0.988936
    outer loop
      vertex -49 5 6.3
      vertex -48 7 6
      vertex -51 5 6.3
    endloop
  endfacet
  facet normal -1 0 0
    outer loop
      vertex -51 -5 6
      vertex -51 5 6.3
      vertex -51 5 6
    endloop
  endfacet
  facet normal -1 -0 0
    outer loop
      vertex -51 5 6.3
      vertex -51 -5 6
      vertex -51 -5 6.3
    endloop
  endfacet
  facet normal -0.5547 -0.83205 0
    outer loop
      vertex -51 -5 6
      vertex -48 -7 6
      vertex -51 -5 6.3
    endloop
  endfacet
  facet normal -0.5547 -0.83205 -0
    outer loop
      vertex -48 -7 6
      vertex -51 -5 6
      vertex -48 -7 5.5
    endloop
  endfacet
  facet normal 0.0428157 0 0.999083
    outer loop
      vertex -42 7 6
      vertex -44 4 6.08571
      vertex -42 4 6
    endloop
  endfacet
  facet normal 0.0428187 0 0.999083
    outer loop
      vertex -44 4 6.08571
      vertex -49 5 6.3
      vertex -44 -4 6.08571
    endloop
  endfacet
  facet normal 0.0428183 -1.76309e-06 0.999083
    outer loop
      vertex -49 5 6.3
      vertex -44 4 6.08571
      vertex -42 7 6
    endloop
  endfacet
  facet normal 0.0428157 0 0.999083
    outer loop
      vertex -44 -4 6.08571
      vertex -42 -7 6
      vertex -42 -4 6
    endloop
  endfacet
  facet normal 0.0428183 1.76309e-06 0.999083
    outer loop
      vertex -44 -4 6.08571
      vertex -49 -5 6.3
      vertex -42 -7 6
    endloop
  endfacet
  facet normal 0.0428187 -0 0.999083
    outer loop
      vertex -49 -5 6.3
      vertex -44 -4 6.08571
      vertex -49 5 6.3
    endloop
  endfacet
  facet normal -0 0 1
    outer loop
      vertex -51 5 6.3
      vertex -49 -5 6.3
      vertex -49 5 6.3
    endloop
  endfacet
  facet normal 0 0 1
    outer loop
      vertex -49 -5 6.3
      vertex -51 5 6.3
      vertex -51 -5 6.3
    endloop
  endfacet
  facet normal -0.5547 0.83205 0
    outer loop
      vertex -48 7 6
      vertex -51 5 6
      vertex -51 5 6.3
    endloop
  endfacet
  facet normal -0.5547 0.83205 0
    outer loop
      vertex -51 5 6
      vertex -48 7 6
      vertex -48 7 5.5
    endloop
  endfacet
  facet normal 0 -0.14834 0.988936
    outer loop
      vertex -49 -5 6.3
      vertex -48 -7 6
      vertex -42 -7 6
    endloop
  endfacet
  facet normal 0 -0.14834 0.988936
    outer loop
      vertex -48 -7 6
      vertex -49 -5 6.3
      vertex -51 -5 6.3
    endloop
  endfacet
  facet normal -1 0 0
    outer loop
      vertex -44 -4 5
      vertex -44 4 5.36667
      vertex -44 4 5
    endloop
  endfacet
  facet normal -1 -0 0
    outer loop
      vertex -44 4 5.36667
      vertex -44 -4 5
      vertex -44 -4 5.36667
    endloop
  endfacet
  facet normal -1 0 0
    outer loop
      vertex -44 -4 6.08571
      vertex -44 4 7
      vertex -44 4 6.08571
    endloop
  endfacet
  facet normal -1 -0 0
    outer loop
      vertex -44 4 7
      vertex -44 -4 6.08571
      vertex -44 -4 7
    endloop
  endfacet
  facet normal 0.0889319 -0.996038 0
    outer loop
      vertex -40 -4 5
      vertex -33 -3.375 5
      vertex -40 -4 5.23333
    endloop
  endfacet
  facet normal 0.0889319 -0.996038 0
    outer loop
      vertex -12 -1.5 4
      vertex -33 -3.375 5
      vertex -40 -4 5
    endloop
  endfacet
  facet normal 0.0889312 -0.996038 0
    outer loop
      vertex -16 -1.85714 4.5
      vertex -12 -1.5 4
      vertex -12 -1.5 4.5
    endloop
  endfacet
  facet normal 0.0889324 -0.996038 9.19419e-06
    outer loop
      vertex -33 -3.375 5
      vertex -12 -1.5 4
      vertex -16 -1.85714 4.5
    endloop
  endfacet
  facet normal 0.0889322 -0.996038 0
    outer loop
      vertex -25 -2.66071 5.5
      vertex -40 -4 7
      vertex -40 -4 5.94118
    endloop
  endfacet
  facet normal 0.0889316 -0.996038 -6.12946e-06
    outer loop
      vertex -25 -2.66071 5.5
      vertex -12 -1.5 5.5
      vertex -40 -4 7
    endloop
  endfacet
  facet normal 0.0889316 -0.996038 0
    outer loop
      vertex -12 -1.5 5.5
      vertex -25 -2.66071 5.5
      vertex -12 -1.5 5.06667
    endloop
  endfacet
  facet normal 1 -0 0
    outer loop
      vertex -12 -1.5 4.5
      vertex -12 1.5 4
      vertex -12 1.5 4.5
    endloop
  endfacet
  facet normal 1 0 0
    outer loop
      vertex -12 1.5 4
      vertex -12 -1.5 4.5
      vertex -12 -1.5 4
    endloop
  endfacet
  facet normal 1 -0 0
    outer loop
      vertex -12 -1.5 5.5
      vertex -12 1.5 5.06667
      vertex -12 1.5 5.5
    endloop
  endfacet
  facet normal 1 0 0
    outer loop
      vertex -12 1.5 5.06667
      vertex -12 -1.5 5.5
      vertex -12 -1.5 5.06667
    endloop
  endfacet
  facet normal 0.0534947 0 0.998568
    outer loop
      vertex -40 4 7
      vertex -12 -1.5 5.5
      vertex -12 1.5 5.5
    endloop
  endfacet
  facet normal 0.0534947 0 0.998568
    outer loop
      vertex -12 -1.5 5.5
      vertex -40 4 7
      vertex -40 -4 7
    endloop
  endfacet
  facet normal 0 1 -0
    outer loop
      vertex -42 4 6
      vertex -44 4 7
      vertex -40 4 7
    endloop
  endfacet
  facet normal 0 1 0
    outer loop
      vertex -44 4 7
      vertex -42 4 6
      vertex -44 4 6.08571
    endloop
  endfacet
  facet normal -0 1 0
    outer loop
      vertex -42 4 6
      vertex -40 4 7
      vertex -40 4 5.94118
    endloop
  endfacet
  facet normal 0 1 0
    outer loop
      vertex -44 4 5
      vertex -40 4 5.23333
      vertex -40 4 5
    endloop
  endfacet
  facet normal 0 1 0
    outer loop
      vertex -40 4 5.23333
      vertex -44 4 5
      vertex -44 4 5.36667
    endloop
  endfacet
  facet normal 0 -0.371391 -0.928477
    outer loop
      vertex -40 -4 5
      vertex -16 -1.5 4
      vertex -12 -1.5 4
    endloop
  endfacet
  facet normal 0 -0.371391 -0.928477
    outer loop
      vertex -16 -1.5 4
      vertex -40 -4 5
      vertex -44 -4 5
    endloop
  endfacet
  facet normal 0.0889312 0.996038 0
    outer loop
      vertex -12 1.5 4.5
      vertex -12 1.5 4
      vertex -16 1.85714 4.5
    endloop
  endfacet
  facet normal 0.0889319 0.996038 0
    outer loop
      vertex -33 3.375 5
      vertex -40 4 5
      vertex -40 4 5.23333
    endloop
  endfacet
  facet normal 0.0889324 0.996038 9.19419e-06
    outer loop
      vertex -12 1.5 4
      vertex -33 3.375 5
      vertex -16 1.85714 4.5
    endloop
  endfacet
  facet normal 0.0889319 0.996038 0
    outer loop
      vertex -33 3.375 5
      vertex -12 1.5 4
      vertex -40 4 5
    endloop
  endfacet
  facet normal 0.0889316 0.996038 -6.12946e-06
    outer loop
      vertex -25 2.66071 5.5
      vertex -40 4 7
      vertex -12 1.5 5.5
    endloop
  endfacet
  facet normal 0.0889322 0.996038 0
    outer loop
      vertex -40 4 7
      vertex -25 2.66071 5.5
      vertex -40 4 5.94118
    endloop
  endfacet
  facet normal 0.0889316 0.996038 0
    outer loop
      vertex -25 2.66071 5.5
      vertex -12 1.5 5.5
      vertex -12 1.5 5.06667
    endloop
  endfacet
  facet normal -0 0 1
    outer loop
      vertex -44 4 7
      vertex -40 -4 7
      vertex -40 4 7
    endloop
  endfacet
  facet normal 0 0 1
    outer loop
      vertex -40 -4 7
      vertex -44 4 7
      vertex -44 -4 7
    endloop
  endfacet
  facet normal 0 -1 0
    outer loop
      vertex -44 -4 5
      vertex -40 -4 5.23333
      vertex -44 -4 5.36667
    endloop
  endfacet
  facet normal 0 -1 -0
    outer loop
      vertex -40 -4 5.23333
      vertex -44 -4 5
      vertex -40 -4 5
    endloop
  endfacet
  facet normal 0 -1 0
    outer loop
      vertex -42 -4 6
      vertex -44 -4 7
      vertex -44 -4 6.08571
    endloop
  endfacet
  facet normal 0 -1 0
    outer loop
      vertex -44 -4 7
      vertex -42 -4 6
      vertex -40 -4 7
    endloop
  endfacet
  facet normal 0 -1 -0
    outer loop
      vertex -40 -4 7
      vertex -42 -4 6
      vertex -40 -4 5.94118
    endloop
  endfacet
  facet normal 0 0 -1
    outer loop
      vertex -16 -1.5 4
      vertex -12 1.5 4
      vertex -12 -1.5 4
    endloop
  endfacet
  facet normal -0 0 -1
    outer loop
      vertex -12 1.5 4
      vertex -16 -1.5 4
      vertex -16 1.5 4
    endloop
  endfacet
  facet normal 0 0.371391 -0.928477
    outer loop
      vertex -16 1.5 4
      vertex -40 4 5
      vertex -12 1.5 4
    endloop
  endfacet
  facet normal 0 0.371391 -0.928477
    outer loop
      vertex -40 4 5
      vertex -16 1.5 4
      vertex -44 4 5
    endloop
  endfacet
  facet normal -0.0356915 0 -0.999363
    outer loop
      vertex -44 -4 5
      vertex -16 1.5 4
      vertex -16 -1.5 4
    endloop
  endfacet
  facet normal -0.0356915 0 -0.999363
    outer loop
      vertex -16 1.5 4
      vertex -44 -4 5
      vertex -44 4 5
    endloop
  endfacet
  facet normal 0.784887 0.193459 0.588665
    outer loop
      vertex 3.54182 1.85889 4
      vertex 2.5 0 6
      vertex 4 0 4
    endloop
  endfacet
  facet normal 0.605079 0.536055 0.588663
    outer loop
      vertex 3.54182 1.85889 4
      vertex 1.42016 2.05746 6
      vertex 2.21364 1.16181 6
    endloop
  endfacet
  facet normal 0.784887 -0.193459 0.588665
    outer loop
      vertex 4 0 4
      vertex 2.5 0 6
      vertex 3.54182 -1.85889 4
    endloop
  endfacet
  facet normal -0.459211 0.665283 0.588663
    outer loop
      vertex -1.41842 3.74006 4
      vertex -2.99404 2.65249 4
      vertex -1.87128 1.65781 6
    endloop
  endfacet
  facet normal -0.0974389 0.802484 0.588664
    outer loop
      vertex 0.482146 3.97083 4
      vertex -1.41842 3.74006 4
      vertex 0.301341 2.48177 6
    endloop
  endfacet
  facet normal -0.0974389 -0.802484 0.588664
    outer loop
      vertex 0.301341 -2.48177 6
      vertex -1.41842 -3.74006 4
      vertex 0.482146 -3.97083 4
    endloop
  endfacet
  facet normal -0.459208 0.665283 0.588665
    outer loop
      vertex -1.41842 3.74006 4
      vertex -1.87128 1.65781 6
      vertex -0.886512 2.33754 6
    endloop
  endfacet
  facet normal 0.784888 -0.193457 0.588664
    outer loop
      vertex 2.5 0 6
      vertex 2.21364 -1.16181 6
      vertex 3.54182 -1.85889 4
    endloop
  endfacet
  facet normal 0.60508 0.536053 0.588665
    outer loop
      vertex 2.27226 3.29193 4
      vertex 1.42016 2.05746 6
      vertex 3.54182 1.85889 4
    endloop
  endfacet
  facet normal 0.286654 -0.755847 0.588664
    outer loop
      vertex 1.42016 -2.05746 6
      vertex 0.301341 -2.48177 6
      vertex 2.27226 -3.29193 4
    endloop
  endfacet
  facet normal -0.715782 -0.375674 0.588664
    outer loop
      vertex -1.87128 -1.65781 6
      vertex -3.88377 -0.957262 4
      vertex -2.99404 -2.65249 4
    endloop
  endfacet
  facet normal 0.60508 -0.536053 0.588665
    outer loop
      vertex 3.54182 -1.85889 4
      vertex 1.42016 -2.05746 6
      vertex 2.27226 -3.29193 4
    endloop
  endfacet
  facet normal 0 0 1
    outer loop
      vertex 4 0 4
      vertex 5 0 4
      vertex 4.6194 1.91342 4
    endloop
  endfacet
  facet normal 0 0 1
    outer loop
      vertex 5 0 4
      vertex 4 0 4
      vertex 4.6194 -1.91342 4
    endloop
  endfacet
  facet normal 0 0 1
    outer loop
      vertex 4.6194 1.91342 4
      vertex 3.54182 1.85889 4
      vertex 4 0 4
    endloop
  endfacet
  facet normal 0 0 1
    outer loop
      vertex 3.53553 3.53553 4
      vertex 3.54182 1.85889 4
      vertex 4.6194 1.91342 4
    endloop
  endfacet
  facet normal 0 0 1
    outer loop
      vertex 3.53553 3.53553 4
      vertex 2.27226 3.29193 4
      vertex 3.54182 1.85889 4
    endloop
  endfacet
  facet normal 0 0 1
    outer loop
      vertex 1.91342 4.6194 4
      vertex 2.27226 3.29193 4
      vertex 3.53553 3.53553 4
    endloop
  endfacet
  facet normal 0 0 1
    outer loop
      vertex 1.91342 4.6194 4
      vertex 0.482146 3.97083 4
      vertex 2.27226 3.29193 4
    endloop
  endfacet
  facet normal 0 0 1
    outer loop
      vertex 0 5 4
      vertex 0.482146 3.97083 4
      vertex 1.91342 4.6194 4
    endloop
  endfacet
  facet normal 0 0 1
    outer loop
      vertex 0 5 4
      vertex -1.41842 3.74006 4
      vertex 0.482146 3.97083 4
    endloop
  endfacet
  facet normal -0 0 1
    outer loop
      vertex -1.91342 4.6194 4
      vertex -1.41842 3.74006 4
      vertex 0 5 4
    endloop
  endfacet
  facet normal 0 0 1
    outer loop
      vertex -3.53553 3.53553 4
      vertex -1.41842 3.74006 4
      vertex -1.91342 4.6194 4
    endloop
  endfacet
  facet normal 0 0 1
    outer loop
      vertex -1.41842 3.74006 4
      vertex -3.53553 3.53553 4
      vertex -2.99404 2.65249 4
    endloop
  endfacet
  facet normal 0 0 1
    outer loop
      vertex -4.6194 1.91342 4
      vertex -2.99404 2.65249 4
      vertex -3.53553 3.53553 4
    endloop
  endfacet
  facet normal 0 0 1
    outer loop
      vertex -5 0 4
      vertex -3.88377 0.957262 4
      vertex -4.6194 1.91342 4
    endloop
  endfacet
  facet normal 0 0 1
    outer loop
      vertex -2.99404 2.65249 4
      vertex -4.6194 1.91342 4
      vertex -3.88377 0.957262 4
    endloop
  endfacet
  facet normal -0 0 1
    outer loop
      vertex 3.54182 -1.85889 4
      vertex 4.6194 -1.91342 4
      vertex 4 0 4
    endloop
  endfacet
  facet normal 0 0 1
    outer loop
      vertex 3.54182 -1.85889 4
      vertex 3.53553 -3.53553 4
      vertex 4.6194 -1.91342 4
    endloop
  endfacet
  facet normal -0 0 1
    outer loop
      vertex 2.27226 -3.29193 4
      vertex 3.53553 -3.53553 4
      vertex 3.54182 -1.85889 4
    endloop
  endfacet
  facet normal 0 0 1
    outer loop
      vertex 2.27226 -3.29193 4
      vertex 1.91342 -4.6194 4
      vertex 3.53553 -3.53553 4
    endloop
  endfacet
  facet normal -0 0 1
    outer loop
      vertex 0.482146 -3.97083 4
      vertex 1.91342 -4.6194 4
      vertex 2.27226 -3.29193 4
    endloop
  endfacet
  facet normal 0 0 1
    outer loop
      vertex 0.482146 -3.97083 4
      vertex 0 -5 4
      vertex 1.91342 -4.6194 4
    endloop
  endfacet
  facet normal 0 0 1
    outer loop
      vertex -1.41842 -3.74006 4
      vertex 0 -5 4
      vertex 0.482146 -3.97083 4
    endloop
  endfacet
  facet normal 0 0 1
    outer loop
      vertex -1.41842 -3.74006 4
      vertex -1.91342 -4.6194 4
      vertex 0 -5 4
    endloop
  endfacet
  facet normal -0 0 1
    outer loop
      vertex -3.53553 -3.53553 4
      vertex -1.41842 -3.74006 4
      vertex -2.99404 -2.65249 4
    endloop
  endfacet
  facet normal 0 0 1
    outer loop
      vertex -1.41842 -3.74006 4
      vertex -3.53553 -3.53553 4
      vertex -1.91342 -4.6194 4
    endloop
  endfacet
  facet normal -0 0 1
    outer loop
      vertex -4.6194 -1.91342 4
      vertex -2.99404 -2.65249 4
      vertex -3.88377 -0.957262 4
    endloop
  endfacet
  facet normal 0 0 1
    outer loop
      vertex -3.88377 0.957262 4
      vertex -5 0 4
      vertex -3.88377 -0.957262 4
    endloop
  endfacet
  facet normal 0 0 1
    outer loop
      vertex -2.99404 -2.65249 4
      vertex -4.6194 -1.91342 4
      vertex -3.53553 -3.53553 4
    endloop
  endfacet
  facet normal 0 0 1
    outer loop
      vertex -3.88377 -0.957262 4
      vertex -5 0 4
      vertex -4.6194 -1.91342 4
    endloop
  endfacet
  facet normal 0.286654 -0.755846 0.588664
    outer loop
      vertex 2.27226 -3.29193 4
      vertex 0.301341 -2.48177 6
      vertex 0.482146 -3.97083 4
    endloop
  endfacet
  facet normal 0.286654 0.755847 0.588664
    outer loop
      vertex 2.27226 3.29193 4
      vertex 0.301341 2.48177 6
      vertex 1.42016 2.05746 6
    endloop
  endfacet
  facet normal 0.605079 -0.536055 0.588663
    outer loop
      vertex 2.21364 -1.16181 6
      vertex 1.42016 -2.05746 6
      vertex 3.54182 -1.85889 4
    endloop
  endfacet
  facet normal -0.715782 0.375674 0.588664
    outer loop
      vertex -2.99404 2.65249 4
      vertex -3.88377 0.957262 4
      vertex -1.87128 1.65781 6
    endloop
  endfacet
  facet normal 0.286654 0.755846 0.588664
    outer loop
      vertex 0.482146 3.97083 4
      vertex 0.301341 2.48177 6
      vertex 2.27226 3.29193 4
    endloop
  endfacet
  facet normal -0.0974382 0.802484 0.588664
    outer loop
      vertex 0.301341 2.48177 6
      vertex -1.41842 3.74006 4
      vertex -0.886512 2.33754 6
    endloop
  endfacet
  facet normal -0.715783 0.375666 0.588668
    outer loop
      vertex -1.87128 1.65781 6
      vertex -3.88377 0.957262 4
      vertex -2.42735 0.598289 6
    endloop
  endfacet
  facet normal -0.808376 0 0.588667
    outer loop
      vertex -3.88377 0.957262 4
      vertex -2.42735 -0.598289 6
      vertex -2.42735 0.598289 6
    endloop
  endfacet
  facet normal -0.808376 0 0.588667
    outer loop
      vertex -2.42735 -0.598289 6
      vertex -3.88377 0.957262 4
      vertex -3.88377 -0.957262 4
    endloop
  endfacet
  facet normal 0.784888 0.193457 0.588664
    outer loop
      vertex 3.54182 1.85889 4
      vertex 2.21364 1.16181 6
      vertex 2.5 0 6
    endloop
  endfacet
  facet normal 0 0 1
    outer loop
      vertex 2.21364 1.16181 6
      vertex 2.21364 -1.16181 6
      vertex 2.5 0 6
    endloop
  endfacet
  facet normal 0 0 1
    outer loop
      vertex 1.42016 2.05746 6
      vertex 2.21364 -1.16181 6
      vertex 2.21364 1.16181 6
    endloop
  endfacet
  facet normal 0 0 1
    outer loop
      vertex 1.42016 2.05746 6
      vertex 1.42016 -2.05746 6
      vertex 2.21364 -1.16181 6
    endloop
  endfacet
  facet normal 0 0 1
    outer loop
      vertex 0.301341 2.48177 6
      vertex 1.42016 -2.05746 6
      vertex 1.42016 2.05746 6
    endloop
  endfacet
  facet normal 0 0 1
    outer loop
      vertex 0.301341 2.48177 6
      vertex 0.301341 -2.48177 6
      vertex 1.42016 -2.05746 6
    endloop
  endfacet
  facet normal -0 0 1
    outer loop
      vertex -0.886512 2.33754 6
      vertex 0.301341 -2.48177 6
      vertex 0.301341 2.48177 6
    endloop
  endfacet
  facet normal 0 0 1
    outer loop
      vertex -0.886512 2.33754 6
      vertex -0.886512 -2.33754 6
      vertex 0.301341 -2.48177 6
    endloop
  endfacet
  facet normal -0 0 1
    outer loop
      vertex -1.87128 1.65781 6
      vertex -0.886512 -2.33754 6
      vertex -0.886512 2.33754 6
    endloop
  endfacet
  facet normal 0 0 1
    outer loop
      vertex -1.87128 1.65781 6
      vertex -1.87128 -1.65781 6
      vertex -0.886512 -2.33754 6
    endloop
  endfacet
  facet normal -0 0 1
    outer loop
      vertex -2.42735 0.598289 6
      vertex -1.87128 -1.65781 6
      vertex -1.87128 1.65781 6
    endloop
  endfacet
  facet normal 0 0 1
    outer loop
      vertex -1.87128 -1.65781 6
      vertex -2.42735 0.598289 6
      vertex -2.42735 -0.598289 6
    endloop
  endfacet
  facet normal -0.459211 -0.665283 0.588663
    outer loop
      vertex -1.87128 -1.65781 6
      vertex -2.99404 -2.65249 4
      vertex -1.41842 -3.74006 4
    endloop
  endfacet
  facet normal -0.715783 -0.375666 0.588668
    outer loop
      vertex -2.42735 -0.598289 6
      vertex -3.88377 -0.957262 4
      vertex -1.87128 -1.65781 6
    endloop
  endfacet
  facet normal -0.459208 -0.665283 0.588665
    outer loop
      vertex -0.886512 -2.33754 6
      vertex -1.87128 -1.65781 6
      vertex -1.41842 -3.74006 4
    endloop
  endfacet
  facet normal -0.0974382 -0.802484 0.588664
    outer loop
      vertex -0.886512 -2.33754 6
      vertex -1.41842 -3.74006 4
      vertex 0.301341 -2.48177 6
    endloop
  endfacet
  facet normal 0.831467 0.555574 0
    outer loop
      vertex 4.6194 1.91342 4
      vertex 3.53553 3.53553 0
      vertex 3.53553 3.53553 4
    endloop
  endfacet
  facet normal 0.831467 0.555574 0
    outer loop
      vertex 3.53553 3.53553 0
      vertex 4.6194 1.91342 4
      vertex 4.6194 1.91342 0
    endloop
  endfacet
  facet normal 0.980786 0.195089 0
    outer loop
      vertex 5 0 4
      vertex 4.6194 1.91342 0
      vertex 4.6194 1.91342 4
    endloop
  endfacet
  facet normal 0.980786 0.195089 0
    outer loop
      vertex 4.6194 1.91342 0
      vertex 5 0 4
      vertex 5 0 0
    endloop
  endfacet
  facet normal -0.980786 0.195089 0
    outer loop
      vertex -5 0 0
      vertex -4.6194 1.91342 4
      vertex -4.6194 1.91342 0
    endloop
  endfacet
  facet normal -0.980786 0.195089 0
    outer loop
      vertex -4.6194 1.91342 4
      vertex -5 0 0
      vertex -5 0 4
    endloop
  endfacet
  facet normal -0.980786 -0.195089 0
    outer loop
      vertex -4.6194 -1.91342 0
      vertex -5 0 4
      vertex -5 0 0
    endloop
  endfacet
  facet normal -0.980786 -0.195089 0
    outer loop
      vertex -5 0 4
      vertex -4.6194 -1.91342 0
      vertex -4.6194 -1.91342 4
    endloop
  endfacet
  facet normal -0.195089 0.980786 0
    outer loop
      vertex 0 5 0
      vertex -1.91342 4.6194 4
      vertex 0 5 4
    endloop
  endfacet
  facet normal -0.195089 0.980786 0
    outer loop
      vertex -1.91342 4.6194 4
      vertex 0 5 0
      vertex -1.91342 4.6194 0
    endloop
  endfacet
  facet normal -0.831467 -0.555574 0
    outer loop
      vertex -3.53553 -3.53553 0
      vertex -4.6194 -1.91342 4
      vertex -4.6194 -1.91342 0
    endloop
  endfacet
  facet normal -0.831467 -0.555574 0
    outer loop
      vertex -4.6194 -1.91342 4
      vertex -3.53553 -3.53553 0
      vertex -3.53553 -3.53553 4
    endloop
  endfacet
  facet normal 0.195089 -0.980786 0
    outer loop
      vertex 0 -5 0
      vertex 1.91342 -4.6194 4
      vertex 0 -5 4
    endloop
  endfacet
  facet normal 0.195089 -0.980786 0
    outer loop
      vertex 1.91342 -4.6194 4
      vertex 0 -5 0
      vertex 1.91342 -4.6194 0
    endloop
  endfacet
  facet normal 0.831467 -0.555574 0
    outer loop
      vertex 3.53553 -3.53553 4
      vertex 4.6194 -1.91342 0
      vertex 4.6194 -1.91342 4
    endloop
  endfacet
  facet normal 0.831467 -0.555574 0
    outer loop
      vertex 4.6194 -1.91342 0
      vertex 3.53553 -3.53553 4
      vertex 3.53553 -3.53553 0
    endloop
  endfacet
  facet normal 0.555574 0.831467 -0
    outer loop
      vertex 3.53553 3.53553 0
      vertex 1.91342 4.6194 4
      vertex 3.53553 3.53553 4
    endloop
  endfacet
  facet normal 0.555574 0.831467 0
    outer loop
      vertex 1.91342 4.6194 4
      vertex 3.53553 3.53553 0
      vertex 1.91342 4.6194 0
    endloop
  endfacet
  facet normal 0.980786 -0.195089 0
    outer loop
      vertex 4.6194 -1.91342 4
      vertex 5 0 0
      vertex 5 0 4
    endloop
  endfacet
  facet normal 0.980786 -0.195089 0
    outer loop
      vertex 5 0 0
      vertex 4.6194 -1.91342 4
      vertex 4.6194 -1.91342 0
    endloop
  endfacet
  facet normal -0.831467 0.555574 0
    outer loop
      vertex -4.6194 1.91342 0
      vertex -3.53553 3.53553 4
      vertex -3.53553 3.53553 0
    endloop
  endfacet
  facet normal -0.831467 0.555574 0
    outer loop
      vertex -3.53553 3.53553 4
      vertex -4.6194 1.91342 0
      vertex -4.6194 1.91342 4
    endloop
  endfacet
  facet normal 0.555574 -0.831467 0
    outer loop
      vertex 1.91342 -4.6194 0
      vertex 3.53553 -3.53553 4
      vertex 1.91342 -4.6194 4
    endloop
  endfacet
  facet normal 0.555574 -0.831467 0
    outer loop
      vertex 3.53553 -3.53553 4
      vertex 1.91342 -4.6194 0
      vertex 3.53553 -3.53553 0
    endloop
  endfacet
  facet normal 0.195089 0.980786 -0
    outer loop
      vertex 1.91342 4.6194 0
      vertex 0 5 4
      vertex 1.91342 4.6194 4
    endloop
  endfacet
  facet normal 0.195089 0.980786 0
    outer loop
      vertex 0 5 4
      vertex 1.91342 4.6194 0
      vertex 0 5 0
    endloop
  endfacet
  facet normal -0.555574 0.831467 0
    outer loop
      vertex -1.91342 4.6194 0
      vertex -3.53553 3.53553 4
      vertex -1.91342 4.6194 4
    endloop
  endfacet
  facet normal -0.555574 0.831467 0
    outer loop
      vertex -3.53553 3.53553 4
      vertex -1.91342 4.6194 0
      vertex -3.53553 3.53553 0
    endloop
  endfacet
  facet normal 0 0 -1
    outer loop
      vertex 4.6194 -1.91342 0
      vertex 4.6194 1.91342 0
      vertex 5 0 0
    endloop
  endfacet
  facet normal 0 0 -1
    outer loop
      vertex 3.53553 -3.53553 0
      vertex 4.6194 1.91342 0
      vertex 4.6194 -1.91342 0
    endloop
  endfacet
  facet normal 0 0 -1
    outer loop
      vertex 3.53553 -3.53553 0
      vertex 3.53553 3.53553 0
      vertex 4.6194 1.91342 0
    endloop
  endfacet
  facet normal 0 0 -1
    outer loop
      vertex 1.91342 -4.6194 0
      vertex 3.53553 3.53553 0
      vertex 3.53553 -3.53553 0
    endloop
  endfacet
  facet normal 0 0 -1
    outer loop
      vertex 1.91342 -4.6194 0
      vertex 1.91342 4.6194 0
      vertex 3.53553 3.53553 0
    endloop
  endfacet
  facet normal 0 0 -1
    outer loop
      vertex 0 -5 0
      vertex 1.91342 4.6194 0
      vertex 1.91342 -4.6194 0
    endloop
  endfacet
  facet normal 0 0 -1
    outer loop
      vertex 0 -5 0
      vertex 0 5 0
      vertex 1.91342 4.6194 0
    endloop
  endfacet
  facet normal 0 0 -1
    outer loop
      vertex -1.91342 -4.6194 0
      vertex 0 5 0
      vertex 0 -5 0
    endloop
  endfacet
  facet normal 0 0 -1
    outer loop
      vertex -1.91342 -4.6194 0
      vertex -1.91342 4.6194 0
      vertex 0 5 0
    endloop
  endfacet
  facet normal 0 0 -1
    outer loop
      vertex -3.53553 -3.53553 0
      vertex -1.91342 4.6194 0
      vertex -1.91342 -4.6194 0
    endloop
  endfacet
  facet normal 0 0 -1
    outer loop
      vertex -3.53553 -3.53553 0
      vertex -3.53553 3.53553 0
      vertex -1.91342 4.6194 0
    endloop
  endfacet
  facet normal 0 0 -1
    outer loop
      vertex -4.6194 -1.91342 0
      vertex -3.53553 3.53553 0
      vertex -3.53553 -3.53553 0
    endloop
  endfacet
  facet normal 0 0 -1
    outer loop
      vertex -4.6194 -1.91342 0
      vertex -4.6194 1.91342 0
      vertex -3.53553 3.53553 0
    endloop
  endfacet
  facet normal 0 -0 -1
    outer loop
      vertex -4.6194 1.91342 0
      vertex -4.6194 -1.91342 0
      vertex -5 0 0
    endloop
  endfacet
  facet normal -0.195089 -0.980786 0
    outer loop
      vertex -1.91342 -4.6194 0
      vertex 0 -5 4
      vertex -1.91342 -4.6194 4
    endloop
  endfacet
  facet normal -0.195089 -0.980786 -0
    outer loop
      vertex 0 -5 4
      vertex -1.91342 -4.6194 0
      vertex 0 -5 0
    endloop
  endfacet
  facet normal -0.555574 -0.831467 0
    outer loop
      vertex -3.53553 -3.53553 0
      vertex -1.91342 -4.6194 4
      vertex -3.53553 -3.53553 4
    endloop
  endfacet
  facet normal -0.555574 -0.831467 -0
    outer loop
      vertex -1.91342 -4.6194 4
      vertex -3.53553 -3.53553 0
      vertex -1.91342 -4.6194 0
    endloop
  endfacet
endsolid OpenSCAD_Model
