solid OpenSCAD_Model
  facet normal 1 -0 0
    outer loop
      vertex 11.5 -6.5 2.9
      vertex 11.5 6.5 0
      vertex 11.5 6.5 2.9
    endloop
  endfacet
  facet normal 1 0 0
    outer loop
      vertex 11.5 6.5 0
      vertex 11.5 -6.5 2.9
      vertex 11.5 -6.5 0
    endloop
  endfacet
  facet normal 0 0 1
    outer loop
      vertex 11.5 6.5 2.9
      vertex 9 5 2.9
      vertex 11.5 -6.5 2.9
    endloop
  endfacet
  facet normal 0 0 1
    outer loop
      vertex 11.5 6.5 2.9
      vertex -9 5 2.9
      vertex 9 5 2.9
    endloop
  endfacet
  facet normal 0 0 1
    outer loop
      vertex -9 5 2.9
      vertex -11.5 6.5 2.9
      vertex -9 -5 2.9
    endloop
  endfacet
  facet normal -0 0 1
    outer loop
      vertex -11.5 6.5 2.9
      vertex -9 5 2.9
      vertex 11.5 6.5 2.9
    endloop
  endfacet
  facet normal -0 0 1
    outer loop
      vertex 9 -5 2.9
      vertex 11.5 -6.5 2.9
      vertex 9 5 2.9
    endloop
  endfacet
  facet normal -0 0 1
    outer loop
      vertex -9 -5 2.9
      vertex 11.5 -6.5 2.9
      vertex 9 -5 2.9
    endloop
  endfacet
  facet normal 0 0 1
    outer loop
      vertex -9 -5 2.9
      vertex -11.5 -6.5 2.9
      vertex 11.5 -6.5 2.9
    endloop
  endfacet
  facet normal 0 0 1
    outer loop
      vertex -11.5 -6.5 2.9
      vertex -9 -5 2.9
      vertex -11.5 6.5 2.9
    endloop
  endfacet
  facet normal 0 0 -1
    outer loop
      vertex -11.5 -6.5 0
      vertex 11.5 6.5 0
      vertex 11.5 -6.5 0
    endloop
  endfacet
  facet normal -0 0 -1
    outer loop
      vertex 11.5 6.5 0
      vertex -11.5 -6.5 0
      vertex -11.5 6.5 0
    endloop
  endfacet
  facet normal -1 0 0
    outer loop
      vertex -11.5 -6.5 0
      vertex -11.5 6.5 2.9
      vertex -11.5 6.5 0
    endloop
  endfacet
  facet normal -1 -0 0
    outer loop
      vertex -11.5 6.5 2.9
      vertex -11.5 -6.5 0
      vertex -11.5 -6.5 2.9
    endloop
  endfacet
  facet normal 0 1 -0
    outer loop
      vertex 11.5 6.5 0
      vertex -11.5 6.5 2.9
      vertex 11.5 6.5 2.9
    endloop
  endfacet
  facet normal 0 1 0
    outer loop
      vertex -11.5 6.5 2.9
      vertex 11.5 6.5 0
      vertex -11.5 6.5 0
    endloop
  endfacet
  facet normal 0 -1 0
    outer loop
      vertex -11.5 -6.5 0
      vertex 11.5 -6.5 2.9
      vertex -11.5 -6.5 2.9
    endloop
  endfacet
  facet normal 0 -1 -0
    outer loop
      vertex 11.5 -6.5 2.9
      vertex -11.5 -6.5 0
      vertex 11.5 -6.5 0
    endloop
  endfacet
  facet normal 1 -0 0
    outer loop
      vertex 9 -5 3.2
      vertex 9 5 2.9
      vertex 9 5 3.2
    endloop
  endfacet
  facet normal 1 0 0
    outer loop
      vertex 9 5 2.9
      vertex 9 -5 3.2
      vertex 9 -5 2.9
    endloop
  endfacet
  facet normal -0 0 1
    outer loop
      vertex 7.5 5 3.2
      vertex 9 -5 3.2
      vertex 9 5 3.2
    endloop
  endfacet
  facet normal 0 0 1
    outer loop
      vertex 9 -5 3.2
      vertex 7.5 5 3.2
      vertex 7.5 -5 3.2
    endloop
  endfacet
  facet normal -0 0 1
    outer loop
      vertex -9 5 3.2
      vertex -7.5 -5 3.2
      vertex -7.5 5 3.2
    endloop
  endfacet
  facet normal 0 0 1
    outer loop
      vertex -7.5 -5 3.2
      vertex -9 5 3.2
      vertex -9 -5 3.2
    endloop
  endfacet
  facet normal -1 0 0
    outer loop
      vertex -9 -5 2.9
      vertex -9 5 3.2
      vertex -9 5 2.9
    endloop
  endfacet
  facet normal -1 -0 0
    outer loop
      vertex -9 5 3.2
      vertex -9 -5 2.9
      vertex -9 -5 3.2
    endloop
  endfacet
  facet normal 0 1 -0
    outer loop
      vertex 9 5 2.9
      vertex 7.5 5 3.2
      vertex 9 5 3.2
    endloop
  endfacet
  facet normal 0 1 0
    outer loop
      vertex 7.5 5 3.2
      vertex 9 5 2.9
      vertex -7.5 5 3.2
    endloop
  endfacet
  facet normal 0 1 0
    outer loop
      vertex -9 5 2.9
      vertex -7.5 5 3.2
      vertex 9 5 2.9
    endloop
  endfacet
  facet normal 0 1 0
    outer loop
      vertex -7.5 5 3.2
      vertex -9 5 2.9
      vertex -9 5 3.2
    endloop
  endfacet
  facet normal 0 1 -0
    outer loop
      vertex 7.5 5 3.2
      vertex -7.5 5 4.4
      vertex 7.5 5 4.4
    endloop
  endfacet
  facet normal 0 1 0
    outer loop
      vertex -7.5 5 4.4
      vertex 7.5 5 3.2
      vertex -7.5 5 3.2
    endloop
  endfacet
  facet normal 0 -1 0
    outer loop
      vertex -9 -5 2.9
      vertex -7.5 -5 3.2
      vertex -9 -5 3.2
    endloop
  endfacet
  facet normal 0 -1 -0
    outer loop
      vertex -7.5 -5 3.2
      vertex -9 -5 2.9
      vertex 7.5 -5 3.2
    endloop
  endfacet
  facet normal 0 -1 0
    outer loop
      vertex 9 -5 2.9
      vertex 7.5 -5 3.2
      vertex -9 -5 2.9
    endloop
  endfacet
  facet normal 0 -1 0
    outer loop
      vertex 7.5 -5 3.2
      vertex 9 -5 2.9
      vertex 9 -5 3.2
    endloop
  endfacet
  facet normal 0 -1 0
    outer loop
      vertex -7.5 -5 3.2
      vertex 7.5 -5 4.4
      vertex -7.5 -5 4.4
    endloop
  endfacet
  facet normal 0 -1 -0
    outer loop
      vertex 7.5 -5 4.4
      vertex -7.5 -5 3.2
      vertex 7.5 -5 3.2
    endloop
  endfacet
  facet normal 1 -0 0
    outer loop
      vertex 7.5 -5 4.4
      vertex 7.5 5 3.2
      vertex 7.5 5 4.4
    endloop
  endfacet
  facet normal 1 0 0
    outer loop
      vertex 7.5 5 3.2
      vertex 7.5 -5 4.4
      vertex 7.5 -5 3.2
    endloop
  endfacet
  facet normal 0 0 1
    outer loop
      vertex 7.5 5 4.4
      vertex 5 3 4.4
      vertex 7.5 -5 4.4
    endloop
  endfacet
  facet normal 0 0 1
    outer loop
      vertex 7.5 5 4.4
      vertex -5 3 4.4
      vertex 5 3 4.4
    endloop
  endfacet
  facet normal 0 0 1
    outer loop
      vertex -5 3 4.4
      vertex -7.5 5 4.4
      vertex -5 -3 4.4
    endloop
  endfacet
  facet normal -0 0 1
    outer loop
      vertex -7.5 5 4.4
      vertex -5 3 4.4
      vertex 7.5 5 4.4
    endloop
  endfacet
  facet normal -0 0 1
    outer loop
      vertex 5 -3 4.4
      vertex 7.5 -5 4.4
      vertex 5 3 4.4
    endloop
  endfacet
  facet normal -0 0 1
    outer loop
      vertex -5 -3 4.4
      vertex 7.5 -5 4.4
      vertex 5 -3 4.4
    endloop
  endfacet
  facet normal 0 0 1
    outer loop
      vertex -5 -3 4.4
      vertex -7.5 -5 4.4
      vertex 7.5 -5 4.4
    endloop
  endfacet
  facet normal 0 0 1
    outer loop
      vertex -7.5 -5 4.4
      vertex -5 -3 4.4
      vertex -7.5 5 4.4
    endloop
  endfacet
  facet normal -1 0 0
    outer loop
      vertex -7.5 -5 3.2
      vertex -7.5 5 4.4
      vertex -7.5 5 3.2
    endloop
  endfacet
  facet normal -1 -0 0
    outer loop
      vertex -7.5 5 4.4
      vertex -7.5 -5 3.2
      vertex -7.5 -5 4.4
    endloop
  endfacet
  facet normal 1 -0 0
    outer loop
      vertex 5 -3 4.6
      vertex 5 3 4.4
      vertex 5 3 4.6
    endloop
  endfacet
  facet normal 1 0 0
    outer loop
      vertex 5 3 4.4
      vertex 5 -3 4.6
      vertex 5 -3 4.4
    endloop
  endfacet
  facet normal -0 0 1
    outer loop
      vertex -5 3 4.6
      vertex 5 -3 4.6
      vertex 5 3 4.6
    endloop
  endfacet
  facet normal 0 0 1
    outer loop
      vertex 5 -3 4.6
      vertex -5 3 4.6
      vertex -5 -3 4.6
    endloop
  endfacet
  facet normal -1 0 0
    outer loop
      vertex -5 -3 4.4
      vertex -5 3 4.6
      vertex -5 3 4.4
    endloop
  endfacet
  facet normal -1 -0 0
    outer loop
      vertex -5 3 4.6
      vertex -5 -3 4.4
      vertex -5 -3 4.6
    endloop
  endfacet
  facet normal 0 1 -0
    outer loop
      vertex 5 3 4.4
      vertex -5 3 4.6
      vertex 5 3 4.6
    endloop
  endfacet
  facet normal 0 1 0
    outer loop
      vertex -5 3 4.6
      vertex 5 3 4.4
      vertex -5 3 4.4
    endloop
  endfacet
  facet normal 0 -1 0
    outer loop
      vertex -5 -3 4.4
      vertex 5 -3 4.6
      vertex -5 -3 4.6
    endloop
  endfacet
  facet normal 0 -1 -0
    outer loop
      vertex 5 -3 4.6
      vertex -5 -3 4.4
      vertex 5 -3 4.4
    endloop
  endfacet
  facet normal 1 -0 0
    outer loop
      vertex 12.5 -6 7.7
      vertex 12.5 6 4.7
      vertex 12.5 6 7.7
    endloop
  endfacet
  facet normal 1 0 0
    outer loop
      vertex 12.5 6 4.7
      vertex 12.5 -6 7.7
      vertex 12.5 -6 4.7
    endloop
  endfacet
  facet normal 0 0 1
    outer loop
      vertex 12.5 6 7.7
      vertex -12.1 0 7.7
      vertex 12.5 -6 7.7
    endloop
  endfacet
  facet normal -0 0 1
    outer loop
      vertex -12.5 6 7.7
      vertex -12.1 0 7.7
      vertex 12.5 6 7.7
    endloop
  endfacet
  facet normal 0 0 1
    outer loop
      vertex -12.1 0 7.7
      vertex -12.5 6 7.7
      vertex -12.3764 0.380423 7.7
    endloop
  endfacet
  facet normal 0 0 1
    outer loop
      vertex -12.3764 0.380423 7.7
      vertex -12.5 6 7.7
      vertex -12.5 0.34026 7.7
    endloop
  endfacet
  facet normal 0 0 1
    outer loop
      vertex -12.5 -6 7.7
      vertex -12.1 0 7.7
      vertex -12.3764 -0.380423 7.7
    endloop
  endfacet
  facet normal 0 0 1
    outer loop
      vertex -12.1 0 7.7
      vertex -12.5 -6 7.7
      vertex 12.5 -6 7.7
    endloop
  endfacet
  facet normal 0 0 1
    outer loop
      vertex -12.5 -6 7.7
      vertex -12.3764 -0.380423 7.7
      vertex -12.5 -0.34026 7.7
    endloop
  endfacet
  facet normal 0 0 -1
    outer loop
      vertex -12.8236 -0.235114 7.7
      vertex -12.5 0.34026 7.7
      vertex -12.5 -0.34026 7.7
    endloop
  endfacet
  facet normal 0 0 -1
    outer loop
      vertex -12.5 0.34026 7.7
      vertex -12.8236 -0.235114 7.7
      vertex -12.8236 0.235114 7.7
    endloop
  endfacet
  facet normal 0 0 -1
    outer loop
      vertex -12.5 -6 4.7
      vertex 12.5 6 4.7
      vertex 12.5 -6 4.7
    endloop
  endfacet
  facet normal -0 0 -1
    outer loop
      vertex 12.5 6 4.7
      vertex -12.5 -6 4.7
      vertex -12.5 6 4.7
    endloop
  endfacet
  facet normal -1 0 0
    outer loop
      vertex -12.5 6 4.7
      vertex -12.5 0.34026 7.7
      vertex -12.5 6 7.7
    endloop
  endfacet
  facet normal -1 0 0
    outer loop
      vertex -12.5 6 4.7
      vertex -12.5 -0.34026 7.7
      vertex -12.5 0.34026 7.7
    endloop
  endfacet
  facet normal -1 0 0
    outer loop
      vertex -12.5 -6 4.7
      vertex -12.5 -0.34026 7.7
      vertex -12.5 6 4.7
    endloop
  endfacet
  facet normal -1 -0 0
    outer loop
      vertex -12.5 -0.34026 7.7
      vertex -12.5 -6 4.7
      vertex -12.5 -6 7.7
    endloop
  endfacet
  facet normal 0 1 -0
    outer loop
      vertex 12.5 6 4.7
      vertex -12.5 6 7.7
      vertex 12.5 6 7.7
    endloop
  endfacet
  facet normal 0 1 0
    outer loop
      vertex -12.5 6 7.7
      vertex 12.5 6 4.7
      vertex -12.5 6 4.7
    endloop
  endfacet
  facet normal 0 -1 0
    outer loop
      vertex -12.5 -6 4.7
      vertex 12.5 -6 7.7
      vertex -12.5 -6 7.7
    endloop
  endfacet
  facet normal 0 -1 -0
    outer loop
      vertex 12.5 -6 7.7
      vertex -12.5 -6 4.7
      vertex 12.5 -6 4.7
    endloop
  endfacet
  facet normal -0.309026 -0.951053 0
    outer loop
      vertex -12.8236 -0.235114 7.7
      vertex -12.3764 -0.380423 27.7
      vertex -12.8236 -0.235114 27.7
    endloop
  endfacet
  facet normal -0.309022 -0.951055 -1.03041e-07
    outer loop
      vertex -12.5 -0.34026 7.7
      vertex -12.3764 -0.380423 27.7
      vertex -12.8236 -0.235114 7.7
    endloop
  endfacet
  facet normal -0.309037 -0.95105 -0
    outer loop
      vertex -12.3764 -0.380423 27.7
      vertex -12.5 -0.34026 7.7
      vertex -12.3764 -0.380423 7.7
    endloop
  endfacet
  facet normal 0 0 1
    outer loop
      vertex -12.3764 0.380423 27.7
      vertex -12.3764 -0.380423 27.7
      vertex -12.1 0 27.7
    endloop
  endfacet
  facet normal -0 0 1
    outer loop
      vertex -12.8236 0.235114 27.7
      vertex -12.3764 -0.380423 27.7
      vertex -12.3764 0.380423 27.7
    endloop
  endfacet
  facet normal 0 0 1
    outer loop
      vertex -12.3764 -0.380423 27.7
      vertex -12.8236 0.235114 27.7
      vertex -12.8236 -0.235114 27.7
    endloop
  endfacet
  facet normal -0.309037 0.95105 0
    outer loop
      vertex -12.5 0.34026 7.7
      vertex -12.3764 0.380423 27.7
      vertex -12.3764 0.380423 7.7
    endloop
  endfacet
  facet normal -0.309026 0.951053 -7.45616e-08
    outer loop
      vertex -12.3764 0.380423 27.7
      vertex -12.5 0.34026 7.7
      vertex -12.8236 0.235114 27.7
    endloop
  endfacet
  facet normal -0.309022 0.951055 0
    outer loop
      vertex -12.8236 0.235114 27.7
      vertex -12.5 0.34026 7.7
      vertex -12.8236 0.235114 7.7
    endloop
  endfacet
  facet normal 0.80901 0.587794 0
    outer loop
      vertex -12.1 0 27.7
      vertex -12.3764 0.380423 7.7
      vertex -12.3764 0.380423 27.7
    endloop
  endfacet
  facet normal 0.80901 0.587794 0
    outer loop
      vertex -12.3764 0.380423 7.7
      vertex -12.1 0 27.7
      vertex -12.1 0 7.7
    endloop
  endfacet
  facet normal -1 0 0
    outer loop
      vertex -12.8236 -0.235114 7.7
      vertex -12.8236 0.235114 27.7
      vertex -12.8236 0.235114 7.7
    endloop
  endfacet
  facet normal -1 -0 0
    outer loop
      vertex -12.8236 0.235114 27.7
      vertex -12.8236 -0.235114 7.7
      vertex -12.8236 -0.235114 27.7
    endloop
  endfacet
  facet normal 0.80901 -0.587794 0
    outer loop
      vertex -12.3764 -0.380423 27.7
      vertex -12.1 0 7.7
      vertex -12.1 0 27.7
    endloop
  endfacet
  facet normal 0.80901 -0.587794 0
    outer loop
      vertex -12.1 0 7.7
      vertex -12.3764 -0.380423 27.7
      vertex -12.3764 -0.380423 7.7
    endloop
  endfacet
endsolid OpenSCAD_Model
