solid OpenSCAD_Model
  facet normal 1 -0 0
    outer loop
      vertex 2.5 -23 5
      vertex 2.5 -13 3.8
      vertex 2.5 -13 5
    endloop
  endfacet
  facet normal 1 0 0
    outer loop
      vertex 2.5 -13 3.8
      vertex 2.5 -23 5
      vertex 2.5 -23 3.8
    endloop
  endfacet
  facet normal 0 0 -1
    outer loop
      vertex 2.5 -23 3.8
      vertex 0 -21 3.8
      vertex 2.5 -13 3.8
    endloop
  endfacet
  facet normal 0 0 -1
    outer loop
      vertex 2.5 -23 3.8
      vertex -10 -21 3.8
      vertex 0 -21 3.8
    endloop
  endfacet
  facet normal -0 0 -1
    outer loop
      vertex -10 -21 3.8
      vertex -12.5 -23 3.8
      vertex -10 -15 3.8
    endloop
  endfacet
  facet normal 0 0 -1
    outer loop
      vertex -12.5 -23 3.8
      vertex -10 -21 3.8
      vertex 2.5 -23 3.8
    endloop
  endfacet
  facet normal 0 0 -1
    outer loop
      vertex 0 -15 3.8
      vertex 2.5 -13 3.8
      vertex 0 -21 3.8
    endloop
  endfacet
  facet normal 0 0 -1
    outer loop
      vertex -10 -15 3.8
      vertex 2.5 -13 3.8
      vertex 0 -15 3.8
    endloop
  endfacet
  facet normal 0 0 -1
    outer loop
      vertex -10 -15 3.8
      vertex -12.5 -13 3.8
      vertex 2.5 -13 3.8
    endloop
  endfacet
  facet normal 0 0 -1
    outer loop
      vertex -12.5 -13 3.8
      vertex -10 -15 3.8
      vertex -12.5 -23 3.8
    endloop
  endfacet
  facet normal -0 0 1
    outer loop
      vertex -12.5 -13 5
      vertex 2.5 -23 5
      vertex 2.5 -13 5
    endloop
  endfacet
  facet normal 0 0 1
    outer loop
      vertex 2.5 -23 5
      vertex -12.5 -13 5
      vertex -12.5 -23 5
    endloop
  endfacet
  facet normal -1 0 0
    outer loop
      vertex -12.5 -23 3.8
      vertex -12.5 -13 5
      vertex -12.5 -13 3.8
    endloop
  endfacet
  facet normal -1 -0 0
    outer loop
      vertex -12.5 -13 5
      vertex -12.5 -23 3.8
      vertex -12.5 -23 5
    endloop
  endfacet
  facet normal 0 -1 0
    outer loop
      vertex -12.5 -23 3.8
      vertex 2.5 -23 5
      vertex -12.5 -23 5
    endloop
  endfacet
  facet normal 0 -1 -0
    outer loop
      vertex 2.5 -23 5
      vertex -12.5 -23 3.8
      vertex 2.5 -23 3.8
    endloop
  endfacet
  facet normal 0 1 -0
    outer loop
      vertex 2.5 -13 3.8
      vertex -12.5 -13 5
      vertex 2.5 -13 5
    endloop
  endfacet
  facet normal 0 1 0
    outer loop
      vertex -12.5 -13 5
      vertex 2.5 -13 3.8
      vertex -12.5 -13 3.8
    endloop
  endfacet
  facet normal 1 -0 0
    outer loop
      vertex 0 -21 3.8
      vertex 0 -15 3.3
      vertex 0 -15 3.8
    endloop
  endfacet
  facet normal 1 0 0
    outer loop
      vertex 0 -15 3.3
      vertex 0 -21 3.8
      vertex 0 -21 3.3
    endloop
  endfacet
  facet normal 0 0 -1
    outer loop
      vertex -6 -18 3.3
      vertex 0 -21 3.3
      vertex -6 -19 3.3
    endloop
  endfacet
  facet normal 0 0 -1
    outer loop
      vertex -10 -21 3.3
      vertex -6 -19 3.3
      vertex 0 -21 3.3
    endloop
  endfacet
  facet normal -0 0 -1
    outer loop
      vertex -6 -19 3.3
      vertex -10 -21 3.3
      vertex -10 -19 3.3
    endloop
  endfacet
  facet normal 0 0 -1
    outer loop
      vertex 0 -21 3.3
      vertex -6 -18 3.3
      vertex 0 -15 3.3
    endloop
  endfacet
  facet normal 0 0 -1
    outer loop
      vertex -10 -15 3.3
      vertex -6 -18 3.3
      vertex -10 -18 3.3
    endloop
  endfacet
  facet normal 0 0 -1
    outer loop
      vertex -6 -18 3.3
      vertex -10 -15 3.3
      vertex 0 -15 3.3
    endloop
  endfacet
  facet normal -1 0 0
    outer loop
      vertex -10 -18 2.3
      vertex -10 -19 2.3
      vertex -10 -18 3.3
    endloop
  endfacet
  facet normal -1 0 0
    outer loop
      vertex -10 -18 3.3
      vertex -10 -15 3.8
      vertex -10 -15 3.3
    endloop
  endfacet
  facet normal -1 0 0
    outer loop
      vertex -10 -19 3.3
      vertex -10 -18 3.3
      vertex -10 -19 2.3
    endloop
  endfacet
  facet normal -1 0 0
    outer loop
      vertex -10 -21 3.8
      vertex -10 -18 3.3
      vertex -10 -19 3.3
    endloop
  endfacet
  facet normal -1 0 0
    outer loop
      vertex -10 -21 3.8
      vertex -10 -19 3.3
      vertex -10 -21 3.3
    endloop
  endfacet
  facet normal -1 0 0
    outer loop
      vertex -10 -18 3.3
      vertex -10 -21 3.8
      vertex -10 -15 3.8
    endloop
  endfacet
  facet normal 0 -1 0
    outer loop
      vertex -10 -21 3.3
      vertex 0 -21 3.8
      vertex -10 -21 3.8
    endloop
  endfacet
  facet normal 0 -1 -0
    outer loop
      vertex 0 -21 3.8
      vertex -10 -21 3.3
      vertex 0 -21 3.3
    endloop
  endfacet
  facet normal 0 1 -0
    outer loop
      vertex 0 -15 3.3
      vertex -10 -15 3.8
      vertex 0 -15 3.8
    endloop
  endfacet
  facet normal 0 1 0
    outer loop
      vertex -10 -15 3.8
      vertex 0 -15 3.3
      vertex -10 -15 3.3
    endloop
  endfacet
  facet normal 1 -0 0
    outer loop
      vertex -6 -19 3.3
      vertex -6 -18 2.3
      vertex -6 -18 3.3
    endloop
  endfacet
  facet normal 1 0 0
    outer loop
      vertex -6 -18 2.3
      vertex -6 -19 3.3
      vertex -6 -19 2.3
    endloop
  endfacet
  facet normal 0 0 -1
    outer loop
      vertex -10 -19 2.3
      vertex -6 -18 2.3
      vertex -6 -19 2.3
    endloop
  endfacet
  facet normal -0 0 -1
    outer loop
      vertex -6 -18 2.3
      vertex -10 -19 2.3
      vertex -10 -18 2.3
    endloop
  endfacet
  facet normal 0 -1 0
    outer loop
      vertex -10 -19 2.3
      vertex -6 -19 3.3
      vertex -10 -19 3.3
    endloop
  endfacet
  facet normal 0 -1 -0
    outer loop
      vertex -6 -19 3.3
      vertex -10 -19 2.3
      vertex -6 -19 2.3
    endloop
  endfacet
  facet normal 0 1 -0
    outer loop
      vertex -6 -18 2.3
      vertex -10 -18 3.3
      vertex -6 -18 3.3
    endloop
  endfacet
  facet normal 0 1 0
    outer loop
      vertex -10 -18 3.3
      vertex -6 -18 2.3
      vertex -10 -18 2.3
    endloop
  endfacet
endsolid OpenSCAD_Model
