solid OpenSCAD_Model
  facet normal 1 0 0
    outer loop
      vertex 27.5 20 6.3
      vertex 27.5 -20 6.3
      vertex 27.5 20 1.6
    endloop
  endfacet
  facet normal 1 -0 0
    outer loop
      vertex 27.5 20 1.6
      vertex 27.5 20.5 0
      vertex 27.5 20.5 1.6
    endloop
  endfacet
  facet normal 1 0 0
    outer loop
      vertex 27.5 -20 1.6
      vertex 27.5 20 1.6
      vertex 27.5 -20 6.3
    endloop
  endfacet
  facet normal 1 0 0
    outer loop
      vertex 27.5 20 1.6
      vertex 27.5 -20 1.6
      vertex 27.5 20.5 0
    endloop
  endfacet
  facet normal 1 0 0
    outer loop
      vertex 27.5 -20.5 0
      vertex 27.5 -20 1.6
      vertex 27.5 -20.5 1.6
    endloop
  endfacet
  facet normal 1 0 0
    outer loop
      vertex 27.5 -20 1.6
      vertex 27.5 -20.5 0
      vertex 27.5 20.5 0
    endloop
  endfacet
  facet normal -0 0 1
    outer loop
      vertex -12.5 20.5 1.6
      vertex 27.5 20 1.6
      vertex 27.5 20.5 1.6
    endloop
  endfacet
  facet normal 0 0 1
    outer loop
      vertex -27.5 20 1.6
      vertex -12.5 20.5 1.6
      vertex -27.5 20.5 1.6
    endloop
  endfacet
  facet normal 0 0 1
    outer loop
      vertex -12.5 20.5 1.6
      vertex -27.5 20 1.6
      vertex 27.5 20 1.6
    endloop
  endfacet
  facet normal -0 0 1
    outer loop
      vertex -27.5 -20 1.6
      vertex 27.5 -20.5 1.6
      vertex 27.5 -20 1.6
    endloop
  endfacet
  facet normal 0 0 1
    outer loop
      vertex 27.5 -20.5 1.6
      vertex -27.5 -20 1.6
      vertex -27.5 -20.5 1.6
    endloop
  endfacet
  facet normal 0 0 -1
    outer loop
      vertex 27.5 -20.5 0
      vertex -12.5 20.5 0
      vertex 27.5 20.5 0
    endloop
  endfacet
  facet normal 0 0 -1
    outer loop
      vertex -27.5 -20.5 0
      vertex -12.5 20.5 0
      vertex 27.5 -20.5 0
    endloop
  endfacet
  facet normal 0 0 -1
    outer loop
      vertex -27.5 32.5 0
      vertex -12.5 20.5 0
      vertex -27.5 -20.5 0
    endloop
  endfacet
  facet normal 0 0 -1
    outer loop
      vertex -12.5 20.5 0
      vertex -27.5 32.5 0
      vertex -12.5 32.5 0
    endloop
  endfacet
  facet normal -1 0 0
    outer loop
      vertex -27.5 32.5 0
      vertex -27.5 20.5 1.6
      vertex -27.5 32.5 8
    endloop
  endfacet
  facet normal -1 0 0
    outer loop
      vertex -27.5 32.5 0
      vertex -27.5 20 1.6
      vertex -27.5 20.5 1.6
    endloop
  endfacet
  facet normal -1 0 0
    outer loop
      vertex -27.5 20 1.6
      vertex -27.5 -20 1.6
      vertex -27.5 20 6.3
    endloop
  endfacet
  facet normal -1 0 0
    outer loop
      vertex -27.5 -20.5 0
      vertex -27.5 20 1.6
      vertex -27.5 32.5 0
    endloop
  endfacet
  facet normal -1 -0 0
    outer loop
      vertex -27.5 20 1.6
      vertex -27.5 -20.5 0
      vertex -27.5 -20 1.6
    endloop
  endfacet
  facet normal -1 -0 0
    outer loop
      vertex -27.5 -20 1.6
      vertex -27.5 -20.5 0
      vertex -27.5 -20.5 1.6
    endloop
  endfacet
  facet normal -1 -0 0
    outer loop
      vertex -27.5 32.5 8
      vertex -27.5 20.5 1.6
      vertex -27.5 20.5 8
    endloop
  endfacet
  facet normal -1 -0 0
    outer loop
      vertex -27.5 20 6.3
      vertex -27.5 -20 1.6
      vertex -27.5 -20 6.3
    endloop
  endfacet
  facet normal 0 -1 0
    outer loop
      vertex -27.5 20.5 1.6
      vertex -12.5 20.5 8
      vertex -27.5 20.5 8
    endloop
  endfacet
  facet normal 0 -1 -0
    outer loop
      vertex -12.5 20.5 8
      vertex -27.5 20.5 1.6
      vertex -12.5 20.5 1.6
    endloop
  endfacet
  facet normal 0 1 -0
    outer loop
      vertex 27.5 20.5 0
      vertex -12.5 20.5 1.6
      vertex 27.5 20.5 1.6
    endloop
  endfacet
  facet normal 0 1 0
    outer loop
      vertex -12.5 20.5 1.6
      vertex 27.5 20.5 0
      vertex -12.5 20.5 0
    endloop
  endfacet
  facet normal 0 -1 0
    outer loop
      vertex -27.5 -20.5 0
      vertex 27.5 -20.5 1.6
      vertex -27.5 -20.5 1.6
    endloop
  endfacet
  facet normal 0 -1 -0
    outer loop
      vertex 27.5 -20.5 1.6
      vertex -27.5 -20.5 0
      vertex 27.5 -20.5 0
    endloop
  endfacet
  facet normal -0 0 1
    outer loop
      vertex -27.5 20 6.3
      vertex 27.5 -20 6.3
      vertex 27.5 20 6.3
    endloop
  endfacet
  facet normal 0 0 1
    outer loop
      vertex 27.5 -20 6.3
      vertex -27.5 20 6.3
      vertex -27.5 -20 6.3
    endloop
  endfacet
  facet normal 0 1 -0
    outer loop
      vertex 27.5 20 1.6
      vertex -27.5 20 6.3
      vertex 27.5 20 6.3
    endloop
  endfacet
  facet normal 0 1 0
    outer loop
      vertex -27.5 20 6.3
      vertex 27.5 20 1.6
      vertex -27.5 20 1.6
    endloop
  endfacet
  facet normal 0 -1 0
    outer loop
      vertex -27.5 -20 1.6
      vertex 27.5 -20 6.3
      vertex -27.5 -20 6.3
    endloop
  endfacet
  facet normal 0 -1 -0
    outer loop
      vertex 27.5 -20 6.3
      vertex -27.5 -20 1.6
      vertex 27.5 -20 1.6
    endloop
  endfacet
  facet normal 1 0 0
    outer loop
      vertex -12.5 20.5 1.6
      vertex -12.5 32.5 8
      vertex -12.5 20.5 8
    endloop
  endfacet
  facet normal 1 0 0
    outer loop
      vertex -12.5 32.5 8
      vertex -12.5 20.5 1.6
      vertex -12.5 32.5 0
    endloop
  endfacet
  facet normal 1 0 0
    outer loop
      vertex -12.5 32.5 0
      vertex -12.5 20.5 1.6
      vertex -12.5 20.5 0
    endloop
  endfacet
  facet normal -0 0 1
    outer loop
      vertex -27.5 32.5 8
      vertex -12.5 20.5 8
      vertex -12.5 32.5 8
    endloop
  endfacet
  facet normal 0 0 1
    outer loop
      vertex -12.5 20.5 8
      vertex -27.5 32.5 8
      vertex -27.5 20.5 8
    endloop
  endfacet
  facet normal 0 1 -0
    outer loop
      vertex -12.5 32.5 0
      vertex -27.5 32.5 8
      vertex -12.5 32.5 8
    endloop
  endfacet
  facet normal 0 1 0
    outer loop
      vertex -27.5 32.5 8
      vertex -12.5 32.5 0
      vertex -27.5 32.5 0
    endloop
  endfacet
endsolid OpenSCAD_Model
