solid OpenSCAD_Model
  facet normal -0.743141 -0.669135 0
    outer loop
      vertex -37.4713 -41.6161 0
      vertex -45.305 -32.916 10
      vertex -45.305 -32.916 0
    endloop
  endfacet
  facet normal -0.743141 -0.669135 0
    outer loop
      vertex -45.305 -32.916 10
      vertex -37.4713 -41.6161 0
      vertex -37.4713 -41.6161 10
    endloop
  endfacet
  facet normal 0.951055 0.309023 0
    outer loop
      vertex 54.7763 11.6431 10
      vertex 51.1585 22.7773 0
      vertex 51.1585 22.7773 10
    endloop
  endfacet
  facet normal 0.951055 0.309023 0
    outer loop
      vertex 51.1585 22.7773 0
      vertex 54.7763 11.6431 10
      vertex 54.7763 11.6431 0
    endloop
  endfacet
  facet normal 0.994522 0.104525 0
    outer loop
      vertex 56 0 10
      vertex 54.7763 11.6431 0
      vertex 54.7763 11.6431 10
    endloop
  endfacet
  facet normal 0.994522 0.104525 0
    outer loop
      vertex 54.7763 11.6431 0
      vertex 56 0 10
      vertex 56 0 0
    endloop
  endfacet
  facet normal 0.866028 0.499995 0
    outer loop
      vertex 51.1585 22.7773 10
      vertex 45.305 32.916 0
      vertex 45.305 32.916 10
    endloop
  endfacet
  facet normal 0.866028 0.499995 0
    outer loop
      vertex 45.305 32.916 0
      vertex 51.1585 22.7773 10
      vertex 51.1585 22.7773 0
    endloop
  endfacet
  facet normal 0.951055 -0.309023 0
    outer loop
      vertex 51.1585 -22.7773 10
      vertex 54.7763 -11.6431 0
      vertex 54.7763 -11.6431 10
    endloop
  endfacet
  facet normal 0.951055 -0.309023 0
    outer loop
      vertex 54.7763 -11.6431 0
      vertex 51.1585 -22.7773 10
      vertex 51.1585 -22.7773 0
    endloop
  endfacet
  facet normal 0.587785 -0.809017 0
    outer loop
      vertex 28 -48.4974 0
      vertex 37.4713 -41.6161 10
      vertex 28 -48.4974 10
    endloop
  endfacet
  facet normal 0.587785 -0.809017 0
    outer loop
      vertex 37.4713 -41.6161 10
      vertex 28 -48.4974 0
      vertex 37.4713 -41.6161 0
    endloop
  endfacet
  facet normal 0.743141 -0.669135 0
    outer loop
      vertex 37.4713 -41.6161 10
      vertex 45.305 -32.916 0
      vertex 45.305 -32.916 10
    endloop
  endfacet
  facet normal 0.743141 -0.669135 0
    outer loop
      vertex 45.305 -32.916 0
      vertex 37.4713 -41.6161 10
      vertex 37.4713 -41.6161 0
    endloop
  endfacet
  facet normal 0.994522 -0.104525 0
    outer loop
      vertex 54.7763 -11.6431 10
      vertex 56 0 0
      vertex 56 0 10
    endloop
  endfacet
  facet normal 0.994522 -0.104525 0
    outer loop
      vertex 56 0 0
      vertex 54.7763 -11.6431 10
      vertex 54.7763 -11.6431 0
    endloop
  endfacet
  facet normal -0.406742 -0.913543 0
    outer loop
      vertex -28 -48.4974 0
      vertex -17.305 -53.2592 10
      vertex -28 -48.4974 10
    endloop
  endfacet
  facet normal -0.406742 -0.913543 -0
    outer loop
      vertex -17.305 -53.2592 10
      vertex -28 -48.4974 0
      vertex -17.305 -53.2592 0
    endloop
  endfacet
  facet normal 0.406742 0.913543 -0
    outer loop
      vertex 28 48.4974 0
      vertex 17.305 53.2592 10
      vertex 28 48.4974 10
    endloop
  endfacet
  facet normal 0.406742 0.913543 0
    outer loop
      vertex 17.305 53.2592 10
      vertex 28 48.4974 0
      vertex 17.305 53.2592 0
    endloop
  endfacet
  facet normal 0.743141 0.669135 0
    outer loop
      vertex 45.305 32.916 10
      vertex 37.4713 41.6161 0
      vertex 37.4713 41.6161 10
    endloop
  endfacet
  facet normal 0.743141 0.669135 0
    outer loop
      vertex 37.4713 41.6161 0
      vertex 45.305 32.916 10
      vertex 45.305 32.916 0
    endloop
  endfacet
  facet normal -0.587785 -0.809017 0
    outer loop
      vertex -37.4713 -41.6161 0
      vertex -28 -48.4974 10
      vertex -37.4713 -41.6161 10
    endloop
  endfacet
  facet normal -0.587785 -0.809017 -0
    outer loop
      vertex -28 -48.4974 10
      vertex -37.4713 -41.6161 0
      vertex -28 -48.4974 0
    endloop
  endfacet
  facet normal -0.743141 0.669135 0
    outer loop
      vertex -45.305 32.916 0
      vertex -37.4713 41.6161 10
      vertex -37.4713 41.6161 0
    endloop
  endfacet
  facet normal -0.743141 0.669135 0
    outer loop
      vertex -37.4713 41.6161 10
      vertex -45.305 32.916 0
      vertex -45.305 32.916 10
    endloop
  endfacet
  facet normal 0 1 -0
    outer loop
      vertex 5.85359 55.6932 0
      vertex -5.85359 55.6932 10
      vertex 5.85359 55.6932 10
    endloop
  endfacet
  facet normal 0 1 0
    outer loop
      vertex -5.85359 55.6932 10
      vertex 5.85359 55.6932 0
      vertex -5.85359 55.6932 0
    endloop
  endfacet
  facet normal 0.406742 -0.913543 0
    outer loop
      vertex 17.305 -53.2592 0
      vertex 28 -48.4974 10
      vertex 17.305 -53.2592 10
    endloop
  endfacet
  facet normal 0.406742 -0.913543 0
    outer loop
      vertex 28 -48.4974 10
      vertex 17.305 -53.2592 0
      vertex 28 -48.4974 0
    endloop
  endfacet
  facet normal 0.207906 -0.978149 0
    outer loop
      vertex 5.85359 -55.6932 0
      vertex 17.305 -53.2592 10
      vertex 5.85359 -55.6932 10
    endloop
  endfacet
  facet normal 0.207906 -0.978149 0
    outer loop
      vertex 17.305 -53.2592 10
      vertex 5.85359 -55.6932 0
      vertex 17.305 -53.2592 0
    endloop
  endfacet
  facet normal -0.951055 0.309023 0
    outer loop
      vertex -54.7763 11.6431 0
      vertex -51.1585 22.7773 10
      vertex -51.1585 22.7773 0
    endloop
  endfacet
  facet normal -0.951055 0.309023 0
    outer loop
      vertex -51.1585 22.7773 10
      vertex -54.7763 11.6431 0
      vertex -54.7763 11.6431 10
    endloop
  endfacet
  facet normal 0 0 -1
    outer loop
      vertex 51 0 0
      vertex 56 0 0
      vertex 54.7763 -11.6431 0
    endloop
  endfacet
  facet normal 0 0 -1
    outer loop
      vertex 49.8855 -10.6035 0
      vertex 54.7763 -11.6431 0
      vertex 51.1585 -22.7773 0
    endloop
  endfacet
  facet normal 0 0 -1
    outer loop
      vertex 56 0 0
      vertex 51 0 0
      vertex 54.7763 11.6431 0
    endloop
  endfacet
  facet normal 0 0 -1
    outer loop
      vertex 49.8855 10.6035 0
      vertex 54.7763 11.6431 0
      vertex 51 0 0
    endloop
  endfacet
  facet normal 0 0 -1
    outer loop
      vertex 54.7763 -11.6431 0
      vertex 49.8855 -10.6035 0
      vertex 51 0 0
    endloop
  endfacet
  facet normal 0 0 -1
    outer loop
      vertex 51.1585 -22.7773 0
      vertex 46.5908 -20.7436 0
      vertex 49.8855 -10.6035 0
    endloop
  endfacet
  facet normal 0 0 -1
    outer loop
      vertex 45.305 -32.916 0
      vertex 46.5908 -20.7436 0
      vertex 51.1585 -22.7773 0
    endloop
  endfacet
  facet normal 0 0 -1
    outer loop
      vertex 45.305 -32.916 0
      vertex 41.2599 -29.977 0
      vertex 46.5908 -20.7436 0
    endloop
  endfacet
  facet normal 0 0 -1
    outer loop
      vertex 37.4713 -41.6161 0
      vertex 41.2599 -29.977 0
      vertex 45.305 -32.916 0
    endloop
  endfacet
  facet normal 0 0 -1
    outer loop
      vertex 37.4713 -41.6161 0
      vertex 34.1257 -37.9004 0
      vertex 41.2599 -29.977 0
    endloop
  endfacet
  facet normal 0 0 -1
    outer loop
      vertex 28 -48.4974 0
      vertex 34.1257 -37.9004 0
      vertex 37.4713 -41.6161 0
    endloop
  endfacet
  facet normal 0 0 -1
    outer loop
      vertex 28 -48.4974 0
      vertex 25.5 -44.1673 0
      vertex 34.1257 -37.9004 0
    endloop
  endfacet
  facet normal 0 0 -1
    outer loop
      vertex 17.305 -53.2592 0
      vertex 25.5 -44.1673 0
      vertex 28 -48.4974 0
    endloop
  endfacet
  facet normal 0 0 -1
    outer loop
      vertex 17.305 -53.2592 0
      vertex 15.7599 -48.5039 0
      vertex 25.5 -44.1673 0
    endloop
  endfacet
  facet normal 0 0 -1
    outer loop
      vertex 5.85359 -55.6932 0
      vertex 15.7599 -48.5039 0
      vertex 17.305 -53.2592 0
    endloop
  endfacet
  facet normal 0 0 -1
    outer loop
      vertex 5.85359 -55.6932 0
      vertex 5.33095 -50.7206 0
      vertex 15.7599 -48.5039 0
    endloop
  endfacet
  facet normal 0 0 -1
    outer loop
      vertex 5.85359 -55.6932 0
      vertex -5.33095 -50.7206 0
      vertex 5.33095 -50.7206 0
    endloop
  endfacet
  facet normal 0 0 -1
    outer loop
      vertex -5.85359 -55.6932 0
      vertex -5.33095 -50.7206 0
      vertex 5.85359 -55.6932 0
    endloop
  endfacet
  facet normal 0 0 -1
    outer loop
      vertex -5.85359 -55.6932 0
      vertex -15.7599 -48.5039 0
      vertex -5.33095 -50.7206 0
    endloop
  endfacet
  facet normal 0 0 -1
    outer loop
      vertex -17.305 -53.2592 0
      vertex -15.7599 -48.5039 0
      vertex -5.85359 -55.6932 0
    endloop
  endfacet
  facet normal 0 0 -1
    outer loop
      vertex -17.305 -53.2592 0
      vertex -25.5 -44.1673 0
      vertex -15.7599 -48.5039 0
    endloop
  endfacet
  facet normal 0 0 -1
    outer loop
      vertex -28 -48.4974 0
      vertex -25.5 -44.1673 0
      vertex -17.305 -53.2592 0
    endloop
  endfacet
  facet normal 0 0 -1
    outer loop
      vertex -28 -48.4974 0
      vertex -34.1257 -37.9004 0
      vertex -25.5 -44.1673 0
    endloop
  endfacet
  facet normal 0 0 -1
    outer loop
      vertex -37.4713 -41.6161 0
      vertex -34.1257 -37.9004 0
      vertex -28 -48.4974 0
    endloop
  endfacet
  facet normal 0 0 -1
    outer loop
      vertex -37.4713 -41.6161 0
      vertex -41.2599 -29.977 0
      vertex -34.1257 -37.9004 0
    endloop
  endfacet
  facet normal 0 0 -1
    outer loop
      vertex -45.305 -32.916 0
      vertex -41.2599 -29.977 0
      vertex -37.4713 -41.6161 0
    endloop
  endfacet
  facet normal 0 0 -1
    outer loop
      vertex -45.305 -32.916 0
      vertex -46.5908 -20.7436 0
      vertex -41.2599 -29.977 0
    endloop
  endfacet
  facet normal 0 0 -1
    outer loop
      vertex -51.1585 -22.7773 0
      vertex -46.5908 -20.7436 0
      vertex -45.305 -32.916 0
    endloop
  endfacet
  facet normal 0 0 -1
    outer loop
      vertex -54.7763 -11.6431 0
      vertex -49.8855 -10.6035 0
      vertex -51.1585 -22.7773 0
    endloop
  endfacet
  facet normal -0 0 -1
    outer loop
      vertex -46.5908 -20.7436 0
      vertex -51.1585 -22.7773 0
      vertex -49.8855 -10.6035 0
    endloop
  endfacet
  facet normal -0 0 -1
    outer loop
      vertex 54.7763 11.6431 0
      vertex 49.8855 10.6035 0
      vertex 51.1585 22.7773 0
    endloop
  endfacet
  facet normal 0 0 -1
    outer loop
      vertex 46.5908 20.7436 0
      vertex 51.1585 22.7773 0
      vertex 49.8855 10.6035 0
    endloop
  endfacet
  facet normal 0 0 -1
    outer loop
      vertex 46.5908 20.7436 0
      vertex 45.305 32.916 0
      vertex 51.1585 22.7773 0
    endloop
  endfacet
  facet normal 0 0 -1
    outer loop
      vertex 41.2599 29.977 0
      vertex 45.305 32.916 0
      vertex 46.5908 20.7436 0
    endloop
  endfacet
  facet normal 0 0 -1
    outer loop
      vertex 41.2599 29.977 0
      vertex 37.4713 41.6161 0
      vertex 45.305 32.916 0
    endloop
  endfacet
  facet normal 0 0 -1
    outer loop
      vertex 34.1257 37.9004 0
      vertex 37.4713 41.6161 0
      vertex 41.2599 29.977 0
    endloop
  endfacet
  facet normal 0 0 -1
    outer loop
      vertex 34.1257 37.9004 0
      vertex 28 48.4974 0
      vertex 37.4713 41.6161 0
    endloop
  endfacet
  facet normal 0 0 -1
    outer loop
      vertex 25.5 44.1673 0
      vertex 28 48.4974 0
      vertex 34.1257 37.9004 0
    endloop
  endfacet
  facet normal 0 0 -1
    outer loop
      vertex 25.5 44.1673 0
      vertex 17.305 53.2592 0
      vertex 28 48.4974 0
    endloop
  endfacet
  facet normal 0 0 -1
    outer loop
      vertex 15.7599 48.5039 0
      vertex 17.305 53.2592 0
      vertex 25.5 44.1673 0
    endloop
  endfacet
  facet normal 0 0 -1
    outer loop
      vertex 15.7599 48.5039 0
      vertex 5.85359 55.6932 0
      vertex 17.305 53.2592 0
    endloop
  endfacet
  facet normal 0 0 -1
    outer loop
      vertex 5.33095 50.7206 0
      vertex 5.85359 55.6932 0
      vertex 15.7599 48.5039 0
    endloop
  endfacet
  facet normal 0 0 -1
    outer loop
      vertex -5.33095 50.7206 0
      vertex 5.85359 55.6932 0
      vertex 5.33095 50.7206 0
    endloop
  endfacet
  facet normal 0 0 -1
    outer loop
      vertex -5.33095 50.7206 0
      vertex -5.85359 55.6932 0
      vertex 5.85359 55.6932 0
    endloop
  endfacet
  facet normal 0 0 -1
    outer loop
      vertex -15.7599 48.5039 0
      vertex -5.85359 55.6932 0
      vertex -5.33095 50.7206 0
    endloop
  endfacet
  facet normal 0 0 -1
    outer loop
      vertex -15.7599 48.5039 0
      vertex -17.305 53.2592 0
      vertex -5.85359 55.6932 0
    endloop
  endfacet
  facet normal 0 0 -1
    outer loop
      vertex -25.5 44.1673 0
      vertex -17.305 53.2592 0
      vertex -15.7599 48.5039 0
    endloop
  endfacet
  facet normal 0 0 -1
    outer loop
      vertex -25.5 44.1673 0
      vertex -28 48.4974 0
      vertex -17.305 53.2592 0
    endloop
  endfacet
  facet normal 0 0 -1
    outer loop
      vertex -34.1257 37.9004 0
      vertex -28 48.4974 0
      vertex -25.5 44.1673 0
    endloop
  endfacet
  facet normal 0 0 -1
    outer loop
      vertex -34.1257 37.9004 0
      vertex -37.4713 41.6161 0
      vertex -28 48.4974 0
    endloop
  endfacet
  facet normal 0 0 -1
    outer loop
      vertex -41.2599 29.977 0
      vertex -37.4713 41.6161 0
      vertex -34.1257 37.9004 0
    endloop
  endfacet
  facet normal 0 0 -1
    outer loop
      vertex -41.2599 29.977 0
      vertex -45.305 32.916 0
      vertex -37.4713 41.6161 0
    endloop
  endfacet
  facet normal 0 0 -1
    outer loop
      vertex -46.5908 20.7436 0
      vertex -45.305 32.916 0
      vertex -41.2599 29.977 0
    endloop
  endfacet
  facet normal 0 0 -1
    outer loop
      vertex -51.1585 22.7773 0
      vertex -46.5908 20.7436 0
      vertex -49.8855 10.6035 0
    endloop
  endfacet
  facet normal 0 0 -1
    outer loop
      vertex -46.5908 20.7436 0
      vertex -51.1585 22.7773 0
      vertex -45.305 32.916 0
    endloop
  endfacet
  facet normal 0 0 -1
    outer loop
      vertex -54.7763 11.6431 0
      vertex -49.8855 10.6035 0
      vertex -51 0 0
    endloop
  endfacet
  facet normal -0 0 -1
    outer loop
      vertex -49.8855 -10.6035 0
      vertex -54.7763 -11.6431 0
      vertex -51 0 0
    endloop
  endfacet
  facet normal 0 0 -1
    outer loop
      vertex -56 0 0
      vertex -51 0 0
      vertex -54.7763 -11.6431 0
    endloop
  endfacet
  facet normal 0 0 -1
    outer loop
      vertex -49.8855 10.6035 0
      vertex -54.7763 11.6431 0
      vertex -51.1585 22.7773 0
    endloop
  endfacet
  facet normal 0 0 -1
    outer loop
      vertex -51 0 0
      vertex -56 0 0
      vertex -54.7763 11.6431 0
    endloop
  endfacet
  facet normal -0.951055 -0.309023 0
    outer loop
      vertex -51.1585 -22.7773 0
      vertex -54.7763 -11.6431 10
      vertex -54.7763 -11.6431 0
    endloop
  endfacet
  facet normal -0.951055 -0.309023 0
    outer loop
      vertex -54.7763 -11.6431 10
      vertex -51.1585 -22.7773 0
      vertex -51.1585 -22.7773 10
    endloop
  endfacet
  facet normal -0.406742 0.913543 0
    outer loop
      vertex -17.305 53.2592 0
      vertex -28 48.4974 10
      vertex -17.305 53.2592 10
    endloop
  endfacet
  facet normal -0.406742 0.913543 0
    outer loop
      vertex -28 48.4974 10
      vertex -17.305 53.2592 0
      vertex -28 48.4974 0
    endloop
  endfacet
  facet normal 0 0 1
    outer loop
      vertex 51 0 10
      vertex 56 0 10
      vertex 54.7763 11.6431 10
    endloop
  endfacet
  facet normal 0 0 1
    outer loop
      vertex 49.8855 10.6035 10
      vertex 54.7763 11.6431 10
      vertex 51.1585 22.7773 10
    endloop
  endfacet
  facet normal 0 0 1
    outer loop
      vertex 56 0 10
      vertex 51 0 10
      vertex 54.7763 -11.6431 10
    endloop
  endfacet
  facet normal -0 0 1
    outer loop
      vertex 49.8855 -10.6035 10
      vertex 54.7763 -11.6431 10
      vertex 51 0 10
    endloop
  endfacet
  facet normal 0 0 1
    outer loop
      vertex 54.7763 11.6431 10
      vertex 49.8855 10.6035 10
      vertex 51 0 10
    endloop
  endfacet
  facet normal 0 0 1
    outer loop
      vertex 51.1585 22.7773 10
      vertex 46.5908 20.7436 10
      vertex 49.8855 10.6035 10
    endloop
  endfacet
  facet normal 0 0 1
    outer loop
      vertex 45.305 32.916 10
      vertex 46.5908 20.7436 10
      vertex 51.1585 22.7773 10
    endloop
  endfacet
  facet normal 0 0 1
    outer loop
      vertex 45.305 32.916 10
      vertex 41.2599 29.977 10
      vertex 46.5908 20.7436 10
    endloop
  endfacet
  facet normal 0 0 1
    outer loop
      vertex 37.4713 41.6161 10
      vertex 41.2599 29.977 10
      vertex 45.305 32.916 10
    endloop
  endfacet
  facet normal 0 0 1
    outer loop
      vertex 37.4713 41.6161 10
      vertex 34.1257 37.9004 10
      vertex 41.2599 29.977 10
    endloop
  endfacet
  facet normal 0 0 1
    outer loop
      vertex 28 48.4974 10
      vertex 34.1257 37.9004 10
      vertex 37.4713 41.6161 10
    endloop
  endfacet
  facet normal 0 0 1
    outer loop
      vertex 28 48.4974 10
      vertex 25.5 44.1673 10
      vertex 34.1257 37.9004 10
    endloop
  endfacet
  facet normal 0 0 1
    outer loop
      vertex 17.305 53.2592 10
      vertex 25.5 44.1673 10
      vertex 28 48.4974 10
    endloop
  endfacet
  facet normal 0 0 1
    outer loop
      vertex 17.305 53.2592 10
      vertex 15.7599 48.5039 10
      vertex 25.5 44.1673 10
    endloop
  endfacet
  facet normal 0 0 1
    outer loop
      vertex 5.85359 55.6932 10
      vertex 15.7599 48.5039 10
      vertex 17.305 53.2592 10
    endloop
  endfacet
  facet normal 0 0 1
    outer loop
      vertex 5.85359 55.6932 10
      vertex 5.33095 50.7206 10
      vertex 15.7599 48.5039 10
    endloop
  endfacet
  facet normal 0 0 1
    outer loop
      vertex 5.85359 55.6932 10
      vertex -5.33095 50.7206 10
      vertex 5.33095 50.7206 10
    endloop
  endfacet
  facet normal -0 0 1
    outer loop
      vertex -5.85359 55.6932 10
      vertex -5.33095 50.7206 10
      vertex 5.85359 55.6932 10
    endloop
  endfacet
  facet normal 0 0 1
    outer loop
      vertex -5.85359 55.6932 10
      vertex -15.7599 48.5039 10
      vertex -5.33095 50.7206 10
    endloop
  endfacet
  facet normal -0 0 1
    outer loop
      vertex -17.305 53.2592 10
      vertex -15.7599 48.5039 10
      vertex -5.85359 55.6932 10
    endloop
  endfacet
  facet normal 0 0 1
    outer loop
      vertex -17.305 53.2592 10
      vertex -25.5 44.1673 10
      vertex -15.7599 48.5039 10
    endloop
  endfacet
  facet normal -0 0 1
    outer loop
      vertex -28 48.4974 10
      vertex -25.5 44.1673 10
      vertex -17.305 53.2592 10
    endloop
  endfacet
  facet normal 0 0 1
    outer loop
      vertex -28 48.4974 10
      vertex -34.1257 37.9004 10
      vertex -25.5 44.1673 10
    endloop
  endfacet
  facet normal -0 0 1
    outer loop
      vertex -37.4713 41.6161 10
      vertex -34.1257 37.9004 10
      vertex -28 48.4974 10
    endloop
  endfacet
  facet normal 0 0 1
    outer loop
      vertex -37.4713 41.6161 10
      vertex -41.2599 29.977 10
      vertex -34.1257 37.9004 10
    endloop
  endfacet
  facet normal -0 0 1
    outer loop
      vertex -45.305 32.916 10
      vertex -41.2599 29.977 10
      vertex -37.4713 41.6161 10
    endloop
  endfacet
  facet normal 0 0 1
    outer loop
      vertex -45.305 32.916 10
      vertex -46.5908 20.7436 10
      vertex -41.2599 29.977 10
    endloop
  endfacet
  facet normal -0 0 1
    outer loop
      vertex -51.1585 22.7773 10
      vertex -46.5908 20.7436 10
      vertex -45.305 32.916 10
    endloop
  endfacet
  facet normal -0 0 1
    outer loop
      vertex -54.7763 11.6431 10
      vertex -49.8855 10.6035 10
      vertex -51.1585 22.7773 10
    endloop
  endfacet
  facet normal 0 0 1
    outer loop
      vertex -46.5908 20.7436 10
      vertex -51.1585 22.7773 10
      vertex -49.8855 10.6035 10
    endloop
  endfacet
  facet normal 0 0 1
    outer loop
      vertex 54.7763 -11.6431 10
      vertex 49.8855 -10.6035 10
      vertex 51.1585 -22.7773 10
    endloop
  endfacet
  facet normal -0 0 1
    outer loop
      vertex 46.5908 -20.7436 10
      vertex 51.1585 -22.7773 10
      vertex 49.8855 -10.6035 10
    endloop
  endfacet
  facet normal 0 0 1
    outer loop
      vertex 46.5908 -20.7436 10
      vertex 45.305 -32.916 10
      vertex 51.1585 -22.7773 10
    endloop
  endfacet
  facet normal -0 0 1
    outer loop
      vertex 41.2599 -29.977 10
      vertex 45.305 -32.916 10
      vertex 46.5908 -20.7436 10
    endloop
  endfacet
  facet normal 0 0 1
    outer loop
      vertex 41.2599 -29.977 10
      vertex 37.4713 -41.6161 10
      vertex 45.305 -32.916 10
    endloop
  endfacet
  facet normal -0 0 1
    outer loop
      vertex 34.1257 -37.9004 10
      vertex 37.4713 -41.6161 10
      vertex 41.2599 -29.977 10
    endloop
  endfacet
  facet normal 0 0 1
    outer loop
      vertex 34.1257 -37.9004 10
      vertex 28 -48.4974 10
      vertex 37.4713 -41.6161 10
    endloop
  endfacet
  facet normal -0 0 1
    outer loop
      vertex 25.5 -44.1673 10
      vertex 28 -48.4974 10
      vertex 34.1257 -37.9004 10
    endloop
  endfacet
  facet normal 0 0 1
    outer loop
      vertex 25.5 -44.1673 10
      vertex 17.305 -53.2592 10
      vertex 28 -48.4974 10
    endloop
  endfacet
  facet normal -0 0 1
    outer loop
      vertex 15.7599 -48.5039 10
      vertex 17.305 -53.2592 10
      vertex 25.5 -44.1673 10
    endloop
  endfacet
  facet normal 0 0 1
    outer loop
      vertex 15.7599 -48.5039 10
      vertex 5.85359 -55.6932 10
      vertex 17.305 -53.2592 10
    endloop
  endfacet
  facet normal -0 0 1
    outer loop
      vertex 5.33095 -50.7206 10
      vertex 5.85359 -55.6932 10
      vertex 15.7599 -48.5039 10
    endloop
  endfacet
  facet normal -0 0 1
    outer loop
      vertex -5.33095 -50.7206 10
      vertex 5.85359 -55.6932 10
      vertex 5.33095 -50.7206 10
    endloop
  endfacet
  facet normal 0 0 1
    outer loop
      vertex -5.33095 -50.7206 10
      vertex -5.85359 -55.6932 10
      vertex 5.85359 -55.6932 10
    endloop
  endfacet
  facet normal 0 0 1
    outer loop
      vertex -15.7599 -48.5039 10
      vertex -5.85359 -55.6932 10
      vertex -5.33095 -50.7206 10
    endloop
  endfacet
  facet normal 0 0 1
    outer loop
      vertex -15.7599 -48.5039 10
      vertex -17.305 -53.2592 10
      vertex -5.85359 -55.6932 10
    endloop
  endfacet
  facet normal 0 0 1
    outer loop
      vertex -25.5 -44.1673 10
      vertex -17.305 -53.2592 10
      vertex -15.7599 -48.5039 10
    endloop
  endfacet
  facet normal 0 0 1
    outer loop
      vertex -25.5 -44.1673 10
      vertex -28 -48.4974 10
      vertex -17.305 -53.2592 10
    endloop
  endfacet
  facet normal 0 0 1
    outer loop
      vertex -34.1257 -37.9004 10
      vertex -28 -48.4974 10
      vertex -25.5 -44.1673 10
    endloop
  endfacet
  facet normal 0 0 1
    outer loop
      vertex -34.1257 -37.9004 10
      vertex -37.4713 -41.6161 10
      vertex -28 -48.4974 10
    endloop
  endfacet
  facet normal 0 0 1
    outer loop
      vertex -41.2599 -29.977 10
      vertex -37.4713 -41.6161 10
      vertex -34.1257 -37.9004 10
    endloop
  endfacet
  facet normal 0 0 1
    outer loop
      vertex -41.2599 -29.977 10
      vertex -45.305 -32.916 10
      vertex -37.4713 -41.6161 10
    endloop
  endfacet
  facet normal 0 0 1
    outer loop
      vertex -46.5908 -20.7436 10
      vertex -45.305 -32.916 10
      vertex -41.2599 -29.977 10
    endloop
  endfacet
  facet normal 0 0 1
    outer loop
      vertex -51.1585 -22.7773 10
      vertex -46.5908 -20.7436 10
      vertex -49.8855 -10.6035 10
    endloop
  endfacet
  facet normal 0 0 1
    outer loop
      vertex -46.5908 -20.7436 10
      vertex -51.1585 -22.7773 10
      vertex -45.305 -32.916 10
    endloop
  endfacet
  facet normal 0 0 1
    outer loop
      vertex -54.7763 -11.6431 10
      vertex -49.8855 -10.6035 10
      vertex -51 0 10
    endloop
  endfacet
  facet normal 0 0 1
    outer loop
      vertex -49.8855 10.6035 10
      vertex -54.7763 11.6431 10
      vertex -51 0 10
    endloop
  endfacet
  facet normal 0 0 1
    outer loop
      vertex -56 0 10
      vertex -51 0 10
      vertex -54.7763 11.6431 10
    endloop
  endfacet
  facet normal 0 0 1
    outer loop
      vertex -49.8855 -10.6035 10
      vertex -54.7763 -11.6431 10
      vertex -51.1585 -22.7773 10
    endloop
  endfacet
  facet normal 0 0 1
    outer loop
      vertex -51 0 10
      vertex -56 0 10
      vertex -54.7763 -11.6431 10
    endloop
  endfacet
  facet normal -0.207906 -0.978149 0
    outer loop
      vertex -17.305 -53.2592 0
      vertex -5.85359 -55.6932 10
      vertex -17.305 -53.2592 10
    endloop
  endfacet
  facet normal -0.207906 -0.978149 -0
    outer loop
      vertex -5.85359 -55.6932 10
      vertex -17.305 -53.2592 0
      vertex -5.85359 -55.6932 0
    endloop
  endfacet
  facet normal 0.207906 0.978149 -0
    outer loop
      vertex 17.305 53.2592 0
      vertex 5.85359 55.6932 10
      vertex 17.305 53.2592 10
    endloop
  endfacet
  facet normal 0.207906 0.978149 0
    outer loop
      vertex 5.85359 55.6932 10
      vertex 17.305 53.2592 0
      vertex 5.85359 55.6932 0
    endloop
  endfacet
  facet normal -0.994522 -0.104525 0
    outer loop
      vertex -54.7763 -11.6431 0
      vertex -56 0 10
      vertex -56 0 0
    endloop
  endfacet
  facet normal -0.994522 -0.104525 0
    outer loop
      vertex -56 0 10
      vertex -54.7763 -11.6431 0
      vertex -54.7763 -11.6431 10
    endloop
  endfacet
  facet normal -0.866028 -0.499995 0
    outer loop
      vertex -45.305 -32.916 0
      vertex -51.1585 -22.7773 10
      vertex -51.1585 -22.7773 0
    endloop
  endfacet
  facet normal -0.866028 -0.499995 0
    outer loop
      vertex -51.1585 -22.7773 10
      vertex -45.305 -32.916 0
      vertex -45.305 -32.916 10
    endloop
  endfacet
  facet normal -0.866028 0.499995 0
    outer loop
      vertex -51.1585 22.7773 0
      vertex -45.305 32.916 10
      vertex -45.305 32.916 0
    endloop
  endfacet
  facet normal -0.866028 0.499995 0
    outer loop
      vertex -45.305 32.916 10
      vertex -51.1585 22.7773 0
      vertex -51.1585 22.7773 10
    endloop
  endfacet
  facet normal 0.866028 -0.499995 0
    outer loop
      vertex 45.305 -32.916 10
      vertex 51.1585 -22.7773 0
      vertex 51.1585 -22.7773 10
    endloop
  endfacet
  facet normal 0.866028 -0.499995 0
    outer loop
      vertex 51.1585 -22.7773 0
      vertex 45.305 -32.916 10
      vertex 45.305 -32.916 0
    endloop
  endfacet
  facet normal 0.587785 0.809017 -0
    outer loop
      vertex 37.4713 41.6161 0
      vertex 28 48.4974 10
      vertex 37.4713 41.6161 10
    endloop
  endfacet
  facet normal 0.587785 0.809017 0
    outer loop
      vertex 28 48.4974 10
      vertex 37.4713 41.6161 0
      vertex 28 48.4974 0
    endloop
  endfacet
  facet normal -0.587785 0.809017 0
    outer loop
      vertex -28 48.4974 0
      vertex -37.4713 41.6161 10
      vertex -28 48.4974 10
    endloop
  endfacet
  facet normal -0.587785 0.809017 0
    outer loop
      vertex -37.4713 41.6161 10
      vertex -28 48.4974 0
      vertex -37.4713 41.6161 0
    endloop
  endfacet
  facet normal -0.207906 0.978149 0
    outer loop
      vertex -5.85359 55.6932 0
      vertex -17.305 53.2592 10
      vertex -5.85359 55.6932 10
    endloop
  endfacet
  facet normal -0.207906 0.978149 0
    outer loop
      vertex -17.305 53.2592 10
      vertex -5.85359 55.6932 0
      vertex -17.305 53.2592 0
    endloop
  endfacet
  facet normal 0 -1 0
    outer loop
      vertex -5.85359 -55.6932 0
      vertex 5.85359 -55.6932 10
      vertex -5.85359 -55.6932 10
    endloop
  endfacet
  facet normal 0 -1 -0
    outer loop
      vertex 5.85359 -55.6932 10
      vertex -5.85359 -55.6932 0
      vertex 5.85359 -55.6932 0
    endloop
  endfacet
  facet normal -0.994522 0.104525 0
    outer loop
      vertex -56 0 0
      vertex -54.7763 11.6431 10
      vertex -54.7763 11.6431 0
    endloop
  endfacet
  facet normal -0.994522 0.104525 0
    outer loop
      vertex -54.7763 11.6431 10
      vertex -56 0 0
      vertex -56 0 10
    endloop
  endfacet
  facet normal -0.951057 -0.309015 0
    outer loop
      vertex 49.8855 10.6035 0
      vertex 46.5908 20.7436 10
      vertex 46.5908 20.7436 0
    endloop
  endfacet
  facet normal -0.951057 -0.309015 0
    outer loop
      vertex 46.5908 20.7436 10
      vertex 49.8855 10.6035 0
      vertex 49.8855 10.6035 10
    endloop
  endfacet
  facet normal -0.994522 -0.104531 0
    outer loop
      vertex 51 0 0
      vertex 49.8855 10.6035 10
      vertex 49.8855 10.6035 0
    endloop
  endfacet
  facet normal -0.994522 -0.104531 0
    outer loop
      vertex 49.8855 10.6035 10
      vertex 51 0 0
      vertex 51 0 10
    endloop
  endfacet
  facet normal -0.994522 0.104531 0
    outer loop
      vertex 49.8855 -10.6035 0
      vertex 51 0 10
      vertex 51 0 0
    endloop
  endfacet
  facet normal -0.994522 0.104531 0
    outer loop
      vertex 51 0 10
      vertex 49.8855 -10.6035 0
      vertex 49.8855 -10.6035 10
    endloop
  endfacet
  facet normal -0.406739 -0.913544 0
    outer loop
      vertex 15.7599 48.5039 0
      vertex 25.5 44.1673 10
      vertex 15.7599 48.5039 10
    endloop
  endfacet
  facet normal -0.406739 -0.913544 -0
    outer loop
      vertex 25.5 44.1673 10
      vertex 15.7599 48.5039 0
      vertex 25.5 44.1673 0
    endloop
  endfacet
  facet normal -0.406739 0.913544 0
    outer loop
      vertex 25.5 -44.1673 0
      vertex 15.7599 -48.5039 10
      vertex 25.5 -44.1673 10
    endloop
  endfacet
  facet normal -0.406739 0.913544 0
    outer loop
      vertex 15.7599 -48.5039 10
      vertex 25.5 -44.1673 0
      vertex 15.7599 -48.5039 0
    endloop
  endfacet
  facet normal 0.587783 -0.809019 0
    outer loop
      vertex -34.1257 37.9004 0
      vertex -25.5 44.1673 10
      vertex -34.1257 37.9004 10
    endloop
  endfacet
  facet normal 0.587783 -0.809019 0
    outer loop
      vertex -25.5 44.1673 10
      vertex -34.1257 37.9004 0
      vertex -25.5 44.1673 0
    endloop
  endfacet
  facet normal 0.207908 -0.978148 0
    outer loop
      vertex -15.7599 48.5039 0
      vertex -5.33095 50.7206 10
      vertex -15.7599 48.5039 10
    endloop
  endfacet
  facet normal 0.207908 -0.978148 0
    outer loop
      vertex -5.33095 50.7206 10
      vertex -15.7599 48.5039 0
      vertex -5.33095 50.7206 0
    endloop
  endfacet
  facet normal 0.743148 -0.669127 0
    outer loop
      vertex -41.2599 29.977 10
      vertex -34.1257 37.9004 0
      vertex -34.1257 37.9004 10
    endloop
  endfacet
  facet normal 0.743148 -0.669127 0
    outer loop
      vertex -34.1257 37.9004 0
      vertex -41.2599 29.977 10
      vertex -41.2599 29.977 0
    endloop
  endfacet
  facet normal 0.406739 0.913544 -0
    outer loop
      vertex -15.7599 -48.5039 0
      vertex -25.5 -44.1673 10
      vertex -15.7599 -48.5039 10
    endloop
  endfacet
  facet normal 0.406739 0.913544 0
    outer loop
      vertex -25.5 -44.1673 10
      vertex -15.7599 -48.5039 0
      vertex -25.5 -44.1673 0
    endloop
  endfacet
  facet normal 0.207908 0.978148 -0
    outer loop
      vertex -5.33095 -50.7206 0
      vertex -15.7599 -48.5039 10
      vertex -5.33095 -50.7206 10
    endloop
  endfacet
  facet normal 0.207908 0.978148 0
    outer loop
      vertex -15.7599 -48.5039 10
      vertex -5.33095 -50.7206 0
      vertex -15.7599 -48.5039 0
    endloop
  endfacet
  facet normal 0.951057 -0.309015 0
    outer loop
      vertex -49.8855 10.6035 10
      vertex -46.5908 20.7436 0
      vertex -46.5908 20.7436 10
    endloop
  endfacet
  facet normal 0.951057 -0.309015 0
    outer loop
      vertex -46.5908 20.7436 0
      vertex -49.8855 10.6035 10
      vertex -49.8855 10.6035 0
    endloop
  endfacet
  facet normal -0.743148 0.669127 0
    outer loop
      vertex 34.1257 -37.9004 0
      vertex 41.2599 -29.977 10
      vertex 41.2599 -29.977 0
    endloop
  endfacet
  facet normal -0.743148 0.669127 0
    outer loop
      vertex 41.2599 -29.977 10
      vertex 34.1257 -37.9004 0
      vertex 34.1257 -37.9004 10
    endloop
  endfacet
  facet normal -0.866026 0.5 0
    outer loop
      vertex 41.2599 -29.977 0
      vertex 46.5908 -20.7436 10
      vertex 46.5908 -20.7436 0
    endloop
  endfacet
  facet normal -0.866026 0.5 0
    outer loop
      vertex 46.5908 -20.7436 10
      vertex 41.2599 -29.977 0
      vertex 41.2599 -29.977 10
    endloop
  endfacet
  facet normal -0.587783 0.809019 0
    outer loop
      vertex 34.1257 -37.9004 0
      vertex 25.5 -44.1673 10
      vertex 34.1257 -37.9004 10
    endloop
  endfacet
  facet normal -0.587783 0.809019 0
    outer loop
      vertex 25.5 -44.1673 10
      vertex 34.1257 -37.9004 0
      vertex 25.5 -44.1673 0
    endloop
  endfacet
  facet normal -0.951057 0.309015 0
    outer loop
      vertex 46.5908 -20.7436 0
      vertex 49.8855 -10.6035 10
      vertex 49.8855 -10.6035 0
    endloop
  endfacet
  facet normal -0.951057 0.309015 0
    outer loop
      vertex 49.8855 -10.6035 10
      vertex 46.5908 -20.7436 0
      vertex 46.5908 -20.7436 10
    endloop
  endfacet
  facet normal -0.587783 -0.809019 0
    outer loop
      vertex 25.5 44.1673 0
      vertex 34.1257 37.9004 10
      vertex 25.5 44.1673 10
    endloop
  endfacet
  facet normal -0.587783 -0.809019 -0
    outer loop
      vertex 34.1257 37.9004 10
      vertex 25.5 44.1673 0
      vertex 34.1257 37.9004 0
    endloop
  endfacet
  facet normal 0.406739 -0.913544 0
    outer loop
      vertex -25.5 44.1673 0
      vertex -15.7599 48.5039 10
      vertex -25.5 44.1673 10
    endloop
  endfacet
  facet normal 0.406739 -0.913544 0
    outer loop
      vertex -15.7599 48.5039 10
      vertex -25.5 44.1673 0
      vertex -15.7599 48.5039 0
    endloop
  endfacet
  facet normal -0.743148 -0.669127 0
    outer loop
      vertex 41.2599 29.977 0
      vertex 34.1257 37.9004 10
      vertex 34.1257 37.9004 0
    endloop
  endfacet
  facet normal -0.743148 -0.669127 0
    outer loop
      vertex 34.1257 37.9004 10
      vertex 41.2599 29.977 0
      vertex 41.2599 29.977 10
    endloop
  endfacet
  facet normal 0.994522 -0.104531 0
    outer loop
      vertex -51 0 10
      vertex -49.8855 10.6035 0
      vertex -49.8855 10.6035 10
    endloop
  endfacet
  facet normal 0.994522 -0.104531 0
    outer loop
      vertex -49.8855 10.6035 0
      vertex -51 0 10
      vertex -51 0 0
    endloop
  endfacet
  facet normal -0.866026 -0.5 0
    outer loop
      vertex 46.5908 20.7436 0
      vertex 41.2599 29.977 10
      vertex 41.2599 29.977 0
    endloop
  endfacet
  facet normal -0.866026 -0.5 0
    outer loop
      vertex 41.2599 29.977 10
      vertex 46.5908 20.7436 0
      vertex 46.5908 20.7436 10
    endloop
  endfacet
  facet normal 0.951057 0.309015 0
    outer loop
      vertex -46.5908 -20.7436 10
      vertex -49.8855 -10.6035 0
      vertex -49.8855 -10.6035 10
    endloop
  endfacet
  facet normal 0.951057 0.309015 0
    outer loop
      vertex -49.8855 -10.6035 0
      vertex -46.5908 -20.7436 10
      vertex -46.5908 -20.7436 0
    endloop
  endfacet
  facet normal -0.207908 0.978148 0
    outer loop
      vertex 15.7599 -48.5039 0
      vertex 5.33095 -50.7206 10
      vertex 15.7599 -48.5039 10
    endloop
  endfacet
  facet normal -0.207908 0.978148 0
    outer loop
      vertex 5.33095 -50.7206 10
      vertex 15.7599 -48.5039 0
      vertex 5.33095 -50.7206 0
    endloop
  endfacet
  facet normal 0.866026 0.5 0
    outer loop
      vertex -41.2599 -29.977 10
      vertex -46.5908 -20.7436 0
      vertex -46.5908 -20.7436 10
    endloop
  endfacet
  facet normal 0.866026 0.5 0
    outer loop
      vertex -46.5908 -20.7436 0
      vertex -41.2599 -29.977 10
      vertex -41.2599 -29.977 0
    endloop
  endfacet
  facet normal 0 1 -0
    outer loop
      vertex 5.33095 -50.7206 0
      vertex -5.33095 -50.7206 10
      vertex 5.33095 -50.7206 10
    endloop
  endfacet
  facet normal 0 1 0
    outer loop
      vertex -5.33095 -50.7206 10
      vertex 5.33095 -50.7206 0
      vertex -5.33095 -50.7206 0
    endloop
  endfacet
  facet normal 0.994522 0.104531 0
    outer loop
      vertex -49.8855 -10.6035 10
      vertex -51 0 0
      vertex -51 0 10
    endloop
  endfacet
  facet normal 0.994522 0.104531 0
    outer loop
      vertex -51 0 0
      vertex -49.8855 -10.6035 10
      vertex -49.8855 -10.6035 0
    endloop
  endfacet
  facet normal 0.743148 0.669127 0
    outer loop
      vertex -34.1257 -37.9004 10
      vertex -41.2599 -29.977 0
      vertex -41.2599 -29.977 10
    endloop
  endfacet
  facet normal 0.743148 0.669127 0
    outer loop
      vertex -41.2599 -29.977 0
      vertex -34.1257 -37.9004 10
      vertex -34.1257 -37.9004 0
    endloop
  endfacet
  facet normal 0 -1 0
    outer loop
      vertex -5.33095 50.7206 0
      vertex 5.33095 50.7206 10
      vertex -5.33095 50.7206 10
    endloop
  endfacet
  facet normal 0 -1 -0
    outer loop
      vertex 5.33095 50.7206 10
      vertex -5.33095 50.7206 0
      vertex 5.33095 50.7206 0
    endloop
  endfacet
  facet normal -0.207908 -0.978148 0
    outer loop
      vertex 5.33095 50.7206 0
      vertex 15.7599 48.5039 10
      vertex 5.33095 50.7206 10
    endloop
  endfacet
  facet normal -0.207908 -0.978148 -0
    outer loop
      vertex 15.7599 48.5039 10
      vertex 5.33095 50.7206 0
      vertex 15.7599 48.5039 0
    endloop
  endfacet
  facet normal 0.587783 0.809019 -0
    outer loop
      vertex -25.5 -44.1673 0
      vertex -34.1257 -37.9004 10
      vertex -25.5 -44.1673 10
    endloop
  endfacet
  facet normal 0.587783 0.809019 0
    outer loop
      vertex -34.1257 -37.9004 10
      vertex -25.5 -44.1673 0
      vertex -34.1257 -37.9004 0
    endloop
  endfacet
  facet normal 0.866026 -0.5 0
    outer loop
      vertex -46.5908 20.7436 10
      vertex -41.2599 29.977 0
      vertex -41.2599 29.977 10
    endloop
  endfacet
  facet normal 0.866026 -0.5 0
    outer loop
      vertex -41.2599 29.977 0
      vertex -46.5908 20.7436 10
      vertex -46.5908 20.7436 0
    endloop
  endfacet
endsolid OpenSCAD_Model
