solid OpenSCAD_Model
  facet normal 0.951056 0.309018 0
    outer loop
      vertex 49.6899 10.5619 1
      vertex 46.4081 20.6622 0
      vertex 46.4081 20.6622 1
    endloop
  endfacet
  facet normal 0.951056 0.309018 0
    outer loop
      vertex 46.4081 20.6622 0
      vertex 49.6899 10.5619 1
      vertex 49.6899 10.5619 0
    endloop
  endfacet
  facet normal 0.994522 0.104528 0
    outer loop
      vertex 50.8 0 1
      vertex 49.6899 10.5619 0
      vertex 49.6899 10.5619 1
    endloop
  endfacet
  facet normal 0.994522 0.104528 0
    outer loop
      vertex 49.6899 10.5619 0
      vertex 50.8 0 1
      vertex 50.8 0 0
    endloop
  endfacet
  facet normal 0.951056 -0.309018 0
    outer loop
      vertex 46.4081 -20.6622 1
      vertex 49.6899 -10.5619 0
      vertex 49.6899 -10.5619 1
    endloop
  endfacet
  facet normal 0.951056 -0.309018 0
    outer loop
      vertex 49.6899 -10.5619 0
      vertex 46.4081 -20.6622 1
      vertex 46.4081 -20.6622 0
    endloop
  endfacet
  facet normal 0 1 -0
    outer loop
      vertex 5.31005 50.5217 0
      vertex -5.31005 50.5217 1
      vertex 5.31005 50.5217 1
    endloop
  endfacet
  facet normal 0 1 0
    outer loop
      vertex -5.31005 50.5217 1
      vertex 5.31005 50.5217 0
      vertex -5.31005 50.5217 0
    endloop
  endfacet
  facet normal 0 0 -1
    outer loop
      vertex 49.6899 -10.5619 0
      vertex 49.6899 10.5619 0
      vertex 50.8 0 0
    endloop
  endfacet
  facet normal 0 0 -1
    outer loop
      vertex 46.4081 -20.6622 0
      vertex 49.6899 10.5619 0
      vertex 49.6899 -10.5619 0
    endloop
  endfacet
  facet normal 0 0 -1
    outer loop
      vertex 46.4081 -20.6622 0
      vertex 46.4081 20.6622 0
      vertex 49.6899 10.5619 0
    endloop
  endfacet
  facet normal 0 0 -1
    outer loop
      vertex 41.0981 -29.8595 0
      vertex 46.4081 20.6622 0
      vertex 46.4081 -20.6622 0
    endloop
  endfacet
  facet normal 0 0 -1
    outer loop
      vertex 41.0981 -29.8595 0
      vertex 41.0981 29.8595 0
      vertex 46.4081 20.6622 0
    endloop
  endfacet
  facet normal 0 0 -1
    outer loop
      vertex 33.9918 -37.7518 0
      vertex 41.0981 29.8595 0
      vertex 41.0981 -29.8595 0
    endloop
  endfacet
  facet normal 0 0 -1
    outer loop
      vertex 33.9918 -37.7518 0
      vertex 33.9918 37.7518 0
      vertex 41.0981 29.8595 0
    endloop
  endfacet
  facet normal 0 0 -1
    outer loop
      vertex 25.4 -43.9941 0
      vertex 33.9918 37.7518 0
      vertex 33.9918 -37.7518 0
    endloop
  endfacet
  facet normal 0 0 -1
    outer loop
      vertex 25.4 -43.9941 0
      vertex 25.4 43.9941 0
      vertex 33.9918 37.7518 0
    endloop
  endfacet
  facet normal 0 0 -1
    outer loop
      vertex 15.6981 -48.3137 0
      vertex 25.4 43.9941 0
      vertex 25.4 -43.9941 0
    endloop
  endfacet
  facet normal 0 0 -1
    outer loop
      vertex 15.6981 -48.3137 0
      vertex 15.6981 48.3137 0
      vertex 25.4 43.9941 0
    endloop
  endfacet
  facet normal 0 0 -1
    outer loop
      vertex 5.31005 -50.5217 0
      vertex 15.6981 48.3137 0
      vertex 15.6981 -48.3137 0
    endloop
  endfacet
  facet normal 0 0 -1
    outer loop
      vertex 5.31005 -50.5217 0
      vertex 5.31005 50.5217 0
      vertex 15.6981 48.3137 0
    endloop
  endfacet
  facet normal 0 0 -1
    outer loop
      vertex -5.31005 -50.5217 0
      vertex 5.31005 50.5217 0
      vertex 5.31005 -50.5217 0
    endloop
  endfacet
  facet normal 0 0 -1
    outer loop
      vertex -5.31005 -50.5217 0
      vertex -5.31005 50.5217 0
      vertex 5.31005 50.5217 0
    endloop
  endfacet
  facet normal 0 0 -1
    outer loop
      vertex -15.6981 -48.3137 0
      vertex -5.31005 50.5217 0
      vertex -5.31005 -50.5217 0
    endloop
  endfacet
  facet normal 0 0 -1
    outer loop
      vertex -15.6981 -48.3137 0
      vertex -15.6981 48.3137 0
      vertex -5.31005 50.5217 0
    endloop
  endfacet
  facet normal 0 0 -1
    outer loop
      vertex -25.4 -43.9941 0
      vertex -15.6981 48.3137 0
      vertex -15.6981 -48.3137 0
    endloop
  endfacet
  facet normal 0 0 -1
    outer loop
      vertex -25.4 -43.9941 0
      vertex -25.4 43.9941 0
      vertex -15.6981 48.3137 0
    endloop
  endfacet
  facet normal 0 0 -1
    outer loop
      vertex -33.9918 -37.7518 0
      vertex -25.4 43.9941 0
      vertex -25.4 -43.9941 0
    endloop
  endfacet
  facet normal 0 0 -1
    outer loop
      vertex -33.9918 -37.7518 0
      vertex -33.9918 37.7518 0
      vertex -25.4 43.9941 0
    endloop
  endfacet
  facet normal 0 0 -1
    outer loop
      vertex -41.0981 -29.8595 0
      vertex -33.9918 37.7518 0
      vertex -33.9918 -37.7518 0
    endloop
  endfacet
  facet normal 0 0 -1
    outer loop
      vertex -41.0981 -29.8595 0
      vertex -41.0981 29.8595 0
      vertex -33.9918 37.7518 0
    endloop
  endfacet
  facet normal 0 0 -1
    outer loop
      vertex -46.4081 -20.6622 0
      vertex -41.0981 29.8595 0
      vertex -41.0981 -29.8595 0
    endloop
  endfacet
  facet normal 0 0 -1
    outer loop
      vertex -46.4081 -20.6622 0
      vertex -46.4081 20.6622 0
      vertex -41.0981 29.8595 0
    endloop
  endfacet
  facet normal 0 0 -1
    outer loop
      vertex -49.6899 -10.5619 0
      vertex -46.4081 20.6622 0
      vertex -46.4081 -20.6622 0
    endloop
  endfacet
  facet normal 0 0 -1
    outer loop
      vertex -49.6899 -10.5619 0
      vertex -49.6899 10.5619 0
      vertex -46.4081 20.6622 0
    endloop
  endfacet
  facet normal 0 -0 -1
    outer loop
      vertex -49.6899 10.5619 0
      vertex -49.6899 -10.5619 0
      vertex -50.8 0 0
    endloop
  endfacet
  facet normal -0.587785 0.809017 0
    outer loop
      vertex -25.4 43.9941 0
      vertex -33.9918 37.7518 1
      vertex -25.4 43.9941 1
    endloop
  endfacet
  facet normal -0.587785 0.809017 0
    outer loop
      vertex -33.9918 37.7518 1
      vertex -25.4 43.9941 0
      vertex -33.9918 37.7518 0
    endloop
  endfacet
  facet normal -0.406739 0.913544 0
    outer loop
      vertex -15.6981 48.3137 0
      vertex -25.4 43.9941 1
      vertex -15.6981 48.3137 1
    endloop
  endfacet
  facet normal -0.406739 0.913544 0
    outer loop
      vertex -25.4 43.9941 1
      vertex -15.6981 48.3137 0
      vertex -25.4 43.9941 0
    endloop
  endfacet
  facet normal 0.207907 0.978149 -0
    outer loop
      vertex 15.6981 48.3137 0
      vertex 5.31005 50.5217 1
      vertex 15.6981 48.3137 1
    endloop
  endfacet
  facet normal 0.207907 0.978149 0
    outer loop
      vertex 5.31005 50.5217 1
      vertex 15.6981 48.3137 0
      vertex 5.31005 50.5217 0
    endloop
  endfacet
  facet normal 0.207907 -0.978149 0
    outer loop
      vertex 5.31005 -50.5217 0
      vertex 15.6981 -48.3137 1
      vertex 5.31005 -50.5217 1
    endloop
  endfacet
  facet normal 0.207907 -0.978149 0
    outer loop
      vertex 15.6981 -48.3137 1
      vertex 5.31005 -50.5217 0
      vertex 15.6981 -48.3137 0
    endloop
  endfacet
  facet normal 0.587785 -0.809017 0
    outer loop
      vertex 25.4 -43.9941 0
      vertex 33.9918 -37.7518 1
      vertex 25.4 -43.9941 1
    endloop
  endfacet
  facet normal 0.587785 -0.809017 0
    outer loop
      vertex 33.9918 -37.7518 1
      vertex 25.4 -43.9941 0
      vertex 33.9918 -37.7518 0
    endloop
  endfacet
  facet normal -0.866028 -0.499996 0
    outer loop
      vertex -41.0981 -29.8595 0
      vertex -46.4081 -20.6622 1
      vertex -46.4081 -20.6622 0
    endloop
  endfacet
  facet normal -0.866028 -0.499996 0
    outer loop
      vertex -46.4081 -20.6622 1
      vertex -41.0981 -29.8595 0
      vertex -41.0981 -29.8595 1
    endloop
  endfacet
  facet normal 0 0 1
    outer loop
      vertex 5 0 1
      vertex 50.8 0 1
      vertex 49.6899 10.5619 1
    endloop
  endfacet
  facet normal 0 0 1
    outer loop
      vertex 4.6194 1.91342 1
      vertex 49.6899 10.5619 1
      vertex 46.4081 20.6622 1
    endloop
  endfacet
  facet normal 0 0 1
    outer loop
      vertex 50.8 0 1
      vertex 5 0 1
      vertex 49.6899 -10.5619 1
    endloop
  endfacet
  facet normal 0 0 1
    outer loop
      vertex 4.6194 1.91342 1
      vertex 46.4081 20.6622 1
      vertex 41.0981 29.8595 1
    endloop
  endfacet
  facet normal -0 0 1
    outer loop
      vertex 4.6194 -1.91342 1
      vertex 49.6899 -10.5619 1
      vertex 5 0 1
    endloop
  endfacet
  facet normal 0 0 1
    outer loop
      vertex 3.53553 3.53553 1
      vertex 41.0981 29.8595 1
      vertex 33.9918 37.7518 1
    endloop
  endfacet
  facet normal 0 0 1
    outer loop
      vertex 49.6899 -10.5619 1
      vertex 4.6194 -1.91342 1
      vertex 46.4081 -20.6622 1
    endloop
  endfacet
  facet normal 0 0 1
    outer loop
      vertex 3.53553 3.53553 1
      vertex 33.9918 37.7518 1
      vertex 25.4 43.9941 1
    endloop
  endfacet
  facet normal 0 0 1
    outer loop
      vertex 46.4081 -20.6622 1
      vertex 4.6194 -1.91342 1
      vertex 41.0981 -29.8595 1
    endloop
  endfacet
  facet normal 0 0 1
    outer loop
      vertex 1.91342 4.6194 1
      vertex 25.4 43.9941 1
      vertex 15.6981 48.3137 1
    endloop
  endfacet
  facet normal -0 0 1
    outer loop
      vertex 3.53553 -3.53553 1
      vertex 41.0981 -29.8595 1
      vertex 4.6194 -1.91342 1
    endloop
  endfacet
  facet normal 0 0 1
    outer loop
      vertex 1.91342 4.6194 1
      vertex 15.6981 48.3137 1
      vertex 5.31005 50.5217 1
    endloop
  endfacet
  facet normal 0 0 1
    outer loop
      vertex 41.0981 -29.8595 1
      vertex 3.53553 -3.53553 1
      vertex 33.9918 -37.7518 1
    endloop
  endfacet
  facet normal 0 0 1
    outer loop
      vertex 33.9918 -37.7518 1
      vertex 3.53553 -3.53553 1
      vertex 25.4 -43.9941 1
    endloop
  endfacet
  facet normal 0 0 1
    outer loop
      vertex 49.6899 10.5619 1
      vertex 4.6194 1.91342 1
      vertex 5 0 1
    endloop
  endfacet
  facet normal 0 0 1
    outer loop
      vertex 41.0981 29.8595 1
      vertex 3.53553 3.53553 1
      vertex 4.6194 1.91342 1
    endloop
  endfacet
  facet normal 0 0 1
    outer loop
      vertex 25.4 43.9941 1
      vertex 1.91342 4.6194 1
      vertex 3.53553 3.53553 1
    endloop
  endfacet
  facet normal 0 0 1
    outer loop
      vertex 5.31005 50.5217 1
      vertex 0 5 1
      vertex 1.91342 4.6194 1
    endloop
  endfacet
  facet normal -0 0 1
    outer loop
      vertex -5.31005 50.5217 1
      vertex 0 5 1
      vertex 5.31005 50.5217 1
    endloop
  endfacet
  facet normal 0 0 1
    outer loop
      vertex 0 5 1
      vertex -5.31005 50.5217 1
      vertex -1.91342 4.6194 1
    endloop
  endfacet
  facet normal -0 0 1
    outer loop
      vertex -15.6981 48.3137 1
      vertex -1.91342 4.6194 1
      vertex -5.31005 50.5217 1
    endloop
  endfacet
  facet normal 0 0 1
    outer loop
      vertex -1.91342 4.6194 1
      vertex -25.4 43.9941 1
      vertex -3.53553 3.53553 1
    endloop
  endfacet
  facet normal -0 0 1
    outer loop
      vertex -25.4 43.9941 1
      vertex -1.91342 4.6194 1
      vertex -15.6981 48.3137 1
    endloop
  endfacet
  facet normal -0 0 1
    outer loop
      vertex 1.91342 -4.6194 1
      vertex 25.4 -43.9941 1
      vertex 3.53553 -3.53553 1
    endloop
  endfacet
  facet normal 0 0 1
    outer loop
      vertex 25.4 -43.9941 1
      vertex 1.91342 -4.6194 1
      vertex 15.6981 -48.3137 1
    endloop
  endfacet
  facet normal 0 0 1
    outer loop
      vertex 15.6981 -48.3137 1
      vertex 1.91342 -4.6194 1
      vertex 5.31005 -50.5217 1
    endloop
  endfacet
  facet normal -0 0 1
    outer loop
      vertex 0 -5 1
      vertex 5.31005 -50.5217 1
      vertex 1.91342 -4.6194 1
    endloop
  endfacet
  facet normal 0 0 1
    outer loop
      vertex -5.31005 -50.5217 1
      vertex 0 -5 1
      vertex -1.91342 -4.6194 1
    endloop
  endfacet
  facet normal 0 0 1
    outer loop
      vertex -25.4 -43.9941 1
      vertex -1.91342 -4.6194 1
      vertex -3.53553 -3.53553 1
    endloop
  endfacet
  facet normal 0 0 1
    outer loop
      vertex -41.0981 -29.8595 1
      vertex -3.53553 -3.53553 1
      vertex -4.6194 -1.91342 1
    endloop
  endfacet
  facet normal 0 0 1
    outer loop
      vertex 0 -5 1
      vertex -5.31005 -50.5217 1
      vertex 5.31005 -50.5217 1
    endloop
  endfacet
  facet normal 0 0 1
    outer loop
      vertex -49.6899 -10.5619 1
      vertex -4.6194 -1.91342 1
      vertex -5 0 1
    endloop
  endfacet
  facet normal -0 0 1
    outer loop
      vertex -33.9918 37.7518 1
      vertex -3.53553 3.53553 1
      vertex -25.4 43.9941 1
    endloop
  endfacet
  facet normal -0 0 1
    outer loop
      vertex -41.0981 29.8595 1
      vertex -3.53553 3.53553 1
      vertex -33.9918 37.7518 1
    endloop
  endfacet
  facet normal 0 0 1
    outer loop
      vertex -1.91342 -4.6194 1
      vertex -15.6981 -48.3137 1
      vertex -5.31005 -50.5217 1
    endloop
  endfacet
  facet normal 0 0 1
    outer loop
      vertex -3.53553 3.53553 1
      vertex -41.0981 29.8595 1
      vertex -4.6194 1.91342 1
    endloop
  endfacet
  facet normal 0 0 1
    outer loop
      vertex -1.91342 -4.6194 1
      vertex -25.4 -43.9941 1
      vertex -15.6981 -48.3137 1
    endloop
  endfacet
  facet normal -0 0 1
    outer loop
      vertex -46.4081 20.6622 1
      vertex -4.6194 1.91342 1
      vertex -41.0981 29.8595 1
    endloop
  endfacet
  facet normal 0 0 1
    outer loop
      vertex -3.53553 -3.53553 1
      vertex -33.9918 -37.7518 1
      vertex -25.4 -43.9941 1
    endloop
  endfacet
  facet normal -0 0 1
    outer loop
      vertex -49.6899 10.5619 1
      vertex -4.6194 1.91342 1
      vertex -46.4081 20.6622 1
    endloop
  endfacet
  facet normal 0 0 1
    outer loop
      vertex -3.53553 -3.53553 1
      vertex -41.0981 -29.8595 1
      vertex -33.9918 -37.7518 1
    endloop
  endfacet
  facet normal 0 0 1
    outer loop
      vertex -4.6194 1.91342 1
      vertex -49.6899 10.5619 1
      vertex -5 0 1
    endloop
  endfacet
  facet normal 0 0 1
    outer loop
      vertex -4.6194 -1.91342 1
      vertex -46.4081 -20.6622 1
      vertex -41.0981 -29.8595 1
    endloop
  endfacet
  facet normal 0 0 1
    outer loop
      vertex -50.8 0 1
      vertex -5 0 1
      vertex -49.6899 10.5619 1
    endloop
  endfacet
  facet normal 0 0 1
    outer loop
      vertex -4.6194 -1.91342 1
      vertex -49.6899 -10.5619 1
      vertex -46.4081 -20.6622 1
    endloop
  endfacet
  facet normal 0 0 1
    outer loop
      vertex -5 0 1
      vertex -50.8 0 1
      vertex -49.6899 -10.5619 1
    endloop
  endfacet
  facet normal 0.587785 0.809017 -0
    outer loop
      vertex 33.9918 37.7518 0
      vertex 25.4 43.9941 1
      vertex 33.9918 37.7518 1
    endloop
  endfacet
  facet normal 0.587785 0.809017 0
    outer loop
      vertex 25.4 43.9941 1
      vertex 33.9918 37.7518 0
      vertex 25.4 43.9941 0
    endloop
  endfacet
  facet normal 0.406739 0.913544 -0
    outer loop
      vertex 25.4 43.9941 0
      vertex 15.6981 48.3137 1
      vertex 25.4 43.9941 1
    endloop
  endfacet
  facet normal 0.406739 0.913544 0
    outer loop
      vertex 15.6981 48.3137 1
      vertex 25.4 43.9941 0
      vertex 15.6981 48.3137 0
    endloop
  endfacet
  facet normal -0.951056 0.309018 0
    outer loop
      vertex -49.6899 10.5619 0
      vertex -46.4081 20.6622 1
      vertex -46.4081 20.6622 0
    endloop
  endfacet
  facet normal -0.951056 0.309018 0
    outer loop
      vertex -46.4081 20.6622 1
      vertex -49.6899 10.5619 0
      vertex -49.6899 10.5619 1
    endloop
  endfacet
  facet normal 0.866028 0.499996 0
    outer loop
      vertex 46.4081 20.6622 1
      vertex 41.0981 29.8595 0
      vertex 41.0981 29.8595 1
    endloop
  endfacet
  facet normal 0.866028 0.499996 0
    outer loop
      vertex 41.0981 29.8595 0
      vertex 46.4081 20.6622 1
      vertex 46.4081 20.6622 0
    endloop
  endfacet
  facet normal 0.994522 -0.104528 0
    outer loop
      vertex 49.6899 -10.5619 1
      vertex 50.8 0 0
      vertex 50.8 0 1
    endloop
  endfacet
  facet normal 0.994522 -0.104528 0
    outer loop
      vertex 50.8 0 0
      vertex 49.6899 -10.5619 1
      vertex 49.6899 -10.5619 0
    endloop
  endfacet
  facet normal -0.406739 -0.913544 0
    outer loop
      vertex -25.4 -43.9941 0
      vertex -15.6981 -48.3137 1
      vertex -25.4 -43.9941 1
    endloop
  endfacet
  facet normal -0.406739 -0.913544 -0
    outer loop
      vertex -15.6981 -48.3137 1
      vertex -25.4 -43.9941 0
      vertex -15.6981 -48.3137 0
    endloop
  endfacet
  facet normal -0.207907 0.978149 0
    outer loop
      vertex -5.31005 50.5217 0
      vertex -15.6981 48.3137 1
      vertex -5.31005 50.5217 1
    endloop
  endfacet
  facet normal -0.207907 0.978149 0
    outer loop
      vertex -15.6981 48.3137 1
      vertex -5.31005 50.5217 0
      vertex -15.6981 48.3137 0
    endloop
  endfacet
  facet normal 0.866028 -0.499996 0
    outer loop
      vertex 41.0981 -29.8595 1
      vertex 46.4081 -20.6622 0
      vertex 46.4081 -20.6622 1
    endloop
  endfacet
  facet normal 0.866028 -0.499996 0
    outer loop
      vertex 46.4081 -20.6622 0
      vertex 41.0981 -29.8595 1
      vertex 41.0981 -29.8595 0
    endloop
  endfacet
  facet normal 0.406739 -0.913544 0
    outer loop
      vertex 15.6981 -48.3137 0
      vertex 25.4 -43.9941 1
      vertex 15.6981 -48.3137 1
    endloop
  endfacet
  facet normal 0.406739 -0.913544 0
    outer loop
      vertex 25.4 -43.9941 1
      vertex 15.6981 -48.3137 0
      vertex 25.4 -43.9941 0
    endloop
  endfacet
  facet normal -0.587785 -0.809017 0
    outer loop
      vertex -33.9918 -37.7518 0
      vertex -25.4 -43.9941 1
      vertex -33.9918 -37.7518 1
    endloop
  endfacet
  facet normal -0.587785 -0.809017 -0
    outer loop
      vertex -25.4 -43.9941 1
      vertex -33.9918 -37.7518 0
      vertex -25.4 -43.9941 0
    endloop
  endfacet
  facet normal 0.743143 -0.669133 0
    outer loop
      vertex 33.9918 -37.7518 1
      vertex 41.0981 -29.8595 0
      vertex 41.0981 -29.8595 1
    endloop
  endfacet
  facet normal 0.743143 -0.669133 0
    outer loop
      vertex 41.0981 -29.8595 0
      vertex 33.9918 -37.7518 1
      vertex 33.9918 -37.7518 0
    endloop
  endfacet
  facet normal 0.743143 0.669133 0
    outer loop
      vertex 41.0981 29.8595 1
      vertex 33.9918 37.7518 0
      vertex 33.9918 37.7518 1
    endloop
  endfacet
  facet normal 0.743143 0.669133 0
    outer loop
      vertex 33.9918 37.7518 0
      vertex 41.0981 29.8595 1
      vertex 41.0981 29.8595 0
    endloop
  endfacet
  facet normal -0.994522 0.104528 0
    outer loop
      vertex -50.8 0 0
      vertex -49.6899 10.5619 1
      vertex -49.6899 10.5619 0
    endloop
  endfacet
  facet normal -0.994522 0.104528 0
    outer loop
      vertex -49.6899 10.5619 1
      vertex -50.8 0 0
      vertex -50.8 0 1
    endloop
  endfacet
  facet normal -0.207907 -0.978149 0
    outer loop
      vertex -15.6981 -48.3137 0
      vertex -5.31005 -50.5217 1
      vertex -15.6981 -48.3137 1
    endloop
  endfacet
  facet normal -0.207907 -0.978149 -0
    outer loop
      vertex -5.31005 -50.5217 1
      vertex -15.6981 -48.3137 0
      vertex -5.31005 -50.5217 0
    endloop
  endfacet
  facet normal -0.743143 0.669133 0
    outer loop
      vertex -41.0981 29.8595 0
      vertex -33.9918 37.7518 1
      vertex -33.9918 37.7518 0
    endloop
  endfacet
  facet normal -0.743143 0.669133 0
    outer loop
      vertex -33.9918 37.7518 1
      vertex -41.0981 29.8595 0
      vertex -41.0981 29.8595 1
    endloop
  endfacet
  facet normal 0 -1 0
    outer loop
      vertex -5.31005 -50.5217 0
      vertex 5.31005 -50.5217 1
      vertex -5.31005 -50.5217 1
    endloop
  endfacet
  facet normal 0 -1 -0
    outer loop
      vertex 5.31005 -50.5217 1
      vertex -5.31005 -50.5217 0
      vertex 5.31005 -50.5217 0
    endloop
  endfacet
  facet normal -0.951056 -0.309018 0
    outer loop
      vertex -46.4081 -20.6622 0
      vertex -49.6899 -10.5619 1
      vertex -49.6899 -10.5619 0
    endloop
  endfacet
  facet normal -0.951056 -0.309018 0
    outer loop
      vertex -49.6899 -10.5619 1
      vertex -46.4081 -20.6622 0
      vertex -46.4081 -20.6622 1
    endloop
  endfacet
  facet normal -0.743143 -0.669133 0
    outer loop
      vertex -33.9918 -37.7518 0
      vertex -41.0981 -29.8595 1
      vertex -41.0981 -29.8595 0
    endloop
  endfacet
  facet normal -0.743143 -0.669133 0
    outer loop
      vertex -41.0981 -29.8595 1
      vertex -33.9918 -37.7518 0
      vertex -33.9918 -37.7518 1
    endloop
  endfacet
  facet normal -0.994522 -0.104528 0
    outer loop
      vertex -49.6899 -10.5619 0
      vertex -50.8 0 1
      vertex -50.8 0 0
    endloop
  endfacet
  facet normal -0.994522 -0.104528 0
    outer loop
      vertex -50.8 0 1
      vertex -49.6899 -10.5619 0
      vertex -49.6899 -10.5619 1
    endloop
  endfacet
  facet normal -0.866028 0.499996 0
    outer loop
      vertex -46.4081 20.6622 0
      vertex -41.0981 29.8595 1
      vertex -41.0981 29.8595 0
    endloop
  endfacet
  facet normal -0.866028 0.499996 0
    outer loop
      vertex -41.0981 29.8595 1
      vertex -46.4081 20.6622 0
      vertex -46.4081 20.6622 1
    endloop
  endfacet
  facet normal -0.555574 0.831467 0
    outer loop
      vertex -1.91342 4.6194 1
      vertex -3.53553 3.53553 5
      vertex -1.91342 4.6194 5
    endloop
  endfacet
  facet normal -0.555574 0.831467 0
    outer loop
      vertex -3.53553 3.53553 5
      vertex -1.91342 4.6194 1
      vertex -3.53553 3.53553 1
    endloop
  endfacet
  facet normal 0.831467 0.555574 0
    outer loop
      vertex 4.6194 1.91342 5
      vertex 3.53553 3.53553 1
      vertex 3.53553 3.53553 5
    endloop
  endfacet
  facet normal 0.831467 0.555574 0
    outer loop
      vertex 3.53553 3.53553 1
      vertex 4.6194 1.91342 5
      vertex 4.6194 1.91342 1
    endloop
  endfacet
  facet normal 0.980786 0.195089 0
    outer loop
      vertex 5 0 5
      vertex 4.6194 1.91342 1
      vertex 4.6194 1.91342 5
    endloop
  endfacet
  facet normal 0.980786 0.195089 0
    outer loop
      vertex 4.6194 1.91342 1
      vertex 5 0 5
      vertex 5 0 1
    endloop
  endfacet
  facet normal -0.831467 0.555574 0
    outer loop
      vertex -4.6194 1.91342 1
      vertex -3.53553 3.53553 5
      vertex -3.53553 3.53553 1
    endloop
  endfacet
  facet normal -0.831467 0.555574 0
    outer loop
      vertex -3.53553 3.53553 5
      vertex -4.6194 1.91342 1
      vertex -4.6194 1.91342 5
    endloop
  endfacet
  facet normal -0.195089 -0.980786 0
    outer loop
      vertex -1.91342 -4.6194 1
      vertex 0 -5 5
      vertex -1.91342 -4.6194 5
    endloop
  endfacet
  facet normal -0.195089 -0.980786 -0
    outer loop
      vertex 0 -5 5
      vertex -1.91342 -4.6194 1
      vertex 0 -5 1
    endloop
  endfacet
  facet normal 0.195089 -0.980786 0
    outer loop
      vertex 0 -5 1
      vertex 1.91342 -4.6194 5
      vertex 0 -5 5
    endloop
  endfacet
  facet normal 0.195089 -0.980786 0
    outer loop
      vertex 1.91342 -4.6194 5
      vertex 0 -5 1
      vertex 1.91342 -4.6194 1
    endloop
  endfacet
  facet normal 0.555574 -0.831467 0
    outer loop
      vertex 1.91342 -4.6194 1
      vertex 3.53553 -3.53553 5
      vertex 1.91342 -4.6194 5
    endloop
  endfacet
  facet normal 0.555574 -0.831467 0
    outer loop
      vertex 3.53553 -3.53553 5
      vertex 1.91342 -4.6194 1
      vertex 3.53553 -3.53553 1
    endloop
  endfacet
  facet normal 0.831467 -0.555574 0
    outer loop
      vertex 3.53553 -3.53553 5
      vertex 4.6194 -1.91342 1
      vertex 4.6194 -1.91342 5
    endloop
  endfacet
  facet normal 0.831467 -0.555574 0
    outer loop
      vertex 4.6194 -1.91342 1
      vertex 3.53553 -3.53553 5
      vertex 3.53553 -3.53553 1
    endloop
  endfacet
  facet normal -0.980786 0.195089 0
    outer loop
      vertex -5 0 1
      vertex -4.6194 1.91342 5
      vertex -4.6194 1.91342 1
    endloop
  endfacet
  facet normal -0.980786 0.195089 0
    outer loop
      vertex -4.6194 1.91342 5
      vertex -5 0 1
      vertex -5 0 5
    endloop
  endfacet
  facet normal 0.980786 -0.195089 0
    outer loop
      vertex 4.6194 -1.91342 5
      vertex 5 0 1
      vertex 5 0 5
    endloop
  endfacet
  facet normal 0.980786 -0.195089 0
    outer loop
      vertex 5 0 1
      vertex 4.6194 -1.91342 5
      vertex 4.6194 -1.91342 1
    endloop
  endfacet
  facet normal -0.195089 0.980786 0
    outer loop
      vertex 0 5 1
      vertex -1.91342 4.6194 5
      vertex 0 5 5
    endloop
  endfacet
  facet normal -0.195089 0.980786 0
    outer loop
      vertex -1.91342 4.6194 5
      vertex 0 5 1
      vertex -1.91342 4.6194 1
    endloop
  endfacet
  facet normal 0.195089 0.980786 -0
    outer loop
      vertex 1.91342 4.6194 1
      vertex 0 5 5
      vertex 1.91342 4.6194 5
    endloop
  endfacet
  facet normal 0.195089 0.980786 0
    outer loop
      vertex 0 5 5
      vertex 1.91342 4.6194 1
      vertex 0 5 1
    endloop
  endfacet
  facet normal -0.831467 -0.555574 0
    outer loop
      vertex -3.53553 -3.53553 1
      vertex -4.6194 -1.91342 5
      vertex -4.6194 -1.91342 1
    endloop
  endfacet
  facet normal -0.831467 -0.555574 0
    outer loop
      vertex -4.6194 -1.91342 5
      vertex -3.53553 -3.53553 1
      vertex -3.53553 -3.53553 5
    endloop
  endfacet
  facet normal 0 0 1
    outer loop
      vertex 4.6194 1.91342 5
      vertex 4.6194 -1.91342 5
      vertex 5 0 5
    endloop
  endfacet
  facet normal 0 0 1
    outer loop
      vertex 3.53553 3.53553 5
      vertex 4.6194 -1.91342 5
      vertex 4.6194 1.91342 5
    endloop
  endfacet
  facet normal 0 0 1
    outer loop
      vertex 3.53553 3.53553 5
      vertex 3.53553 -3.53553 5
      vertex 4.6194 -1.91342 5
    endloop
  endfacet
  facet normal 0 0 1
    outer loop
      vertex 1.91342 4.6194 5
      vertex 3.53553 -3.53553 5
      vertex 3.53553 3.53553 5
    endloop
  endfacet
  facet normal 0 0 1
    outer loop
      vertex 1.91342 4.6194 5
      vertex 1.91342 -4.6194 5
      vertex 3.53553 -3.53553 5
    endloop
  endfacet
  facet normal 0 0 1
    outer loop
      vertex 0 5 5
      vertex 1.91342 -4.6194 5
      vertex 1.91342 4.6194 5
    endloop
  endfacet
  facet normal 0 0 1
    outer loop
      vertex 0 5 5
      vertex 0 -5 5
      vertex 1.91342 -4.6194 5
    endloop
  endfacet
  facet normal -0 0 1
    outer loop
      vertex -1.91342 4.6194 5
      vertex 0 -5 5
      vertex 0 5 5
    endloop
  endfacet
  facet normal 0 0 1
    outer loop
      vertex -1.91342 4.6194 5
      vertex -1.91342 -4.6194 5
      vertex 0 -5 5
    endloop
  endfacet
  facet normal -0 0 1
    outer loop
      vertex -3.53553 3.53553 5
      vertex -1.91342 -4.6194 5
      vertex -1.91342 4.6194 5
    endloop
  endfacet
  facet normal 0 0 1
    outer loop
      vertex -3.53553 3.53553 5
      vertex -3.53553 -3.53553 5
      vertex -1.91342 -4.6194 5
    endloop
  endfacet
  facet normal -0 0 1
    outer loop
      vertex -4.6194 1.91342 5
      vertex -3.53553 -3.53553 5
      vertex -3.53553 3.53553 5
    endloop
  endfacet
  facet normal 0 0 1
    outer loop
      vertex -4.6194 1.91342 5
      vertex -4.6194 -1.91342 5
      vertex -3.53553 -3.53553 5
    endloop
  endfacet
  facet normal 0 -0 1
    outer loop
      vertex -4.6194 -1.91342 5
      vertex -4.6194 1.91342 5
      vertex -5 0 5
    endloop
  endfacet
  facet normal 0.555574 0.831467 -0
    outer loop
      vertex 3.53553 3.53553 1
      vertex 1.91342 4.6194 5
      vertex 3.53553 3.53553 5
    endloop
  endfacet
  facet normal 0.555574 0.831467 0
    outer loop
      vertex 1.91342 4.6194 5
      vertex 3.53553 3.53553 1
      vertex 1.91342 4.6194 1
    endloop
  endfacet
  facet normal -0.980786 -0.195089 0
    outer loop
      vertex -4.6194 -1.91342 1
      vertex -5 0 5
      vertex -5 0 1
    endloop
  endfacet
  facet normal -0.980786 -0.195089 0
    outer loop
      vertex -5 0 5
      vertex -4.6194 -1.91342 1
      vertex -4.6194 -1.91342 5
    endloop
  endfacet
  facet normal -0.555574 -0.831467 0
    outer loop
      vertex -3.53553 -3.53553 1
      vertex -1.91342 -4.6194 5
      vertex -3.53553 -3.53553 5
    endloop
  endfacet
  facet normal -0.555574 -0.831467 -0
    outer loop
      vertex -1.91342 -4.6194 5
      vertex -3.53553 -3.53553 1
      vertex -1.91342 -4.6194 1
    endloop
  endfacet
endsolid OpenSCAD_Model
