solid OpenSCAD_Model
  facet normal 1 0 0
    outer loop
      vertex 17 20 28
      vertex 17 19.5 26.1
      vertex 17 20 25
    endloop
  endfacet
  facet normal 1 -0 0
    outer loop
      vertex 17 16 28
      vertex 17 19.5 26.1
      vertex 17 20 28
    endloop
  endfacet
  facet normal 1 0 0
    outer loop
      vertex 17 19.5 26.1
      vertex 17 16 28
      vertex 17 16 26.1
    endloop
  endfacet
  facet normal 1 0 0
    outer loop
      vertex 17 20 25
      vertex 17 19.5 26.1
      vertex 17 19.5 25
    endloop
  endfacet
  facet normal -0 0 1
    outer loop
      vertex 13 20 28
      vertex 17 16 28
      vertex 17 20 28
    endloop
  endfacet
  facet normal 0 0 1
    outer loop
      vertex 17 16 28
      vertex 13 20 28
      vertex 13 16 28
    endloop
  endfacet
  facet normal 0 0 -1
    outer loop
      vertex 13 19.5 25
      vertex 17 20 25
      vertex 17 19.5 25
    endloop
  endfacet
  facet normal -0 0 -1
    outer loop
      vertex 17 20 25
      vertex 13 19.5 25
      vertex 13 20 25
    endloop
  endfacet
  facet normal -1 0 0
    outer loop
      vertex 13 19.5 26.1
      vertex 13 20 25
      vertex 13 19.5 25
    endloop
  endfacet
  facet normal -1 0 0
    outer loop
      vertex 13 20 25
      vertex 13 19.5 26.1
      vertex 13 20 28
    endloop
  endfacet
  facet normal -1 0 0
    outer loop
      vertex 13 16 28
      vertex 13 19.5 26.1
      vertex 13 16 26.1
    endloop
  endfacet
  facet normal -1 0 0
    outer loop
      vertex 13 19.5 26.1
      vertex 13 16 28
      vertex 13 20 28
    endloop
  endfacet
  facet normal 0 1 -0
    outer loop
      vertex 17 20 25
      vertex 13 20 28
      vertex 17 20 28
    endloop
  endfacet
  facet normal 0 1 0
    outer loop
      vertex 13 20 28
      vertex 17 20 25
      vertex 13 20 25
    endloop
  endfacet
  facet normal 0 -1 0
    outer loop
      vertex 13 16 26.1
      vertex 17 16 28
      vertex 13 16 28
    endloop
  endfacet
  facet normal 0 -1 -0
    outer loop
      vertex 17 16 28
      vertex 13 16 26.1
      vertex 17 16 26.1
    endloop
  endfacet
  facet normal 1 0 0
    outer loop
      vertex 17 -16 28
      vertex 17 -19.5 26.1
      vertex 17 -16 26.1
    endloop
  endfacet
  facet normal 1 -0 0
    outer loop
      vertex 17 -20 28
      vertex 17 -19.5 26.1
      vertex 17 -16 28
    endloop
  endfacet
  facet normal 1 0 0
    outer loop
      vertex 17 -20 25
      vertex 17 -19.5 26.1
      vertex 17 -20 28
    endloop
  endfacet
  facet normal 1 0 0
    outer loop
      vertex 17 -19.5 26.1
      vertex 17 -20 25
      vertex 17 -19.5 25
    endloop
  endfacet
  facet normal -0 0 1
    outer loop
      vertex 13 -16 28
      vertex 17 -20 28
      vertex 17 -16 28
    endloop
  endfacet
  facet normal 0 0 1
    outer loop
      vertex 17 -20 28
      vertex 13 -16 28
      vertex 13 -20 28
    endloop
  endfacet
  facet normal 0 0 -1
    outer loop
      vertex 13 -20 25
      vertex 17 -19.5 25
      vertex 17 -20 25
    endloop
  endfacet
  facet normal -0 0 -1
    outer loop
      vertex 17 -19.5 25
      vertex 13 -20 25
      vertex 13 -19.5 25
    endloop
  endfacet
  facet normal -1 0 0
    outer loop
      vertex 13 -19.5 25
      vertex 13 -20 25
      vertex 13 -19.5 26.1
    endloop
  endfacet
  facet normal -1 0 0
    outer loop
      vertex 13 -19.5 26.1
      vertex 13 -16 28
      vertex 13 -16 26.1
    endloop
  endfacet
  facet normal -1 0 0
    outer loop
      vertex 13 -19.5 26.1
      vertex 13 -20 28
      vertex 13 -16 28
    endloop
  endfacet
  facet normal -1 0 0
    outer loop
      vertex 13 -20 28
      vertex 13 -19.5 26.1
      vertex 13 -20 25
    endloop
  endfacet
  facet normal 0 1 -0
    outer loop
      vertex 17 -16 26.1
      vertex 13 -16 28
      vertex 17 -16 28
    endloop
  endfacet
  facet normal 0 1 0
    outer loop
      vertex 13 -16 28
      vertex 17 -16 26.1
      vertex 13 -16 26.1
    endloop
  endfacet
  facet normal 0 -1 0
    outer loop
      vertex 13 -20 25
      vertex 17 -20 28
      vertex 13 -20 28
    endloop
  endfacet
  facet normal 0 -1 -0
    outer loop
      vertex 17 -20 28
      vertex 13 -20 25
      vertex 17 -20 25
    endloop
  endfacet
  facet normal 1 0 0
    outer loop
      vertex 23 20 28
      vertex 23 19.5 26.1
      vertex 23 20 25
    endloop
  endfacet
  facet normal 1 -0 0
    outer loop
      vertex 23 16 28
      vertex 23 19.5 26.1
      vertex 23 20 28
    endloop
  endfacet
  facet normal 1 0 0
    outer loop
      vertex 23 19.5 26.1
      vertex 23 16 28
      vertex 23 16 26.1
    endloop
  endfacet
  facet normal 1 0 0
    outer loop
      vertex 23 20 25
      vertex 23 19.5 26.1
      vertex 23 19.5 25
    endloop
  endfacet
  facet normal -0 0 1
    outer loop
      vertex 19 20 28
      vertex 23 16 28
      vertex 23 20 28
    endloop
  endfacet
  facet normal 0 0 1
    outer loop
      vertex 23 16 28
      vertex 19 20 28
      vertex 19 16 28
    endloop
  endfacet
  facet normal 0 0 -1
    outer loop
      vertex 19 19.5 25
      vertex 23 20 25
      vertex 23 19.5 25
    endloop
  endfacet
  facet normal -0 0 -1
    outer loop
      vertex 23 20 25
      vertex 19 19.5 25
      vertex 19 20 25
    endloop
  endfacet
  facet normal -1 0 0
    outer loop
      vertex 19 19.5 26.1
      vertex 19 20 25
      vertex 19 19.5 25
    endloop
  endfacet
  facet normal -1 0 0
    outer loop
      vertex 19 20 25
      vertex 19 19.5 26.1
      vertex 19 20 28
    endloop
  endfacet
  facet normal -1 0 0
    outer loop
      vertex 19 16 28
      vertex 19 19.5 26.1
      vertex 19 16 26.1
    endloop
  endfacet
  facet normal -1 0 0
    outer loop
      vertex 19 19.5 26.1
      vertex 19 16 28
      vertex 19 20 28
    endloop
  endfacet
  facet normal 0 1 -0
    outer loop
      vertex 23 20 25
      vertex 19 20 28
      vertex 23 20 28
    endloop
  endfacet
  facet normal 0 1 0
    outer loop
      vertex 19 20 28
      vertex 23 20 25
      vertex 19 20 25
    endloop
  endfacet
  facet normal 0 -1 0
    outer loop
      vertex 19 16 26.1
      vertex 23 16 28
      vertex 19 16 28
    endloop
  endfacet
  facet normal 0 -1 -0
    outer loop
      vertex 23 16 28
      vertex 19 16 26.1
      vertex 23 16 26.1
    endloop
  endfacet
  facet normal 1 0 0
    outer loop
      vertex 23 -16 28
      vertex 23 -19.5 26.1
      vertex 23 -16 26.1
    endloop
  endfacet
  facet normal 1 -0 0
    outer loop
      vertex 23 -20 28
      vertex 23 -19.5 26.1
      vertex 23 -16 28
    endloop
  endfacet
  facet normal 1 0 0
    outer loop
      vertex 23 -20 25
      vertex 23 -19.5 26.1
      vertex 23 -20 28
    endloop
  endfacet
  facet normal 1 0 0
    outer loop
      vertex 23 -19.5 26.1
      vertex 23 -20 25
      vertex 23 -19.5 25
    endloop
  endfacet
  facet normal -0 0 1
    outer loop
      vertex 19 -16 28
      vertex 23 -20 28
      vertex 23 -16 28
    endloop
  endfacet
  facet normal 0 0 1
    outer loop
      vertex 23 -20 28
      vertex 19 -16 28
      vertex 19 -20 28
    endloop
  endfacet
  facet normal 0 0 -1
    outer loop
      vertex 19 -20 25
      vertex 23 -19.5 25
      vertex 23 -20 25
    endloop
  endfacet
  facet normal -0 0 -1
    outer loop
      vertex 23 -19.5 25
      vertex 19 -20 25
      vertex 19 -19.5 25
    endloop
  endfacet
  facet normal -1 0 0
    outer loop
      vertex 19 -19.5 25
      vertex 19 -20 25
      vertex 19 -19.5 26.1
    endloop
  endfacet
  facet normal -1 0 0
    outer loop
      vertex 19 -19.5 26.1
      vertex 19 -16 28
      vertex 19 -16 26.1
    endloop
  endfacet
  facet normal -1 0 0
    outer loop
      vertex 19 -19.5 26.1
      vertex 19 -20 28
      vertex 19 -16 28
    endloop
  endfacet
  facet normal -1 0 0
    outer loop
      vertex 19 -20 28
      vertex 19 -19.5 26.1
      vertex 19 -20 25
    endloop
  endfacet
  facet normal 0 1 -0
    outer loop
      vertex 23 -16 26.1
      vertex 19 -16 28
      vertex 23 -16 28
    endloop
  endfacet
  facet normal 0 1 0
    outer loop
      vertex 19 -16 28
      vertex 23 -16 26.1
      vertex 19 -16 26.1
    endloop
  endfacet
  facet normal 0 -1 0
    outer loop
      vertex 19 -20 25
      vertex 23 -20 28
      vertex 19 -20 28
    endloop
  endfacet
  facet normal 0 -1 -0
    outer loop
      vertex 23 -20 28
      vertex 19 -20 25
      vertex 23 -20 25
    endloop
  endfacet
  facet normal 1 0 0
    outer loop
      vertex 29 20 28
      vertex 29 19.5 26.1
      vertex 29 20 25
    endloop
  endfacet
  facet normal 1 -0 0
    outer loop
      vertex 29 16 28
      vertex 29 19.5 26.1
      vertex 29 20 28
    endloop
  endfacet
  facet normal 1 0 0
    outer loop
      vertex 29 19.5 26.1
      vertex 29 16 28
      vertex 29 16 26.1
    endloop
  endfacet
  facet normal 1 0 0
    outer loop
      vertex 29 20 25
      vertex 29 19.5 26.1
      vertex 29 19.5 25
    endloop
  endfacet
  facet normal -0 0 1
    outer loop
      vertex 25 20 28
      vertex 29 16 28
      vertex 29 20 28
    endloop
  endfacet
  facet normal 0 0 1
    outer loop
      vertex 29 16 28
      vertex 25 20 28
      vertex 25 16 28
    endloop
  endfacet
  facet normal 0 0 -1
    outer loop
      vertex 25 19.5 25
      vertex 29 20 25
      vertex 29 19.5 25
    endloop
  endfacet
  facet normal -0 0 -1
    outer loop
      vertex 29 20 25
      vertex 25 19.5 25
      vertex 25 20 25
    endloop
  endfacet
  facet normal -1 0 0
    outer loop
      vertex 25 19.5 26.1
      vertex 25 20 25
      vertex 25 19.5 25
    endloop
  endfacet
  facet normal -1 0 0
    outer loop
      vertex 25 20 25
      vertex 25 19.5 26.1
      vertex 25 20 28
    endloop
  endfacet
  facet normal -1 0 0
    outer loop
      vertex 25 16 28
      vertex 25 19.5 26.1
      vertex 25 16 26.1
    endloop
  endfacet
  facet normal -1 0 0
    outer loop
      vertex 25 19.5 26.1
      vertex 25 16 28
      vertex 25 20 28
    endloop
  endfacet
  facet normal 0 1 -0
    outer loop
      vertex 29 20 25
      vertex 25 20 28
      vertex 29 20 28
    endloop
  endfacet
  facet normal 0 1 0
    outer loop
      vertex 25 20 28
      vertex 29 20 25
      vertex 25 20 25
    endloop
  endfacet
  facet normal 0 -1 0
    outer loop
      vertex 25 16 26.1
      vertex 29 16 28
      vertex 25 16 28
    endloop
  endfacet
  facet normal 0 -1 -0
    outer loop
      vertex 29 16 28
      vertex 25 16 26.1
      vertex 29 16 26.1
    endloop
  endfacet
  facet normal 1 0 0
    outer loop
      vertex 29 -16 28
      vertex 29 -19.5 26.1
      vertex 29 -16 26.1
    endloop
  endfacet
  facet normal 1 -0 0
    outer loop
      vertex 29 -20 28
      vertex 29 -19.5 26.1
      vertex 29 -16 28
    endloop
  endfacet
  facet normal 1 0 0
    outer loop
      vertex 29 -20 25
      vertex 29 -19.5 26.1
      vertex 29 -20 28
    endloop
  endfacet
  facet normal 1 0 0
    outer loop
      vertex 29 -19.5 26.1
      vertex 29 -20 25
      vertex 29 -19.5 25
    endloop
  endfacet
  facet normal -0 0 1
    outer loop
      vertex 25 -16 28
      vertex 29 -20 28
      vertex 29 -16 28
    endloop
  endfacet
  facet normal 0 0 1
    outer loop
      vertex 29 -20 28
      vertex 25 -16 28
      vertex 25 -20 28
    endloop
  endfacet
  facet normal 0 0 -1
    outer loop
      vertex 25 -20 25
      vertex 29 -19.5 25
      vertex 29 -20 25
    endloop
  endfacet
  facet normal -0 0 -1
    outer loop
      vertex 29 -19.5 25
      vertex 25 -20 25
      vertex 25 -19.5 25
    endloop
  endfacet
  facet normal -1 0 0
    outer loop
      vertex 25 -19.5 25
      vertex 25 -20 25
      vertex 25 -19.5 26.1
    endloop
  endfacet
  facet normal -1 0 0
    outer loop
      vertex 25 -19.5 26.1
      vertex 25 -16 28
      vertex 25 -16 26.1
    endloop
  endfacet
  facet normal -1 0 0
    outer loop
      vertex 25 -19.5 26.1
      vertex 25 -20 28
      vertex 25 -16 28
    endloop
  endfacet
  facet normal -1 0 0
    outer loop
      vertex 25 -20 28
      vertex 25 -19.5 26.1
      vertex 25 -20 25
    endloop
  endfacet
  facet normal 0 1 -0
    outer loop
      vertex 29 -16 26.1
      vertex 25 -16 28
      vertex 29 -16 28
    endloop
  endfacet
  facet normal 0 1 0
    outer loop
      vertex 25 -16 28
      vertex 29 -16 26.1
      vertex 25 -16 26.1
    endloop
  endfacet
  facet normal 0 -1 0
    outer loop
      vertex 25 -20 25
      vertex 29 -20 28
      vertex 25 -20 28
    endloop
  endfacet
  facet normal 0 -1 -0
    outer loop
      vertex 29 -20 28
      vertex 25 -20 25
      vertex 29 -20 25
    endloop
  endfacet
  facet normal 1 0 0
    outer loop
      vertex 35 20 28
      vertex 35 19.5 26.1
      vertex 35 20 25
    endloop
  endfacet
  facet normal 1 -0 0
    outer loop
      vertex 35 16 28
      vertex 35 19.5 26.1
      vertex 35 20 28
    endloop
  endfacet
  facet normal 1 0 0
    outer loop
      vertex 35 19.5 26.1
      vertex 35 16 28
      vertex 35 16 26.1
    endloop
  endfacet
  facet normal 1 0 0
    outer loop
      vertex 35 20 25
      vertex 35 19.5 26.1
      vertex 35 19.5 25
    endloop
  endfacet
  facet normal -0 0 1
    outer loop
      vertex 31 20 28
      vertex 35 16 28
      vertex 35 20 28
    endloop
  endfacet
  facet normal 0 0 1
    outer loop
      vertex 35 16 28
      vertex 31 20 28
      vertex 31 16 28
    endloop
  endfacet
  facet normal 0 0 -1
    outer loop
      vertex 31 19.5 25
      vertex 35 20 25
      vertex 35 19.5 25
    endloop
  endfacet
  facet normal -0 0 -1
    outer loop
      vertex 35 20 25
      vertex 31 19.5 25
      vertex 31 20 25
    endloop
  endfacet
  facet normal -1 0 0
    outer loop
      vertex 31 19.5 26.1
      vertex 31 20 25
      vertex 31 19.5 25
    endloop
  endfacet
  facet normal -1 0 0
    outer loop
      vertex 31 20 25
      vertex 31 19.5 26.1
      vertex 31 20 28
    endloop
  endfacet
  facet normal -1 0 0
    outer loop
      vertex 31 16 28
      vertex 31 19.5 26.1
      vertex 31 16 26.1
    endloop
  endfacet
  facet normal -1 0 0
    outer loop
      vertex 31 19.5 26.1
      vertex 31 16 28
      vertex 31 20 28
    endloop
  endfacet
  facet normal 0 1 -0
    outer loop
      vertex 35 20 25
      vertex 31 20 28
      vertex 35 20 28
    endloop
  endfacet
  facet normal 0 1 0
    outer loop
      vertex 31 20 28
      vertex 35 20 25
      vertex 31 20 25
    endloop
  endfacet
  facet normal 0 -1 0
    outer loop
      vertex 31 16 26.1
      vertex 35 16 28
      vertex 31 16 28
    endloop
  endfacet
  facet normal 0 -1 -0
    outer loop
      vertex 35 16 28
      vertex 31 16 26.1
      vertex 35 16 26.1
    endloop
  endfacet
  facet normal 1 0 0
    outer loop
      vertex 35 -16 28
      vertex 35 -19.5 26.1
      vertex 35 -16 26.1
    endloop
  endfacet
  facet normal 1 -0 0
    outer loop
      vertex 35 -20 28
      vertex 35 -19.5 26.1
      vertex 35 -16 28
    endloop
  endfacet
  facet normal 1 0 0
    outer loop
      vertex 35 -20 25
      vertex 35 -19.5 26.1
      vertex 35 -20 28
    endloop
  endfacet
  facet normal 1 0 0
    outer loop
      vertex 35 -19.5 26.1
      vertex 35 -20 25
      vertex 35 -19.5 25
    endloop
  endfacet
  facet normal -0 0 1
    outer loop
      vertex 31 -16 28
      vertex 35 -20 28
      vertex 35 -16 28
    endloop
  endfacet
  facet normal 0 0 1
    outer loop
      vertex 35 -20 28
      vertex 31 -16 28
      vertex 31 -20 28
    endloop
  endfacet
  facet normal 0 0 -1
    outer loop
      vertex 31 -20 25
      vertex 35 -19.5 25
      vertex 35 -20 25
    endloop
  endfacet
  facet normal -0 0 -1
    outer loop
      vertex 35 -19.5 25
      vertex 31 -20 25
      vertex 31 -19.5 25
    endloop
  endfacet
  facet normal -1 0 0
    outer loop
      vertex 31 -19.5 25
      vertex 31 -20 25
      vertex 31 -19.5 26.1
    endloop
  endfacet
  facet normal -1 0 0
    outer loop
      vertex 31 -19.5 26.1
      vertex 31 -16 28
      vertex 31 -16 26.1
    endloop
  endfacet
  facet normal -1 0 0
    outer loop
      vertex 31 -19.5 26.1
      vertex 31 -20 28
      vertex 31 -16 28
    endloop
  endfacet
  facet normal -1 0 0
    outer loop
      vertex 31 -20 28
      vertex 31 -19.5 26.1
      vertex 31 -20 25
    endloop
  endfacet
  facet normal 0 1 -0
    outer loop
      vertex 35 -16 26.1
      vertex 31 -16 28
      vertex 35 -16 28
    endloop
  endfacet
  facet normal 0 1 0
    outer loop
      vertex 31 -16 28
      vertex 35 -16 26.1
      vertex 31 -16 26.1
    endloop
  endfacet
  facet normal 0 -1 0
    outer loop
      vertex 31 -20 25
      vertex 35 -20 28
      vertex 31 -20 28
    endloop
  endfacet
  facet normal 0 -1 -0
    outer loop
      vertex 35 -20 28
      vertex 31 -20 25
      vertex 35 -20 25
    endloop
  endfacet
  facet normal 1 0 0
    outer loop
      vertex 41 20 28
      vertex 41 19.5 26.1
      vertex 41 20 25
    endloop
  endfacet
  facet normal 1 -0 0
    outer loop
      vertex 41 16 28
      vertex 41 19.5 26.1
      vertex 41 20 28
    endloop
  endfacet
  facet normal 1 0 0
    outer loop
      vertex 41 19.5 26.1
      vertex 41 16 28
      vertex 41 16 26.1
    endloop
  endfacet
  facet normal 1 0 0
    outer loop
      vertex 41 20 25
      vertex 41 19.5 26.1
      vertex 41 19.5 25
    endloop
  endfacet
  facet normal -0 0 1
    outer loop
      vertex 37 20 28
      vertex 41 16 28
      vertex 41 20 28
    endloop
  endfacet
  facet normal 0 0 1
    outer loop
      vertex 41 16 28
      vertex 37 20 28
      vertex 37 16 28
    endloop
  endfacet
  facet normal 0 0 -1
    outer loop
      vertex 37 19.5 25
      vertex 41 20 25
      vertex 41 19.5 25
    endloop
  endfacet
  facet normal -0 0 -1
    outer loop
      vertex 41 20 25
      vertex 37 19.5 25
      vertex 37 20 25
    endloop
  endfacet
  facet normal -1 0 0
    outer loop
      vertex 37 19.5 26.1
      vertex 37 20 25
      vertex 37 19.5 25
    endloop
  endfacet
  facet normal -1 0 0
    outer loop
      vertex 37 20 25
      vertex 37 19.5 26.1
      vertex 37 20 28
    endloop
  endfacet
  facet normal -1 0 0
    outer loop
      vertex 37 16 28
      vertex 37 19.5 26.1
      vertex 37 16 26.1
    endloop
  endfacet
  facet normal -1 0 0
    outer loop
      vertex 37 19.5 26.1
      vertex 37 16 28
      vertex 37 20 28
    endloop
  endfacet
  facet normal 0 1 -0
    outer loop
      vertex 41 20 25
      vertex 37 20 28
      vertex 41 20 28
    endloop
  endfacet
  facet normal 0 1 0
    outer loop
      vertex 37 20 28
      vertex 41 20 25
      vertex 37 20 25
    endloop
  endfacet
  facet normal 0 -1 0
    outer loop
      vertex 37 16 26.1
      vertex 41 16 28
      vertex 37 16 28
    endloop
  endfacet
  facet normal 0 -1 -0
    outer loop
      vertex 41 16 28
      vertex 37 16 26.1
      vertex 41 16 26.1
    endloop
  endfacet
  facet normal 1 0 0
    outer loop
      vertex 41 -16 28
      vertex 41 -19.5 26.1
      vertex 41 -16 26.1
    endloop
  endfacet
  facet normal 1 -0 0
    outer loop
      vertex 41 -20 28
      vertex 41 -19.5 26.1
      vertex 41 -16 28
    endloop
  endfacet
  facet normal 1 0 0
    outer loop
      vertex 41 -20 25
      vertex 41 -19.5 26.1
      vertex 41 -20 28
    endloop
  endfacet
  facet normal 1 0 0
    outer loop
      vertex 41 -19.5 26.1
      vertex 41 -20 25
      vertex 41 -19.5 25
    endloop
  endfacet
  facet normal -0 0 1
    outer loop
      vertex 37 -16 28
      vertex 41 -20 28
      vertex 41 -16 28
    endloop
  endfacet
  facet normal 0 0 1
    outer loop
      vertex 41 -20 28
      vertex 37 -16 28
      vertex 37 -20 28
    endloop
  endfacet
  facet normal 0 0 -1
    outer loop
      vertex 37 -20 25
      vertex 41 -19.5 25
      vertex 41 -20 25
    endloop
  endfacet
  facet normal -0 0 -1
    outer loop
      vertex 41 -19.5 25
      vertex 37 -20 25
      vertex 37 -19.5 25
    endloop
  endfacet
  facet normal -1 0 0
    outer loop
      vertex 37 -19.5 25
      vertex 37 -20 25
      vertex 37 -19.5 26.1
    endloop
  endfacet
  facet normal -1 0 0
    outer loop
      vertex 37 -19.5 26.1
      vertex 37 -16 28
      vertex 37 -16 26.1
    endloop
  endfacet
  facet normal -1 0 0
    outer loop
      vertex 37 -19.5 26.1
      vertex 37 -20 28
      vertex 37 -16 28
    endloop
  endfacet
  facet normal -1 0 0
    outer loop
      vertex 37 -20 28
      vertex 37 -19.5 26.1
      vertex 37 -20 25
    endloop
  endfacet
  facet normal 0 1 -0
    outer loop
      vertex 41 -16 26.1
      vertex 37 -16 28
      vertex 41 -16 28
    endloop
  endfacet
  facet normal 0 1 0
    outer loop
      vertex 37 -16 28
      vertex 41 -16 26.1
      vertex 37 -16 26.1
    endloop
  endfacet
  facet normal 0 -1 0
    outer loop
      vertex 37 -20 25
      vertex 41 -20 28
      vertex 37 -20 28
    endloop
  endfacet
  facet normal 0 -1 -0
    outer loop
      vertex 41 -20 28
      vertex 37 -20 25
      vertex 41 -20 25
    endloop
  endfacet
  facet normal 1 0 0
    outer loop
      vertex 47 20 28
      vertex 47 19.5 26.1
      vertex 47 20 25
    endloop
  endfacet
  facet normal 1 -0 0
    outer loop
      vertex 47 16 28
      vertex 47 19.5 26.1
      vertex 47 20 28
    endloop
  endfacet
  facet normal 1 0 0
    outer loop
      vertex 47 19.5 26.1
      vertex 47 16 28
      vertex 47 16 26.1
    endloop
  endfacet
  facet normal 1 0 0
    outer loop
      vertex 47 20 25
      vertex 47 19.5 26.1
      vertex 47 19.5 25
    endloop
  endfacet
  facet normal -0 0 1
    outer loop
      vertex 43 20 28
      vertex 47 16 28
      vertex 47 20 28
    endloop
  endfacet
  facet normal 0 0 1
    outer loop
      vertex 47 16 28
      vertex 43 20 28
      vertex 43 16 28
    endloop
  endfacet
  facet normal 0 0 -1
    outer loop
      vertex 43 19.5 25
      vertex 47 20 25
      vertex 47 19.5 25
    endloop
  endfacet
  facet normal -0 0 -1
    outer loop
      vertex 47 20 25
      vertex 43 19.5 25
      vertex 43 20 25
    endloop
  endfacet
  facet normal -1 0 0
    outer loop
      vertex 43 19.5 26.1
      vertex 43 20 25
      vertex 43 19.5 25
    endloop
  endfacet
  facet normal -1 0 0
    outer loop
      vertex 43 20 25
      vertex 43 19.5 26.1
      vertex 43 20 28
    endloop
  endfacet
  facet normal -1 0 0
    outer loop
      vertex 43 16 28
      vertex 43 19.5 26.1
      vertex 43 16 26.1
    endloop
  endfacet
  facet normal -1 0 0
    outer loop
      vertex 43 19.5 26.1
      vertex 43 16 28
      vertex 43 20 28
    endloop
  endfacet
  facet normal 0 1 -0
    outer loop
      vertex 47 20 25
      vertex 43 20 28
      vertex 47 20 28
    endloop
  endfacet
  facet normal 0 1 0
    outer loop
      vertex 43 20 28
      vertex 47 20 25
      vertex 43 20 25
    endloop
  endfacet
  facet normal 0 -1 0
    outer loop
      vertex 43 16 26.1
      vertex 47 16 28
      vertex 43 16 28
    endloop
  endfacet
  facet normal 0 -1 -0
    outer loop
      vertex 47 16 28
      vertex 43 16 26.1
      vertex 47 16 26.1
    endloop
  endfacet
  facet normal 1 0 0
    outer loop
      vertex 47 -16 28
      vertex 47 -19.5 26.1
      vertex 47 -16 26.1
    endloop
  endfacet
  facet normal 1 -0 0
    outer loop
      vertex 47 -20 28
      vertex 47 -19.5 26.1
      vertex 47 -16 28
    endloop
  endfacet
  facet normal 1 0 0
    outer loop
      vertex 47 -20 25
      vertex 47 -19.5 26.1
      vertex 47 -20 28
    endloop
  endfacet
  facet normal 1 0 0
    outer loop
      vertex 47 -19.5 26.1
      vertex 47 -20 25
      vertex 47 -19.5 25
    endloop
  endfacet
  facet normal -0 0 1
    outer loop
      vertex 43 -16 28
      vertex 47 -20 28
      vertex 47 -16 28
    endloop
  endfacet
  facet normal 0 0 1
    outer loop
      vertex 47 -20 28
      vertex 43 -16 28
      vertex 43 -20 28
    endloop
  endfacet
  facet normal 0 0 -1
    outer loop
      vertex 43 -20 25
      vertex 47 -19.5 25
      vertex 47 -20 25
    endloop
  endfacet
  facet normal -0 0 -1
    outer loop
      vertex 47 -19.5 25
      vertex 43 -20 25
      vertex 43 -19.5 25
    endloop
  endfacet
  facet normal -1 0 0
    outer loop
      vertex 43 -19.5 25
      vertex 43 -20 25
      vertex 43 -19.5 26.1
    endloop
  endfacet
  facet normal -1 0 0
    outer loop
      vertex 43 -19.5 26.1
      vertex 43 -16 28
      vertex 43 -16 26.1
    endloop
  endfacet
  facet normal -1 0 0
    outer loop
      vertex 43 -19.5 26.1
      vertex 43 -20 28
      vertex 43 -16 28
    endloop
  endfacet
  facet normal -1 0 0
    outer loop
      vertex 43 -20 28
      vertex 43 -19.5 26.1
      vertex 43 -20 25
    endloop
  endfacet
  facet normal 0 1 -0
    outer loop
      vertex 47 -16 26.1
      vertex 43 -16 28
      vertex 47 -16 28
    endloop
  endfacet
  facet normal 0 1 0
    outer loop
      vertex 43 -16 28
      vertex 47 -16 26.1
      vertex 43 -16 26.1
    endloop
  endfacet
  facet normal 0 -1 0
    outer loop
      vertex 43 -20 25
      vertex 47 -20 28
      vertex 43 -20 28
    endloop
  endfacet
  facet normal 0 -1 -0
    outer loop
      vertex 47 -20 28
      vertex 43 -20 25
      vertex 47 -20 25
    endloop
  endfacet
  facet normal -0.56808 0.822974 0
    outer loop
      vertex 16.5816 -11.2599 19
      vertex 15.006 -12.3475 22
      vertex 16.5816 -11.2599 22
    endloop
  endfacet
  facet normal -0.56808 0.822974 0
    outer loop
      vertex 15.006 -12.3475 22
      vertex 16.5816 -11.2599 19
      vertex 15.006 -12.3475 19
    endloop
  endfacet
  facet normal 0.748518 0.663115 0
    outer loop
      vertex 21.5418 -13.1411 22
      vertex 20.2723 -11.7081 19
      vertex 20.2723 -11.7081 22
    endloop
  endfacet
  facet normal 0.748518 0.663115 0
    outer loop
      vertex 20.2723 -11.7081 19
      vertex 21.5418 -13.1411 22
      vertex 21.5418 -13.1411 19
    endloop
  endfacet
  facet normal 0.970939 0.239327 0
    outer loop
      vertex 22 -15 22
      vertex 21.5418 -13.1411 19
      vertex 21.5418 -13.1411 22
    endloop
  endfacet
  facet normal 0.970939 0.239327 0
    outer loop
      vertex 21.5418 -13.1411 19
      vertex 22 -15 22
      vertex 22 -15 19
    endloop
  endfacet
  facet normal -1 0 0
    outer loop
      vertex 14.1162 -15.9573 19
      vertex 14.1162 -14.0427 22
      vertex 14.1162 -14.0427 19
    endloop
  endfacet
  facet normal -1 -0 0
    outer loop
      vertex 14.1162 -14.0427 22
      vertex 14.1162 -15.9573 19
      vertex 14.1162 -15.9573 22
    endloop
  endfacet
  facet normal -0.885437 0.46476 0
    outer loop
      vertex 14.1162 -14.0427 19
      vertex 15.006 -12.3475 22
      vertex 15.006 -12.3475 19
    endloop
  endfacet
  facet normal -0.885437 0.46476 0
    outer loop
      vertex 15.006 -12.3475 22
      vertex 14.1162 -14.0427 19
      vertex 14.1162 -14.0427 22
    endloop
  endfacet
  facet normal 0.35459 0.935022 -0
    outer loop
      vertex 20.2723 -11.7081 19
      vertex 18.4821 -11.0292 22
      vertex 20.2723 -11.7081 22
    endloop
  endfacet
  facet normal 0.35459 0.935022 0
    outer loop
      vertex 18.4821 -11.0292 22
      vertex 20.2723 -11.7081 19
      vertex 18.4821 -11.0292 19
    endloop
  endfacet
  facet normal 0.970939 -0.239327 0
    outer loop
      vertex 21.5418 -16.8589 22
      vertex 22 -15 19
      vertex 22 -15 22
    endloop
  endfacet
  facet normal 0.970939 -0.239327 0
    outer loop
      vertex 22 -15 19
      vertex 21.5418 -16.8589 22
      vertex 21.5418 -16.8589 19
    endloop
  endfacet
  facet normal 0 0 -1
    outer loop
      vertex 45.006 -12.3475 22
      vertex 20.2723 -11.7081 22
      vertex 45.006 12.3475 22
    endloop
  endfacet
  facet normal 0 0 -1
    outer loop
      vertex 45.006 12.3475 22
      vertex 21.5418 13.1411 22
      vertex 22 15 22
    endloop
  endfacet
  facet normal 0 0 -1
    outer loop
      vertex 20.2723 11.7081 22
      vertex 45.006 12.3475 22
      vertex 20.2723 -11.7081 22
    endloop
  endfacet
  facet normal -0 0 -1
    outer loop
      vertex 45.006 12.3475 22
      vertex 20.2723 11.7081 22
      vertex 21.5418 13.1411 22
    endloop
  endfacet
  facet normal 0 0 -1
    outer loop
      vertex 18.4821 -11.0292 22
      vertex 20.2723 11.7081 22
      vertex 20.2723 -11.7081 22
    endloop
  endfacet
  facet normal 0 0 -1
    outer loop
      vertex 18.4821 -11.0292 22
      vertex 18.4821 11.0292 22
      vertex 20.2723 11.7081 22
    endloop
  endfacet
  facet normal 0 0 -1
    outer loop
      vertex 16.5816 -11.2599 22
      vertex 18.4821 11.0292 22
      vertex 18.4821 -11.0292 22
    endloop
  endfacet
  facet normal 0 0 -1
    outer loop
      vertex 16.5816 -11.2599 22
      vertex 16.5816 11.2599 22
      vertex 18.4821 11.0292 22
    endloop
  endfacet
  facet normal 0 0 -1
    outer loop
      vertex 15.006 -12.3475 22
      vertex 16.5816 11.2599 22
      vertex 16.5816 -11.2599 22
    endloop
  endfacet
  facet normal 0 0 -1
    outer loop
      vertex 15.006 -12.3475 22
      vertex 15.006 12.3475 22
      vertex 16.5816 11.2599 22
    endloop
  endfacet
  facet normal 0 0 -1
    outer loop
      vertex 6 -19.5 22
      vertex 15.006 -12.3475 22
      vertex 14.1162 -14.0427 22
    endloop
  endfacet
  facet normal -0 0 -1
    outer loop
      vertex 15.006 -12.3475 22
      vertex 6 -19.5 22
      vertex 15.006 12.3475 22
    endloop
  endfacet
  facet normal 0 0 -1
    outer loop
      vertex 51.5418 13.1411 22
      vertex 60 19.5 22
      vertex 51.5418 -13.1411 22
    endloop
  endfacet
  facet normal 0 0 -1
    outer loop
      vertex 60 19.5 22
      vertex 51.5418 13.1411 22
      vertex 52 15 22
    endloop
  endfacet
  facet normal 0 0 -1
    outer loop
      vertex 50.2723 -11.7081 22
      vertex 51.5418 13.1411 22
      vertex 51.5418 -13.1411 22
    endloop
  endfacet
  facet normal 0 0 -1
    outer loop
      vertex 50.2723 -11.7081 22
      vertex 50.2723 11.7081 22
      vertex 51.5418 13.1411 22
    endloop
  endfacet
  facet normal 0 0 -1
    outer loop
      vertex 48.4821 -11.0292 22
      vertex 50.2723 11.7081 22
      vertex 50.2723 -11.7081 22
    endloop
  endfacet
  facet normal 0 0 -1
    outer loop
      vertex 48.4821 -11.0292 22
      vertex 48.4821 11.0292 22
      vertex 50.2723 11.7081 22
    endloop
  endfacet
  facet normal 0 0 -1
    outer loop
      vertex 46.5816 -11.2599 22
      vertex 48.4821 11.0292 22
      vertex 48.4821 -11.0292 22
    endloop
  endfacet
  facet normal 0 0 -1
    outer loop
      vertex 46.5816 -11.2599 22
      vertex 46.5816 11.2599 22
      vertex 48.4821 11.0292 22
    endloop
  endfacet
  facet normal 0 0 -1
    outer loop
      vertex 45.006 -12.3475 22
      vertex 46.5816 11.2599 22
      vertex 46.5816 -11.2599 22
    endloop
  endfacet
  facet normal 0 0 -1
    outer loop
      vertex 45.006 -12.3475 22
      vertex 45.006 12.3475 22
      vertex 46.5816 11.2599 22
    endloop
  endfacet
  facet normal 0 0 -1
    outer loop
      vertex 21.5418 -13.1411 22
      vertex 44.1162 -14.0427 22
      vertex 22 -15 22
    endloop
  endfacet
  facet normal 0 0 -1
    outer loop
      vertex 44.1162 -14.0427 22
      vertex 21.5418 -13.1411 22
      vertex 45.006 -12.3475 22
    endloop
  endfacet
  facet normal 0 0 -1
    outer loop
      vertex 51.5418 -13.1411 22
      vertex 60 -19.5 22
      vertex 52 -15 22
    endloop
  endfacet
  facet normal 0 0 -1
    outer loop
      vertex 60 -19.5 22
      vertex 51.5418 -16.8589 22
      vertex 52 -15 22
    endloop
  endfacet
  facet normal 0 0 -1
    outer loop
      vertex 60 -19.5 22
      vertex 50.2723 -18.2919 22
      vertex 51.5418 -16.8589 22
    endloop
  endfacet
  facet normal 0 0 -1
    outer loop
      vertex 60 -19.5 22
      vertex 48.4821 -18.9708 22
      vertex 50.2723 -18.2919 22
    endloop
  endfacet
  facet normal 0 0 -1
    outer loop
      vertex 22 -15 22
      vertex 44.1162 -14.0427 22
      vertex 44.1162 -15.9573 22
    endloop
  endfacet
  facet normal 0 0 -1
    outer loop
      vertex 20.2723 -11.7081 22
      vertex 45.006 -12.3475 22
      vertex 21.5418 -13.1411 22
    endloop
  endfacet
  facet normal 0 0 -1
    outer loop
      vertex 45.006 12.3475 22
      vertex 22 15 22
      vertex 44.1162 14.0427 22
    endloop
  endfacet
  facet normal 0 0 -1
    outer loop
      vertex 21.5418 -16.8589 22
      vertex 44.1162 -15.9573 22
      vertex 45.006 -17.6525 22
    endloop
  endfacet
  facet normal 0 0 -1
    outer loop
      vertex 20.2723 -18.2919 22
      vertex 45.006 -17.6525 22
      vertex 46.5816 -18.7401 22
    endloop
  endfacet
  facet normal -0 0 -1
    outer loop
      vertex 44.1162 -15.9573 22
      vertex 21.5418 -16.8589 22
      vertex 22 -15 22
    endloop
  endfacet
  facet normal 0 0 -1
    outer loop
      vertex 18.4821 -18.9708 22
      vertex 46.5816 -18.7401 22
      vertex 48.4821 -18.9708 22
    endloop
  endfacet
  facet normal -0 0 -1
    outer loop
      vertex 45.006 -17.6525 22
      vertex 20.2723 -18.2919 22
      vertex 21.5418 -16.8589 22
    endloop
  endfacet
  facet normal 0 0 -1
    outer loop
      vertex 18.4821 -18.9708 22
      vertex 48.4821 -18.9708 22
      vertex 60 -19.5 22
    endloop
  endfacet
  facet normal -0 0 -1
    outer loop
      vertex 46.5816 -18.7401 22
      vertex 18.4821 -18.9708 22
      vertex 20.2723 -18.2919 22
    endloop
  endfacet
  facet normal 0 0 -1
    outer loop
      vertex 6 -19.5 22
      vertex 14.1162 -14.0427 22
      vertex 14.1162 -15.9573 22
    endloop
  endfacet
  facet normal 0 0 -1
    outer loop
      vertex 6 19.5 22
      vertex 15.006 12.3475 22
      vertex 6 -19.5 22
    endloop
  endfacet
  facet normal 0 0 -1
    outer loop
      vertex 15.006 12.3475 22
      vertex 6 19.5 22
      vertex 14.1162 14.0427 22
    endloop
  endfacet
  facet normal -0 0 -1
    outer loop
      vertex 15.006 -17.6525 22
      vertex 6 -19.5 22
      vertex 14.1162 -15.9573 22
    endloop
  endfacet
  facet normal -0 0 -1
    outer loop
      vertex 16.5816 -18.7401 22
      vertex 6 -19.5 22
      vertex 15.006 -17.6525 22
    endloop
  endfacet
  facet normal -0 0 -1
    outer loop
      vertex 18.4821 -18.9708 22
      vertex 6 -19.5 22
      vertex 16.5816 -18.7401 22
    endloop
  endfacet
  facet normal 0 0 -1
    outer loop
      vertex 6 -19.5 22
      vertex 18.4821 -18.9708 22
      vertex 60 -19.5 22
    endloop
  endfacet
  facet normal 0 0 -1
    outer loop
      vertex 60 -19.5 22
      vertex 51.5418 -13.1411 22
      vertex 60 19.5 22
    endloop
  endfacet
  facet normal 0 0 -1
    outer loop
      vertex 51.5418 16.8589 22
      vertex 60 19.5 22
      vertex 52 15 22
    endloop
  endfacet
  facet normal 0 0 -1
    outer loop
      vertex 50.2723 18.2919 22
      vertex 60 19.5 22
      vertex 51.5418 16.8589 22
    endloop
  endfacet
  facet normal 0 0 -1
    outer loop
      vertex 48.4821 18.9708 22
      vertex 60 19.5 22
      vertex 50.2723 18.2919 22
    endloop
  endfacet
  facet normal 0 0 -1
    outer loop
      vertex 44.1162 14.0427 22
      vertex 22 15 22
      vertex 44.1162 15.9573 22
    endloop
  endfacet
  facet normal 0 0 -1
    outer loop
      vertex 21.5418 16.8589 22
      vertex 44.1162 15.9573 22
      vertex 22 15 22
    endloop
  endfacet
  facet normal 0 0 -1
    outer loop
      vertex 44.1162 15.9573 22
      vertex 21.5418 16.8589 22
      vertex 45.006 17.6525 22
    endloop
  endfacet
  facet normal 0 0 -1
    outer loop
      vertex 20.2723 18.2919 22
      vertex 45.006 17.6525 22
      vertex 21.5418 16.8589 22
    endloop
  endfacet
  facet normal 0 0 -1
    outer loop
      vertex 45.006 17.6525 22
      vertex 20.2723 18.2919 22
      vertex 46.5816 18.7401 22
    endloop
  endfacet
  facet normal 0 0 -1
    outer loop
      vertex 18.4821 18.9708 22
      vertex 46.5816 18.7401 22
      vertex 20.2723 18.2919 22
    endloop
  endfacet
  facet normal 0 0 -1
    outer loop
      vertex 46.5816 18.7401 22
      vertex 18.4821 18.9708 22
      vertex 48.4821 18.9708 22
    endloop
  endfacet
  facet normal 0 0 -1
    outer loop
      vertex 48.4821 18.9708 22
      vertex 18.4821 18.9708 22
      vertex 60 19.5 22
    endloop
  endfacet
  facet normal 0 0 -1
    outer loop
      vertex 18.4821 18.9708 22
      vertex 6 19.5 22
      vertex 60 19.5 22
    endloop
  endfacet
  facet normal 0 0 -1
    outer loop
      vertex 16.5816 18.7401 22
      vertex 6 19.5 22
      vertex 18.4821 18.9708 22
    endloop
  endfacet
  facet normal 0 0 -1
    outer loop
      vertex 15.006 17.6525 22
      vertex 6 19.5 22
      vertex 16.5816 18.7401 22
    endloop
  endfacet
  facet normal 0 0 -1
    outer loop
      vertex 14.1162 15.9573 22
      vertex 6 19.5 22
      vertex 15.006 17.6525 22
    endloop
  endfacet
  facet normal 0 0 -1
    outer loop
      vertex 14.1162 14.0427 22
      vertex 6 19.5 22
      vertex 14.1162 15.9573 22
    endloop
  endfacet
  facet normal -0.120505 -0.992713 0
    outer loop
      vertex 16.5816 -18.7401 19
      vertex 18.4821 -18.9708 22
      vertex 16.5816 -18.7401 22
    endloop
  endfacet
  facet normal -0.120505 -0.992713 -0
    outer loop
      vertex 18.4821 -18.9708 22
      vertex 16.5816 -18.7401 19
      vertex 18.4821 -18.9708 19
    endloop
  endfacet
  facet normal 0.748518 -0.663115 0
    outer loop
      vertex 20.2723 -18.2919 22
      vertex 21.5418 -16.8589 19
      vertex 21.5418 -16.8589 22
    endloop
  endfacet
  facet normal 0.748518 -0.663115 0
    outer loop
      vertex 21.5418 -16.8589 19
      vertex 20.2723 -18.2919 22
      vertex 20.2723 -18.2919 19
    endloop
  endfacet
  facet normal 0.35459 -0.935022 0
    outer loop
      vertex 18.4821 -18.9708 19
      vertex 20.2723 -18.2919 22
      vertex 18.4821 -18.9708 22
    endloop
  endfacet
  facet normal 0.35459 -0.935022 0
    outer loop
      vertex 20.2723 -18.2919 22
      vertex 18.4821 -18.9708 19
      vertex 20.2723 -18.2919 19
    endloop
  endfacet
  facet normal -0.120505 0.992713 0
    outer loop
      vertex 18.4821 -11.0292 19
      vertex 16.5816 -11.2599 22
      vertex 18.4821 -11.0292 22
    endloop
  endfacet
  facet normal -0.120505 0.992713 0
    outer loop
      vertex 16.5816 -11.2599 22
      vertex 18.4821 -11.0292 19
      vertex 16.5816 -11.2599 19
    endloop
  endfacet
  facet normal -0.56808 -0.822974 0
    outer loop
      vertex 15.006 -17.6525 19
      vertex 16.5816 -18.7401 22
      vertex 15.006 -17.6525 22
    endloop
  endfacet
  facet normal -0.56808 -0.822974 -0
    outer loop
      vertex 16.5816 -18.7401 22
      vertex 15.006 -17.6525 19
      vertex 16.5816 -18.7401 19
    endloop
  endfacet
  facet normal -0.885437 -0.46476 0
    outer loop
      vertex 15.006 -17.6525 19
      vertex 14.1162 -15.9573 22
      vertex 14.1162 -15.9573 19
    endloop
  endfacet
  facet normal -0.885437 -0.46476 0
    outer loop
      vertex 14.1162 -15.9573 22
      vertex 15.006 -17.6525 19
      vertex 15.006 -17.6525 22
    endloop
  endfacet
  facet normal 0 0 -1
    outer loop
      vertex 21.5418 -16.8589 19
      vertex 21.5418 -13.1411 19
      vertex 22 -15 19
    endloop
  endfacet
  facet normal 0 0 -1
    outer loop
      vertex 20.2723 -18.2919 19
      vertex 21.5418 -13.1411 19
      vertex 21.5418 -16.8589 19
    endloop
  endfacet
  facet normal 0 0 -1
    outer loop
      vertex 20.2723 -18.2919 19
      vertex 20.2723 -11.7081 19
      vertex 21.5418 -13.1411 19
    endloop
  endfacet
  facet normal 0 0 -1
    outer loop
      vertex 18.4821 -18.9708 19
      vertex 20.2723 -11.7081 19
      vertex 20.2723 -18.2919 19
    endloop
  endfacet
  facet normal 0 0 -1
    outer loop
      vertex 18.4821 -18.9708 19
      vertex 18.4821 -11.0292 19
      vertex 20.2723 -11.7081 19
    endloop
  endfacet
  facet normal 0 0 -1
    outer loop
      vertex 16.5816 -18.7401 19
      vertex 18.4821 -11.0292 19
      vertex 18.4821 -18.9708 19
    endloop
  endfacet
  facet normal 0 0 -1
    outer loop
      vertex 16.5816 -18.7401 19
      vertex 16.5816 -11.2599 19
      vertex 18.4821 -11.0292 19
    endloop
  endfacet
  facet normal 0 0 -1
    outer loop
      vertex 15.006 -17.6525 19
      vertex 16.5816 -11.2599 19
      vertex 16.5816 -18.7401 19
    endloop
  endfacet
  facet normal 0 0 -1
    outer loop
      vertex 15.006 -17.6525 19
      vertex 15.006 -12.3475 19
      vertex 16.5816 -11.2599 19
    endloop
  endfacet
  facet normal 0 0 -1
    outer loop
      vertex 14.1162 -15.9573 19
      vertex 15.006 -12.3475 19
      vertex 15.006 -17.6525 19
    endloop
  endfacet
  facet normal 0 0 -1
    outer loop
      vertex 15.006 -12.3475 19
      vertex 14.1162 -15.9573 19
      vertex 14.1162 -14.0427 19
    endloop
  endfacet
  facet normal 0.748518 0.663115 0
    outer loop
      vertex 21.5418 16.8589 22
      vertex 20.2723 18.2919 19
      vertex 20.2723 18.2919 22
    endloop
  endfacet
  facet normal 0.748518 0.663115 0
    outer loop
      vertex 20.2723 18.2919 19
      vertex 21.5418 16.8589 22
      vertex 21.5418 16.8589 19
    endloop
  endfacet
  facet normal 0.970939 0.239327 0
    outer loop
      vertex 22 15 22
      vertex 21.5418 16.8589 19
      vertex 21.5418 16.8589 22
    endloop
  endfacet
  facet normal 0.970939 0.239327 0
    outer loop
      vertex 21.5418 16.8589 19
      vertex 22 15 22
      vertex 22 15 19
    endloop
  endfacet
  facet normal -0.120505 -0.992713 0
    outer loop
      vertex 16.5816 11.2599 19
      vertex 18.4821 11.0292 22
      vertex 16.5816 11.2599 22
    endloop
  endfacet
  facet normal -0.120505 -0.992713 -0
    outer loop
      vertex 18.4821 11.0292 22
      vertex 16.5816 11.2599 19
      vertex 18.4821 11.0292 19
    endloop
  endfacet
  facet normal 0.970939 -0.239327 0
    outer loop
      vertex 21.5418 13.1411 22
      vertex 22 15 19
      vertex 22 15 22
    endloop
  endfacet
  facet normal 0.970939 -0.239327 0
    outer loop
      vertex 22 15 19
      vertex 21.5418 13.1411 22
      vertex 21.5418 13.1411 19
    endloop
  endfacet
  facet normal -0.56808 0.822974 0
    outer loop
      vertex 16.5816 18.7401 19
      vertex 15.006 17.6525 22
      vertex 16.5816 18.7401 22
    endloop
  endfacet
  facet normal -0.56808 0.822974 0
    outer loop
      vertex 15.006 17.6525 22
      vertex 16.5816 18.7401 19
      vertex 15.006 17.6525 19
    endloop
  endfacet
  facet normal 0.748518 -0.663115 0
    outer loop
      vertex 20.2723 11.7081 22
      vertex 21.5418 13.1411 19
      vertex 21.5418 13.1411 22
    endloop
  endfacet
  facet normal 0.748518 -0.663115 0
    outer loop
      vertex 21.5418 13.1411 19
      vertex 20.2723 11.7081 22
      vertex 20.2723 11.7081 19
    endloop
  endfacet
  facet normal -1 0 0
    outer loop
      vertex 14.1162 14.0427 19
      vertex 14.1162 15.9573 22
      vertex 14.1162 15.9573 19
    endloop
  endfacet
  facet normal -1 -0 0
    outer loop
      vertex 14.1162 15.9573 22
      vertex 14.1162 14.0427 19
      vertex 14.1162 14.0427 22
    endloop
  endfacet
  facet normal -0.885437 0.46476 0
    outer loop
      vertex 14.1162 15.9573 19
      vertex 15.006 17.6525 22
      vertex 15.006 17.6525 19
    endloop
  endfacet
  facet normal -0.885437 0.46476 0
    outer loop
      vertex 15.006 17.6525 22
      vertex 14.1162 15.9573 19
      vertex 14.1162 15.9573 22
    endloop
  endfacet
  facet normal 0.35459 -0.935022 0
    outer loop
      vertex 18.4821 11.0292 19
      vertex 20.2723 11.7081 22
      vertex 18.4821 11.0292 22
    endloop
  endfacet
  facet normal 0.35459 -0.935022 0
    outer loop
      vertex 20.2723 11.7081 22
      vertex 18.4821 11.0292 19
      vertex 20.2723 11.7081 19
    endloop
  endfacet
  facet normal -0.120505 0.992713 0
    outer loop
      vertex 18.4821 18.9708 19
      vertex 16.5816 18.7401 22
      vertex 18.4821 18.9708 22
    endloop
  endfacet
  facet normal -0.120505 0.992713 0
    outer loop
      vertex 16.5816 18.7401 22
      vertex 18.4821 18.9708 19
      vertex 16.5816 18.7401 19
    endloop
  endfacet
  facet normal 0.35459 0.935022 -0
    outer loop
      vertex 20.2723 18.2919 19
      vertex 18.4821 18.9708 22
      vertex 20.2723 18.2919 22
    endloop
  endfacet
  facet normal 0.35459 0.935022 0
    outer loop
      vertex 18.4821 18.9708 22
      vertex 20.2723 18.2919 19
      vertex 18.4821 18.9708 19
    endloop
  endfacet
  facet normal -0.56808 -0.822974 0
    outer loop
      vertex 15.006 12.3475 19
      vertex 16.5816 11.2599 22
      vertex 15.006 12.3475 22
    endloop
  endfacet
  facet normal -0.56808 -0.822974 -0
    outer loop
      vertex 16.5816 11.2599 22
      vertex 15.006 12.3475 19
      vertex 16.5816 11.2599 19
    endloop
  endfacet
  facet normal -0.885437 -0.46476 0
    outer loop
      vertex 15.006 12.3475 19
      vertex 14.1162 14.0427 22
      vertex 14.1162 14.0427 19
    endloop
  endfacet
  facet normal -0.885437 -0.46476 0
    outer loop
      vertex 14.1162 14.0427 22
      vertex 15.006 12.3475 19
      vertex 15.006 12.3475 22
    endloop
  endfacet
  facet normal 0 0 -1
    outer loop
      vertex 21.5418 13.1411 19
      vertex 21.5418 16.8589 19
      vertex 22 15 19
    endloop
  endfacet
  facet normal 0 0 -1
    outer loop
      vertex 20.2723 11.7081 19
      vertex 21.5418 16.8589 19
      vertex 21.5418 13.1411 19
    endloop
  endfacet
  facet normal 0 0 -1
    outer loop
      vertex 20.2723 11.7081 19
      vertex 20.2723 18.2919 19
      vertex 21.5418 16.8589 19
    endloop
  endfacet
  facet normal 0 0 -1
    outer loop
      vertex 18.4821 11.0292 19
      vertex 20.2723 18.2919 19
      vertex 20.2723 11.7081 19
    endloop
  endfacet
  facet normal 0 0 -1
    outer loop
      vertex 18.4821 11.0292 19
      vertex 18.4821 18.9708 19
      vertex 20.2723 18.2919 19
    endloop
  endfacet
  facet normal 0 0 -1
    outer loop
      vertex 16.5816 11.2599 19
      vertex 18.4821 18.9708 19
      vertex 18.4821 11.0292 19
    endloop
  endfacet
  facet normal 0 0 -1
    outer loop
      vertex 16.5816 11.2599 19
      vertex 16.5816 18.7401 19
      vertex 18.4821 18.9708 19
    endloop
  endfacet
  facet normal 0 0 -1
    outer loop
      vertex 15.006 12.3475 19
      vertex 16.5816 18.7401 19
      vertex 16.5816 11.2599 19
    endloop
  endfacet
  facet normal 0 0 -1
    outer loop
      vertex 15.006 12.3475 19
      vertex 15.006 17.6525 19
      vertex 16.5816 18.7401 19
    endloop
  endfacet
  facet normal 0 0 -1
    outer loop
      vertex 14.1162 14.0427 19
      vertex 15.006 17.6525 19
      vertex 15.006 12.3475 19
    endloop
  endfacet
  facet normal 0 0 -1
    outer loop
      vertex 15.006 17.6525 19
      vertex 14.1162 14.0427 19
      vertex 14.1162 15.9573 19
    endloop
  endfacet
  facet normal -0.56808 0.822974 0
    outer loop
      vertex 46.5816 -11.2599 19
      vertex 45.006 -12.3475 22
      vertex 46.5816 -11.2599 22
    endloop
  endfacet
  facet normal -0.56808 0.822974 0
    outer loop
      vertex 45.006 -12.3475 22
      vertex 46.5816 -11.2599 19
      vertex 45.006 -12.3475 19
    endloop
  endfacet
  facet normal 0.748518 0.663115 0
    outer loop
      vertex 51.5418 -13.1411 22
      vertex 50.2723 -11.7081 19
      vertex 50.2723 -11.7081 22
    endloop
  endfacet
  facet normal 0.748518 0.663115 0
    outer loop
      vertex 50.2723 -11.7081 19
      vertex 51.5418 -13.1411 22
      vertex 51.5418 -13.1411 19
    endloop
  endfacet
  facet normal 0.970939 0.239327 0
    outer loop
      vertex 52 -15 22
      vertex 51.5418 -13.1411 19
      vertex 51.5418 -13.1411 22
    endloop
  endfacet
  facet normal 0.970939 0.239327 0
    outer loop
      vertex 51.5418 -13.1411 19
      vertex 52 -15 22
      vertex 52 -15 19
    endloop
  endfacet
  facet normal -1 0 0
    outer loop
      vertex 44.1162 -15.9573 19
      vertex 44.1162 -14.0427 22
      vertex 44.1162 -14.0427 19
    endloop
  endfacet
  facet normal -1 -0 0
    outer loop
      vertex 44.1162 -14.0427 22
      vertex 44.1162 -15.9573 19
      vertex 44.1162 -15.9573 22
    endloop
  endfacet
  facet normal -0.885437 0.46476 0
    outer loop
      vertex 44.1162 -14.0427 19
      vertex 45.006 -12.3475 22
      vertex 45.006 -12.3475 19
    endloop
  endfacet
  facet normal -0.885437 0.46476 0
    outer loop
      vertex 45.006 -12.3475 22
      vertex 44.1162 -14.0427 19
      vertex 44.1162 -14.0427 22
    endloop
  endfacet
  facet normal 0.970939 -0.239327 0
    outer loop
      vertex 51.5418 -16.8589 22
      vertex 52 -15 19
      vertex 52 -15 22
    endloop
  endfacet
  facet normal 0.970939 -0.239327 0
    outer loop
      vertex 52 -15 19
      vertex 51.5418 -16.8589 22
      vertex 51.5418 -16.8589 19
    endloop
  endfacet
  facet normal -0.120505 -0.992713 0
    outer loop
      vertex 46.5816 -18.7401 19
      vertex 48.4821 -18.9708 22
      vertex 46.5816 -18.7401 22
    endloop
  endfacet
  facet normal -0.120505 -0.992713 -0
    outer loop
      vertex 48.4821 -18.9708 22
      vertex 46.5816 -18.7401 19
      vertex 48.4821 -18.9708 19
    endloop
  endfacet
  facet normal 0.748518 -0.663115 0
    outer loop
      vertex 50.2723 -18.2919 22
      vertex 51.5418 -16.8589 19
      vertex 51.5418 -16.8589 22
    endloop
  endfacet
  facet normal 0.748518 -0.663115 0
    outer loop
      vertex 51.5418 -16.8589 19
      vertex 50.2723 -18.2919 22
      vertex 50.2723 -18.2919 19
    endloop
  endfacet
  facet normal 0.35459 -0.935022 0
    outer loop
      vertex 48.4821 -18.9708 19
      vertex 50.2723 -18.2919 22
      vertex 48.4821 -18.9708 22
    endloop
  endfacet
  facet normal 0.35459 -0.935022 0
    outer loop
      vertex 50.2723 -18.2919 22
      vertex 48.4821 -18.9708 19
      vertex 50.2723 -18.2919 19
    endloop
  endfacet
  facet normal -0.120505 0.992713 0
    outer loop
      vertex 48.4821 -11.0292 19
      vertex 46.5816 -11.2599 22
      vertex 48.4821 -11.0292 22
    endloop
  endfacet
  facet normal -0.120505 0.992713 0
    outer loop
      vertex 46.5816 -11.2599 22
      vertex 48.4821 -11.0292 19
      vertex 46.5816 -11.2599 19
    endloop
  endfacet
  facet normal 0.35459 0.935022 -0
    outer loop
      vertex 50.2723 -11.7081 19
      vertex 48.4821 -11.0292 22
      vertex 50.2723 -11.7081 22
    endloop
  endfacet
  facet normal 0.35459 0.935022 0
    outer loop
      vertex 48.4821 -11.0292 22
      vertex 50.2723 -11.7081 19
      vertex 48.4821 -11.0292 19
    endloop
  endfacet
  facet normal -0.56808 -0.822974 0
    outer loop
      vertex 45.006 -17.6525 19
      vertex 46.5816 -18.7401 22
      vertex 45.006 -17.6525 22
    endloop
  endfacet
  facet normal -0.56808 -0.822974 -0
    outer loop
      vertex 46.5816 -18.7401 22
      vertex 45.006 -17.6525 19
      vertex 46.5816 -18.7401 19
    endloop
  endfacet
  facet normal -0.885437 -0.46476 0
    outer loop
      vertex 45.006 -17.6525 19
      vertex 44.1162 -15.9573 22
      vertex 44.1162 -15.9573 19
    endloop
  endfacet
  facet normal -0.885437 -0.46476 0
    outer loop
      vertex 44.1162 -15.9573 22
      vertex 45.006 -17.6525 19
      vertex 45.006 -17.6525 22
    endloop
  endfacet
  facet normal 0 0 -1
    outer loop
      vertex 51.5418 -16.8589 19
      vertex 51.5418 -13.1411 19
      vertex 52 -15 19
    endloop
  endfacet
  facet normal 0 0 -1
    outer loop
      vertex 50.2723 -18.2919 19
      vertex 51.5418 -13.1411 19
      vertex 51.5418 -16.8589 19
    endloop
  endfacet
  facet normal 0 0 -1
    outer loop
      vertex 50.2723 -18.2919 19
      vertex 50.2723 -11.7081 19
      vertex 51.5418 -13.1411 19
    endloop
  endfacet
  facet normal 0 0 -1
    outer loop
      vertex 48.4821 -18.9708 19
      vertex 50.2723 -11.7081 19
      vertex 50.2723 -18.2919 19
    endloop
  endfacet
  facet normal 0 0 -1
    outer loop
      vertex 48.4821 -18.9708 19
      vertex 48.4821 -11.0292 19
      vertex 50.2723 -11.7081 19
    endloop
  endfacet
  facet normal 0 0 -1
    outer loop
      vertex 46.5816 -18.7401 19
      vertex 48.4821 -11.0292 19
      vertex 48.4821 -18.9708 19
    endloop
  endfacet
  facet normal 0 0 -1
    outer loop
      vertex 46.5816 -18.7401 19
      vertex 46.5816 -11.2599 19
      vertex 48.4821 -11.0292 19
    endloop
  endfacet
  facet normal 0 0 -1
    outer loop
      vertex 45.006 -17.6525 19
      vertex 46.5816 -11.2599 19
      vertex 46.5816 -18.7401 19
    endloop
  endfacet
  facet normal 0 0 -1
    outer loop
      vertex 45.006 -17.6525 19
      vertex 45.006 -12.3475 19
      vertex 46.5816 -11.2599 19
    endloop
  endfacet
  facet normal 0 0 -1
    outer loop
      vertex 44.1162 -15.9573 19
      vertex 45.006 -12.3475 19
      vertex 45.006 -17.6525 19
    endloop
  endfacet
  facet normal 0 0 -1
    outer loop
      vertex 45.006 -12.3475 19
      vertex 44.1162 -15.9573 19
      vertex 44.1162 -14.0427 19
    endloop
  endfacet
  facet normal -0.56808 0.822974 0
    outer loop
      vertex 46.5816 18.7401 19
      vertex 45.006 17.6525 22
      vertex 46.5816 18.7401 22
    endloop
  endfacet
  facet normal -0.56808 0.822974 0
    outer loop
      vertex 45.006 17.6525 22
      vertex 46.5816 18.7401 19
      vertex 45.006 17.6525 19
    endloop
  endfacet
  facet normal 0.748518 0.663115 0
    outer loop
      vertex 51.5418 16.8589 22
      vertex 50.2723 18.2919 19
      vertex 50.2723 18.2919 22
    endloop
  endfacet
  facet normal 0.748518 0.663115 0
    outer loop
      vertex 50.2723 18.2919 19
      vertex 51.5418 16.8589 22
      vertex 51.5418 16.8589 19
    endloop
  endfacet
  facet normal 0.970939 0.239327 0
    outer loop
      vertex 52 15 22
      vertex 51.5418 16.8589 19
      vertex 51.5418 16.8589 22
    endloop
  endfacet
  facet normal 0.970939 0.239327 0
    outer loop
      vertex 51.5418 16.8589 19
      vertex 52 15 22
      vertex 52 15 19
    endloop
  endfacet
  facet normal -1 0 0
    outer loop
      vertex 44.1162 14.0427 19
      vertex 44.1162 15.9573 22
      vertex 44.1162 15.9573 19
    endloop
  endfacet
  facet normal -1 -0 0
    outer loop
      vertex 44.1162 15.9573 22
      vertex 44.1162 14.0427 19
      vertex 44.1162 14.0427 22
    endloop
  endfacet
  facet normal -0.885437 0.46476 0
    outer loop
      vertex 44.1162 15.9573 19
      vertex 45.006 17.6525 22
      vertex 45.006 17.6525 19
    endloop
  endfacet
  facet normal -0.885437 0.46476 0
    outer loop
      vertex 45.006 17.6525 22
      vertex 44.1162 15.9573 19
      vertex 44.1162 15.9573 22
    endloop
  endfacet
  facet normal 0.35459 0.935022 -0
    outer loop
      vertex 50.2723 18.2919 19
      vertex 48.4821 18.9708 22
      vertex 50.2723 18.2919 22
    endloop
  endfacet
  facet normal 0.35459 0.935022 0
    outer loop
      vertex 48.4821 18.9708 22
      vertex 50.2723 18.2919 19
      vertex 48.4821 18.9708 19
    endloop
  endfacet
  facet normal 0.970939 -0.239327 0
    outer loop
      vertex 51.5418 13.1411 22
      vertex 52 15 19
      vertex 52 15 22
    endloop
  endfacet
  facet normal 0.970939 -0.239327 0
    outer loop
      vertex 52 15 19
      vertex 51.5418 13.1411 22
      vertex 51.5418 13.1411 19
    endloop
  endfacet
  facet normal -0.120505 -0.992713 0
    outer loop
      vertex 46.5816 11.2599 19
      vertex 48.4821 11.0292 22
      vertex 46.5816 11.2599 22
    endloop
  endfacet
  facet normal -0.120505 -0.992713 -0
    outer loop
      vertex 48.4821 11.0292 22
      vertex 46.5816 11.2599 19
      vertex 48.4821 11.0292 19
    endloop
  endfacet
  facet normal 0.748518 -0.663115 0
    outer loop
      vertex 50.2723 11.7081 22
      vertex 51.5418 13.1411 19
      vertex 51.5418 13.1411 22
    endloop
  endfacet
  facet normal 0.748518 -0.663115 0
    outer loop
      vertex 51.5418 13.1411 19
      vertex 50.2723 11.7081 22
      vertex 50.2723 11.7081 19
    endloop
  endfacet
  facet normal 0.35459 -0.935022 0
    outer loop
      vertex 48.4821 11.0292 19
      vertex 50.2723 11.7081 22
      vertex 48.4821 11.0292 22
    endloop
  endfacet
  facet normal 0.35459 -0.935022 0
    outer loop
      vertex 50.2723 11.7081 22
      vertex 48.4821 11.0292 19
      vertex 50.2723 11.7081 19
    endloop
  endfacet
  facet normal -0.120505 0.992713 0
    outer loop
      vertex 48.4821 18.9708 19
      vertex 46.5816 18.7401 22
      vertex 48.4821 18.9708 22
    endloop
  endfacet
  facet normal -0.120505 0.992713 0
    outer loop
      vertex 46.5816 18.7401 22
      vertex 48.4821 18.9708 19
      vertex 46.5816 18.7401 19
    endloop
  endfacet
  facet normal -0.56808 -0.822974 0
    outer loop
      vertex 45.006 12.3475 19
      vertex 46.5816 11.2599 22
      vertex 45.006 12.3475 22
    endloop
  endfacet
  facet normal -0.56808 -0.822974 -0
    outer loop
      vertex 46.5816 11.2599 22
      vertex 45.006 12.3475 19
      vertex 46.5816 11.2599 19
    endloop
  endfacet
  facet normal -0.885437 -0.46476 0
    outer loop
      vertex 45.006 12.3475 19
      vertex 44.1162 14.0427 22
      vertex 44.1162 14.0427 19
    endloop
  endfacet
  facet normal -0.885437 -0.46476 0
    outer loop
      vertex 44.1162 14.0427 22
      vertex 45.006 12.3475 19
      vertex 45.006 12.3475 22
    endloop
  endfacet
  facet normal 0 0 -1
    outer loop
      vertex 51.5418 13.1411 19
      vertex 51.5418 16.8589 19
      vertex 52 15 19
    endloop
  endfacet
  facet normal 0 0 -1
    outer loop
      vertex 50.2723 11.7081 19
      vertex 51.5418 16.8589 19
      vertex 51.5418 13.1411 19
    endloop
  endfacet
  facet normal 0 0 -1
    outer loop
      vertex 50.2723 11.7081 19
      vertex 50.2723 18.2919 19
      vertex 51.5418 16.8589 19
    endloop
  endfacet
  facet normal 0 0 -1
    outer loop
      vertex 48.4821 11.0292 19
      vertex 50.2723 18.2919 19
      vertex 50.2723 11.7081 19
    endloop
  endfacet
  facet normal 0 0 -1
    outer loop
      vertex 48.4821 11.0292 19
      vertex 48.4821 18.9708 19
      vertex 50.2723 18.2919 19
    endloop
  endfacet
  facet normal 0 0 -1
    outer loop
      vertex 46.5816 11.2599 19
      vertex 48.4821 18.9708 19
      vertex 48.4821 11.0292 19
    endloop
  endfacet
  facet normal 0 0 -1
    outer loop
      vertex 46.5816 11.2599 19
      vertex 46.5816 18.7401 19
      vertex 48.4821 18.9708 19
    endloop
  endfacet
  facet normal 0 0 -1
    outer loop
      vertex 45.006 12.3475 19
      vertex 46.5816 18.7401 19
      vertex 46.5816 11.2599 19
    endloop
  endfacet
  facet normal 0 0 -1
    outer loop
      vertex 45.006 12.3475 19
      vertex 45.006 17.6525 19
      vertex 46.5816 18.7401 19
    endloop
  endfacet
  facet normal 0 0 -1
    outer loop
      vertex 44.1162 14.0427 19
      vertex 45.006 17.6525 19
      vertex 45.006 12.3475 19
    endloop
  endfacet
  facet normal 0 0 -1
    outer loop
      vertex 45.006 17.6525 19
      vertex 44.1162 14.0427 19
      vertex 44.1162 15.9573 19
    endloop
  endfacet
  facet normal 1 -0 0
    outer loop
      vertex 60 -19.5 26.1
      vertex 60 19.5 22
      vertex 60 19.5 26.1
    endloop
  endfacet
  facet normal 1 0 0
    outer loop
      vertex 60 19.5 22
      vertex 60 -19.5 26.1
      vertex 60 -19.5 22
    endloop
  endfacet
  facet normal -1 0 0
    outer loop
      vertex 6 19.5 22
      vertex 6 6 26.1
      vertex 6 19.5 26.1
    endloop
  endfacet
  facet normal -1 0 0
    outer loop
      vertex 6 6 26.1
      vertex 6 -6 26.1
      vertex 6 6 27
    endloop
  endfacet
  facet normal -1 0 0
    outer loop
      vertex 6 19.5 22
      vertex 6 -6 26.1
      vertex 6 6 26.1
    endloop
  endfacet
  facet normal -1 0 0
    outer loop
      vertex 6 -19.5 22
      vertex 6 -6 26.1
      vertex 6 19.5 22
    endloop
  endfacet
  facet normal -1 -0 0
    outer loop
      vertex 6 -6 26.1
      vertex 6 -19.5 22
      vertex 6 -19.5 26.1
    endloop
  endfacet
  facet normal -1 -0 0
    outer loop
      vertex 6 6 27
      vertex 6 -6 26.1
      vertex 6 -6 27
    endloop
  endfacet
  facet normal 0 1 0
    outer loop
      vertex 60 19.5 26.1
      vertex 47 19.5 25
      vertex 47 19.5 26.1
    endloop
  endfacet
  facet normal 0 1 0
    outer loop
      vertex 60 19.5 22
      vertex 43 19.5 25
      vertex 47 19.5 25
    endloop
  endfacet
  facet normal 0 1 0
    outer loop
      vertex 43 19.5 25
      vertex 60 19.5 22
      vertex 41 19.5 25
    endloop
  endfacet
  facet normal 0 1 0
    outer loop
      vertex 41 19.5 25
      vertex 60 19.5 22
      vertex 37 19.5 25
    endloop
  endfacet
  facet normal 0 1 0
    outer loop
      vertex 37 19.5 25
      vertex 60 19.5 22
      vertex 35 19.5 25
    endloop
  endfacet
  facet normal 0 1 0
    outer loop
      vertex 35 19.5 25
      vertex 60 19.5 22
      vertex 31 19.5 25
    endloop
  endfacet
  facet normal 0 1 0
    outer loop
      vertex 6 19.5 22
      vertex 31 19.5 25
      vertex 60 19.5 22
    endloop
  endfacet
  facet normal 0 1 0
    outer loop
      vertex 31 19.5 25
      vertex 6 19.5 22
      vertex 29 19.5 25
    endloop
  endfacet
  facet normal 0 1 0
    outer loop
      vertex 29 19.5 25
      vertex 6 19.5 22
      vertex 25 19.5 25
    endloop
  endfacet
  facet normal 0 1 0
    outer loop
      vertex 23 19.5 25
      vertex 6 19.5 22
      vertex 19 19.5 25
    endloop
  endfacet
  facet normal 0 1 0
    outer loop
      vertex 19 19.5 25
      vertex 6 19.5 22
      vertex 17 19.5 25
    endloop
  endfacet
  facet normal 0 1 0
    outer loop
      vertex 25 19.5 25
      vertex 6 19.5 22
      vertex 23 19.5 25
    endloop
  endfacet
  facet normal 0 1 -0
    outer loop
      vertex 60 19.5 22
      vertex 47 19.5 25
      vertex 60 19.5 26.1
    endloop
  endfacet
  facet normal 0 1 -0
    outer loop
      vertex 43 19.5 25
      vertex 41 19.5 26.1
      vertex 43 19.5 26.1
    endloop
  endfacet
  facet normal 0 1 0
    outer loop
      vertex 41 19.5 26.1
      vertex 43 19.5 25
      vertex 41 19.5 25
    endloop
  endfacet
  facet normal 0 1 -0
    outer loop
      vertex 37 19.5 25
      vertex 35 19.5 26.1
      vertex 37 19.5 26.1
    endloop
  endfacet
  facet normal 0 1 0
    outer loop
      vertex 35 19.5 26.1
      vertex 37 19.5 25
      vertex 35 19.5 25
    endloop
  endfacet
  facet normal 0 1 -0
    outer loop
      vertex 31 19.5 25
      vertex 29 19.5 26.1
      vertex 31 19.5 26.1
    endloop
  endfacet
  facet normal 0 1 0
    outer loop
      vertex 29 19.5 26.1
      vertex 31 19.5 25
      vertex 29 19.5 25
    endloop
  endfacet
  facet normal 0 1 -0
    outer loop
      vertex 25 19.5 25
      vertex 23 19.5 26.1
      vertex 25 19.5 26.1
    endloop
  endfacet
  facet normal 0 1 0
    outer loop
      vertex 23 19.5 26.1
      vertex 25 19.5 25
      vertex 23 19.5 25
    endloop
  endfacet
  facet normal 0 1 -0
    outer loop
      vertex 19 19.5 25
      vertex 17 19.5 26.1
      vertex 19 19.5 26.1
    endloop
  endfacet
  facet normal 0 1 0
    outer loop
      vertex 17 19.5 26.1
      vertex 19 19.5 25
      vertex 17 19.5 25
    endloop
  endfacet
  facet normal 0 1 -0
    outer loop
      vertex 13 19.5 25
      vertex 6 19.5 26.1
      vertex 13 19.5 26.1
    endloop
  endfacet
  facet normal 0 1 0
    outer loop
      vertex 13 19.5 25
      vertex 6 19.5 22
      vertex 6 19.5 26.1
    endloop
  endfacet
  facet normal 0 1 0
    outer loop
      vertex 17 19.5 25
      vertex 6 19.5 22
      vertex 13 19.5 25
    endloop
  endfacet
  facet normal 0 -1 0
    outer loop
      vertex 6 -19.5 26.1
      vertex 13 -19.5 25
      vertex 13 -19.5 26.1
    endloop
  endfacet
  facet normal 0 -1 0
    outer loop
      vertex 6 -19.5 22
      vertex 17 -19.5 25
      vertex 13 -19.5 25
    endloop
  endfacet
  facet normal 0 -1 -0
    outer loop
      vertex 17 -19.5 25
      vertex 6 -19.5 22
      vertex 19 -19.5 25
    endloop
  endfacet
  facet normal 0 -1 -0
    outer loop
      vertex 19 -19.5 25
      vertex 6 -19.5 22
      vertex 23 -19.5 25
    endloop
  endfacet
  facet normal 0 -1 -0
    outer loop
      vertex 23 -19.5 25
      vertex 6 -19.5 22
      vertex 25 -19.5 25
    endloop
  endfacet
  facet normal 0 -1 -0
    outer loop
      vertex 25 -19.5 25
      vertex 6 -19.5 22
      vertex 29 -19.5 25
    endloop
  endfacet
  facet normal 0 -1 -0
    outer loop
      vertex 29 -19.5 25
      vertex 6 -19.5 22
      vertex 31 -19.5 25
    endloop
  endfacet
  facet normal 0 -1 -0
    outer loop
      vertex 31 -19.5 25
      vertex 6 -19.5 22
      vertex 35 -19.5 25
    endloop
  endfacet
  facet normal 0 -1 0
    outer loop
      vertex 60 -19.5 22
      vertex 35 -19.5 25
      vertex 6 -19.5 22
    endloop
  endfacet
  facet normal 0 -1 0
    outer loop
      vertex 35 -19.5 25
      vertex 60 -19.5 22
      vertex 37 -19.5 25
    endloop
  endfacet
  facet normal 0 -1 0
    outer loop
      vertex 37 -19.5 25
      vertex 60 -19.5 22
      vertex 41 -19.5 25
    endloop
  endfacet
  facet normal 0 -1 0
    outer loop
      vertex 41 -19.5 25
      vertex 60 -19.5 22
      vertex 43 -19.5 25
    endloop
  endfacet
  facet normal 0 -1 0
    outer loop
      vertex 6 -19.5 22
      vertex 13 -19.5 25
      vertex 6 -19.5 26.1
    endloop
  endfacet
  facet normal 0 -1 0
    outer loop
      vertex 17 -19.5 25
      vertex 19 -19.5 26.1
      vertex 17 -19.5 26.1
    endloop
  endfacet
  facet normal 0 -1 -0
    outer loop
      vertex 19 -19.5 26.1
      vertex 17 -19.5 25
      vertex 19 -19.5 25
    endloop
  endfacet
  facet normal 0 -1 0
    outer loop
      vertex 23 -19.5 25
      vertex 25 -19.5 26.1
      vertex 23 -19.5 26.1
    endloop
  endfacet
  facet normal 0 -1 -0
    outer loop
      vertex 25 -19.5 26.1
      vertex 23 -19.5 25
      vertex 25 -19.5 25
    endloop
  endfacet
  facet normal 0 -1 0
    outer loop
      vertex 29 -19.5 25
      vertex 31 -19.5 26.1
      vertex 29 -19.5 26.1
    endloop
  endfacet
  facet normal 0 -1 -0
    outer loop
      vertex 31 -19.5 26.1
      vertex 29 -19.5 25
      vertex 31 -19.5 25
    endloop
  endfacet
  facet normal 0 -1 0
    outer loop
      vertex 35 -19.5 25
      vertex 37 -19.5 26.1
      vertex 35 -19.5 26.1
    endloop
  endfacet
  facet normal 0 -1 -0
    outer loop
      vertex 37 -19.5 26.1
      vertex 35 -19.5 25
      vertex 37 -19.5 25
    endloop
  endfacet
  facet normal 0 -1 0
    outer loop
      vertex 41 -19.5 25
      vertex 43 -19.5 26.1
      vertex 41 -19.5 26.1
    endloop
  endfacet
  facet normal 0 -1 -0
    outer loop
      vertex 43 -19.5 26.1
      vertex 41 -19.5 25
      vertex 43 -19.5 25
    endloop
  endfacet
  facet normal 0 -1 0
    outer loop
      vertex 47 -19.5 25
      vertex 60 -19.5 26.1
      vertex 47 -19.5 26.1
    endloop
  endfacet
  facet normal 0 -1 0
    outer loop
      vertex 47 -19.5 25
      vertex 60 -19.5 22
      vertex 60 -19.5 26.1
    endloop
  endfacet
  facet normal 0 -1 0
    outer loop
      vertex 43 -19.5 25
      vertex 60 -19.5 22
      vertex 47 -19.5 25
    endloop
  endfacet
  facet normal 0 0 1
    outer loop
      vertex 25 19.5 26.1
      vertex 23 19.5 26.1
      vertex 25 16 26.1
    endloop
  endfacet
  facet normal 0 0 1
    outer loop
      vertex 31 19.5 26.1
      vertex 29 19.5 26.1
      vertex 31 16 26.1
    endloop
  endfacet
  facet normal 0 0 1
    outer loop
      vertex 41 -16 26.1
      vertex 34 -3 26.1
      vertex 37 -16 26.1
    endloop
  endfacet
  facet normal -0 0 1
    outer loop
      vertex 31 16 26.1
      vertex 34 9 26.1
      vertex 35 16 26.1
    endloop
  endfacet
  facet normal 0 0 1
    outer loop
      vertex 29 16 26.1
      vertex 31 16 26.1
      vertex 29 19.5 26.1
    endloop
  endfacet
  facet normal 0 0 1
    outer loop
      vertex 31 16 26.1
      vertex 29 16 26.1
      vertex 34 9 26.1
    endloop
  endfacet
  facet normal 0 0 1
    outer loop
      vertex 22 9 26.1
      vertex 29 16 26.1
      vertex 25 16 26.1
    endloop
  endfacet
  facet normal 0 0 1
    outer loop
      vertex 23 16 26.1
      vertex 25 16 26.1
      vertex 23 19.5 26.1
    endloop
  endfacet
  facet normal 0 0 1
    outer loop
      vertex 22 9 26.1
      vertex 25 16 26.1
      vertex 23 16 26.1
    endloop
  endfacet
  facet normal 0 0 1
    outer loop
      vertex 29 16 26.1
      vertex 22 9 26.1
      vertex 34 9 26.1
    endloop
  endfacet
  facet normal -0 0 1
    outer loop
      vertex 17 16 26.1
      vertex 22 9 26.1
      vertex 19 16 26.1
    endloop
  endfacet
  facet normal -0 0 1
    outer loop
      vertex 19 16 26.1
      vertex 22 9 26.1
      vertex 23 16 26.1
    endloop
  endfacet
  facet normal 0 0 1
    outer loop
      vertex 35 16 26.1
      vertex 37 16 26.1
      vertex 37 19.5 26.1
    endloop
  endfacet
  facet normal 0 0 1
    outer loop
      vertex 34 9 26.1
      vertex 37 16 26.1
      vertex 35 16 26.1
    endloop
  endfacet
  facet normal 0 0 1
    outer loop
      vertex 35 16 26.1
      vertex 37 19.5 26.1
      vertex 35 19.5 26.1
    endloop
  endfacet
  facet normal 0 0 1
    outer loop
      vertex 43 -16 26.1
      vertex 34 -3 26.1
      vertex 41 -16 26.1
    endloop
  endfacet
  facet normal 0 0 1
    outer loop
      vertex 37 -16 26.1
      vertex 35 -16 26.1
      vertex 37 -19.5 26.1
    endloop
  endfacet
  facet normal 0 0 1
    outer loop
      vertex 37 -19.5 26.1
      vertex 35 -16 26.1
      vertex 35 -19.5 26.1
    endloop
  endfacet
  facet normal 0 0 1
    outer loop
      vertex 34 9 26.1
      vertex 41 16 26.1
      vertex 37 16 26.1
    endloop
  endfacet
  facet normal 0 0 1
    outer loop
      vertex 47 -16 26.1
      vertex 34 -3 26.1
      vertex 43 -16 26.1
    endloop
  endfacet
  facet normal 0 0 1
    outer loop
      vertex 41 16 26.1
      vertex 43 16 26.1
      vertex 43 19.5 26.1
    endloop
  endfacet
  facet normal 0 0 1
    outer loop
      vertex 34 9 26.1
      vertex 43 16 26.1
      vertex 41 16 26.1
    endloop
  endfacet
  facet normal 0 0 1
    outer loop
      vertex 41 16 26.1
      vertex 43 19.5 26.1
      vertex 41 19.5 26.1
    endloop
  endfacet
  facet normal 0 0 1
    outer loop
      vertex 47 16 26.1
      vertex 34 -3 26.1
      vertex 47 -16 26.1
    endloop
  endfacet
  facet normal 0 0 1
    outer loop
      vertex 43 -16 26.1
      vertex 41 -16 26.1
      vertex 43 -19.5 26.1
    endloop
  endfacet
  facet normal 0 0 1
    outer loop
      vertex 43 -19.5 26.1
      vertex 41 -16 26.1
      vertex 41 -19.5 26.1
    endloop
  endfacet
  facet normal 0 0 1
    outer loop
      vertex 34 9 26.1
      vertex 47 16 26.1
      vertex 43 16 26.1
    endloop
  endfacet
  facet normal 0 0 1
    outer loop
      vertex 34 -3 26.1
      vertex 47 16 26.1
      vertex 34 9 26.1
    endloop
  endfacet
  facet normal 0 0 1
    outer loop
      vertex 47 16 26.1
      vertex 60 19.5 26.1
      vertex 47 19.5 26.1
    endloop
  endfacet
  facet normal 0 0 1
    outer loop
      vertex 60 19.5 26.1
      vertex 47 16 26.1
      vertex 60 -19.5 26.1
    endloop
  endfacet
  facet normal -0 0 1
    outer loop
      vertex 47 -16 26.1
      vertex 60 -19.5 26.1
      vertex 47 16 26.1
    endloop
  endfacet
  facet normal 0 0 1
    outer loop
      vertex 60 -19.5 26.1
      vertex 47 -16 26.1
      vertex 47 -19.5 26.1
    endloop
  endfacet
  facet normal 0 0 1
    outer loop
      vertex 37 -16 26.1
      vertex 34 -3 26.1
      vertex 35 -16 26.1
    endloop
  endfacet
  facet normal 0 0 1
    outer loop
      vertex 34 -3 26.1
      vertex 31 -16 26.1
      vertex 35 -16 26.1
    endloop
  endfacet
  facet normal 0 0 1
    outer loop
      vertex 31 -16 26.1
      vertex 29 -16 26.1
      vertex 31 -19.5 26.1
    endloop
  endfacet
  facet normal 0 0 1
    outer loop
      vertex 34 -3 26.1
      vertex 29 -16 26.1
      vertex 31 -16 26.1
    endloop
  endfacet
  facet normal -0 0 1
    outer loop
      vertex 22 -3 26.1
      vertex 29 -16 26.1
      vertex 34 -3 26.1
    endloop
  endfacet
  facet normal 0 0 1
    outer loop
      vertex 25 -16 26.1
      vertex 23 -16 26.1
      vertex 25 -19.5 26.1
    endloop
  endfacet
  facet normal 0 0 1
    outer loop
      vertex 29 -16 26.1
      vertex 22 -3 26.1
      vertex 25 -16 26.1
    endloop
  endfacet
  facet normal 0 0 1
    outer loop
      vertex 25 -16 26.1
      vertex 22 -3 26.1
      vertex 23 -16 26.1
    endloop
  endfacet
  facet normal 0 0 1
    outer loop
      vertex 22 9 26.1
      vertex 17 16 26.1
      vertex 12 6 26.1
    endloop
  endfacet
  facet normal 0 0 1
    outer loop
      vertex 22 -3 26.1
      vertex 19 -16 26.1
      vertex 23 -16 26.1
    endloop
  endfacet
  facet normal 0 0 1
    outer loop
      vertex 31 -19.5 26.1
      vertex 29 -16 26.1
      vertex 29 -19.5 26.1
    endloop
  endfacet
  facet normal -0 0 1
    outer loop
      vertex 6 19.5 26.1
      vertex 13 16 26.1
      vertex 13 19.5 26.1
    endloop
  endfacet
  facet normal 0 0 1
    outer loop
      vertex 12 -6 26.1
      vertex 22 -3 26.1
      vertex 12 6 26.1
    endloop
  endfacet
  facet normal 0 0 1
    outer loop
      vertex 22 -3 26.1
      vertex 12 -6 26.1
      vertex 13 -16 26.1
    endloop
  endfacet
  facet normal 0 0 1
    outer loop
      vertex 6 6 26.1
      vertex 13 16 26.1
      vertex 6 19.5 26.1
    endloop
  endfacet
  facet normal 0 0 1
    outer loop
      vertex 13 16 26.1
      vertex 6 6 26.1
      vertex 12 6 26.1
    endloop
  endfacet
  facet normal 0 0 1
    outer loop
      vertex 22 9 26.1
      vertex 12 6 26.1
      vertex 22 -3 26.1
    endloop
  endfacet
  facet normal 0 0 1
    outer loop
      vertex 22 -3 26.1
      vertex 13 -16 26.1
      vertex 17 -16 26.1
    endloop
  endfacet
  facet normal 0 0 1
    outer loop
      vertex 17 16 26.1
      vertex 19 16 26.1
      vertex 19 19.5 26.1
    endloop
  endfacet
  facet normal 0 0 1
    outer loop
      vertex 12 6 26.1
      vertex 17 16 26.1
      vertex 13 16 26.1
    endloop
  endfacet
  facet normal 0 0 1
    outer loop
      vertex 17 16 26.1
      vertex 19 19.5 26.1
      vertex 17 19.5 26.1
    endloop
  endfacet
  facet normal 0 0 1
    outer loop
      vertex 22 -3 26.1
      vertex 17 -16 26.1
      vertex 19 -16 26.1
    endloop
  endfacet
  facet normal 0 0 1
    outer loop
      vertex 19 -16 26.1
      vertex 17 -16 26.1
      vertex 19 -19.5 26.1
    endloop
  endfacet
  facet normal 0 0 1
    outer loop
      vertex 19 -19.5 26.1
      vertex 17 -16 26.1
      vertex 17 -19.5 26.1
    endloop
  endfacet
  facet normal -0 0 1
    outer loop
      vertex 6 -6 26.1
      vertex 13 -16 26.1
      vertex 12 -6 26.1
    endloop
  endfacet
  facet normal 0 0 1
    outer loop
      vertex 13 -16 26.1
      vertex 6 -6 26.1
      vertex 6 -19.5 26.1
    endloop
  endfacet
  facet normal 0 0 1
    outer loop
      vertex 13 -16 26.1
      vertex 6 -19.5 26.1
      vertex 13 -19.5 26.1
    endloop
  endfacet
  facet normal 0 0 1
    outer loop
      vertex 25 -19.5 26.1
      vertex 23 -16 26.1
      vertex 23 -19.5 26.1
    endloop
  endfacet
  facet normal 1 -0 0
    outer loop
      vertex 34 -3 28.6
      vertex 34 9 26.1
      vertex 34 9 28.6
    endloop
  endfacet
  facet normal 1 0 0
    outer loop
      vertex 34 9 26.1
      vertex 34 -3 28.6
      vertex 34 -3 26.1
    endloop
  endfacet
  facet normal -0 0 1
    outer loop
      vertex 22 9 28.6
      vertex 34 -3 28.6
      vertex 34 9 28.6
    endloop
  endfacet
  facet normal 0 0 1
    outer loop
      vertex 34 -3 28.6
      vertex 22 9 28.6
      vertex 22 -3 28.6
    endloop
  endfacet
  facet normal -1 0 0
    outer loop
      vertex 22 -3 26.1
      vertex 22 9 28.6
      vertex 22 9 26.1
    endloop
  endfacet
  facet normal -1 -0 0
    outer loop
      vertex 22 9 28.6
      vertex 22 -3 26.1
      vertex 22 -3 28.6
    endloop
  endfacet
  facet normal 0 1 -0
    outer loop
      vertex 34 9 26.1
      vertex 22 9 28.6
      vertex 34 9 28.6
    endloop
  endfacet
  facet normal 0 1 0
    outer loop
      vertex 22 9 28.6
      vertex 34 9 26.1
      vertex 22 9 26.1
    endloop
  endfacet
  facet normal 0 -1 0
    outer loop
      vertex 22 -3 26.1
      vertex 34 -3 28.6
      vertex 22 -3 28.6
    endloop
  endfacet
  facet normal 0 -1 -0
    outer loop
      vertex 34 -3 28.6
      vertex 22 -3 26.1
      vertex 34 -3 26.1
    endloop
  endfacet
  facet normal 1 -0 0
    outer loop
      vertex 12 -6 27
      vertex 12 6 26.1
      vertex 12 6 27
    endloop
  endfacet
  facet normal 1 0 0
    outer loop
      vertex 12 6 26.1
      vertex 12 -6 27
      vertex 12 -6 26.1
    endloop
  endfacet
  facet normal -0 0 1
    outer loop
      vertex 6 6 27
      vertex 12 -6 27
      vertex 12 6 27
    endloop
  endfacet
  facet normal 0 0 1
    outer loop
      vertex 12 -6 27
      vertex 6 6 27
      vertex 6 -6 27
    endloop
  endfacet
  facet normal 0 1 -0
    outer loop
      vertex 12 6 26.1
      vertex 6 6 27
      vertex 12 6 27
    endloop
  endfacet
  facet normal 0 1 0
    outer loop
      vertex 6 6 27
      vertex 12 6 26.1
      vertex 6 6 26.1
    endloop
  endfacet
  facet normal 0 -1 0
    outer loop
      vertex 6 -6 26.1
      vertex 12 -6 27
      vertex 6 -6 27
    endloop
  endfacet
  facet normal 0 -1 -0
    outer loop
      vertex 12 -6 27
      vertex 6 -6 26.1
      vertex 12 -6 26.1
    endloop
  endfacet
endsolid OpenSCAD_Model
